<svg width="12" height="16" viewBox="0 0 12 16" fill="none" xmlns="http://www.w3.org/2000/svg">
<path d="M2.84161 12.0117L2.12021 12.5776L1.8125 11.7143L2.5339 11.1484L2.84161 12.0117Z" fill="#F7D909"/>
<mask id="mask0_221_401" style="mask-type:luminance" maskUnits="userSpaceOnUse" x="7" y="5" width="4" height="5">
<path d="M9.77603 5.46875L7.54688 7.21584L8.40332 9.65013L10.6325 7.90134L9.77603 5.46875Z" fill="white"/>
</mask>
<g mask="url(#mask0_221_401)">
<path d="M7.54688 9.33984L10.6325 9.54498V9.65097H7.54688V9.33984Z" fill="#E7C012"/>
<path d="M7.54688 9.25L10.6325 9.45514V9.54574L7.54688 9.3406V9.25Z" fill="#E7C012"/>
<path d="M7.54688 9.15625L10.6325 9.36139V9.45199L7.54688 9.24685V9.15625Z" fill="#E7C112"/>
<path d="M7.54688 9.07031L10.6325 9.27545V9.36605L7.54688 9.16091V9.07031Z" fill="#E8C211"/>
<path d="M7.54688 8.97656L10.6325 9.18341V9.27401L7.54688 9.06887V8.97656Z" fill="#E8C311"/>
<path d="M7.54688 8.88281L10.6325 9.08795V9.18026L7.54688 8.97342V8.88281Z" fill="#E9C411"/>
<path d="M7.54688 8.79688L10.6325 9.00201V9.09261L7.54688 8.88748V8.79688Z" fill="#E9C510"/>
<path d="M7.54688 8.70312L10.6325 8.90826V8.99886L7.54688 8.79373V8.70312Z" fill="#EAC610"/>
<path d="M7.54688 8.60938L10.6325 8.81451V8.90511L7.54688 8.69998V8.60938Z" fill="#EAC710"/>
<path d="M7.54688 8.51953L10.6325 8.72638V8.81698L7.54688 8.61184V8.51953Z" fill="#EBC810"/>
<path d="M7.54688 8.42969L10.6325 8.63482V8.72714L7.54688 8.52029V8.42969Z" fill="#EBC90F"/>
<path d="M7.54688 8.33594L10.6325 8.54107V8.63168L7.54688 8.42654V8.33594Z" fill="#ECCA0F"/>
<path d="M7.54688 8.25L10.6325 8.45514V8.54574L7.54688 8.3406V8.25Z" fill="#ECCB0F"/>
<path d="M7.54688 8.15625L10.6325 8.36139V8.45199L7.54688 8.24685V8.15625Z" fill="#ECCC0E"/>
<path d="M7.54688 8.0625L10.6325 8.26764V8.35995L7.54688 8.15481V8.0625Z" fill="#EDCD0E"/>
<path d="M7.54688 7.97656L10.6325 8.1817V8.2723L7.54688 8.06716V7.97656Z" fill="#EDCE0E"/>
<path d="M7.54688 7.88281L10.6325 8.08795V8.17855L7.54688 7.97341V7.88281Z" fill="#EECF0D"/>
<path d="M7.54688 7.79688L10.6325 8.00201V8.09261L7.54688 7.88748V7.79688Z" fill="#EED00D"/>
<path d="M7.54688 7.70312L10.6325 7.90997V8.00057L7.54688 7.79544V7.70312Z" fill="#EFD20D"/>
<path d="M7.54688 7.60938L10.6325 7.81451V7.90682L7.54688 7.69998V7.60938Z" fill="#EFD30D"/>
<path d="M7.54688 7.51953L10.6325 7.72467V7.81527L7.54688 7.61013V7.51953Z" fill="#F0D40C"/>
<path d="M7.54688 7.42969L10.6325 7.63482V7.72543L7.54688 7.52029V7.42969Z" fill="#F0D50C"/>
<path d="M7.54688 7.33984L10.6325 7.54498V7.63558L7.54688 7.43045V7.33984Z" fill="#F1D60C"/>
<path d="M7.54688 7.25L10.6325 7.45685V7.54745L7.54688 7.34231V7.25Z" fill="#F1D70B"/>
<path d="M7.54688 7.15625L10.6325 7.36139V7.4537L7.54688 7.24685V7.15625Z" fill="#F1D80B"/>
<path d="M7.54688 7.0625L10.6325 7.26764V7.35824L7.54688 7.1531V7.0625Z" fill="#F2D90B"/>
<path d="M7.54688 6.97656L10.6325 7.1817V7.2723L7.54688 7.06716V6.97656Z" fill="#F2DA0A"/>
<path d="M7.54688 6.88281L10.6325 7.08795V7.17855L7.54688 6.97341V6.88281Z" fill="#F3DB0A"/>
<path d="M7.54688 6.78906L10.6325 6.9942V7.08653L7.54688 6.88139V6.78906Z" fill="#F3DC0A"/>
<path d="M7.54688 6.70312L10.6325 6.90826V6.99886L7.54688 6.79373V6.70312Z" fill="#F4DD0A"/>
<path d="M7.54688 6.60938L10.6325 6.81451V6.90512L7.54688 6.69998V6.60938Z" fill="#F4DE09"/>
<path d="M7.54688 6.51953L10.6325 6.72467V6.81527L7.54688 6.61013V6.51953Z" fill="#F5DF09"/>
<path d="M7.54688 6.42969L10.6325 6.63653V6.72714L7.54688 6.522V6.42969Z" fill="#F5E009"/>
<path d="M7.54688 6.33594L10.6325 6.54107V6.63339L7.54688 6.42654V6.33594Z" fill="#F6E108"/>
<path d="M7.54688 6.25L10.6325 6.45514V6.54574L7.54688 6.3406V6.25Z" fill="#F6E208"/>
<path d="M10.6325 6.4517L7.54688 6.24656V5.46875H10.6325V6.4517Z" fill="#F6E208"/>
</g>
<path d="M7.18558 7.5L2.85547 10.8967L3.15976 11.7617L7.49328 8.36329L7.18558 7.5Z" fill="#C1C1C1"/>
<mask id="mask1_221_401" style="mask-type:luminance" maskUnits="userSpaceOnUse" x="1" y="5" width="4" height="6">
<path d="M3.89713 5.79688L1.66797 7.54567L2.66972 10.3885L4.89888 8.63974L3.89713 5.79688Z" fill="white"/>
</mask>
<g mask="url(#mask1_221_401)">
<path d="M4.89779 5.90799L4.60547 5.79688H4.89779V5.90799Z" fill="#8E8E90"/>
<path d="M4.8984 6.06355L4.19922 5.79688H4.60607L4.8984 5.90799V6.06355Z" fill="#8F8F91"/>
<path d="M4.899 6.21741L3.79297 5.79688H4.19982L4.899 6.06355V6.21741Z" fill="#909092"/>
<path d="M4.89961 6.37297L3.38672 5.79688H3.79357L4.89961 6.21741V6.37297Z" fill="#919193"/>
<path d="M4.90021 6.52853L2.98047 5.79688H3.38732L4.90021 6.37297V6.52853Z" fill="#919193"/>
<path d="M4.90082 6.68238L2.57422 5.79688H2.98107L4.90082 6.52853V6.68238Z" fill="#929294"/>
<path d="M4.89971 6.83795L2.16797 5.79688H2.57311L4.89971 6.68238V6.83795Z" fill="#939395"/>
<path d="M4.89905 6.9918L1.94165 5.86696L1.969 5.79688H2.1673L4.89905 6.83795V6.9918Z" fill="#949496"/>
<path d="M4.89931 7.14759L1.89062 6.00224L1.94191 5.86719L4.89931 6.99202V7.14759Z" fill="#959597"/>
<path d="M4.89981 7.30311L1.83984 6.13895L1.89113 6.00391L4.89981 7.14926V7.30311Z" fill="#969698"/>
<path d="M4.89641 7.45643L1.78516 6.27177L1.83644 6.13672L4.89641 7.30087V7.45643Z" fill="#979799"/>
<path d="M4.90081 7.61196L1.73828 6.40849L1.78957 6.27344L4.90081 7.45811V7.61196Z" fill="#98989A"/>
<path d="M4.89741 7.76919L1.68359 6.54521L1.73488 6.41016L4.89741 7.61363V7.76919Z" fill="#99999B"/>
<path d="M4.89888 7.92252L1.66797 6.69169V6.58571L1.68506 6.54297L4.89888 7.76695V7.92252Z" fill="#9A9A9C"/>
<path d="M4.89888 8.07608L1.66797 6.84697V6.69141L4.89888 7.92223V8.07608Z" fill="#9B9B9D"/>
<path d="M4.89888 8.23233L1.66797 7.00322V6.84766L4.89888 8.07677V8.23233Z" fill="#9C9C9E"/>
<path d="M4.89888 8.38687L1.66797 7.15776V7.00391L4.89888 8.23302V8.38687Z" fill="#9D9D9F"/>
<path d="M4.89888 8.54093L1.66797 7.31181V7.15625L4.89888 8.38536V8.54093Z" fill="#9E9EA0"/>
<path d="M4.89888 8.69547L1.66797 7.46635V7.3125L4.89888 8.54161V8.69547Z" fill="#9F9FA1"/>
<path d="M4.89888 8.84952L1.66797 7.62041V7.46484L4.89888 8.69396V8.84952Z" fill="#A0A0A2"/>
<path d="M4.89888 9.00577L1.66797 7.77495V7.62109L4.89888 8.85021V9.00577Z" fill="#A1A1A3"/>
<path d="M4.89888 9.16202L1.66797 7.93291V7.77734L4.89888 9.00817V9.16202Z" fill="#A2A3A5"/>
<path d="M4.89888 9.31436L1.66797 8.08354V7.92969L4.89888 9.1588V9.31436Z" fill="#A3A4A6"/>
<path d="M4.89888 9.46671L1.66797 8.23759V8.08203L4.89888 9.31286V9.46671Z" fill="#A4A5A7"/>
<path d="M4.89888 9.60293L4.89204 9.62345L1.66797 8.39775V8.24219L4.89888 9.4713V9.60293Z" fill="#A5A6A8"/>
<path d="M4.89204 9.62413L4.84076 9.75918L1.66797 8.55229V8.39844L4.89204 9.62413Z" fill="#A6A7A9"/>
<path d="M4.84076 9.75767L4.78777 9.89272L1.66797 8.70634V8.55078L4.84076 9.75767Z" fill="#A8A8AA"/>
<path d="M4.78777 9.89341L4.73648 10.0285L1.66797 8.86088V8.70703L4.78777 9.89341Z" fill="#A9AAAC"/>
<path d="M4.73648 10.0269L4.6852 10.1637L1.66797 9.01494V8.85938L4.73648 10.0269Z" fill="#AAABAD"/>
<path d="M4.6852 10.1644L4.63391 10.2994L1.66797 9.16948V9.01562L4.6852 10.1644Z" fill="#ABACAE"/>
<path d="M4.63391 10.2979L4.59972 10.3885H4.46638L1.66797 9.32353V9.16797L4.63391 10.2979Z" fill="#ACADAF"/>
<path d="M4.05953 10.3892L1.66797 9.47978V9.32422L4.46638 10.3892H4.05953Z" fill="#ADAEB0"/>
<path d="M3.65267 10.3899L1.66797 9.63432V9.48047L4.05953 10.3899H3.65267Z" fill="#AFB0B2"/>
<path d="M3.24582 10.3884L1.66797 9.78837V9.63281L3.65267 10.3884H3.24582Z" fill="#B0B1B3"/>
<path d="M2.83896 10.3891L1.66797 9.94292V9.78906L3.24582 10.3891H2.83896Z" fill="#B1B2B4"/>
<path d="M1.66797 9.94531L2.83896 10.3915H1.66797V9.94531Z" fill="#B1B2B4"/>
</g>
<mask id="mask2_221_401" style="mask-type:luminance" maskUnits="userSpaceOnUse" x="1" y="7" width="11" height="9">
<path d="M10.635 7.89844L1.27734 15.2389H6.02456L11.6641 10.8148L10.635 7.89844Z" fill="white"/>
</mask>
<g mask="url(#mask2_221_401)">
<path d="M1.74916 7.89844H1.27734V15.2372H1.74916V7.89844Z" fill="#F6CC08"/>
<path d="M2.22182 7.89844H1.75V15.2372H2.22182V7.89844Z" fill="#F6CD08"/>
<path d="M2.69447 7.89844H2.22266V15.2372H2.69447V7.89844Z" fill="#F6CE08"/>
<path d="M3.16713 7.89844H2.69531V15.2372H3.16713V7.89844Z" fill="#F6CF08"/>
<path d="M3.63978 7.89844H3.16797V15.2372H3.63978V7.89844Z" fill="#F6D008"/>
<path d="M4.10853 7.89844H3.63672V15.2372H4.10853V7.89844Z" fill="#F6D108"/>
<path d="M4.5851 7.89844H4.11328V15.2372H4.5851V7.89844Z" fill="#F6D208"/>
<path d="M5.05385 7.89844H4.58203V15.2372H5.05385V7.89844Z" fill="#F6D308"/>
<path d="M5.53041 7.89844H5.05859V15.2372H5.53041V7.89844Z" fill="#F6D408"/>
<path d="M5.99916 7.89844H5.52734V15.2372H5.99916V7.89844Z" fill="#F6D508"/>
<path d="M6.46791 7.89844H5.99609V15.2372H6.46791V7.89844Z" fill="#F6D608"/>
<path d="M6.94057 7.89844H6.46875V15.2372H6.94057V7.89844Z" fill="#F6D808"/>
<path d="M7.41322 7.89844H6.94141V15.2372H7.41322V7.89844Z" fill="#F6D908"/>
<path d="M7.88612 7.89844H7.41431V15.2372H7.88612V7.89844Z" fill="#F6DA08"/>
<path d="M8.35853 7.89844H7.88672V15.2372H8.35853V7.89844Z" fill="#F6DB08"/>
<path d="M8.83144 7.89844H8.35962V15.2372H8.83144V7.89844Z" fill="#F6DC08"/>
<path d="M9.30385 7.89844H8.83203V15.2372H9.30385V7.89844Z" fill="#F6DD08"/>
<path d="M9.7726 7.89844H9.30078V15.2372H9.7726V7.89844Z" fill="#F6DE08"/>
<path d="M10.2492 7.89844H9.77734V15.2372H10.2492V7.89844Z" fill="#F6DF08"/>
<path d="M10.7179 7.89844H10.2461V15.2372H10.7179V7.89844Z" fill="#F6E008"/>
<path d="M11.1904 7.89844H10.7186V15.2372H11.1904V7.89844Z" fill="#F6E108"/>
<path d="M11.6632 7.89844H11.1914V15.2372H11.6632V7.89844Z" fill="#F6E208"/>
</g>
<mask id="mask3_221_401" style="mask-type:luminance" maskUnits="userSpaceOnUse" x="0" y="0" width="11" height="8">
<path d="M6.21914 0.257812L0.644531 4.63066L1.67022 7.54361L10.9595 0.257812H6.21914Z" fill="white"/>
</mask>
<g mask="url(#mask3_221_401)">
<path d="M10.961 0.714243L9.92509 1.52454L8.93359 0.257812H10.961V0.714243Z" fill="#8E8E90"/>
<path d="M9.92422 1.52454L9.69857 1.70061L8.57031 0.257812H8.93272L9.92422 1.52454Z" fill="#8E8E90"/>
<path d="M9.6994 1.70061L9.47375 1.87669L8.20703 0.257812H8.57115L9.6994 1.70061Z" fill="#8E8E90"/>
<path d="M9.47069 1.87669L9.24503 2.05447L7.83984 0.257812H8.20396L9.47069 1.87669Z" fill="#8F8F91"/>
<path d="M9.24587 2.05447L9.02022 2.23055L7.47656 0.257812H7.84068L9.24587 2.05447Z" fill="#909092"/>
<path d="M9.02094 2.23055L8.79528 2.40663L7.11316 0.257812H7.47728L9.02094 2.23055Z" fill="#919193"/>
<path d="M8.79453 2.40663L8.56717 2.5827L6.75 0.257812H7.11241L8.79453 2.40663Z" fill="#919193"/>
<path d="M8.56801 2.5827L8.34236 2.76049L6.38672 0.257812H6.75084L8.56801 2.5827Z" fill="#929294"/>
<path d="M8.3432 2.76049L8.11755 2.93656L6.02344 0.257812H6.38756L8.3432 2.76049Z" fill="#939395"/>
<path d="M8.11655 2.93656L7.8909 3.11264L5.66003 0.259522L5.66345 0.257812H6.02244L8.11655 2.93656Z" fill="#949496"/>
<path d="M5.65981 0.257812L5.43359 0.434745L7.66419 3.28671L7.89042 3.10978L5.65981 0.257812Z" fill="#959597"/>
<path d="M5.43715 0.4375L5.21094 0.614433L7.44153 3.46639L7.66775 3.28946L5.43715 0.4375Z" fill="#969698"/>
<path d="M5.21059 0.613281L4.98438 0.790212L7.21497 3.64218L7.44118 3.46525L5.21059 0.613281Z" fill="#979799"/>
<path d="M4.98403 0.789062L4.75781 0.965993L6.98841 3.81795L7.21462 3.64102L4.98403 0.789062Z" fill="#98989A"/>
<path d="M4.75747 0.964844L4.53125 1.14178L6.76184 3.99374L6.98808 3.81681L4.75747 0.964844Z" fill="#99999B"/>
<path d="M4.53481 1.14062L4.30859 1.31756L6.53919 4.16951L6.7654 3.99258L4.53481 1.14062Z" fill="#9A9A9C"/>
<path d="M4.30825 1.32031L4.08203 1.49724L6.31263 4.34921L6.53884 4.17228L4.30825 1.32031Z" fill="#9B9B9D"/>
<path d="M4.08168 1.49219L3.85547 1.66912L6.08606 4.52108L6.31228 4.34415L4.08168 1.49219Z" fill="#9C9C9E"/>
<path d="M3.85512 1.67188L3.62891 1.84881L5.8595 4.70077L6.08572 4.52384L3.85512 1.67188Z" fill="#9D9D9F"/>
<path d="M3.62856 1.85156L3.40234 2.02849L5.63294 4.88046L5.85915 4.70352L3.62856 1.85156Z" fill="#9E9EA0"/>
<path d="M3.402 2.02344L3.17578 2.20037L5.40638 5.05234L5.63259 4.87541L3.402 2.02344Z" fill="#9F9FA1"/>
<path d="M3.17934 2.20312L2.95312 2.38006L5.18372 5.23201L5.40993 5.05508L3.17934 2.20312Z" fill="#A0A0A2"/>
<path d="M2.95278 2.375L2.72656 2.55193L4.95716 5.40389L5.18337 5.22696L2.95278 2.375Z" fill="#A1A1A3"/>
<path d="M2.73014 2.55469L2.50391 2.73162L4.73452 5.58357L4.96073 5.40664L2.73014 2.55469Z" fill="#A2A3A5"/>
<path d="M2.50357 2.73047L2.27734 2.9074L4.50795 5.75935L4.73416 5.58242L2.50357 2.73047Z" fill="#A3A4A6"/>
<path d="M2.277 2.90625L2.05078 3.08318L4.28138 5.93514L4.5076 5.75821L2.277 2.90625Z" fill="#A4A5A7"/>
<path d="M2.05044 3.08594L1.82422 3.26287L4.05481 6.11482L4.28105 5.93789L2.05044 3.08594Z" fill="#A5A6A8"/>
<path d="M1.82387 3.26172L1.59766 3.43865L3.82826 6.29062L4.05447 6.11367L1.82387 3.26172Z" fill="#A6A7A9"/>
<path d="M1.59731 3.4375L1.37109 3.61443L3.6017 6.46639L3.82791 6.28946L1.59731 3.4375Z" fill="#A8A8AA"/>
<path d="M1.37466 3.61328L1.14844 3.79021L3.37904 6.64217L3.60525 6.46524L1.37466 3.61328Z" fill="#A9AAAC"/>
<path d="M1.14419 3.78906L0.917969 3.96599L3.14857 6.81795L3.37478 6.64102L1.14419 3.78906Z" fill="#AAABAD"/>
<path d="M0.921531 3.96484L0.695312 4.14177L2.92592 6.99373L3.15213 6.8168L0.921531 3.96484Z" fill="#ABACAE"/>
<path d="M2.92668 6.99374L2.70103 7.16982L0.644531 4.54064V4.17994L0.695816 4.14062L2.92668 6.99374Z" fill="#ACADAF"/>
<path d="M2.70103 7.17214L2.47367 7.34822L0.644531 5.00795V4.54297L2.70103 7.17214Z" fill="#ADAEB0"/>
<path d="M2.47367 7.34809L2.24802 7.52587L0.644531 5.4745V5.00781L2.47367 7.34809Z" fill="#AFB0B2"/>
<path d="M2.24802 7.52794L2.2258 7.54503H1.89929L0.644531 5.94154V5.47656L2.24802 7.52794Z" fill="#B0B1B3"/>
<path d="M1.53517 7.5449L0.644531 6.40638V5.94141L1.89929 7.5449H1.53517Z" fill="#B1B2B4"/>
<path d="M0.644531 6.40625L1.53517 7.54476H0.644531V6.40625Z" fill="#B1B2B4"/>
</g>
</svg>
