<svg width="52" height="20" viewBox="0 0 52 20" fill="none" xmlns="http://www.w3.org/2000/svg">
<path d="M14.4159 14.489C14.4159 16.7084 12.6168 18.5076 10.3973 18.5076C8.17808 18.5076 6.37891 16.7084 6.37891 14.489C6.37891 12.2697 8.17808 10.4705 10.3973 10.4705C12.6168 10.4705 14.4159 12.2697 14.4159 14.489Z" stroke="white" stroke-width="1.50391" stroke-miterlimit="10" stroke-linecap="round" stroke-linejoin="round"/>
<path d="M14.418 16.0964H37.7253" stroke="white" stroke-width="1.50391" stroke-miterlimit="10" stroke-linecap="round" stroke-linejoin="round"/>
<path d="M10.9686 13.9206L9.83203 15.0571" stroke="white" stroke-width="1.50391" stroke-miterlimit="10" stroke-linecap="round" stroke-linejoin="round"/>
<path d="M45.7596 14.489C45.7596 16.7084 43.9606 18.5076 41.7411 18.5076C39.5218 18.5076 37.7227 16.7084 37.7227 14.489C37.7227 12.2697 39.5218 10.4705 41.7411 10.4705C43.9606 10.4705 45.7596 12.2697 45.7596 14.489Z" stroke="white" stroke-width="1.50391" stroke-miterlimit="10" stroke-linecap="round" stroke-linejoin="round"/>
<path d="M41.1758 13.9206L42.3123 15.0571" stroke="white" stroke-width="1.50391" stroke-miterlimit="10" stroke-linecap="round" stroke-linejoin="round"/>
<path d="M6.37982 15.2927L2.50265 14.185C1.46756 13.8892 0.753906 12.9431 0.753906 11.8666V7.06728C0.753906 6.25667 1.35757 5.57289 2.16196 5.47233L5.13449 5.10077C6.49061 4.93123 7.80813 4.53239 9.03051 3.9211L12.8447 2.01404C14.4071 1.23282 16.13 0.826159 17.8767 0.826159H25.0372C27.0244 0.826159 28.9701 1.39283 30.6466 2.4596L36.9205 6.45208C36.9205 6.45208 44.2059 6.45208 48.751 8.56276C49.8765 9.08552 50.5834 10.2276 50.5834 11.4687V14.1368C50.5834 15.381 49.8637 16.0964 48.976 16.0964" stroke="white" stroke-width="1.50391" stroke-miterlimit="10" stroke-linecap="round" stroke-linejoin="round"/>
<path d="M16.0244 6.4519H14.4741C13.4084 6.4519 12.3862 6.0285 11.6325 5.27485L10.3984 4.04084" stroke="white" stroke-width="1.50391" stroke-miterlimit="10" stroke-linecap="round" stroke-linejoin="round"/>
<path d="M36.9196 6.4519H19.2383" stroke="white" stroke-width="1.50391" stroke-miterlimit="10" stroke-linecap="round" stroke-linejoin="round"/>
<path d="M17.6328 12.8816H34.5105" stroke="white" stroke-width="1.50391" stroke-miterlimit="10" stroke-linecap="round" stroke-linejoin="round"/>
<path d="M0.753906 8.86304H2.36128" stroke="white" stroke-width="1.50391" stroke-miterlimit="10" stroke-linecap="round" stroke-linejoin="round"/>
<path d="M48.1719 10.4705H50.1141" stroke="white" stroke-width="1.50391" stroke-miterlimit="10" stroke-linecap="round" stroke-linejoin="round"/>
<path d="M22.4531 6.4519V0.825987" stroke="white" stroke-width="1.50391" stroke-miterlimit="10" stroke-linecap="round" stroke-linejoin="round"/>
<path d="M13.2109 6.12549L14.2573 1.50368" stroke="white" stroke-width="1.50391" stroke-miterlimit="10" stroke-linecap="round" stroke-linejoin="round"/>
</svg>
