<svg width="26" height="41" viewBox="0 0 26 41" fill="none" xmlns="http://www.w3.org/2000/svg">
<path d="M23.5399 0.750977H11.1061C11.0255 0.750977 10.9516 0.784581 10.8978 0.84507C10.797 0.959325 10.8306 1.0803 10.8575 1.13407L10.9045 1.21472C11.5497 2.21614 12.8133 4.48781 13.277 7.53911C13.4114 8.40611 13.6668 9.23951 14.0566 10.0259C14.8161 11.5515 15.1723 12.9965 15.3067 14.4012C15.4008 15.3623 15.2664 16.3234 15.2126 16.693C14.9774 18.3396 14.5271 19.4352 13.4988 21.0952C12.289 23.0443 11.3414 24.3818 11.1734 26.3241C11.0793 27.3927 11.2943 28.4009 11.5027 29.0931C11.711 29.7451 12.0135 30.444 12.4234 31.2035C12.4234 31.2035 12.5713 31.4858 12.6049 31.5261C12.6788 31.6269 12.7931 31.7008 12.9275 31.7008C12.9678 31.7008 13.0014 31.7008 13.0418 31.6874C13.1359 31.6605 13.2165 31.5866 13.2636 31.4992L13.3375 31.3648C13.3644 31.3178 13.398 31.2505 13.445 31.1699C13.9088 30.3432 15.2462 28.1119 16.2477 26.9021C16.7181 26.2771 17.4238 25.7528 17.4238 25.7528C17.7464 25.5042 18.1833 25.2824 18.8823 25.2353C19.7829 25.1748 20.5289 25.4638 21.2951 26.351C21.9604 27.1172 22.9619 29.2141 23.5197 30.2827C23.5802 30.4037 23.8557 30.9414 23.3651 31.2237C23.0358 31.4118 22.693 31.2505 22.3704 30.7666C22.3099 30.6725 20.6902 28.4815 20.1928 27.9573C20.1592 27.9237 20.1256 27.8901 20.0853 27.8565C19.8971 27.6885 19.6686 27.5809 19.4065 27.5473C19.3527 27.5473 19.299 27.5339 19.2519 27.5339C19.2116 27.5339 19.1645 27.5339 19.1242 27.5339C19.104 27.5339 19.0839 27.5339 19.0637 27.5406C19.0436 27.5406 19.0234 27.5406 18.9965 27.5473C18.9696 27.5473 18.9427 27.5608 18.9159 27.5675C18.9024 27.5675 18.889 27.5675 18.8755 27.5742C18.8419 27.5809 18.815 27.5944 18.7814 27.6078C18.7814 27.6078 18.768 27.6078 18.7613 27.6145C18.7277 27.628 18.6941 27.6414 18.6605 27.6616C18.6605 27.6616 18.6605 27.6616 18.6537 27.6616C18.5395 27.7221 18.432 27.8027 18.3379 27.8901C18.3379 27.8901 18.2572 27.9775 18.2438 27.9976C17.8876 28.4345 16.8525 29.8996 16.1872 31.6404C15.9654 32.2251 15.6965 33.1324 15.6831 33.1862C15.3 34.853 15.5957 35.5385 16.7383 36.8289C16.7786 36.876 18.6739 38.8452 19.6148 39.7256C19.9778 40.0617 20.4482 40.2499 20.9456 40.2499H23.5264C24.4136 40.2499 25.1327 39.5307 25.1327 38.6436V2.35728C25.1462 1.47012 24.427 0.750977 23.5399 0.750977Z" fill="white"/>
<path d="M15.3807 39.8063C14.023 38.2403 9.54017 32.7896 8.83448 28.4681C8.61941 27.1575 8.69334 26.0553 8.94201 25.0807C8.94873 25.0337 8.95545 24.9934 8.96889 24.9463C9.31166 23.293 11.0524 20.9339 11.7514 19.8787C12.4503 18.8168 13.0216 17.5533 13.0888 16.2091C13.1291 15.4765 12.9947 14.7439 12.8334 14.1592C12.8334 14.1592 12.8334 14.1458 12.8334 14.1391C12.8267 14.1122 12.82 14.0853 12.8133 14.0584C12.8065 14.0248 12.7931 13.9912 12.7864 13.9643C12.7797 13.9374 12.7662 13.9038 12.7595 13.8769C12.7595 13.8702 12.7595 13.8635 12.7595 13.8568C12.6788 13.5947 12.5915 13.3796 12.531 13.2317C12.3764 12.8486 12.2353 12.5731 12.1882 12.4857C12.1882 12.4857 12.1412 12.3983 12.121 12.3715C12.0538 12.2572 11.9261 12.19 11.785 12.19C11.6438 12.19 11.5228 12.2572 11.4556 12.3647C10.9045 13.1712 10.3198 14.092 9.2915 15.1136C8.86136 15.537 8.24303 16.1016 7.14752 16.1285C6.24692 16.1486 5.51434 15.8327 4.78176 14.9187C4.14999 14.1256 3.11497 11.7128 2.60418 10.624C2.55041 10.503 2.29501 9.95193 2.79236 9.68981C3.12841 9.51507 3.46446 9.68981 3.7669 10.1872C4.2172 10.9332 5.30599 12.5798 5.91759 13.3191C6.31413 13.803 7.12064 14.1256 7.79273 13.4804C8.05485 13.225 9.44608 11.3969 10.3131 9.30672C10.5954 8.62118 10.918 7.63993 10.6088 6.36967C10.0913 4.23914 8.53875 2.32367 7.57094 1.36258C7.54406 1.3357 7.51717 1.30881 7.49029 1.28865C7.11392 0.945883 6.66362 0.764418 6.18643 0.750977H2.30174C1.41457 0.750977 0.695435 1.47012 0.695435 2.35728V38.6436C0.695435 39.5307 1.41457 40.2499 2.30174 40.2499H15.1589H15.179C15.4075 40.2499 15.5285 39.981 15.3807 39.8063Z" fill="white"/>
</svg>
