<svg width="45" height="60" viewBox="0 0 45 60" fill="none" xmlns="http://www.w3.org/2000/svg">
<g clip-path="url(#clip0_306_26)">
<path d="M38.0591 58.8529L36.0774 55.256H34.6815V60H35.7084V56.4031L37.6927 60H39.0886V55.256H38.0591V58.8529Z" fill="white"/>
<path d="M13.9283 58.8529L11.9441 55.256H10.5507V60H11.5777V56.4031L13.5593 60H14.9553V55.256H13.9283V58.8529Z" fill="white"/>
<path d="M30.4808 55.256L28.5894 59.9974H29.6938L30.086 59.0135H30.0912L30.0963 58.9982H32.4986L32.9243 59.9974H34.0338L32.0083 55.256H30.4808ZM30.4395 58.1391L31.2575 56.0921L32.1322 58.1391H30.4395Z" fill="white"/>
<path d="M27.8154 55.256L26.7781 58.6591L25.8337 55.256H24.621L23.6766 58.6591L22.6419 55.256H21.486L22.9877 60H24.1952L25.2274 56.3037L26.2104 60H27.467L28.9688 55.256H27.8154Z" fill="white"/>
<path d="M5.23538 55.256L3.16084 58.5189V60H2.07454V58.5113L0 55.256H1.20757L2.6164 57.5018L4.02781 55.256H5.23538Z" fill="white"/>
<path d="M20.8667 56.2502V55.256H16.7537C16.426 55.256 16.1603 55.5185 16.1603 55.8423V59.4137C16.1603 59.7374 16.426 60 16.7537 60H20.2758C20.6035 60 20.8693 59.7374 20.8693 59.4137V57.3157H18.5986V58.1365H19.8423V58.9089C19.8423 58.9625 19.7984 59.0058 19.7443 59.0058H17.2904C17.2362 59.0058 17.1924 58.9625 17.1924 58.9089V56.3496C17.1924 56.296 17.2362 56.2527 17.2904 56.2527H20.8693L20.8667 56.2502Z" fill="white"/>
<path d="M44.9974 56.2502V55.256H40.8845C40.5568 55.256 40.291 55.5185 40.291 55.8423V59.4137C40.291 59.7374 40.5568 60 40.8845 60H44.4065C44.7342 60 45 59.7374 45 59.4137V57.3157H42.7294V58.1365H43.9731V58.9089C43.9731 58.9625 43.9292 59.0058 43.875 59.0058H41.4212C41.367 59.0058 41.3231 58.9625 41.3231 58.9089V56.3496C41.3231 56.296 41.367 56.2527 41.4212 56.2527H45L44.9974 56.2502Z" fill="white"/>
<path d="M7.95499 55.256H6.40682L4.45872 60H5.56307L5.95528 59.016L5.96044 59.0007H8.40138L8.40654 59.016L8.79874 60H9.9031L7.95499 55.256ZM6.30877 58.1416L7.12672 56.0947L8.00144 58.1416H6.30877Z" fill="white"/>
<path d="M35.5175 0H20.2758C20.1778 0 20.0823 0.0382377 20.0204 0.109615C19.8991 0.252369 19.9404 0.392573 19.9687 0.458852L20.0255 0.553172C20.8177 1.76913 22.3607 4.51714 22.9309 8.21345C23.0909 9.25861 23.4083 10.2757 23.8856 11.2215C24.8197 13.0722 25.2532 14.8158 25.4183 16.5187C25.5318 17.6785 25.3641 18.8486 25.2996 19.2947C25.0106 21.2933 24.4558 22.6163 23.1941 24.6225C21.7104 26.983 20.5493 28.6043 20.3429 30.9572C20.2294 32.2522 20.49 33.4733 20.748 34.3094C21.006 35.0996 21.375 35.946 21.873 36.8611C21.873 36.8611 22.0536 37.2002 22.0949 37.2511C22.1826 37.376 22.3271 37.4602 22.4948 37.4602C22.5439 37.4602 22.5877 37.4525 22.6342 37.4398C22.7529 37.4066 22.8458 37.32 22.9051 37.2154L22.9954 37.0497C23.029 36.9886 23.0702 36.9121 23.1244 36.8178C23.6895 35.821 25.3331 33.1113 26.5614 31.648C26.5614 31.648 26.5639 31.6429 26.5665 31.6429C27.1471 30.8858 28.0037 30.2511 28.0037 30.2511C28.4011 29.9477 28.93 29.6852 29.7944 29.6265C30.8988 29.5526 31.8122 29.907 32.7514 30.9802C33.5668 31.9106 34.795 34.447 35.4788 35.7395C35.5536 35.8822 35.889 36.5374 35.293 36.879C34.8879 37.1109 34.4673 36.9121 34.0751 36.3283C33.9977 36.2136 32.0135 33.565 31.4045 32.9252C31.3658 32.8818 31.322 32.8411 31.2755 32.8003C31.0485 32.5989 30.762 32.4638 30.4421 32.423C30.4421 32.423 30.4421 32.423 30.4395 32.423C30.375 32.4153 30.3131 32.4102 30.246 32.4102C30.1944 32.4102 30.1428 32.4128 30.0912 32.4179C30.0679 32.4179 30.0447 32.4255 30.0215 32.4281C29.9957 32.4306 29.9673 32.4357 29.9415 32.4408C29.908 32.4485 29.877 32.4561 29.8435 32.4638C29.828 32.4689 29.8125 32.4714 29.797 32.4765C29.7583 32.4893 29.7222 32.502 29.6835 32.5173C29.6757 32.5199 29.668 32.5224 29.6603 32.525C29.619 32.5428 29.5777 32.5606 29.539 32.581C29.5364 32.581 29.5338 32.5836 29.5312 32.5861C29.3893 32.6601 29.2577 32.7544 29.1442 32.8665C29.1442 32.8665 29.0462 32.9736 29.0307 32.9966C28.5894 33.5268 27.3251 35.2959 26.5097 37.4092C26.2362 38.1204 25.9111 39.214 25.8956 39.2803C25.426 41.2992 25.7899 42.1277 27.1884 43.6955C27.24 43.7541 29.5622 46.135 30.7156 47.2006C31.1568 47.6084 31.74 47.8353 32.3463 47.8353H35.5123C36.5986 47.8353 37.4811 46.9635 37.4811 45.8903V1.94502C37.4862 0.871819 36.6038 0 35.5175 0Z" fill="white"/>
<path d="M25.5163 47.2974C23.8521 45.3983 18.3587 38.8036 17.4891 33.565C17.2259 31.9769 17.3136 30.6411 17.6155 29.4634C17.6233 29.4099 17.6336 29.3563 17.6439 29.3028C18.0645 27.3042 20.1958 24.4466 21.0525 23.1644C21.9091 21.8821 22.6058 20.3475 22.6935 18.7186C22.7425 17.8315 22.5774 16.9418 22.3813 16.2383C22.3813 16.2383 22.3813 16.2332 22.3813 16.2306C22.3813 16.223 22.3761 16.2153 22.3761 16.2077C22.3658 16.1745 22.3581 16.1414 22.3478 16.1083C22.3374 16.07 22.3245 16.0318 22.3142 15.991C22.3039 15.9553 22.2936 15.9196 22.2807 15.8865C22.2781 15.8788 22.2755 15.8712 22.2729 15.861C22.1697 15.5423 22.0691 15.2798 21.9943 15.1013C21.8033 14.6399 21.6304 14.306 21.5763 14.2015C21.5763 14.2015 21.5169 14.097 21.4937 14.0638C21.4085 13.9287 21.2563 13.842 21.0834 13.842C20.9106 13.842 20.7661 13.9262 20.6783 14.0562C19.9997 15.03 19.2876 16.149 18.0284 17.3828C17.502 17.9003 16.746 18.5784 15.4042 18.609C14.2999 18.6345 13.3994 18.2496 12.504 17.1407C11.7274 16.1771 10.463 13.2608 9.83343 11.9403C9.76376 11.7925 9.45413 11.1246 10.0657 10.8085C10.4785 10.5918 10.8913 10.8085 11.2603 11.4076C11.8151 12.31 13.1465 14.3085 13.8922 15.1957C14.3799 15.7769 15.3707 16.1771 16.1886 15.3945C16.5112 15.086 18.2167 12.8733 19.2772 10.342C19.6256 9.51353 20.0204 8.32052 19.6411 6.78336C19.0063 4.20614 17.1072 1.88639 15.9151 0.718868C15.8816 0.688278 15.8481 0.655139 15.8145 0.627098C15.3862 0.237074 14.8288 0.0152951 14.2483 0H9.48509C8.39622 0 7.51376 0.871819 7.51376 1.94502V45.8852C7.51376 46.9584 8.39622 47.8302 9.48251 47.8302H25.2428H25.2661C25.5473 47.8302 25.697 47.5065 25.5138 47.2974H25.5163Z" fill="white"/>
</g>
<defs>
<clipPath id="clip0_306_26">
<rect width="45" height="60" fill="white"/>
</clipPath>
</defs>
</svg>
