<svg width="14" height="13" viewBox="0 0 14 13" fill="none" xmlns="http://www.w3.org/2000/svg">
<path d="M7.26309 12.2852C7.22069 12.2852 7.1783 12.2852 7.1356 12.285C6.13192 12.2873 5.20453 12.2634 4.30264 12.212C3.47578 12.1649 2.72101 11.8974 2.11982 11.4384C1.53972 10.9955 1.14358 10.3967 0.942434 9.65878C0.76737 9.01634 0.75809 8.3857 0.7492 7.77573C0.742752 7.33807 0.736109 6.81948 0.734741 6.2921C0.736109 5.76252 0.742752 5.24392 0.7492 4.80627C0.75809 4.19639 0.76737 3.56575 0.942434 2.92322C1.14358 2.18529 1.53972 1.58648 2.11982 1.14361C2.72101 0.684647 3.47578 0.417116 4.30274 0.370012C5.20463 0.318701 6.13221 0.294738 7.13805 0.297024C8.14202 0.295012 9.06912 0.318701 9.97101 0.370012C10.7979 0.417116 11.5526 0.684647 12.1538 1.14361C12.734 1.58648 13.1301 2.18529 13.3312 2.92322C13.5063 3.56566 13.5156 4.19639 13.5245 4.80627C13.5309 5.24392 13.5376 5.76252 13.5389 6.2899V6.2921C13.5376 6.81948 13.5309 7.33807 13.5245 7.77573C13.5156 8.38561 13.5064 9.01625 13.3312 9.65878C13.1301 10.3967 12.734 10.9955 12.1538 11.4384C11.5526 11.8974 10.7979 12.1649 9.97101 12.212C9.10732 12.2612 8.22008 12.2852 7.26309 12.2852ZM7.1356 11.3484C8.12297 11.3506 9.02955 11.3273 9.91025 11.2771C10.5355 11.2416 11.0776 11.0516 11.5217 10.7125C11.9322 10.3991 12.2149 9.96665 12.3619 9.42719C12.5077 8.89241 12.5161 8.3182 12.5242 7.76292C12.5305 7.3282 12.5372 6.81326 12.5385 6.291C12.5372 5.76865 12.5305 5.2538 12.5242 4.81908C12.5161 4.2638 12.5077 3.68959 12.3619 3.15471C12.2149 2.61526 11.9322 2.18282 11.5217 1.86937C11.0776 1.53041 10.5355 1.34044 9.91025 1.30486C9.02955 1.25465 8.12297 1.23151 7.13795 1.23352C6.15077 1.23132 5.2441 1.25465 4.3634 1.30486C3.73818 1.34044 3.19609 1.53041 2.75198 1.86937C2.34148 2.18282 2.05876 2.61526 1.91173 3.15471C1.76598 3.68959 1.75757 4.26371 1.74947 4.81908C1.74312 5.25417 1.73647 5.76938 1.7351 6.2921C1.73647 6.81252 1.74312 7.32783 1.74947 7.76292C1.75757 8.3182 1.76598 8.89241 1.91173 9.42719C2.05876 9.96665 2.34148 10.3991 2.75198 10.7125C3.19609 11.0515 3.73818 11.2415 4.3634 11.277C5.2441 11.3273 6.15097 11.3507 7.1356 11.3484ZM7.11177 9.21783C5.38809 9.21783 3.98563 7.90487 3.98563 6.291C3.98563 4.67712 5.38809 3.36416 7.11177 3.36416C8.83554 3.36416 10.2379 4.67712 10.2379 6.291C10.2379 7.90487 8.83554 9.21783 7.11177 9.21783ZM7.11177 4.30075C5.93966 4.30075 4.98599 5.19362 4.98599 6.291C4.98599 7.38838 5.93966 8.28125 7.11177 8.28125C8.28397 8.28125 9.23754 7.38838 9.23754 6.291C9.23754 5.19362 8.28397 4.30075 7.11177 4.30075ZM10.588 2.42758C10.1737 2.42758 9.83776 2.74203 9.83776 3.13002C9.83776 3.51801 10.1737 3.83246 10.588 3.83246C11.0024 3.83246 11.3383 3.51801 11.3383 3.13002C11.3383 2.74203 11.0024 2.42758 10.588 2.42758Z" fill="black"/>
</svg>
