<svg width="18" height="25" viewBox="0 0 18 25" fill="none" xmlns="http://www.w3.org/2000/svg">
<path d="M8.90664 0.0385742C13.3955 0.0385742 17.0348 3.79914 17.0348 8.43885C17.0348 11.0575 13.61 16.5273 11.0266 20.7317C10.1793 22.1109 9.42227 23.354 8.90664 24.3155C8.40801 23.3867 7.65449 22.14 6.8043 20.7414C4.23438 16.5158 0.777344 10.8983 0.777344 8.43885C0.777344 3.79914 4.4166 0.0385742 8.90664 0.0385742ZM12.5383 8.12219C12.5383 6.05391 10.907 4.36768 8.90664 4.36768C6.90508 4.36768 5.27383 6.05391 5.27383 8.12219C5.27383 10.1893 6.90508 11.8749 8.90664 11.8749C10.907 11.8749 12.5383 10.1893 12.5383 8.12219Z" fill="#1D0A44"/>
</svg>
