<svg width="171" height="100" viewBox="0 0 171 100" fill="none" xmlns="http://www.w3.org/2000/svg">
<path d="M8.74921 93.9844V81.4648H4.96014V79.707H14.7648V81.4648H10.9562V93.9844H8.74921ZM22.5676 93.9844L22.4113 92.6367C21.6626 93.6849 20.5526 94.209 19.0812 94.209C17.6815 94.209 16.5845 93.7565 15.7902 92.8516C14.9829 91.9401 14.5793 90.7161 14.5793 89.1797C14.5793 87.6628 14.9829 86.4421 15.7902 85.5176C16.578 84.6126 17.6652 84.1602 19.0519 84.1602C20.5298 84.1602 21.6333 84.6582 22.3625 85.6543L22.4016 84.3848H24.3742V93.9844H22.5676ZM19.4816 85.7715C18.5702 85.7715 17.8801 86.1003 17.4113 86.7578C16.9686 87.3763 16.7473 88.1868 16.7473 89.1895C16.7473 90.1725 16.9686 90.9798 17.4113 91.6113C17.8736 92.2689 18.5604 92.5977 19.4719 92.5977C20.3963 92.5977 21.0962 92.2689 21.5715 91.6113C22.0337 90.9798 22.2648 90.1855 22.2648 89.2285C22.2648 88.2064 22.0337 87.3828 21.5715 86.7578C21.0832 86.1003 20.3866 85.7715 19.4816 85.7715ZM27.1965 93.9844V84.3848H29.1008L29.2082 85.5273C29.6183 85.0391 30.0708 84.6908 30.5656 84.4824C31.0604 84.2676 31.6626 84.1602 32.3723 84.1602C33.9608 84.1602 35.0318 84.7233 35.5851 85.8496C35.8976 86.4876 36.0539 87.4902 36.0539 88.8574V93.9844H33.9445V88.9941C33.9445 87.8223 33.785 86.9987 33.466 86.5234C33.1535 86.0417 32.6131 85.8008 31.8449 85.8008C30.8293 85.8008 30.1164 86.1914 29.7062 86.9727C29.4393 87.4935 29.3058 88.3301 29.3058 89.4824V93.9844H27.1965ZM38.798 93.9844V78.6621H40.9074V87.9492L44.6769 84.3848H47.1183L42.7336 88.4668L47.4406 93.9844H45.048L40.9074 89.043V93.9844H38.798ZM55.507 93.9844V81.4648H51.718V79.707H61.5226V81.4648H57.7141V93.9844H55.507ZM61.8254 84.3848H63.9348V89.5117C63.9348 90.4557 64.0324 91.1458 64.2277 91.582C64.5207 92.2396 65.1034 92.5684 65.9758 92.5684C66.9328 92.5684 67.5969 92.1777 67.968 91.3965C68.2154 90.8822 68.3391 90.0456 68.3391 88.8867V84.3848H70.4484V93.9844H68.5441L68.4367 92.8418C68.0396 93.3366 67.6034 93.6882 67.1281 93.8965C66.6529 94.1048 66.0604 94.209 65.3508 94.209C63.8273 94.209 62.8052 93.6849 62.2844 92.6367C61.9784 92.0182 61.8254 91.0254 61.8254 89.6582V84.3848ZM73.2707 93.9844V84.3848H75.175L75.2824 85.5859C75.5949 85.2148 75.8521 84.9544 76.0539 84.8047C76.6203 84.375 77.2941 84.1602 78.0754 84.1602C78.2772 84.1602 78.5539 84.1862 78.9055 84.2383L78.5734 86.0156C78.2284 85.9049 77.9126 85.8496 77.6262 85.8496C76.7603 85.8496 76.1385 86.2207 75.7609 86.9629C75.507 87.4707 75.3801 88.3105 75.3801 89.4824V93.9844H73.2707ZM80.5949 93.9844V84.3848H82.4992L82.6066 85.5273C83.0168 85.0391 83.4693 84.6908 83.9641 84.4824C84.4588 84.2676 85.0611 84.1602 85.7707 84.1602C87.3592 84.1602 88.4302 84.7233 88.9836 85.8496C89.2961 86.4876 89.4523 87.4902 89.4523 88.8574V93.9844H87.343V88.9941C87.343 87.8223 87.1835 86.9987 86.8644 86.5234C86.5519 86.0417 86.0116 85.8008 85.2433 85.8008C84.2277 85.8008 83.5148 86.1914 83.1047 86.9727C82.8377 87.4935 82.7043 88.3301 82.7043 89.4824V93.9844H80.5949ZM96.9133 93.9844V79.707H104.589V81.4648H99.1105V85.8105H104.14V87.5684H99.1105V93.9844H96.9133ZM115.585 89.6973H108.066C108.092 90.3939 108.264 90.9733 108.583 91.4355C109.143 92.2363 110.087 92.6367 111.415 92.6367C112.626 92.6367 113.7 92.3861 114.638 91.8848L115.224 93.3984C114.045 93.9453 112.76 94.2188 111.366 94.2188C109.602 94.2188 108.274 93.776 107.382 92.8906C106.464 91.9792 106.005 90.7422 106.005 89.1797C106.005 87.6432 106.445 86.4128 107.323 85.4883C108.163 84.6029 109.345 84.1602 110.868 84.1602C112.483 84.1602 113.7 84.6419 114.521 85.6055C115.243 86.4583 115.605 87.5879 115.605 88.9941C115.605 89.1634 115.598 89.3978 115.585 89.6973ZM113.573 88.2324C113.456 86.5332 112.574 85.6836 110.927 85.6836C110.087 85.6836 109.423 85.9049 108.935 86.3477C108.446 86.7839 108.173 87.4121 108.114 88.2324H113.573ZM125.341 93.9844L125.185 92.6367C124.436 93.6849 123.326 94.209 121.855 94.209C120.455 94.209 119.358 93.7565 118.564 92.8516C117.756 91.9401 117.353 90.7161 117.353 89.1797C117.353 87.6628 117.756 86.4421 118.564 85.5176C119.351 84.6126 120.439 84.1602 121.825 84.1602C123.303 84.1602 124.407 84.6582 125.136 85.6543L125.175 84.3848H127.148V93.9844H125.341ZM122.255 85.7715C121.344 85.7715 120.654 86.1003 120.185 86.7578C119.742 87.3763 119.521 88.1868 119.521 89.1895C119.521 90.1725 119.742 90.9798 120.185 91.6113C120.647 92.2689 121.334 92.5977 122.245 92.5977C123.17 92.5977 123.87 92.2689 124.345 91.6113C124.807 90.9798 125.038 90.1855 125.038 89.2285C125.038 88.2064 124.807 87.3828 124.345 86.7578C123.857 86.1003 123.16 85.7715 122.255 85.7715ZM130.409 86.0547H128.974V84.3848H130.478L130.605 81.5039L132.48 81.2012V84.3848H135.107V86.0547H132.48V90.3027C132.48 91.1165 132.574 91.6667 132.763 91.9531C132.965 92.2656 133.365 92.4219 133.964 92.4219C134.244 92.4219 134.556 92.3633 134.902 92.2461L135.253 93.916C134.628 94.0658 134.016 94.1406 133.417 94.1406C132.109 94.1406 131.246 93.7663 130.829 93.0176C130.667 92.7246 130.556 92.3796 130.497 91.9824C130.439 91.5853 130.409 90.9733 130.409 90.1465V86.0547ZM136.845 84.3848H138.954V89.5117C138.954 90.4557 139.052 91.1458 139.247 91.582C139.54 92.2396 140.123 92.5684 140.995 92.5684C141.952 92.5684 142.616 92.1777 142.987 91.3965C143.235 90.8822 143.359 90.0456 143.359 88.8867V84.3848H145.468V93.9844H143.564L143.456 92.8418C143.059 93.3366 142.623 93.6882 142.148 93.8965C141.672 94.1048 141.08 94.209 140.37 94.209C138.847 94.209 137.825 93.6849 137.304 92.6367C136.998 92.0182 136.845 91.0254 136.845 89.6582V84.3848ZM148.29 93.9844V84.3848H150.195L150.302 85.5859C150.614 85.2148 150.872 84.9544 151.073 84.8047C151.64 84.375 152.314 84.1602 153.095 84.1602C153.297 84.1602 153.573 84.1862 153.925 84.2383L153.593 86.0156C153.248 85.9049 152.932 85.8496 152.646 85.8496C151.78 85.8496 151.158 86.2207 150.78 86.9629C150.527 87.4707 150.4 88.3105 150.4 89.4824V93.9844H148.29ZM164.277 89.6973H156.757C156.783 90.3939 156.956 90.9733 157.275 91.4355C157.834 92.2363 158.779 92.6367 160.107 92.6367C161.318 92.6367 162.392 92.3861 163.329 91.8848L163.915 93.3984C162.737 93.9453 161.451 94.2188 160.058 94.2188C158.293 94.2188 156.965 93.776 156.073 92.8906C155.155 91.9792 154.696 90.7422 154.696 89.1797C154.696 87.6432 155.136 86.4128 156.015 85.4883C156.855 84.6029 158.036 84.1602 159.56 84.1602C161.174 84.1602 162.392 84.6419 163.212 85.6055C163.935 86.4583 164.296 87.5879 164.296 88.9941C164.296 89.1634 164.29 89.3978 164.277 89.6973ZM162.265 88.2324C162.148 86.5332 161.265 85.6836 159.618 85.6836C158.779 85.6836 158.114 85.9049 157.626 86.3477C157.138 86.7839 156.864 87.4121 156.806 88.2324H162.265Z" fill="white"/>
<path d="M68.3882 30.6076H59.9285C59.3791 30.6076 58.8522 30.8258 58.4638 31.2143C58.0753 31.6027 57.8571 32.1296 57.8571 32.679C57.8571 33.2284 58.0753 33.7552 58.4638 34.1437C58.8522 34.5322 59.3791 34.7504 59.9285 34.7504H68.3882C69.6587 34.7515 70.8777 34.2481 71.7773 33.3509C72.6769 32.4536 73.1834 31.236 73.1856 29.9654V13.046C73.1845 11.7769 72.6802 10.56 71.7832 9.66222C70.8862 8.76444 69.6697 8.25903 68.4006 8.25684H59.9285C59.3791 8.25684 58.8522 8.47508 58.4638 8.86355C58.0753 9.25201 57.8571 9.77889 57.8571 10.3283C57.8571 10.8776 58.0753 11.4045 58.4638 11.793C58.8522 12.1815 59.3791 12.3997 59.9285 12.3997H68.3882C68.5589 12.4008 68.7222 12.4694 68.8425 12.5904C68.9628 12.7115 69.0303 12.8753 69.0303 13.046V19.4218H59.9285C59.3791 19.4218 58.8522 19.6401 58.4638 20.0285C58.0753 20.417 57.8571 20.9439 57.8571 21.4933C57.8571 22.0426 58.0753 22.5695 58.4638 22.958C58.8522 23.3465 59.3791 23.5647 59.9285 23.5647H69.0428V29.953C69.0445 30.0394 69.0287 30.1253 68.9964 30.2055C68.9641 30.2856 68.9159 30.3585 68.8548 30.4196C68.7937 30.4807 68.7209 30.5289 68.6407 30.5612C68.5605 30.5935 68.4746 30.6092 68.3882 30.6076Z" fill="white"/>
<path d="M92.7318 29.9654V24.2193C92.7329 22.9487 92.2295 21.7297 91.3323 20.8302C90.435 19.9306 89.2173 19.424 87.9468 19.4218H81.5544V13.046C81.5544 12.8746 81.6224 12.7102 81.7436 12.589C81.8649 12.4678 82.0292 12.3997 82.2006 12.3997H90.6604C91.2097 12.3997 91.7366 12.1815 92.1251 11.793C92.5135 11.4045 92.7318 10.8776 92.7318 10.3283C92.7318 9.77889 92.5135 9.25201 92.1251 8.86355C91.7366 8.47508 91.2097 8.25684 90.6604 8.25684H82.2006C80.9312 8.25903 79.7143 8.7643 78.8166 9.66197C77.919 10.5596 77.4137 11.7765 77.4115 13.046V29.9654C77.4148 31.2342 77.9205 32.45 78.8181 33.3468C79.7156 34.2435 80.9319 34.7482 82.2006 34.7504H87.9468C89.2152 34.7482 90.431 34.2434 91.3279 33.3465C92.2248 32.4496 92.7296 31.2338 92.7318 29.9654ZM88.5889 29.9654C88.5889 30.1357 88.5213 30.299 88.4008 30.4195C88.2804 30.5399 88.1171 30.6076 87.9468 30.6076H82.2006C82.116 30.6081 82.032 30.5919 81.9536 30.5599C81.8752 30.5278 81.804 30.4806 81.7439 30.4209C81.6838 30.3613 81.6362 30.2903 81.6036 30.2121C81.5711 30.1339 81.5544 30.0501 81.5544 29.9654V23.5647H87.9468C88.1171 23.5647 88.2804 23.6324 88.4008 23.7528C88.5213 23.8732 88.5889 24.0365 88.5889 24.2068V29.9654Z" fill="white"/>
<path d="M103.068 34.7504H106.188C107.805 34.7504 109.357 34.108 110.501 32.9645C111.646 31.821 112.289 30.2699 112.29 28.6521V14.3551C112.288 12.7377 111.644 11.1872 110.5 10.0439C109.356 8.90065 107.805 8.25793 106.188 8.25684H103.068C101.451 8.25903 99.9008 8.90209 98.7569 10.0452C97.6131 11.1882 96.969 12.738 96.9657 14.3551V28.6521C96.9679 30.2695 97.6117 31.82 98.7557 32.9633C99.8998 34.1066 101.451 34.7493 103.068 34.7504ZM101.109 14.3551C101.11 13.8361 101.317 13.3388 101.684 12.9722C102.051 12.6056 102.549 12.3997 103.068 12.3997H106.188C106.707 12.3997 107.204 12.6056 107.572 12.9722C107.939 13.3388 108.146 13.8361 108.147 14.3551V28.6521C108.146 29.1711 107.939 29.6685 107.572 30.0351C107.204 30.4017 106.707 30.6076 106.188 30.6076H103.068C102.549 30.6076 102.051 30.4017 101.684 30.0351C101.317 29.6685 101.11 29.1711 101.109 28.6521V14.3551Z" fill="white"/>
<path d="M118.529 11.2354C119.641 11.2362 120.727 10.9074 121.652 10.2904C122.576 9.67343 123.297 8.79611 123.723 7.76944C124.148 6.74276 124.26 5.61289 124.043 4.52277C123.827 3.43265 123.292 2.43129 122.506 1.64539C121.72 0.859491 120.718 0.324372 119.628 0.107743C118.538 -0.108885 117.408 0.00271408 116.382 0.428419C115.355 0.854124 114.478 1.5748 113.861 2.49926C113.244 3.42373 112.915 4.51043 112.916 5.62186C112.918 7.11 113.51 8.53656 114.562 9.58883C115.615 10.6411 117.041 11.2332 118.529 11.2354ZM118.529 4.147C118.821 4.14618 119.107 4.23198 119.35 4.39354C119.593 4.5551 119.782 4.78516 119.895 5.05458C120.007 5.324 120.037 5.62067 119.98 5.90704C119.924 6.19341 119.784 6.45659 119.578 6.66326C119.372 6.86994 119.109 7.01082 118.823 7.06807C118.536 7.12531 118.24 7.09634 117.97 6.98484C117.7 6.87333 117.47 6.6843 117.307 6.44167C117.145 6.19904 117.059 5.91373 117.059 5.62186C117.058 5.42837 117.096 5.23668 117.169 5.05777C117.243 4.87885 117.351 4.71623 117.488 4.57923C117.624 4.44222 117.787 4.33352 117.965 4.25935C118.144 4.18518 118.336 4.147 118.529 4.147Z" fill="white"/>
<path d="M79.168 46.0519C78.9769 45.854 78.7483 45.6962 78.4956 45.5876C78.2429 45.4791 77.9711 45.4219 77.696 45.4196C77.421 45.4172 77.1482 45.4696 76.8937 45.5737C76.6391 45.6779 76.4078 45.8317 76.2133 46.0262C76.0188 46.2207 75.865 46.452 75.7609 46.7065C75.6567 46.9611 75.6043 47.2339 75.6067 47.5089C75.6091 47.7839 75.6662 48.0558 75.7748 48.3085C75.8834 48.5612 76.0412 48.7898 76.239 48.9809L79.6983 52.436C54.576 51.6779 37.1429 45.3849 37.1429 40.0944C37.1429 38.168 40.0429 35.1561 48.1504 32.4716C48.4089 32.3862 48.6479 32.2507 48.854 32.0729C49.06 31.8951 49.2291 31.6784 49.3514 31.4353C49.4737 31.1921 49.547 30.9273 49.567 30.6559C49.587 30.3844 49.5533 30.1117 49.4679 29.8533C49.3824 29.5949 49.247 29.3558 49.0692 29.1497C48.8913 28.9437 48.6747 28.7746 48.4316 28.6523C48.1884 28.53 47.9236 28.4567 47.6521 28.4367C47.3807 28.4168 47.108 28.4504 46.8496 28.5359C37.7891 31.5353 33 35.529 33 40.0944C33 50.5469 57.1487 55.9409 79.8599 56.5913L76.239 60.2121C75.85 60.6006 75.6313 61.1276 75.6309 61.6773C75.6305 62.2269 75.8485 62.7543 76.2369 63.1432C76.6253 63.5322 77.1524 63.7509 77.702 63.7513C78.2517 63.7517 78.779 63.5337 79.168 63.1453L86.2523 56.061C86.6406 55.6725 86.8588 55.1458 86.8588 54.5965C86.8588 54.0472 86.6406 53.5205 86.2523 53.132L79.168 46.0519Z" fill="white"/>
<path d="M122.722 28.5359C122.462 28.4415 122.185 28.4003 121.908 28.4147C121.632 28.429 121.361 28.4987 121.112 28.6196C120.862 28.7405 120.64 28.9101 120.457 29.1185C120.275 29.3268 120.136 29.5697 120.049 29.8326C119.962 30.0955 119.929 30.3733 119.951 30.6493C119.973 30.9254 120.051 31.1942 120.178 31.4399C120.306 31.6856 120.482 31.9031 120.696 32.0796C120.909 32.2561 121.156 32.388 121.421 32.4675C129.529 35.1645 132.429 38.1681 132.429 40.0945C132.429 45.0659 117.34 51.1311 92.972 52.3284C92.7 52.3349 92.4319 52.3949 92.1831 52.5051C91.9343 52.6152 91.7096 52.7733 91.5219 52.9702C91.1427 53.368 90.9371 53.9001 90.9503 54.4495C90.9635 54.9989 91.1944 55.5205 91.5922 55.8997C91.99 56.2788 92.5221 56.4844 93.0714 56.4712H93.1709C114.772 55.4065 136.571 49.9338 136.571 40.0945C136.571 35.5291 131.782 31.5354 122.722 28.5359Z" fill="white"/>
</svg>
