<svg width="15" height="18" viewBox="0 0 15 18" fill="none" xmlns="http://www.w3.org/2000/svg">
<path d="M7.66418 0C5.8747 0.00237379 4.15919 0.714295 2.89384 1.97965C1.62848 3.24501 0.916558 4.96052 0.914185 6.75C0.914185 11.5959 7.20293 17.6653 7.47012 17.9212C7.52209 17.9718 7.59171 18 7.66418 18C7.73666 18 7.80628 17.9718 7.85825 17.9212C8.12543 17.6653 14.4142 11.5959 14.4142 6.75C14.4118 4.96052 13.6999 3.24501 12.4345 1.97965C11.1692 0.714295 9.45367 0.00237379 7.66418 0ZM7.66418 9.84375C7.0523 9.84375 6.45415 9.6623 5.94539 9.32236C5.43662 8.98241 5.04009 8.49924 4.80593 7.93393C4.57177 7.36862 4.51051 6.74657 4.62988 6.14644C4.74925 5.54631 5.0439 4.99506 5.47657 4.56239C5.90924 4.12972 6.46049 3.83507 7.06062 3.7157C7.66075 3.59632 8.2828 3.65759 8.84811 3.89175C9.41342 4.12591 9.8966 4.52244 10.2365 5.0312C10.5765 5.53997 10.7579 6.13811 10.7579 6.75C10.7574 7.57036 10.4313 8.35698 9.85125 8.93707C9.27117 9.51715 8.48455 9.84326 7.66418 9.84375Z" fill="white"/>
</svg>
