<svg width="16" height="20" viewBox="0 0 16 20" fill="none" xmlns="http://www.w3.org/2000/svg">
<path d="M7.66421 0.646484C3.56575 0.646484 0.242676 3.96956 0.242676 8.06802C0.242676 9.12648 0.464214 10.1234 0.85806 11.0342C0.870368 11.0711 0.894983 11.108 0.907291 11.1449C0.944214 11.2311 0.993445 11.3296 1.04268 11.4157C1.06729 11.4526 1.0796 11.4896 1.10421 11.5388C1.15345 11.6373 1.21498 11.748 1.27652 11.8465C1.28883 11.8588 1.28883 11.8711 1.30114 11.8957C1.60883 12.4126 1.99037 12.8926 2.40883 13.3111L6.80268 18.948C7.23345 19.5019 8.07037 19.5019 8.50114 18.948L12.895 13.3234C13.3258 12.8926 13.695 12.4126 14.015 11.8957C14.6919 10.7757 15.0734 9.4711 15.0734 8.08033C15.0858 3.96956 11.7627 0.646484 7.66421 0.646484ZM7.66421 14.2219C4.26729 14.2219 1.51037 11.4649 1.51037 8.06802C1.51037 4.6711 4.26729 1.91418 7.66421 1.91418C11.0611 1.91418 13.8181 4.6711 13.8181 8.06802C13.8181 11.4649 11.0611 14.2219 7.66421 14.2219Z" fill="white"/>
<path d="M9.67034 11.0832C8.34111 11.0832 7.02418 11.0832 5.68265 11.0832C5.67034 11.2185 5.67034 11.3539 5.64572 11.4893C5.6088 11.7478 5.48572 11.8585 5.22726 11.8585C4.98111 11.8709 4.72265 11.8585 4.47649 11.8585C4.21803 11.8585 4.09495 11.7355 4.07034 11.4893C4.05803 11.4278 4.05803 11.3539 4.05803 11.2924C4.07034 11.157 4.05803 11.0585 3.88572 11.0093C3.73803 10.9724 3.66418 10.837 3.66418 10.677C3.66418 10.0001 3.66418 9.31086 3.66418 8.63393C3.66418 8.4247 3.77495 8.28932 3.98418 8.27701C4.15649 8.2647 4.20572 8.17855 4.25495 8.03086C4.4888 7.32932 4.73495 6.62778 4.98111 5.91393C5.01803 5.80316 5.06726 5.7047 5.11649 5.60624C5.31342 5.23701 5.6088 5.04009 6.03957 5.04009H6.44572C6.45803 4.85547 6.47034 4.69547 6.48265 4.54778C6.50726 4.37547 6.61803 4.25239 6.79034 4.25239C7.3688 4.24009 7.94726 4.24009 8.52572 4.25239C8.72265 4.25239 8.83341 4.37547 8.85803 4.5847C8.87034 4.65855 8.87034 4.73239 8.87034 4.79393V5.00316C9.01803 5.01547 9.16572 5.01547 9.30111 5.02778C9.73188 5.04009 10.0519 5.23701 10.2242 5.61855C10.3842 5.97547 10.5196 6.35701 10.655 6.73855C10.815 7.18163 10.9626 7.63701 11.1103 8.0924C11.1473 8.19086 11.1965 8.22778 11.295 8.24009C11.5903 8.27701 11.6765 8.37547 11.6765 8.67086V10.6032C11.6765 10.837 11.615 10.9232 11.4057 11.0093C11.3565 11.0339 11.3196 11.0955 11.3073 11.1447C11.2826 11.2555 11.2826 11.3662 11.2703 11.477C11.2457 11.6862 11.135 11.8093 10.9257 11.8216C10.6426 11.8339 10.3473 11.8339 10.0642 11.8216C9.84265 11.8093 9.71957 11.6739 9.69495 11.4524C9.67034 11.3662 9.67034 11.2309 9.67034 11.0832ZM5.05495 8.2524H10.3226C10.0519 7.48932 9.78111 6.75086 9.51034 6.01239C9.46111 5.8647 9.32572 5.8647 9.20265 5.8647C8.19342 5.8647 7.17188 5.8647 6.16265 5.8647C5.95342 5.8647 5.83034 5.95086 5.75649 6.14778C5.62111 6.54163 5.48572 6.92316 5.35034 7.31701C5.25188 7.61239 5.16572 7.92009 5.05495 8.2524ZM5.06726 10.3693C5.46111 10.3693 5.7688 10.0493 5.75649 9.65547C5.74418 9.26163 5.43649 8.95393 5.04265 8.96624C4.6488 8.96624 4.34111 9.28624 4.34111 9.68009C4.35342 10.0616 4.67342 10.3693 5.06726 10.3693ZM10.2734 10.3693C10.6673 10.3693 10.975 10.0616 10.9873 9.68009C10.9873 9.28624 10.6796 8.97855 10.2857 8.97855C9.89188 8.97855 9.58418 9.27393 9.58418 9.66778C9.57188 10.0493 9.87957 10.357 10.2734 10.3693Z" fill="white"/>
</svg>
