<svg width="33" height="33" viewBox="0 0 33 33" fill="none" xmlns="http://www.w3.org/2000/svg">
<circle cx="16.5" cy="16.5" r="16.5" fill="#6958B9"/>
<g clip-path="url(#clip0_2371_161)">
<path d="M19.6632 16.7471L18.1556 18.2597C17.5443 18.8732 16.4687 18.8864 15.8441 18.2597L14.3365 16.7471L8.92188 22.1793C9.12343 22.2725 9.34565 22.3281 9.5819 22.3281H24.4178C24.6541 22.3281 24.8762 22.2725 25.0777 22.1793L19.6632 16.7471Z" fill="white"/>
<path d="M24.4178 9.67188H9.58183C9.34558 9.67188 9.12336 9.72749 8.92188 9.82069L14.7078 15.6258C14.7082 15.6262 14.7086 15.6263 14.709 15.6266C14.7094 15.627 14.7095 15.6276 14.7095 15.6276L16.5908 17.5151C16.7906 17.7149 17.209 17.7149 17.4089 17.5151L19.2898 15.6279C19.2898 15.6279 19.2903 15.627 19.2906 15.6266C19.2906 15.6266 19.2915 15.6262 19.2919 15.6258L25.0776 9.82066C24.8762 9.72742 24.654 9.67188 24.4178 9.67188Z" fill="white"/>
<path d="M8.16826 10.5581C8.06398 10.769 8 11.003 8 11.2538V20.746C8 20.9967 8.06391 21.2308 8.16822 21.4416L13.5922 16L8.16826 10.5581Z" fill="white"/>
<path d="M25.8321 10.5581L20.4082 16.0001L25.8321 21.4418C25.9364 21.2309 26.0004 20.9968 26.0004 20.746V11.2538C26.0004 11.003 25.9364 10.769 25.8321 10.5581Z" fill="white"/>
</g>
<defs>
<clipPath id="clip0_2371_161">
<rect width="18" height="18" fill="white" transform="translate(8 7)"/>
</clipPath>
</defs>
</svg>
