<svg width="33" height="33" viewBox="0 0 33 33" fill="none" xmlns="http://www.w3.org/2000/svg">
<circle cx="16.5" cy="16.5" r="16.5" fill="#6958B9"/>
<g clip-path="url(#clip0_2371_162)">
<path d="M16.5026 6H16.4974C10.7079 6 6 10.7092 6 16.5C6 18.7969 6.74025 20.9257 7.99894 22.6543L6.69038 26.5551L10.7263 25.2649C12.3866 26.3647 14.3672 27 16.5026 27C22.2921 27 27 22.2894 27 16.5C27 10.7106 22.2921 6 16.5026 6Z" fill="white"/>
<path d="M22.6132 20.8271C22.3599 21.5424 21.3545 22.1357 20.5526 22.3089C20.004 22.4257 19.2873 22.5189 16.875 21.5188C13.7893 20.2404 11.8021 17.1049 11.6473 16.9014C11.499 16.698 10.4004 15.2411 10.4004 13.7344C10.4004 12.2276 11.1656 11.4939 11.474 11.1789C11.7273 10.9204 12.146 10.8022 12.5476 10.8022C12.6776 10.8022 12.7944 10.8088 12.8994 10.8141C13.2078 10.8272 13.3627 10.8456 13.5661 11.3325C13.8195 11.9428 14.4363 13.4496 14.5098 13.6044C14.5846 13.7593 14.6595 13.9693 14.5545 14.1727C14.456 14.3827 14.3694 14.4759 14.2145 14.6544C14.0596 14.8329 13.9126 14.9694 13.7578 15.1611C13.616 15.3277 13.4559 15.5062 13.6344 15.8147C13.8129 16.1166 14.4298 17.1232 15.338 17.9317C16.5101 18.9752 17.4603 19.3086 17.8003 19.4503C18.0536 19.5553 18.3555 19.5304 18.5405 19.3335C18.7755 19.0802 19.0655 18.6602 19.3608 18.2467C19.5708 17.9501 19.836 17.9134 20.1142 18.0184C20.3977 18.1168 21.8979 18.8584 22.2063 19.0119C22.5148 19.1668 22.7182 19.2403 22.793 19.3702C22.8665 19.5002 22.8665 20.1105 22.6132 20.8271Z" fill="#6958B9"/>
</g>
<defs>
<clipPath id="clip0_2371_162">
<rect width="21" height="21" fill="white" transform="translate(6 6)"/>
</clipPath>
</defs>
</svg>
