<svg width="18" height="25" viewBox="0 0 18 25" fill="none" xmlns="http://www.w3.org/2000/svg">
<path d="M8.90859 0.0385742C13.3975 0.0385742 17.0367 3.79914 17.0367 8.43885C17.0367 11.0575 13.6119 16.5273 11.0285 20.7317C10.1812 22.1109 9.42422 23.354 8.90859 24.3155C8.40996 23.3867 7.65645 22.14 6.80625 20.7414C4.23633 16.5158 0.779297 10.8983 0.779297 8.43885C0.779297 3.79914 4.41855 0.0385742 8.90859 0.0385742ZM12.5402 8.12219C12.5402 6.05391 10.909 4.36768 8.90859 4.36768C6.90703 4.36768 5.27578 6.05391 5.27578 8.12219C5.27578 10.1893 6.90703 11.8749 8.90859 11.8749C10.909 11.8749 12.5402 10.1893 12.5402 8.12219Z" fill="#5949A7"/>
</svg>
