<svg width="83" height="58" viewBox="0 0 83 58" fill="none" xmlns="http://www.w3.org/2000/svg">
<path d="M14.2051 43.8853H15.67V50.0312C15.67 50.7039 15.6374 51.2269 15.5723 51.6002C15.5072 51.9691 15.3944 52.2881 15.2338 52.5572C14.8301 53.2213 14.0901 53.5533 13.0137 53.5533C12.2238 53.5533 11.5228 53.3775 10.9108 53.026L11.3145 51.8736C11.7789 52.2122 12.2715 52.3814 12.7924 52.3814C13.3783 52.3814 13.7776 52.1536 13.9903 51.6978C14.1335 51.3853 14.2051 50.8319 14.2051 50.0377V43.8853ZM17.7077 47.0038H19.114V50.4218C19.114 51.0511 19.1791 51.5112 19.3093 51.802C19.5046 52.2404 19.8931 52.4596 20.4746 52.4596C21.1127 52.4596 21.5554 52.1991 21.8028 51.6783C21.9677 51.3354 22.0502 50.7777 22.0502 50.0051V47.0038H23.4564V53.4036H22.1869L22.1153 52.6418C21.8505 52.9717 21.5597 53.2061 21.2429 53.345C20.926 53.4839 20.5311 53.5533 20.058 53.5533C19.0424 53.5533 18.3609 53.2039 18.0137 52.5051C17.8097 52.0928 17.7077 51.4309 17.7077 50.5194V47.0038ZM25.3379 53.4036V47.0038H26.6075L26.6921 47.7655C26.9699 47.4313 27.2607 47.197 27.5645 47.0624C27.8683 46.9235 28.2524 46.8541 28.7168 46.8541C29.7151 46.8541 30.377 47.2382 30.7025 48.0064C30.989 47.5941 31.3058 47.299 31.653 47.121C32.0003 46.9431 32.4321 46.8541 32.9486 46.8541C33.9295 46.8541 34.5957 47.2165 34.9473 47.9413C35.1513 48.3623 35.2533 49.0438 35.2533 49.9856V53.4036H33.847V50.0767C33.847 49.4214 33.7885 48.9439 33.6713 48.6444C33.4846 48.18 33.1135 47.9478 32.558 47.9478C31.9417 47.9478 31.5055 48.2083 31.2494 48.7291C31.0845 49.0676 31.002 49.6037 31.002 50.3372V53.4036H29.5957V50.0637C29.5957 49.417 29.5371 48.9439 29.42 48.6444C29.2333 48.18 28.8622 47.9478 28.3067 47.9478C27.6817 47.9478 27.2433 48.2083 26.9916 48.7291C26.8266 49.0763 26.7442 49.634 26.7442 50.4023V53.4036H25.3379ZM38.502 52.5181V56.6067H37.0957V47.0038H38.3718L38.4369 47.8892C38.9577 47.1991 39.7108 46.8541 40.696 46.8541C41.6075 46.8541 42.3366 47.1557 42.8835 47.759C43.426 48.3623 43.6973 49.1783 43.6973 50.2069C43.6973 51.2399 43.426 52.0559 42.8835 52.6549C42.3323 53.2582 41.5966 53.5598 40.6765 53.5598C40.2121 53.5598 39.7932 53.4708 39.42 53.2929C39.0467 53.1149 38.7407 52.8567 38.502 52.5181ZM40.39 47.9283C39.7737 47.9283 39.3006 48.1475 38.9707 48.5859C38.6582 49.0025 38.502 49.5342 38.502 50.1809C38.502 50.858 38.6582 51.407 38.9707 51.828C39.2963 52.2664 39.7715 52.4856 40.3965 52.4856C41.0172 52.4856 41.4838 52.2664 41.7963 51.828C42.0957 51.407 42.2455 50.8667 42.2455 50.2069C42.2455 49.5385 42.0957 48.9982 41.7963 48.5859C41.4751 48.1475 41.0063 47.9283 40.39 47.9283ZM49.6934 53.4036V45.0572H47.1674V43.8853H53.7038V45.0572H51.1648V53.4036H49.6934ZM59.9668 50.5455H54.9538C54.9712 51.0099 55.0862 51.3962 55.2989 51.7043C55.6721 52.2382 56.3015 52.5051 57.1869 52.5051C57.9942 52.5051 58.7103 52.338 59.3353 52.0038L59.7259 53.0129C58.9404 53.3775 58.0832 53.5598 57.1543 53.5598C55.9781 53.5598 55.0927 53.2647 54.4981 52.6744C53.8861 52.0668 53.5801 51.2421 53.5801 50.2004C53.5801 49.1761 53.8731 48.3558 54.459 47.7395C55.0189 47.1492 55.8067 46.8541 56.8223 46.8541C57.8987 46.8541 58.7103 47.1753 59.2572 47.8176C59.739 48.3862 59.9799 49.1392 59.9799 50.0767C59.9799 50.1896 59.9755 50.3458 59.9668 50.5455ZM58.6257 49.5689C58.5476 48.4361 57.9595 47.8697 56.8614 47.8697C56.3015 47.8697 55.8588 48.0173 55.5332 48.3124C55.2077 48.6032 55.0254 49.0221 54.9864 49.5689H58.6257ZM60.9043 53.0064L61.3666 51.9908C61.8787 52.338 62.4929 52.5116 63.209 52.5116C64.0858 52.5116 64.5241 52.2165 64.5241 51.6262C64.5241 51.3701 64.4308 51.1835 64.2442 51.0663C64.1313 51.0012 64.0207 50.9491 63.9121 50.9101C63.8036 50.8667 63.4716 50.7582 62.9161 50.5846C62.3214 50.4023 61.8831 50.157 61.6009 49.8489C61.3232 49.5407 61.1843 49.1523 61.1843 48.6835C61.1843 48.0889 61.3818 47.6332 61.7767 47.3163C62.163 47.0082 62.7099 46.8541 63.4174 46.8541C64.2116 46.8541 64.9321 47.0559 65.5788 47.4596L65.084 48.384C64.5502 48.0585 64.0228 47.8958 63.502 47.8958C62.8119 47.8958 62.4668 48.1345 62.4668 48.6119C62.4668 48.8853 62.5927 49.0893 62.8444 49.2239C62.979 49.2977 63.3132 49.4214 63.847 49.595C64.4937 49.8076 64.9603 50.0268 65.2468 50.2525C65.6287 50.552 65.8197 50.9969 65.8197 51.5872C65.8197 52.8979 64.9755 53.5533 63.2871 53.5533C62.3366 53.5533 61.5424 53.371 60.9043 53.0064ZM67.6491 48.1171H66.6921V47.0038H67.6947L67.7793 45.0833L69.0293 44.8814V47.0038H70.7806V48.1171H69.0293V50.9491C69.0293 51.4917 69.0923 51.8584 69.2181 52.0494C69.3527 52.2577 69.6196 52.3619 70.0189 52.3619C70.2056 52.3619 70.4139 52.3228 70.6439 52.2447L70.8783 53.358C70.4616 53.4578 70.0536 53.5077 69.6543 53.5077C68.7819 53.5077 68.2069 53.2582 67.9291 52.759C67.8206 52.5637 67.7468 52.3337 67.7077 52.0689C67.6687 51.8042 67.6491 51.3962 67.6491 50.845V48.1171Z" fill="black"/>
<line x1="16.7551" y1="0.833333" x2="20.2974" y2="0.833333" stroke="black" stroke-width="0.333333"/>
<line x1="14.984" y1="1.93514" x2="18.5263" y2="1.93514" stroke="black" stroke-width="0.333333"/>
<path d="M6.19495 29.7836L7.82005 27.5525L9.14216 29.7836" stroke="black" stroke-width="0.666667"/>
<path d="M10.9178 29.7836L12.5429 27.5525L13.8651 29.7836" stroke="black" stroke-width="0.666667"/>
<path d="M15.6409 29.7836L17.266 27.5525L18.5881 29.7836" stroke="black" stroke-width="0.666667"/>
<path d="M20.3638 29.7836L21.9889 27.5525L23.311 29.7836" stroke="black" stroke-width="0.666667"/>
<path d="M25.0867 29.7836L26.7118 27.5525L28.0339 29.7836" stroke="black" stroke-width="0.666667"/>
<path d="M29.8097 29.7836L31.4348 27.5525L32.7569 29.7836" stroke="black" stroke-width="0.666667"/>
<path d="M34.5326 29.7836L36.1577 27.5525L37.4798 29.7836" stroke="black" stroke-width="0.666667"/>
<path d="M39.2556 29.7836L40.8807 27.5525L42.2028 29.7836" stroke="black" stroke-width="0.666667"/>
<path d="M43.9785 29.7836L45.6036 27.5525L46.9257 29.7836" stroke="black" stroke-width="0.666667"/>
<path d="M48.7014 29.7836L50.3265 27.5525L51.6486 29.7836" stroke="black" stroke-width="0.666667"/>
<path d="M53.4243 29.7836L55.0494 27.5525L56.3715 29.7836" stroke="black" stroke-width="0.666667"/>
<path d="M58.1473 29.7836L59.7724 27.5525L61.0946 29.7836" stroke="black" stroke-width="0.666667"/>
<path d="M62.8702 29.7836L64.4953 27.5525L65.8175 29.7836" stroke="black" stroke-width="0.666667"/>
<path d="M67.5933 29.7836L69.2184 27.5525L70.5405 29.7836" stroke="black" stroke-width="0.666667"/>
<path d="M72.3162 29.7836L73.9413 27.5525L75.2634 29.7836" stroke="black" stroke-width="0.666667"/>
<path d="M75.5033 17.0923C75.4075 15.6425 74.9641 13.8213 73.6342 12.1199C73.6222 12.096 73.6102 12.072 73.5982 12.048C73.5503 11.9642 73.4904 11.9043 73.4185 11.8563C72.3761 10.6222 70.8305 9.48396 68.5659 8.63326C68.4821 8.57335 68.3982 8.53741 68.2904 8.52543C68.2784 8.52543 68.2664 8.52543 68.2544 8.52543C65.918 7.69869 62.8866 7.1715 58.8728 7.1715C57.0156 7.1715 55.1585 7.24339 52.846 7.38717C49.8745 5.43416 42.6496 1.18066 36.1076 1.18066C29.5656 1.18066 23.455 2.42676 18.6863 3.42124C17.4761 3.67285 16.3379 3.9005 15.2355 4.11617C14.5286 3.9005 13.7618 3.66087 13.007 3.42124C8.5977 2.03136 8.16636 1.95947 7.80691 2.52261C7.747 2.63045 7.55529 2.9899 7.93871 3.40925C8.48986 3.99636 8.9212 4.95489 9.08895 5.37425L6.10551 12.3356C5.7221 13.2702 5.71012 14.2886 6.08155 15.2232L7.36359 18.4223C7.81889 19.5845 8.82535 20.4352 10.0834 20.6988L14.5166 21.5735H15.1756C16.1701 22.3163 17.3922 22.7716 18.7342 22.7716C20.0761 22.7716 21.2983 22.3163 22.2927 21.5735H59.5078C60.5023 22.3163 61.7244 22.7716 63.0663 22.7716C64.4083 22.7716 65.6304 22.3163 66.6249 21.5735H74.4489C74.6526 21.5735 74.8443 21.4656 74.9641 21.2859C75.072 21.1062 75.084 20.8905 74.9881 20.6988L73.9936 18.7218L75.3116 17.5836C75.4554 17.4637 75.5273 17.284 75.5153 17.0923H75.5033ZM72.5558 12.6591C72.7955 13.0904 72.8674 13.366 72.8793 13.5098C72.5319 13.4619 71.5613 13.0066 70.4111 11.7964C69.824 11.1854 69.4166 10.6222 69.153 10.1549C70.6747 10.8499 71.765 11.7125 72.5558 12.6591ZM12.5756 4.54751C11.7129 4.66733 10.8862 4.73922 10.1194 4.76318C9.98757 4.46364 9.80785 4.06825 9.55623 3.63691C10.4189 3.87654 11.5931 4.24797 12.5756 4.55949V4.54751ZM8.4659 17.967L7.32764 15.1153L9.80785 16.9725C9.89172 17.0324 9.97559 17.0684 10.0714 17.0803L12.8033 17.4997C12.9351 18.4942 13.2825 19.4168 13.8337 20.1956L10.3111 19.4887C9.46038 19.3089 8.77742 18.7338 8.4659 17.943V17.967ZM13.9295 16.7688C13.9295 14.1209 16.0743 11.9761 18.7222 11.9761C21.3702 11.9761 23.5149 14.1209 23.5149 16.7688C23.5149 19.4168 21.3702 21.5615 18.7222 21.5615C16.0743 21.5615 13.9295 19.4168 13.9295 16.7688ZM58.2617 16.7688C58.2617 14.1209 60.4064 11.9761 63.0544 11.9761C65.7023 11.9761 67.847 14.1209 67.847 16.7688C67.847 19.4168 65.7023 21.5615 63.0544 21.5615C60.4064 21.5615 58.2617 19.4168 58.2617 16.7688ZM67.8111 20.3633C68.5659 19.3569 69.0452 18.1227 69.0452 16.7688C69.0452 13.4619 66.3613 10.778 63.0544 10.778C60.2507 10.778 57.9023 12.719 57.2552 15.331L50.5575 14.3845C50.234 14.3365 49.9225 14.5642 49.8745 14.8877C49.8266 15.2112 50.0543 15.5227 50.3778 15.5706L53.6967 16.0379L52.3787 17.7513L31.5905 16.7808L27.0495 11.3411C26.8098 11.0536 26.702 10.6821 26.7379 10.3107C26.7739 9.93926 26.9536 9.60378 27.2412 9.37612L28.679 8.18994C32.0698 8.65722 34.6099 8.94479 36.2154 9.02866C37.797 9.11253 39.3666 9.16045 40.9722 9.16045C42.3141 9.16045 43.68 9.12451 45.1058 9.0646C45.1298 9.1964 45.1777 9.31622 45.2616 9.41207C45.3095 9.46 45.7289 9.86737 46.304 9.86737C46.4118 9.86737 46.5317 9.85539 46.6634 9.81945C47.0349 9.69963 47.3344 9.40009 47.5741 8.94478C48.281 8.90884 48.9639 8.86091 49.6589 8.81299C49.9225 8.78902 50.1381 8.6093 50.198 8.35768C50.2579 8.10607 50.1501 7.84247 49.9225 7.71067C46.292 5.56595 40.9482 3.01386 36.1196 3.01386C31.291 3.01386 26.3785 3.91248 23.2393 4.65535C22.5683 4.82309 22.125 5.41019 22.1609 6.10513C22.1969 6.78808 22.6881 7.33924 23.3591 7.43509C24.6891 7.63878 25.9232 7.81851 27.0854 7.98625L26.4983 8.46552C25.9591 8.89686 25.6356 9.5199 25.5637 10.2148C25.4918 10.9098 25.7075 11.5927 26.1508 12.1319L30.8596 17.7753C30.9675 17.9071 31.1232 17.979 31.291 17.9909L52.6543 18.9854H52.6782C52.858 18.9854 53.0377 18.9015 53.1575 18.7578L55.0866 16.2536L57.1115 16.5412C57.1115 16.625 57.0875 16.7089 57.0875 16.7928C57.0875 18.1467 57.5548 19.3808 58.3216 20.3873H23.4789C24.2338 19.3808 24.713 18.1467 24.713 16.7928C24.713 13.4858 22.0291 10.8019 18.7222 10.8019C15.4153 10.8019 13.0189 13.2462 12.7793 16.3255L10.4069 15.9541L7.04008 13.4259C7.07603 13.2222 7.12395 13.0186 7.20783 12.8149L10.1314 5.99729C11.665 5.96135 13.3904 5.69775 15.2595 5.35028C16.4217 5.13461 17.6199 4.89498 18.9019 4.6194C23.8623 3.577 29.4937 2.40279 36.0836 2.40279C42.6736 2.40279 49.551 6.68025 52.3188 8.52543C52.4266 8.59732 52.5464 8.63326 52.6902 8.62128C55.0746 8.46552 56.9677 8.39363 58.8488 8.39363C62.5871 8.39363 65.4507 8.83695 67.6433 9.55585C67.8231 10.5503 68.7217 11.7844 69.5364 12.6232C70.483 13.6176 71.8729 14.684 72.9033 14.708H72.9273C73.2747 14.708 73.5024 14.5882 73.6462 14.4683C73.9217 15.0914 74.0895 15.7384 74.1853 16.3614L70.9623 15.5946C70.6388 15.5227 70.3153 15.7144 70.2434 16.0379C70.1715 16.3614 70.3632 16.6849 70.6867 16.7568L73.6102 17.4398L72.8314 18.1108C72.6277 18.2905 72.5678 18.59 72.6876 18.8297L73.4545 20.3633H67.7991H67.8111ZM46.28 7.21942C46.5436 7.26735 46.7593 7.35122 46.7952 7.45906C46.7353 7.74662 46.6754 7.95031 46.6275 8.11805C46.6275 8.14201 46.6035 8.16598 46.6035 8.18994C46.4478 8.58533 46.316 8.65722 46.304 8.65722C46.304 8.65722 46.292 8.65722 46.28 8.65722V7.21942ZM45.0819 6.5844V7.86643C41.9427 7.99823 39.1869 7.98625 36.2753 7.83049C34.9094 7.7586 32.8366 7.53095 30.1288 7.1715L29.29 4.69129C31.4108 4.39175 33.7352 4.17608 36.0956 4.17608C39.0551 4.17608 42.2542 5.21849 45.0938 6.51251C45.0938 6.53647 45.0819 6.54845 45.0819 6.57241V6.5844ZM28.0799 4.883L28.7988 6.99177C27.2172 6.7761 25.4799 6.52449 23.5269 6.22495C23.3831 6.20098 23.3471 6.10513 23.3351 6.02126C23.3351 5.93739 23.3591 5.82955 23.5029 5.79361C24.7849 5.48208 26.3545 5.15858 28.0919 4.883H28.0799Z" fill="black"/>
<path d="M55.5417 10.7898L48.173 9.59162C47.8495 9.54369 47.538 9.75936 47.4901 10.0829C47.4421 10.4064 47.6578 10.7179 47.9813 10.7658L54.092 11.7603L53.6726 12.1198C53.421 12.3354 53.397 12.7188 53.6127 12.9705C53.7325 13.1023 53.9002 13.1741 54.068 13.1741C54.2118 13.1741 54.3436 13.1262 54.4634 13.0304L55.8413 11.8322C56.021 11.6764 56.0929 11.4368 56.021 11.2211C55.9611 10.9935 55.7694 10.8257 55.5417 10.7898Z" fill="black"/>
<path d="M32.5011 9.58008H31.3029C30.9675 9.58008 30.7039 9.84367 30.7039 10.1792C30.7039 10.5146 30.9675 10.7782 31.3029 10.7782H32.5011C32.8366 10.7782 33.1002 10.5146 33.1002 10.1792C33.1002 9.84367 32.8366 9.58008 32.5011 9.58008Z" fill="black"/>
<path d="M27.1813 18.8418C27.2891 19.0455 27.4928 19.1653 27.7085 19.1653H29.0744C29.4099 19.1653 29.6735 18.9017 29.6735 18.5663C29.6735 18.2308 29.4099 17.9672 29.0744 17.9672H28.0679L26.5462 15.0077C26.7859 14.9238 26.9536 14.7082 26.9536 14.4326C26.9536 14.0971 26.69 13.8335 26.3545 13.8335H25.5757C25.372 13.8335 25.1684 13.9413 25.0605 14.1211C24.9527 14.3008 24.9407 14.5165 25.0366 14.7082L27.1693 18.8299L27.1813 18.8418Z" fill="black"/>
<path d="M63.0543 13.1743C61.0774 13.1743 59.4598 14.7918 59.4598 16.7688C59.4598 18.7458 61.0774 20.3633 63.0543 20.3633C65.0313 20.3633 66.6488 18.7458 66.6488 16.7688C66.6488 14.7918 65.0313 13.1743 63.0543 13.1743ZM63.0543 19.1651C61.7364 19.1651 60.658 18.0868 60.658 16.7688C60.658 15.4508 61.7364 14.3725 63.0543 14.3725C64.3723 14.3725 65.4507 15.4508 65.4507 16.7688C65.4507 18.0868 64.3723 19.1651 63.0543 19.1651Z" fill="black"/>
<path d="M18.7222 13.1743C16.7452 13.1743 15.1277 14.7918 15.1277 16.7688C15.1277 18.7458 16.7452 20.3633 18.7222 20.3633C20.6992 20.3633 22.3167 18.7458 22.3167 16.7688C22.3167 14.7918 20.6992 13.1743 18.7222 13.1743ZM18.7222 19.1651C17.4042 19.1651 16.3259 18.0868 16.3259 16.7688C16.3259 15.4508 17.4042 14.3725 18.7222 14.3725C20.0402 14.3725 21.1185 15.4508 21.1185 16.7688C21.1185 18.0868 20.0402 19.1651 18.7222 19.1651Z" fill="black"/>
<path d="M12.8271 11.2574L9.83169 10.7901C9.50819 10.7422 9.19666 10.9578 9.14874 11.2933C9.10081 11.6168 9.31648 11.9284 9.65197 11.9763L11.8326 12.3118L11.2216 13.498C11.0658 13.7975 11.1856 14.1569 11.4852 14.3007C11.569 14.3487 11.6649 14.3606 11.7607 14.3606C11.9764 14.3606 12.1921 14.2408 12.2999 14.0371L13.2824 12.1081C13.3663 11.9403 13.3663 11.7366 13.2824 11.5689C13.1985 11.4012 13.0308 11.2813 12.8391 11.2454L12.8271 11.2574Z" fill="black"/>
<line x1="0.11853" y1="29.9736" x2="82.0897" y2="29.9736" stroke="black" stroke-width="0.666667"/>
<line x1="1.77124" y1="19.0125" x2="5.31356" y2="19.0125" stroke="black" stroke-width="0.333333"/>
<line y1="20.1141" x2="3.54232" y2="20.1141" stroke="black" stroke-width="0.333333"/>
</svg>
