<svg width="33" height="33" viewBox="0 0 33 33" fill="none" xmlns="http://www.w3.org/2000/svg">
<circle cx="16.5" cy="16.5" r="16.5" fill="#6958B9"/>
<g clip-path="url(#clip0_2371_160)">
<path d="M22.7964 18.8458C21.878 18.8458 20.9763 18.7021 20.1218 18.4198C19.7031 18.277 19.1884 18.408 18.9329 18.6704L17.2463 19.9436C15.2903 18.8995 14.0854 17.6951 13.0556 15.7538L14.2913 14.1111C14.6124 13.7905 14.7275 13.3221 14.5896 12.8827C14.306 12.0237 14.1619 11.1224 14.1619 10.2037C14.162 9.53996 13.622 9 12.9583 9H10.2036C9.53996 9 9 9.53996 9 10.2036C9 17.8111 15.189 24 22.7964 24C23.4601 24 24 23.46 24 22.7964V20.0494C24 19.3857 23.46 18.8458 22.7964 18.8458Z" fill="white"/>
</g>
<defs>
<clipPath id="clip0_2371_160">
<rect width="15" height="15" fill="white" transform="translate(9 9)"/>
</clipPath>
</defs>
</svg>
