<svg width="33" height="33" viewBox="0 0 33 33" fill="none" xmlns="http://www.w3.org/2000/svg">
<circle cx="16.5" cy="16.5" r="16.5" fill="#6958B9"/>
<path d="M19.6632 16.7471L18.1556 18.2597C17.5443 18.8732 16.4687 18.8864 15.8441 18.2597L14.3365 16.7471L8.92188 22.1793C9.12343 22.2725 9.34565 22.3281 9.5819 22.3281H24.4178C24.6541 22.3281 24.8762 22.2725 25.0777 22.1793L19.6632 16.7471Z" fill="white"/>
<path d="M24.4178 9.67188H9.58183C9.34558 9.67188 9.12336 9.72749 8.92188 9.82069L14.7078 15.6258C14.7082 15.6262 14.7086 15.6263 14.709 15.6266C14.7094 15.627 14.7095 15.6276 14.7095 15.6276L16.5908 17.5151C16.7906 17.7149 17.209 17.7149 17.4089 17.5151L19.2898 15.6279C19.2898 15.6279 19.2903 15.627 19.2906 15.6266C19.2906 15.6266 19.2915 15.6262 19.2919 15.6258L25.0776 9.82066C24.8762 9.72742 24.654 9.67188 24.4178 9.67188Z" fill="white"/>
<path d="M8.16826 10.5583C8.06398 10.7692 8 11.0033 8 11.254V20.7462C8 20.9969 8.06391 21.231 8.16822 21.4419L13.5922 16.0003L8.16826 10.5583Z" fill="white"/>
<path d="M25.8302 10.5581L20.4062 16.0001L25.8302 21.4418C25.9345 21.2309 25.9984 20.9968 25.9984 20.746V11.2538C25.9984 11.003 25.9345 10.769 25.8302 10.5581Z" fill="white"/>
</svg>
