<svg width="33" height="33" viewBox="0 0 33 33" fill="none" xmlns="http://www.w3.org/2000/svg">
<circle cx="16.5" cy="16.5" r="16.5" fill="#6958B9"/>
<g clip-path="url(#clip0_2372_163)">
<path d="M21.8766 18.533C21.0195 18.533 20.1779 18.4085 19.3804 18.1638C18.9896 18.04 18.5092 18.1536 18.2707 18.381L16.6965 19.4845C14.8709 18.5796 13.7464 17.5357 12.7852 15.8533L13.9386 14.4296C14.2382 14.1518 14.3457 13.7459 14.2169 13.365C13.9522 12.6205 13.8178 11.8394 13.8178 11.0432C13.8178 10.468 13.3139 10 12.6944 10H10.1234C9.50396 10 9 10.468 9 11.0431C9 17.6362 14.7764 23 21.8766 23C22.4961 23 23 22.532 23 21.9569V19.5761C23 19.001 22.496 18.533 21.8766 18.533Z" fill="white"/>
</g>
<defs>
<clipPath id="clip0_2372_163">
<rect width="14" height="13" fill="white" transform="translate(9 10)"/>
</clipPath>
</defs>
</svg>
