<svg width="12" height="11" viewBox="0 0 12 11" fill="none" xmlns="http://www.w3.org/2000/svg">
<path d="M1.95258 0.97998C1.18546 0.97998 0.683899 1.48371 0.683899 2.14579C0.683899 2.79325 1.17052 3.31135 1.92314 3.31135H1.9377C2.71982 3.31135 3.20657 2.79325 3.20657 2.14579C3.19194 1.48371 2.71982 0.97998 1.95258 0.97998Z" fill="white"/>
<path d="M0.81665 4.23242H3.05926V10.9794H0.81665V4.23242Z" fill="white"/>
<path d="M8.56475 4.07373C7.35494 4.07373 6.5437 5.21055 6.5437 5.21055V4.23208H4.30103V10.9791H6.54357V7.21129C6.54357 7.00958 6.5582 6.80819 6.61745 6.66395C6.77957 6.26117 7.14851 5.8439 7.76806 5.8439C8.57956 5.8439 8.90412 6.46263 8.90412 7.36964V10.9791H11.1465V7.11047C11.1465 5.03809 10.0401 4.07373 8.56475 4.07373Z" fill="white"/>
</svg>
