<svg width="13" height="10" viewBox="0 0 13 10" fill="none" xmlns="http://www.w3.org/2000/svg">
<path d="M6.31011 9.31315C6.3091 9.31315 6.30801 9.31315 6.30691 9.31315C5.94482 9.31068 2.74377 9.28149 1.83685 9.03636C1.20303 8.86608 0.70269 8.36659 0.531853 7.73304C0.294548 6.84266 0.309654 5.12841 0.311302 4.99153C0.309746 4.85529 0.294456 3.12686 0.53112 2.22915C0.531395 2.22833 0.531578 2.22742 0.531853 2.22659C0.700767 1.60028 1.21236 1.08532 1.83529 0.914578C1.83685 0.914121 1.83849 0.913755 1.84005 0.913297C2.73672 0.677777 5.94408 0.648955 6.30691 0.646484H6.31341C6.67641 0.648955 9.88598 0.678143 10.7846 0.923637C11.4167 1.09346 11.9167 1.59232 12.088 2.22504C12.3342 3.12338 12.3114 4.85556 12.3089 5.00178C12.3107 5.1458 12.325 6.84467 12.0891 7.73954C12.0889 7.74046 12.0886 7.74128 12.0885 7.7421C11.9175 8.37565 11.4173 8.87514 10.7827 9.04561C10.7819 9.04588 10.781 9.04606 10.7802 9.04634C9.8836 9.28177 6.67614 9.31059 6.31341 9.31315C6.31231 9.31315 6.31121 9.31315 6.31011 9.31315ZM1.43731 2.46943C1.22894 3.26182 1.24862 4.9682 1.2488 4.9854V4.99775C1.24258 5.47099 1.26446 6.84147 1.4374 7.49057C1.52126 7.80139 1.768 8.04762 2.08092 8.13171C2.75008 8.3126 5.35723 8.36952 6.31011 8.37619C7.26546 8.36952 9.87646 8.31416 10.5407 8.14049C10.8526 8.05613 11.0985 7.81073 11.1829 7.49954C11.356 6.84092 11.3777 5.47712 11.3714 5.0069C11.3714 5.00196 11.3714 4.99702 11.3715 4.99208C11.3801 4.51317 11.3632 3.12667 11.1837 2.47236C11.1836 2.47172 11.1834 2.47108 11.1833 2.47044C11.0991 2.15824 10.8522 1.91202 10.5393 1.82793C9.87664 1.64685 7.26528 1.59012 6.31011 1.58344C5.3554 1.59012 2.74697 1.64539 2.08074 1.81887C1.77377 1.90396 1.52145 2.15897 1.43731 2.46943ZM5.11526 6.87706V3.08248L8.39651 4.97982L5.11526 6.87706Z" fill="white"/>
</svg>
