<svg width="11" height="11" viewBox="0 0 11 11" fill="none" xmlns="http://www.w3.org/2000/svg">
<path d="M5.59587 10.98C5.56275 10.98 5.52964 10.98 5.4963 10.9798C4.71243 10.9817 3.98814 10.9618 3.28377 10.9189C2.63799 10.8797 2.04852 10.6565 1.57899 10.2736C1.12594 9.90423 0.816556 9.40473 0.659461 8.78919C0.522737 8.2533 0.515488 7.72725 0.508545 7.21845C0.50351 6.85338 0.498322 6.42079 0.497253 5.98088C0.498322 5.53914 0.50351 5.10655 0.508545 4.74148C0.515488 4.23275 0.522737 3.70671 0.659461 3.17074C0.816556 2.5552 1.12594 2.0557 1.57899 1.68628C2.04852 1.30344 2.63799 1.08028 3.28384 1.04099C3.98822 0.998187 4.71265 0.978198 5.49821 0.980105C6.28231 0.978427 7.00637 0.998187 7.71074 1.04099C8.35652 1.08028 8.94599 1.30344 9.41552 1.68628C9.86864 2.0557 10.178 2.5552 10.335 3.17074C10.4718 3.70663 10.479 4.23275 10.486 4.74148C10.491 5.10655 10.4963 5.53914 10.4973 5.97905V5.98088C10.4963 6.42079 10.491 6.85338 10.486 7.21845C10.479 7.72718 10.4718 8.25323 10.335 8.78919C10.178 9.40473 9.86864 9.90423 9.41552 10.2736C8.94599 10.6565 8.35652 10.8797 7.71074 10.9189C7.0362 10.96 6.34327 10.98 5.59587 10.98ZM5.4963 10.1986C6.26743 10.2004 6.97547 10.181 7.66328 10.1391C8.15158 10.1095 8.57495 9.951 8.9218 9.66818C9.2424 9.40672 9.4632 9.046 9.57803 8.59602C9.69186 8.14992 9.69843 7.67095 9.70476 7.20777C9.70972 6.84514 9.71491 6.41561 9.71597 5.97997C9.71491 5.54425 9.70972 5.11479 9.70476 4.75216C9.69843 4.28898 9.69186 3.81001 9.57803 3.36384C9.4632 2.91386 9.2424 2.55314 8.9218 2.29168C8.57495 2.00893 8.15158 1.85047 7.66328 1.82079C6.97547 1.7789 6.26743 1.7596 5.49813 1.76128C4.72715 1.75945 4.01904 1.7789 3.33122 1.82079C2.84292 1.85047 2.41955 2.00893 2.07271 2.29168C1.75211 2.55314 1.5313 2.91386 1.41648 3.36384C1.30264 3.81001 1.29608 4.28891 1.28975 4.75216C1.28479 5.1151 1.2796 5.54486 1.27853 5.98088C1.2796 6.415 1.28479 6.84484 1.28975 7.20777C1.29608 7.67095 1.30264 8.14992 1.41648 8.59602C1.5313 9.046 1.75211 9.40672 2.07271 9.66818C2.41955 9.95092 2.84292 10.1094 3.33122 10.1391C4.01904 10.181 4.7273 10.2005 5.4963 10.1986ZM5.47768 8.42138C4.1315 8.42138 3.03618 7.32618 3.03618 5.97997C3.03618 4.63376 4.1315 3.53855 5.47768 3.53855C6.82394 3.53855 7.91918 4.63376 7.91918 5.97997C7.91918 7.32618 6.82394 8.42138 5.47768 8.42138ZM5.47768 4.31981C4.56227 4.31981 3.81746 5.06459 3.81746 5.97997C3.81746 6.89534 4.56227 7.64013 5.47768 7.64013C6.39317 7.64013 7.1379 6.89534 7.1379 5.97997C7.1379 5.06459 6.39317 4.31981 5.47768 4.31981ZM8.19263 2.7573C7.86906 2.7573 7.60667 3.0196 7.60667 3.34324C7.60667 3.66688 7.86906 3.92918 8.19263 3.92918C8.51628 3.92918 8.77859 3.66688 8.77859 3.34324C8.77859 3.0196 8.51628 2.7573 8.19263 2.7573Z" fill="white"/>
</svg>
