<svg width="16" height="17" viewBox="0 0 16 17" fill="none" xmlns="http://www.w3.org/2000/svg">
<path d="M7.9745 16.056C7.92459 16.056 7.87467 16.056 7.82442 16.0558C6.64284 16.0587 5.55108 16.0286 4.48934 15.964C3.51592 15.9048 2.62738 15.5684 1.91963 14.9913C1.23672 14.4345 0.770366 13.6815 0.533567 12.7537C0.327475 11.9459 0.316549 11.153 0.306083 10.386C0.298493 9.83574 0.290673 9.18368 0.289062 8.52057C0.290673 7.85471 0.298493 7.20264 0.306083 6.65235C0.316549 5.88552 0.327475 5.09257 0.533567 4.28468C0.770366 3.35684 1.23672 2.60392 1.91963 2.04707C2.62738 1.46999 3.51592 1.13361 4.48945 1.07438C5.55119 1.00987 6.64318 0.979735 7.82729 0.98261C9.00922 0.98008 10.1006 1.00987 11.1624 1.07438C12.1358 1.13361 13.0243 1.46999 13.7321 2.04707C14.4151 2.60392 14.8813 3.35684 15.1181 4.28468C15.3242 5.09246 15.3352 5.88552 15.3456 6.65235C15.3532 7.20264 15.3612 7.85471 15.3626 8.51781V8.52057C15.3612 9.18368 15.3532 9.83574 15.3456 10.386C15.3352 11.1529 15.3243 11.9458 15.1181 12.7537C14.8813 13.6815 14.4151 14.4345 13.7321 14.9913C13.0243 15.5684 12.1358 15.9048 11.1624 15.964C10.1456 16.0259 9.10111 16.056 7.9745 16.056ZM7.82442 14.8781C8.98679 14.8809 10.0541 14.8516 11.0908 14.7886C11.8269 14.7438 12.4651 14.505 12.9879 14.0786C13.4711 13.6845 13.804 13.1408 13.977 12.4625C14.1486 11.7901 14.1585 11.0681 14.1681 10.3699C14.1755 9.82332 14.1834 9.17586 14.185 8.51919C14.1834 7.86241 14.1755 7.21506 14.1681 6.66846C14.1585 5.97027 14.1486 5.24829 13.977 4.57575C13.804 3.89747 13.4711 3.35373 12.9879 2.95962C12.4651 2.53342 11.8269 2.29456 11.0908 2.24982C10.0541 2.18669 8.98679 2.15759 7.82718 2.16012C6.66503 2.15736 5.59766 2.18669 4.56087 2.24982C3.82483 2.29456 3.18666 2.53342 2.66384 2.95962C2.18058 3.35373 1.84775 3.89747 1.67466 4.57575C1.50307 5.24829 1.49318 5.97016 1.48364 6.66846C1.47616 7.21552 1.46834 7.86333 1.46673 8.52057C1.46834 9.17494 1.47616 9.82286 1.48364 10.3699C1.49318 11.0681 1.50307 11.7901 1.67466 12.4625C1.84775 13.1408 2.18058 13.6845 2.66384 14.0786C3.18666 14.5048 3.82483 14.7437 4.56087 14.7884C5.59766 14.8516 6.66526 14.881 7.82442 14.8781ZM7.79636 12.1993C5.76718 12.1993 4.11614 10.5484 4.11614 8.51919C4.11614 6.48997 5.76718 4.83911 7.79636 4.83911C9.82565 4.83911 11.4766 6.48997 11.4766 8.51919C11.4766 10.5484 9.82565 12.1993 7.79636 12.1993ZM7.79636 6.01674C6.4165 6.01674 5.29381 7.13939 5.29381 8.51919C5.29381 9.89899 6.4165 11.0216 7.79636 11.0216C9.17632 11.0216 10.2989 9.89899 10.2989 8.51919C10.2989 7.13939 9.17632 6.01674 7.79636 6.01674ZM11.8888 3.66148C11.401 3.66148 11.0055 4.05686 11.0055 4.5447C11.0055 5.03254 11.401 5.42792 11.8888 5.42792C12.3766 5.42792 12.772 5.03254 12.772 4.5447C12.772 4.05686 12.3766 3.66148 11.8888 3.66148Z" fill="white"/>
</svg>
