<svg width="17" height="17" viewBox="0 0 17 17" fill="none" xmlns="http://www.w3.org/2000/svg">
<path d="M2.62329 0.982422C1.46696 0.982422 0.710938 1.74172 0.710938 2.73972C0.710938 3.71567 1.44444 4.49663 2.57892 4.49663H2.60086C3.7798 4.49663 4.5135 3.71567 4.5135 2.73972C4.49146 1.74172 3.7798 0.982422 2.62329 0.982422Z" fill="white"/>
<path d="M0.910156 5.88501H4.29057V16.0551H0.910156V5.88501Z" fill="white"/>
<path d="M12.591 5.64551C10.7674 5.64551 9.54458 7.35911 9.54458 7.35911V5.8842H6.16406V16.0543H9.54439V10.3749C9.54439 10.0709 9.56643 9.76732 9.65574 9.5499C9.90012 8.94277 10.4562 8.31379 11.3901 8.31379C12.6133 8.31379 13.1026 9.24643 13.1026 10.6136V16.0543H16.4827V10.223C16.4827 7.09914 14.8149 5.64551 12.591 5.64551Z" fill="white"/>
</svg>
