<svg width="102" height="65" viewBox="0 0 102 65" fill="none" xmlns="http://www.w3.org/2000/svg">
<g clip-path="url(#clip0_2273_538)">
<mask id="mask0_2273_538" style="mask-type:luminance" maskUnits="userSpaceOnUse" x="0" y="0" width="102" height="65">
<path d="M101.492 0H0V64.324H101.492V0Z" fill="white"/>
</mask>
<g mask="url(#mask0_2273_538)">
<path d="M94.7193 1.18214e-06C93.3796 0.000594929 92.0702 0.398455 90.9567 1.14326C89.8432 1.88807 88.9755 2.94637 88.4635 4.18432C87.9514 5.42227 87.818 6.78425 88.0801 8.09803C88.3422 9.4118 88.988 10.6183 89.9359 11.5651C90.8837 12.5118 92.091 13.1562 93.405 13.4167C94.7191 13.6772 96.081 13.5422 97.3183 13.0287C98.5557 12.5152 99.6129 11.6463 100.356 10.5319C101.1 9.41752 101.496 8.10766 101.495 6.768C101.495 5.87869 101.319 4.99819 100.978 4.17677C100.637 3.35536 100.138 2.60911 99.5089 1.98065C98.8797 1.35218 98.1329 0.853797 97.3111 0.513958C96.4893 0.174118 95.6086 -0.000524261 94.7193 1.18214e-06ZM94.7193 10.023C94.078 10.02 93.4521 9.82729 92.9202 9.46906C92.3884 9.11083 91.9746 8.60316 91.7309 8.01006C91.4872 7.41696 91.4246 6.76498 91.5509 6.13633C91.6772 5.50769 91.9869 4.93052 92.4407 4.4776C92.8946 4.02468 93.4725 3.71628 94.1014 3.59131C94.7303 3.46633 95.3822 3.53036 95.9747 3.77533C96.5673 4.0203 97.0741 4.43523 97.4312 4.96782C97.7883 5.5004 97.9796 6.12679 97.9812 6.768C97.982 7.19627 97.8982 7.62046 97.7345 8.01619C97.5707 8.41192 97.3303 8.77138 97.0272 9.07388C96.724 9.37639 96.3641 9.61597 95.968 9.77886C95.5719 9.94174 95.1475 10.0247 94.7193 10.023Z" fill="black"/>
<path d="M43.1674 49.463C38.3914 48.912 33.8444 48.597 29.3854 47.808C21.5854 46.445 13.8224 44.719 7.39939 39.676C2.39939 35.752 2.42739 30.92 7.46239 27.029C9.85763 25.3686 12.3435 23.8429 14.9084 22.459C10.2084 24.05 5.85339 26.259 2.61539 30.165C-0.85261 34.365 -0.96161 39.235 2.82839 43.088C5.39461 45.6666 8.35836 47.8163 11.6064 49.455C20.5064 53.946 30.1714 55.719 40.0304 56.326C42.5604 56.476 43.8304 57.17 43.4104 59.912C43.3015 61.3806 43.2911 62.8549 43.3794 64.325C47.9894 60.282 51.8504 56.903 56.1374 53.143C51.8504 49.408 47.9264 45.98 43.5914 42.198C43.4424 44.862 43.3234 46.911 43.1674 49.465" fill="black"/>
<path d="M56.0095 1.22267C54.5215 0.494672 52.0715 0.138672 48.5195 0.138672C44.8345 0.138672 42.3055 0.483672 40.7875 1.19167C40.0308 1.5207 39.3942 2.07536 38.9646 2.77985C38.535 3.48435 38.3335 4.30431 38.3875 5.12767V11.5587H45.6005V3.86467H51.2435V15.7707H46.7435C45.3385 15.7488 43.9336 15.8219 42.5385 15.9897C41.6887 16.0802 40.8661 16.3421 40.1205 16.7597C39.682 16.9713 39.2999 17.2838 39.0055 17.6717C38.7294 18.0184 38.5676 18.4422 38.5425 18.8847C38.4387 19.3694 38.3874 19.8639 38.3895 20.3597V37.6667H58.4085V24.7237H51.2445V34.0237H45.5995V19.4177H49.9995C51.3896 19.4468 52.78 19.3827 54.1615 19.2257C55.0209 19.1119 55.8527 18.8436 56.6165 18.4337C57.2446 18.1509 57.7689 17.6793 58.1165 17.0847L58.1315 17.0507C58.3516 16.2772 58.4438 15.4729 58.4045 14.6697V4.99567C58.4374 4.197 58.225 3.40739 57.796 2.73293C57.367 2.05847 56.7418 1.53145 56.0045 1.22267" fill="black"/>
<path d="M92.6612 27.9741C96.4042 31.4181 96.4362 35.4121 92.6302 38.7301C90.3349 40.8666 87.6262 42.5104 84.6712 43.5601C77.915 45.5776 71.0551 47.23 64.1212 48.5101C58.8492 49.4941 58.4642 49.5671 59.0782 54.9101C59.1466 55.296 59.2552 55.6738 59.4022 56.0371C66.0202 56.7371 81.9022 52.9371 89.3932 48.4561C92.3108 46.6635 94.9337 44.4309 97.1692 41.8371C99.7302 38.8901 99.6752 35.2491 97.6572 31.9161C94.8682 27.3161 90.4152 24.8641 85.6572 22.8931C87.9572 24.6341 90.5572 26.0451 92.6622 27.9761" fill="black"/>
<path d="M64.8342 36.856C66.3822 37.582 68.8342 37.935 72.3182 37.935C74.266 37.9755 76.2132 37.8295 78.1332 37.499C79.3486 37.323 80.4773 36.7676 81.3582 35.912C82.0816 35.0983 82.4568 34.0333 82.4032 32.946V6.14796C82.4754 5.18827 82.4009 4.22319 82.1822 3.28596V3.27396C81.9387 2.73774 81.5561 2.27645 81.0742 1.93796C80.1553 1.22952 79.0793 0.75275 77.9372 0.547959C76.1643 0.23809 74.3656 0.101114 72.5662 0.138959C70.8438 0.111957 69.1218 0.21223 67.4142 0.438959H67.4052C66.2735 0.624764 65.1875 1.0242 64.2052 1.61596C63.569 2.0037 63.0674 2.57761 62.7682 3.25996V3.26896C62.4678 4.19765 62.3377 5.173 62.3842 6.14796V33.081C62.3534 33.886 62.5723 34.681 63.0109 35.3568C63.4495 36.0326 64.0863 36.5562 64.8342 36.856ZM69.5952 3.86496H75.2382V34.211H69.5952V3.86496Z" fill="black"/>
<path d="M22.511 4.05123H27.581L17.941 37.6692H25.134L35.943 0.407227H15.793V11.5602H22.511V4.05123Z" fill="black"/>
</g>
</g>
<defs>
<clipPath id="clip0_2273_538">
<rect width="101.492" height="64.324" fill="white"/>
</clipPath>
</defs>
</svg>
