<svg width="578" height="415" viewBox="0 0 578 415" fill="none" xmlns="http://www.w3.org/2000/svg">
<g filter="url(#filter0_d_2296_784)">
<path d="M158.124 393.625C149.908 340.871 300.47 311.246 325.93 277.114C351.389 242.982 360.819 222.153 342.259 166.641C323.415 110.282 405.033 115.791 433.503 107.064" stroke="#5949A7" stroke-width="5"/>
</g>
<path d="M135.648 349.331C144.213 349.832 150.668 352.074 150.668 354.763C150.668 357.819 142.312 360.299 131.998 360.299C121.688 360.299 113.328 357.819 113.328 354.763C113.328 352.105 119.635 349.887 128.048 349.348L135.648 349.331Z" fill="#262626"/>
<path d="M131.832 312.617C139.912 312.617 146.463 319.289 146.463 327.521C146.463 332.167 140.298 341.871 135.648 349.331C134.123 351.778 132.76 353.983 131.832 355.689C130.934 354.041 129.578 351.829 128.048 349.348C123.422 341.851 117.199 331.884 117.199 327.521C117.199 319.289 123.75 312.617 131.832 312.617ZM138.369 326.959C138.369 323.29 135.433 320.298 131.832 320.298C128.229 320.298 125.293 323.29 125.293 326.959C125.293 330.626 128.229 333.617 131.832 333.617C135.433 333.617 138.369 330.626 138.369 326.959Z" fill="#F1D1A8"/>
<path d="M463.648 39.5972C472.213 40.0897 478.668 42.2908 478.668 44.9307C478.668 47.9313 470.312 50.3666 459.998 50.3666C449.688 50.3666 441.328 47.9313 441.328 44.9307C441.328 42.3214 447.635 40.1435 456.048 39.614L463.648 39.5972Z" fill="#262626"/>
<path d="M459.832 3.55127C467.912 3.55127 474.463 10.1019 474.463 18.184C474.463 22.7455 468.298 32.2736 463.648 39.5973C462.123 41.9999 460.76 44.1652 459.832 45.84C458.934 44.2221 457.578 42.0505 456.048 39.6142C451.422 32.2535 445.199 22.4681 445.199 18.184C445.199 10.1019 451.75 3.55127 459.832 3.55127ZM466.369 17.6324C466.369 14.0296 463.433 11.0923 459.832 11.0923C456.229 11.0923 453.293 14.0296 453.293 17.6324C453.293 21.2331 456.229 24.1694 459.832 24.1694C463.433 24.1694 466.369 21.2331 466.369 17.6324Z" fill="#F1D1A8"/>
<rect x="334" y="54" width="244" height="54" fill="white"/>
<rect y="361" width="261" height="54" fill="white"/>
<path d="M410.341 91L412.784 71.5909H415.067L420.961 86.4597L426.869 71.5909H429.152L431.595 91H428.874L427.201 76.941L421.652 90.9602H420.284L414.735 76.941L413.062 91H410.341ZM434.755 77.95H437.622V84.9197C437.622 86.2031 437.755 87.1412 438.021 87.7342C438.419 88.6281 439.211 89.075 440.397 89.075C441.698 89.075 442.601 88.544 443.105 87.4819C443.442 86.7828 443.61 85.6455 443.61 84.0701V77.95H446.477V91H443.889L443.742 89.4467C443.203 90.1194 442.61 90.5973 441.964 90.8805C441.317 91.1637 440.512 91.3053 439.547 91.3053C437.476 91.3053 436.087 90.5929 435.379 89.168C434.963 88.3272 434.755 86.9775 434.755 85.1189V77.95ZM449.159 90.1902L450.102 88.1192C451.146 88.8272 452.398 89.1812 453.859 89.1812C455.646 89.1812 456.54 88.5794 456.54 87.3757C456.54 86.8536 456.35 86.473 455.969 86.234C455.739 86.1013 455.514 85.9951 455.292 85.9154C455.071 85.8269 454.394 85.6056 453.261 85.2516C452.049 84.8799 451.155 84.3799 450.579 83.7515C450.013 83.1231 449.73 82.331 449.73 81.3751C449.73 80.1626 450.133 79.2333 450.938 78.5872C451.726 77.9588 452.841 77.6447 454.283 77.6447C455.903 77.6447 457.372 78.0562 458.691 78.8793L457.682 80.7644C456.593 80.1007 455.518 79.7688 454.456 79.7688C453.049 79.7688 452.345 80.2555 452.345 81.2291C452.345 81.7867 452.602 82.2026 453.115 82.477C453.389 82.6275 454.071 82.8797 455.16 83.2337C456.478 83.6674 457.43 84.1143 458.014 84.5746C458.793 85.1852 459.182 86.0924 459.182 87.2961C459.182 89.9689 457.461 91.3053 454.018 91.3053C452.08 91.3053 450.46 90.9336 449.159 90.1902ZM471.847 88.1988L472.71 90.2566C471.453 90.9557 470.037 91.3053 468.462 91.3053C466.161 91.3053 464.404 90.7079 463.191 89.5131C462.005 88.3449 461.412 86.681 461.412 84.5215C461.412 82.2823 462.014 80.5697 463.218 79.3838C464.377 78.2244 465.997 77.6447 468.077 77.6447C469.75 77.6447 471.192 78.0518 472.405 78.866L471.436 80.8308C470.674 80.167 469.665 79.8351 468.409 79.8351C467.046 79.8351 466.015 80.2821 465.315 81.176C464.678 82.0079 464.36 83.1275 464.36 84.5347C464.36 85.8889 464.674 86.9642 465.302 87.7607C466.019 88.6635 467.103 89.1149 468.555 89.1149C469.732 89.1149 470.829 88.8095 471.847 88.1988ZM484.831 91L484.618 89.168C483.601 90.5929 482.092 91.3053 480.091 91.3053C478.188 91.3053 476.697 90.6902 475.617 89.46C474.52 88.221 473.971 86.5571 473.971 84.4684C473.971 82.4062 474.52 80.7467 475.617 79.49C476.688 78.2598 478.166 77.6447 480.051 77.6447C482.061 77.6447 483.561 78.3217 484.552 79.6758L484.605 77.95H487.287V91H484.831ZM480.636 79.8351C479.397 79.8351 478.458 80.2821 477.821 81.176C477.219 82.0168 476.918 83.1187 476.918 84.4816C476.918 85.8181 477.219 86.9155 477.821 87.774C478.45 88.6679 479.383 89.1149 480.622 89.1149C481.879 89.1149 482.831 88.6679 483.477 87.774C484.105 86.9155 484.419 85.8358 484.419 84.5347C484.419 83.1452 484.105 82.0256 483.477 81.176C482.813 80.2821 481.866 79.8351 480.636 79.8351ZM491.721 80.2201H489.769V77.95H491.814L491.986 74.0337L494.535 73.6221V77.95H498.106V80.2201H494.535V85.9951C494.535 87.1014 494.664 87.8492 494.92 88.2387C495.195 88.6635 495.739 88.8759 496.553 88.8759C496.934 88.8759 497.359 88.7962 497.828 88.6369L498.306 90.9071C497.456 91.1106 496.624 91.2124 495.81 91.2124C494.031 91.2124 492.858 90.7035 492.292 89.6857C492.07 89.2874 491.92 88.8184 491.84 88.2785C491.761 87.7386 491.721 86.9067 491.721 85.7827V80.2201Z" fill="#0A0A0A"/>
<path d="M96.9027 397.526L97.9515 395.283C98.4295 395.663 98.9384 395.96 99.4782 396.172C100.7 396.668 102.04 396.916 103.501 396.916C104.899 396.916 105.966 396.624 106.7 396.04C107.32 395.553 107.63 394.854 107.63 393.942C107.63 392.995 107.289 392.252 106.607 391.712C106.271 391.446 105.952 391.247 105.651 391.114C105.359 390.981 104.541 390.658 103.195 390.145C101.54 389.517 100.315 388.84 99.5181 388.114C98.4472 387.149 97.9117 385.888 97.9117 384.33C97.9117 382.773 98.4383 381.542 99.4915 380.64C100.545 379.737 101.978 379.286 103.793 379.286C105.784 379.286 107.581 379.759 109.183 380.706L108.187 382.83C106.824 382.06 105.395 381.675 103.899 381.675C102.881 381.675 102.085 381.879 101.509 382.286C100.89 382.737 100.58 383.352 100.58 384.131C100.58 384.981 100.912 385.671 101.576 386.202C101.886 386.459 102.235 386.68 102.625 386.866C103.014 387.043 103.664 387.3 104.576 387.636C105.815 388.087 106.758 388.49 107.404 388.844C108.059 389.198 108.625 389.619 109.103 390.105C109.979 390.981 110.417 392.163 110.417 393.65C110.417 394.783 110.165 395.801 109.661 396.703C108.687 398.447 106.621 399.319 103.461 399.319C100.691 399.319 98.5047 398.721 96.9027 397.526ZM123.613 399L123.401 397.168C122.383 398.593 120.874 399.305 118.874 399.305C116.971 399.305 115.48 398.69 114.4 397.46C113.303 396.221 112.754 394.557 112.754 392.468C112.754 390.406 113.303 388.747 114.4 387.49C115.471 386.26 116.949 385.645 118.834 385.645C120.843 385.645 122.343 386.322 123.335 387.676L123.388 385.95H126.069V399H123.613ZM119.418 387.835C118.179 387.835 117.241 388.282 116.604 389.176C116.002 390.017 115.701 391.119 115.701 392.482C115.701 393.818 116.002 394.916 116.604 395.774C117.232 396.668 118.166 397.115 119.405 397.115C120.662 397.115 121.613 396.668 122.259 395.774C122.888 394.916 123.202 393.836 123.202 392.535C123.202 391.145 122.888 390.026 122.259 389.176C121.596 388.282 120.649 387.835 119.418 387.835ZM129.919 399V378.17H132.787V399H129.919ZM146.766 399L146.554 397.168C145.536 398.593 144.027 399.305 142.027 399.305C140.124 399.305 138.633 398.69 137.553 397.46C136.455 396.221 135.907 394.557 135.907 392.468C135.907 390.406 136.455 388.747 137.553 387.49C138.624 386.26 140.102 385.645 141.987 385.645C143.996 385.645 145.496 386.322 146.487 387.676L146.541 385.95H149.222V399H146.766ZM142.571 387.835C141.332 387.835 140.394 388.282 139.757 389.176C139.155 390.017 138.854 391.119 138.854 392.482C138.854 393.818 139.155 394.916 139.757 395.774C140.385 396.668 141.319 397.115 142.558 397.115C143.815 397.115 144.766 396.668 145.412 395.774C146.04 394.916 146.355 393.836 146.355 392.535C146.355 391.145 146.04 390.026 145.412 389.176C144.748 388.282 143.801 387.835 142.571 387.835ZM153.072 399V378.17H155.94V399H153.072ZM169.919 399L169.707 397.168C168.689 398.593 167.18 399.305 165.18 399.305C163.277 399.305 161.785 398.69 160.706 397.46C159.608 396.221 159.06 394.557 159.06 392.468C159.06 390.406 159.608 388.747 160.706 387.49C161.777 386.26 163.255 385.645 165.14 385.645C167.149 385.645 168.649 386.322 169.64 387.676L169.693 385.95H172.375V399H169.919ZM165.724 387.835C164.485 387.835 163.547 388.282 162.909 389.176C162.308 390.017 162.007 391.119 162.007 392.482C162.007 393.818 162.308 394.916 162.909 395.774C163.538 396.668 164.472 397.115 165.711 397.115C166.967 397.115 167.919 396.668 168.565 395.774C169.193 394.916 169.507 393.836 169.507 392.535C169.507 391.145 169.193 390.026 168.565 389.176C167.901 388.282 166.954 387.835 165.724 387.835Z" fill="#0A0A0A"/>
<defs>
<filter id="filter0_d_2296_784" x="151.098" y="104.92" width="287.262" height="307.065" filterUnits="userSpaceOnUse" color-interpolation-filters="sRGB">
<feFlood flood-opacity="0" result="BackgroundImageFix"/>
<feColorMatrix in="SourceAlpha" type="matrix" values="0 0 0 0 0 0 0 0 0 0 0 0 0 0 0 0 0 0 127 0" result="hardAlpha"/>
<feOffset dy="14"/>
<feGaussianBlur stdDeviation="2"/>
<feComposite in2="hardAlpha" operator="out"/>
<feColorMatrix type="matrix" values="0 0 0 0 0 0 0 0 0 0 0 0 0 0 0 0 0 0 0.2 0"/>
<feBlend mode="normal" in2="BackgroundImageFix" result="effect1_dropShadow_2296_784"/>
<feBlend mode="normal" in="SourceGraphic" in2="effect1_dropShadow_2296_784" result="shape"/>
</filter>
</defs>
</svg>
