<svg width="46" height="46" viewBox="0 0 46 46" fill="none" xmlns="http://www.w3.org/2000/svg">
<mask id="path-1-inside-1_2273_607" fill="white">
<path d="M36.0249 16.5639C36.0244 16.5638 36.0239 16.5637 36.0234 16.5635C36.0332 16.5922 36.0327 16.5894 36.0249 16.5639Z"/>
</mask>
<path d="M36.0249 16.5639C36.0244 16.5638 36.0239 16.5637 36.0234 16.5635C36.0332 16.5922 36.0327 16.5894 36.0249 16.5639Z" fill="#E5E1E5"/>
<path d="M36.0249 16.5639L36.1023 16.5402L36.091 16.5031L36.055 16.4888L36.0249 16.5639ZM36.0234 16.5635L36.0535 16.4883L35.8902 16.423L35.9468 16.5895L36.0234 16.5635ZM36.0249 16.5639L36.055 16.4888C36.052 16.4876 36.0495 16.4868 36.048 16.4863C36.0473 16.4861 36.0466 16.4859 36.0462 16.4858C36.0459 16.4857 36.0455 16.4856 36.0455 16.4856C36.0452 16.4855 36.0462 16.4858 36.0473 16.4861C36.0485 16.4865 36.0507 16.4872 36.0535 16.4883L36.0234 16.5635L35.9934 16.6387C35.9964 16.6399 35.9989 16.6407 36.0003 16.6411C36.0011 16.6413 36.0017 16.6415 36.0021 16.6416C36.0025 16.6417 36.0028 16.6418 36.0028 16.6418C36.0031 16.6419 36.0022 16.6416 36.0011 16.6413C35.9999 16.6409 35.9976 16.6402 35.9948 16.6391L36.0249 16.5639ZM36.0234 16.5635L35.9468 16.5895C35.9492 16.5968 35.9512 16.6025 35.9526 16.6065C35.9533 16.6083 35.9541 16.6106 35.9549 16.6126C35.9552 16.6133 35.9562 16.6158 35.9576 16.6188C35.9578 16.6192 35.9604 16.6248 35.9648 16.6311C35.9649 16.6312 35.9745 16.6461 35.9934 16.6559C36.0051 16.662 36.0304 16.671 36.06 16.6596C36.0882 16.6486 36.1005 16.6265 36.1049 16.6166C36.1126 16.5991 36.1117 16.5833 36.1117 16.5828C36.1117 16.5784 36.1113 16.575 36.1111 16.5735C36.1106 16.5702 36.1101 16.5677 36.1099 16.5668C36.1095 16.5646 36.109 16.5628 36.1088 16.562C36.1082 16.56 36.1076 16.5579 36.1071 16.556C36.1059 16.552 36.1043 16.5466 36.1023 16.5402L36.0249 16.5639L35.9475 16.5877C35.9494 16.594 35.9508 16.5985 35.9516 16.6013C35.9521 16.6029 35.9522 16.6034 35.9522 16.6032C35.9521 16.6031 35.9521 16.6029 35.952 16.6025C35.9519 16.6022 35.9517 16.6014 35.9515 16.6004C35.9514 16.5998 35.9509 16.5974 35.9505 16.5943C35.9503 16.5929 35.9499 16.5895 35.9498 16.5852C35.9498 16.5847 35.9489 16.569 35.9566 16.5515C35.961 16.5416 35.9733 16.5195 36.0015 16.5085C36.0311 16.4971 36.0564 16.5061 36.0681 16.5122C36.0869 16.522 36.0966 16.5369 36.0966 16.537C36.101 16.5432 36.1036 16.5487 36.1037 16.5489C36.1044 16.5504 36.1049 16.5516 36.1051 16.5521C36.1054 16.5527 36.1055 16.5531 36.1056 16.5533C36.1058 16.5538 36.1057 16.5536 36.1051 16.552C36.1042 16.5493 36.1025 16.5445 36.1001 16.5374L36.0234 16.5635Z" fill="white" mask="url(#path-1-inside-1_2273_607)"/>
<path d="M20.6244 18.0603C21.4035 17.7749 22.2451 17.6191 23.1231 17.6191C27.1347 17.6191 30.3868 20.8713 30.3868 24.8829C30.3868 28.8945 27.1347 32.1466 23.1231 32.1466C19.1115 32.1466 15.8594 28.8946 15.8594 24.8829C15.8594 22.6272 16.8875 20.6117 18.5007 19.2794" stroke="white" stroke-width="1.21457" stroke-miterlimit="10" stroke-linecap="round" stroke-linejoin="round"/>
<path d="M23.1224 29.5055C25.6752 29.5055 27.7448 27.436 27.7448 24.8831C27.7448 22.3303 25.6752 20.2607 23.1224 20.2607C20.5695 20.2607 18.5 22.3303 18.5 24.8831C18.5 27.436 20.5695 29.5055 23.1224 29.5055Z" stroke="white" stroke-width="1.21457" stroke-miterlimit="10" stroke-linecap="round" stroke-linejoin="round"/>
<path d="M10.9304 35.6681C9.4716 35.6681 8.28906 34.4855 8.28906 33.0267V20.4191C8.28906 19.4734 8.79418 18.6004 9.61406 18.129C10.7344 17.4849 12.636 16.56 15.5811 15.6073L17.3943 13.3495C17.8171 12.823 18.4251 12.4773 19.0942 12.3867C20.0102 12.2627 21.4474 12.1162 23.1245 12.1162C24.8016 12.1162 26.2389 12.2627 27.1548 12.3867C27.8239 12.4773 28.432 12.823 28.8548 13.3495L30.668 15.6073C33.613 16.5601 35.5146 17.485 36.635 18.1291C37.4549 18.6004 37.9601 19.4735 37.9601 20.4192V23.1124" stroke="white" stroke-width="1.21457" stroke-miterlimit="10" stroke-linecap="round" stroke-linejoin="round"/>
<path d="M37.9589 25.7549V33.028C37.9589 34.4868 36.7763 35.6693 35.3175 35.6693H13.5703" stroke="white" stroke-width="1.21457" stroke-miterlimit="10" stroke-linecap="round" stroke-linejoin="round"/>
<path d="M12.9475 2.44536C13.1463 1.4339 14.0377 0.670898 15.1074 0.670898C16.323 0.670898 17.3085 1.65639 17.3085 2.87203C17.3085 4.08767 16.323 5.07316 15.1074 5.07316C16.323 5.07316 17.3085 6.05865 17.3085 7.27429C17.3085 8.48994 16.323 9.47543 15.1074 9.47543C13.9959 9.47543 13.0769 8.65159 12.9275 7.58131C12.9135 7.48094 12.9062 7.37845 12.9062 7.27429" stroke="white" stroke-width="1.21457" stroke-miterlimit="10" stroke-linecap="round" stroke-linejoin="round"/>
<path d="M22.9474 0.670898C22.9474 0.670898 20.2209 2.69876 19.7812 6.52811" stroke="white" stroke-width="1.21457" stroke-miterlimit="10" stroke-linecap="round" stroke-linejoin="round"/>
<path d="M22.3315 9.47543C23.7529 9.47543 24.9051 8.32316 24.9051 6.90178C24.9051 5.48039 23.7529 4.32812 22.3315 4.32812C20.9101 4.32812 19.7578 5.48039 19.7578 6.90178C19.7578 8.32316 20.9101 9.47543 22.3315 9.47543Z" stroke="white" stroke-width="1.21457" stroke-miterlimit="10" stroke-linecap="round" stroke-linejoin="round"/>
<path d="M32.1737 7.02918C32.1737 8.38023 31.0786 9.47543 29.7275 9.47543C28.3765 9.47543 27.2812 8.38023 27.2812 7.02918V3.11715C27.2812 1.76609 28.3765 0.670898 29.7275 0.670898C31.0786 0.670898 32.1737 1.76609 32.1737 3.11715V7.02918Z" stroke="white" stroke-width="1.21457" stroke-miterlimit="10" stroke-linecap="round" stroke-linejoin="round"/>
<path d="M38.1444 27.3818C42.3655 28.8768 44.9994 30.9949 44.9994 33.3434C44.9994 37.3706 37.2545 40.7198 27.043 41.4127" stroke="white" stroke-width="1.21457" stroke-miterlimit="10" stroke-linecap="round" stroke-linejoin="round"/>
<path d="M23.1214 41.5438C11.0378 41.5438 1.24219 37.8723 1.24219 33.3431C1.24219 30.9947 3.8758 28.8768 8.09634 27.3818" stroke="white" stroke-width="1.21457" stroke-miterlimit="10" stroke-linecap="round" stroke-linejoin="round"/>
<path d="M20.6094 44.4292L23.4944 41.5442L20.6094 38.6592" stroke="white" stroke-width="1.21457" stroke-miterlimit="10" stroke-linecap="round" stroke-linejoin="round"/>
<path d="M35.8676 3.31226C36.5969 3.31226 37.1882 2.72097 37.1882 1.99158C37.1882 1.26219 36.5969 0.670898 35.8676 0.670898C35.1382 0.670898 34.5469 1.26219 34.5469 1.99158C34.5469 2.72097 35.1382 3.31226 35.8676 3.31226Z" stroke="white" stroke-width="1.21457" stroke-miterlimit="10" stroke-linecap="round" stroke-linejoin="round"/>
</svg>
