<svg width="246" height="27" viewBox="0 0 246 27" fill="none" xmlns="http://www.w3.org/2000/svg">
<path d="M208.058 19.8311L197.225 0.168213H189.594V26.1021H195.208V6.43917L206.055 26.1021H213.686V0.168213H208.058V19.8311Z" fill="white"/>
<path d="M76.1398 19.8313L65.2927 0.168335H57.6758V26.1022H63.2898V6.43929L74.1227 26.1022H81.7538V0.168335H76.1398V19.8313Z" fill="white"/>
<path d="M166.628 0.168213L156.289 26.0882H162.326L164.47 20.7091H164.498L164.527 20.6255H177.659L179.986 26.0882H186.052L174.979 0.168213H166.628ZM166.403 15.9292L170.874 4.73904L175.656 15.9292H166.403Z" fill="white"/>
<path d="M152.062 0.168213L146.391 18.7721L141.229 0.168213H134.599L129.436 18.7721L123.78 0.168213H117.461L125.67 26.1021H132.272L137.914 5.89569L143.288 26.1021H150.157L158.367 0.168213H152.062Z" fill="white"/>
<path d="M28.62 0.168335L17.2792 18.0057V26.1022H11.3408V17.9639L0 0.168335H6.60135L14.3029 12.4455L22.0186 0.168335H28.62Z" fill="white"/>
<path d="M114.072 5.60305V0.168213H91.588C89.7966 0.168213 88.3438 1.60357 88.3438 3.37337V22.897C88.3438 24.6668 89.7966 26.1021 91.588 26.1021H110.842C112.633 26.1021 114.086 24.6668 114.086 22.897V11.4281H101.673V15.9153H108.472V20.1377C108.472 20.4304 108.232 20.6673 107.936 20.6673H94.5219C94.2257 20.6673 93.9859 20.4304 93.9859 20.1377V6.14654C93.9859 5.85389 94.2257 5.61698 94.5219 5.61698H114.086L114.072 5.60305Z" fill="white"/>
<path d="M245.986 5.60305V0.168213H223.502C221.711 0.168213 220.258 1.60357 220.258 3.37337V22.897C220.258 24.6668 221.711 26.1021 223.502 26.1021H242.756C244.547 26.1021 246 24.6668 246 22.897V11.4281H233.587V15.9153H240.386V20.1377C240.386 20.4304 240.147 20.6673 239.85 20.6673H226.436C226.14 20.6673 225.9 20.4304 225.9 20.1377V6.14654C225.9 5.85389 226.14 5.61698 226.436 5.61698H246L245.986 5.60305Z" fill="white"/>
<path d="M43.4879 0.168213H35.0246L24.375 26.1021H30.4121L32.5562 20.723L32.5844 20.6394H45.9281L45.9563 20.723L48.1004 26.1021H54.1375L43.4879 0.168213ZM34.4886 15.9432L38.96 4.75299L43.7418 15.9432H34.4886Z" fill="white"/>
</svg>
