<svg width="39" height="40" viewBox="0 0 39 40" fill="none" xmlns="http://www.w3.org/2000/svg">
<path d="M37.6143 20.4284C37.6176 17.4297 36.8762 14.477 35.4568 11.8355C34.0373 9.19401 31.9842 6.94627 29.4817 5.29403C26.9792 3.64179 24.1056 2.63677 21.1188 2.36915C18.1321 2.10153 15.1256 2.5797 12.3692 3.76074C9.61284 4.94178 7.19284 6.78872 5.32642 9.13582C3.45999 11.4829 2.20553 14.2567 1.67564 17.2083C1.14575 20.1598 1.357 23.1967 2.29043 26.0465C3.22386 28.8963 4.85027 31.4697 7.02368 33.5357C7.04149 33.5633 7.0619 33.5891 7.08462 33.6128C7.11443 33.6424 7.14767 33.6683 7.18364 33.6899C10.5282 36.8066 14.9298 38.5396 19.5014 38.5396C24.073 38.5396 28.4746 36.8066 31.8191 33.6899C31.8551 33.6681 31.8885 33.6421 31.9185 33.6125C31.9418 33.5887 31.9628 33.5628 31.9812 33.5351C33.7611 31.8476 35.1786 29.8151 36.147 27.5617C37.1155 25.3082 37.6148 22.8811 37.6143 20.4284ZM2.45733 20.4284C2.45534 17.6238 3.14541 14.8621 4.46634 12.388C5.78728 9.914 7.69828 7.80413 10.0299 6.2455C12.3615 4.68687 15.0417 3.72765 17.8328 3.45287C20.6238 3.17809 23.4396 3.59626 26.0304 4.67029C28.6212 5.74432 30.9069 7.44103 32.685 9.60997C34.463 11.7789 35.6784 14.3531 36.2233 17.1042C36.7683 19.8553 36.626 22.6984 35.809 25.3814C34.9921 28.0644 33.5258 30.5043 31.5401 32.4849L29.6903 30.6482C30.5761 29.764 31.343 28.7682 31.9718 27.6861C31.9826 27.6731 31.9928 27.6595 32.0023 27.6455C32.0101 27.6303 32.0171 27.6146 32.0233 27.5986C33.2753 25.4197 33.9348 22.9508 33.9361 20.4378C33.9375 17.9248 33.2806 15.4552 32.0309 13.2749C32.0227 13.2531 32.0132 13.2318 32.0023 13.2113C31.9902 13.1919 31.9768 13.1734 31.9623 13.1558C30.7054 11.0111 28.9195 9.22454 26.7754 7.96667C26.7406 7.93595 26.7 7.91262 26.6559 7.89812C24.4786 6.64977 22.0125 5.99296 19.5028 5.99296C16.993 5.99296 14.5269 6.64977 12.3496 7.89812C12.3056 7.91262 12.2649 7.93595 12.2302 7.96667C10.0852 9.22425 8.29862 11.0109 7.04105 13.1558C7.02655 13.1734 7.01321 13.1919 7.00113 13.2113C6.99021 13.2318 6.98065 13.2531 6.97249 13.2749C5.72281 15.4552 5.06594 17.9248 5.06728 20.4378C5.06861 22.9508 5.7281 25.4197 6.98011 27.5986C6.98629 27.6146 6.99331 27.6303 7.00113 27.6455C7.01061 27.6595 7.02078 27.6731 7.0316 27.6861C7.66038 28.7682 8.42732 29.764 9.3131 30.6482L7.46304 32.4849C5.87505 30.9045 4.61527 29.0257 3.75618 26.9565C2.8971 24.8874 2.45568 22.6688 2.45733 20.4284ZM10.0718 29.8972C9.36443 29.1927 8.73835 28.411 8.20526 27.5669L9.80822 26.6413C9.86935 26.6065 9.923 26.56 9.96608 26.5044C10.0092 26.4489 10.0408 26.3853 10.0593 26.3175C10.0777 26.2496 10.0825 26.1788 10.0734 26.109C10.0644 26.0393 10.0416 25.972 10.0064 25.9111C9.97128 25.8502 9.92442 25.7969 9.86857 25.7542C9.81271 25.7115 9.74895 25.6802 9.68097 25.6623C9.61298 25.6443 9.54212 25.6399 9.47245 25.6495C9.40278 25.659 9.33568 25.6822 9.27501 25.7178L7.6751 26.6413C6.75183 24.8845 6.23054 22.9445 6.14892 20.9616H8.00081C8.14223 20.9616 8.27785 20.9054 8.37784 20.8054C8.47784 20.7054 8.53402 20.5698 8.53402 20.4284C8.53402 20.287 8.47784 20.1514 8.37784 20.0514C8.27785 19.9514 8.14223 19.8952 8.00081 19.8952H6.14831C6.2248 17.9113 6.7454 15.9699 7.67175 14.214L9.2741 15.139C9.33476 15.1746 9.40186 15.1978 9.47153 15.2073C9.5412 15.2168 9.61207 15.2125 9.68005 15.1945C9.74804 15.1765 9.81179 15.1453 9.86765 15.1026C9.92351 15.0599 9.97037 15.0065 10.0055 14.9456C10.0407 14.8847 10.0635 14.8175 10.0725 14.7478C10.0816 14.678 10.0768 14.6072 10.0583 14.5393C10.0399 14.4715 10.0083 14.4079 9.96517 14.3523C9.92208 14.2968 9.86843 14.2503 9.8073 14.2155L8.208 13.2914C9.2708 11.6162 10.6905 10.1964 12.3658 9.13363L13.2899 10.7338C13.3246 10.795 13.3711 10.8486 13.4267 10.8917C13.4823 10.9348 13.5458 10.9665 13.6137 10.9849C13.6816 11.0033 13.7524 11.0081 13.8221 10.9991C13.8919 10.99 13.9591 10.9672 14.02 10.9321C14.0809 10.8969 14.1343 10.8501 14.177 10.7942C14.2197 10.7383 14.2509 10.6746 14.2689 10.6066C14.2869 10.5386 14.2912 10.4677 14.2817 10.3981C14.2722 10.3284 14.249 10.2613 14.2134 10.2006L13.2871 8.59829C15.0431 7.67194 16.9845 7.15134 18.9683 7.07485V8.92735C18.9683 9.06877 19.0245 9.20439 19.1245 9.30438C19.2245 9.40438 19.3601 9.46056 19.5015 9.46056C19.643 9.46056 19.7786 9.40438 19.8786 9.30438C19.9786 9.20439 20.0348 9.06877 20.0348 8.92735V7.07394C22.0186 7.15043 23.96 7.67103 25.716 8.59738L24.7921 10.2006C24.7566 10.2613 24.7334 10.3284 24.7238 10.3981C24.7143 10.4677 24.7187 10.5386 24.7366 10.6066C24.7546 10.6746 24.7858 10.7383 24.8286 10.7942C24.8713 10.8501 24.9246 10.8969 24.9855 10.9321C25.0464 10.9672 25.1137 10.99 25.1834 10.9991C25.2531 11.0081 25.324 11.0033 25.3918 10.9849C25.4597 10.9665 25.5232 10.9348 25.5788 10.8917C25.6344 10.8486 25.6809 10.795 25.7156 10.7338L26.6398 9.13363C28.315 10.1964 29.7347 11.6162 30.7975 13.2914L29.1973 14.2155C29.1362 14.2503 29.0825 14.2968 29.0394 14.3523C28.9964 14.4079 28.9647 14.4715 28.9463 14.5393C28.9278 14.6072 28.923 14.678 28.9321 14.7478C28.9412 14.8175 28.9639 14.8847 28.9991 14.9456C29.0342 15.0065 29.0811 15.0599 29.137 15.1026C29.1928 15.1453 29.2566 15.1765 29.3246 15.1945C29.3925 15.2125 29.4634 15.2168 29.5331 15.2073C29.6028 15.1978 29.6699 15.1746 29.7305 15.139L31.3329 14.214C32.2592 15.9699 32.7798 17.9113 32.8563 19.8952H31.0038C30.8624 19.8952 30.7268 19.9514 30.6268 20.0514C30.5268 20.1514 30.4706 20.287 30.4706 20.4284C30.4706 20.5698 30.5268 20.7054 30.6268 20.8054C30.7268 20.9054 30.8624 20.9616 31.0038 20.9616H32.8557C32.7741 22.9445 32.2528 24.8845 31.3295 26.6413L29.7305 25.7178C29.6699 25.6822 29.6028 25.659 29.5331 25.6495C29.4634 25.6399 29.3925 25.6443 29.3246 25.6623C29.2566 25.6802 29.1928 25.7115 29.137 25.7542C29.0811 25.7969 29.0342 25.8502 28.9991 25.9111C28.9639 25.972 28.9412 26.0393 28.9321 26.109C28.923 26.1788 28.9278 26.2496 28.9463 26.3175C28.9647 26.3853 28.9964 26.4489 29.0394 26.5044C29.0825 26.56 29.1362 26.6065 29.1973 26.6413L30.8003 27.5669C30.2672 28.411 29.6411 29.1927 28.9338 29.8972L26.0161 27.0005C25.9163 26.9014 25.7813 26.8458 25.6407 26.8457H13.3648C13.2242 26.8458 13.0893 26.9014 12.9895 27.0005L10.0718 29.8972ZM8.24609 33.2122L13.5848 27.9121H25.4207L30.7591 33.2122C27.6523 35.958 23.6489 37.4735 19.5026 37.4735C15.3563 37.4735 11.3529 35.958 8.24609 33.2122Z" fill="white"/>
<path d="M19.502 22.6788C19.9012 22.6794 20.2934 22.5736 20.6382 22.3722C20.983 22.1708 21.2678 21.8812 21.4633 21.5331C21.6589 21.185 21.7581 20.791 21.7508 20.3919C21.7434 19.9927 21.6298 19.6026 21.4215 19.262L25.8638 14.8224C25.9638 14.7224 26.02 14.5868 26.02 14.4453C26.02 14.3039 25.9638 14.1683 25.8638 14.0683C25.7638 13.9683 25.6282 13.9121 25.4868 13.9121C25.3454 13.9121 25.2097 13.9683 25.1097 14.0683L20.6686 18.5091C20.372 18.3285 20.0376 18.219 19.6915 18.1892C19.3455 18.1595 18.9973 18.2103 18.6742 18.3376C18.3511 18.465 18.0618 18.6655 17.8292 18.9233C17.5965 19.1812 17.4268 19.4894 17.3332 19.8239C17.2396 20.1584 17.2248 20.51 17.2898 20.8511C17.3549 21.1923 17.498 21.5137 17.7081 21.7903C17.9182 22.0668 18.1895 22.291 18.5008 22.4451C18.812 22.5993 19.1547 22.6792 19.502 22.6788ZM19.502 19.2449C19.7361 19.2449 19.9649 19.3144 20.1596 19.4444C20.3543 19.5745 20.506 19.7594 20.5956 19.9757C20.6852 20.1919 20.7086 20.43 20.6629 20.6596C20.6173 20.8892 20.5045 21.1001 20.339 21.2656C20.1734 21.4312 19.9625 21.5439 19.7329 21.5896C19.5033 21.6353 19.2653 21.6118 19.049 21.5222C18.8327 21.4327 18.6478 21.2809 18.5178 21.0863C18.3877 20.8916 18.3183 20.6628 18.3183 20.4286C18.3185 20.1148 18.4433 19.8138 18.6652 19.5919C18.8872 19.37 19.1881 19.2452 19.502 19.2449Z" fill="white"/>
<path d="M22.7348 30.9355H16.2754C16.134 30.9356 15.9984 30.9918 15.8984 31.0918C15.7985 31.1918 15.7423 31.3274 15.7422 31.4688V33.9175C15.7423 34.0589 15.7985 34.1945 15.8984 34.2945C15.9984 34.3944 16.134 34.4506 16.2754 34.4507H22.7348C22.8762 34.4506 23.0117 34.3944 23.1117 34.2945C23.2117 34.1945 23.2679 34.0589 23.268 33.9175V31.4688C23.2679 31.3274 23.2117 31.1918 23.1117 31.0918C23.0117 30.9918 22.8762 30.9356 22.7348 30.9355ZM22.2016 33.3843H16.8095V32.002H22.2006L22.2016 33.3843Z" fill="white"/>
</svg>
