<svg xmlns="http://www.w3.org/2000/svg" width="101.492" height="64.324" viewBox="0 0 101.492 64.324">
  <g id="组_1293" data-name="组 1293" transform="translate(16704.578 18548)">
    <path id="路径_52" data-name="路径 52" d="M630.682,0a6.773,6.773,0,1,0,6.776,6.768A6.772,6.772,0,0,0,630.682,0m0,10.023a3.247,3.247,0,1,1,3.262-3.255,3.249,3.249,0,0,1-3.262,3.255" transform="translate(-17240.545 -18548)" fill="#fff"/>
    <path id="路径_53" data-name="路径 53" d="M43.166,186.325c-4.776-.551-9.323-.866-13.782-1.655-7.8-1.363-15.563-3.089-21.986-8.132-5-3.924-4.972-8.756.063-12.647a78.5,78.5,0,0,1,7.446-4.57c-4.7,1.591-9.055,3.8-12.293,7.706-3.468,4.2-3.577,9.07.213,12.923a33.973,33.973,0,0,0,8.778,6.367c8.9,4.491,18.565,6.264,28.424,6.871,2.53.15,3.8.844,3.38,3.586a32.952,32.952,0,0,0-.031,4.413c4.61-4.043,8.471-7.422,12.758-11.182-4.287-3.735-8.211-7.163-12.546-10.945-.149,2.664-.268,4.713-.424,7.267" transform="translate(-16704.578 -18684.861)" fill="#fff"/>
    <path id="路径_55" data-name="路径 55" d="M451.338,167.474c3.743,3.444,3.775,7.438-.031,10.756a22.962,22.962,0,0,1-7.959,4.83,196.466,196.466,0,0,1-20.55,4.95c-5.272.984-5.657,1.057-5.043,6.4a5.608,5.608,0,0,0,.324,1.127c6.618.7,22.5-3.1,29.991-7.581a33.231,33.231,0,0,0,7.776-6.619c2.561-2.947,2.506-6.588.488-9.921-2.789-4.6-7.242-7.052-12-9.023,2.3,1.741,4.9,3.152,7.005,5.083" transform="translate(-17063.258 -18687.5)" fill="#fff"/>
    <path id="路径_56" data-name="路径 56" d="M444.985,37.708c1.548.726,4,1.079,7.484,1.079a30.532,30.532,0,0,0,5.815-.436,5.827,5.827,0,0,0,3.225-1.587,4.156,4.156,0,0,0,1.045-2.966V7a9.471,9.471,0,0,0-.221-2.862l0-.012a3.3,3.3,0,0,0-1.108-1.336A7.227,7.227,0,0,0,458.088,1.4a27.8,27.8,0,0,0-5.371-.409,34.977,34.977,0,0,0-5.152.3h-.009a9.04,9.04,0,0,0-3.2,1.177,3.634,3.634,0,0,0-1.437,1.644l0,.009A8.1,8.1,0,0,0,442.535,7V33.933a3.906,3.906,0,0,0,2.45,3.775m4.761-32.991h5.643V35.063h-5.643Z" transform="translate(-17084.732 -18548.852)" fill="#fff"/>
    <g id="组_1282" data-name="组 1282" transform="translate(30 -8.998)">
      <path id="路径_211" data-name="路径 211" d="M274.724,37.428c1.488.728,3.938,1.084,7.49,1.084,3.686,0,6.214-.345,7.732-1.053a4.006,4.006,0,0,0,2.4-3.936V27.09h-7.213v7.7h-5.643v-7.7c-1.116.1-6.187.05-7.163,0v6.564a3.915,3.915,0,0,0,2.4,3.773" transform="translate(-16968.518 -18539.68)" fill="#fff"/>
      <path id="路径_212" data-name="路径 212" d="M274.724,2.068c1.488-.728,3.938-1.084,7.49-1.084,3.686,0,6.214.345,7.732,1.053a4.006,4.006,0,0,1,2.4,3.936V12.4h-7.213V4.71h-5.643V16.616h4.5a31.165,31.165,0,0,1,4.205.219,6.319,6.319,0,0,1,2.418.77,3.081,3.081,0,0,1,1.115.912,2.142,2.142,0,0,1,.463,1.213,6.9,6.9,0,0,1,.153,1.475v12c-8.547,3.436-12.652,3.48-20.02-.715V16.835h7.165V34.768h5.644v-14.5h-4.4a31.084,31.084,0,0,1-4.162-.192,7.185,7.185,0,0,1-2.455-.792,3.313,3.313,0,0,1-1.5-1.349L272.6,17.9a7.38,7.38,0,0,1-.273-2.381V5.841a3.915,3.915,0,0,1,2.4-3.773" transform="translate(-16968.518 -18539.846)" fill="#fff"/>
    </g>
    <g id="组_1281" data-name="组 1281" transform="translate(-80.598 -9.732)">
      <path id="路径_213" data-name="路径 213" d="M289.95,2.068c-1.488-.728-3.938-1.084-7.49-1.084-3.685,0-6.214.345-7.732,1.053a4.006,4.006,0,0,0-2.4,3.936v6.431h7.213V4.71h5.643V16.616h-5.643v3.647h4.4a31.081,31.081,0,0,0,4.162-.192,7.185,7.185,0,0,0,2.455-.792,3.313,3.313,0,0,0,1.5-1.349l.015-.034a7.381,7.381,0,0,0,.273-2.381V5.841a3.916,3.916,0,0,0-2.4-3.773" transform="translate(-16880.518 -18538.846)" fill="#fff"/>
      <path id="路径_215" data-name="路径 215" d="M289.951,37.428c-1.488.728-3.938,1.084-7.49,1.084-3.686,0-6.214-.345-7.732-1.053a4.006,4.006,0,0,1-2.4-3.936V27.09h7.213v7.7h5.643V20.88h-5.643V17.233h4.4a31.084,31.084,0,0,1,4.162.192,7.185,7.185,0,0,1,2.455.792,3.313,3.313,0,0,1,1.5,1.349l.015.034a7.38,7.38,0,0,1,.273,2.381V33.654a3.915,3.915,0,0,1-2.4,3.773" transform="translate(-16880.518 -18539.111)" fill="#fff"/>
    </g>
  </g>
</svg>
