<svg width="40" height="46" viewBox="0 0 40 46" fill="none" xmlns="http://www.w3.org/2000/svg">
<path d="M26.4609 42.1575C26.596 42.1574 26.7292 42.1252 26.8494 42.0635C29.6396 40.6702 34.6375 39.3629 34.65 36.0041C34.65 33.8823 32.9088 32.8039 31.7556 32.0891C31.4271 31.8852 30.9423 31.585 30.8018 31.4094C30.8845 31.0956 31.6288 30.7479 32.151 30.6334C33.2396 30.3638 32.9066 28.7768 31.7976 28.9716C30.3815 29.2775 29.0664 30.2109 29.0947 31.4638C29.1049 33.47 33.0063 33.794 32.9462 35.995C32.8624 38.1474 28.1442 39.4399 26.0667 40.5433C25.2828 40.9636 25.5807 42.1564 26.4609 42.1575Z" fill="white"/>
<path d="M32.9579 42.3862C33.1125 42.3862 33.2641 42.3438 33.3963 42.2638C35.7752 40.875 39.6823 39.6516 39.7933 36.3392C39.8216 34.2832 38.4747 33.1764 37.5832 32.4435C37.3125 32.2169 36.9035 31.8873 36.848 31.7366C36.8707 31.2778 37.6852 30.9799 37.9061 30.9244C38.9845 30.6242 38.6095 29.0485 37.5062 29.2727C36.6407 29.4801 35.1692 30.2311 35.1488 31.7276C35.1363 32.6338 35.8285 33.2002 36.5082 33.7553C37.3011 34.4055 38.1156 35.0773 38.0941 36.3166C38.0329 38.4927 34.3807 39.6731 32.5195 40.8082C31.7843 41.2534 32.1027 42.3873 32.9579 42.3862Z" fill="white"/>
<path d="M2.6658 42.6062C1.96233 42.9052 1.2985 43.1862 0.747951 43.4716C-0.0450174 43.8851 0.257444 45.0746 1.13764 45.0768C1.27293 45.0768 1.40622 45.0442 1.52619 44.9817C4.31518 43.5894 9.31428 42.2822 9.32674 38.9223C9.32674 36.8016 7.58448 35.7221 6.4324 35.0084C6.10389 34.8045 5.61905 34.5032 5.47858 34.3287C5.56127 34.0149 6.30553 33.666 6.82776 33.5527C7.04511 33.5029 7.23415 33.3696 7.35409 33.1816C7.47403 32.9936 7.51526 32.766 7.46887 32.5479C7.42248 32.3298 7.2922 32.1386 7.10614 32.0157C6.92007 31.8928 6.69314 31.848 6.47432 31.8909C6.04845 31.9884 5.63607 32.1375 5.24635 32.335C3.96287 32.9965 3.77369 33.9028 3.77369 34.3853C3.77369 35.3539 4.63123 35.8852 5.53975 36.4482C10.1276 39.0922 6.28967 41.1448 2.6658 42.6062Z" fill="white"/>
<path d="M7.63664 45.3023C7.79075 45.3026 7.942 45.2607 8.07391 45.181C10.4528 43.7922 14.3599 42.5688 14.472 39.2564C14.4992 37.2004 13.1523 36.0925 12.2619 35.3596C11.9912 35.133 11.5822 34.8033 11.5267 34.6538C11.5494 34.195 12.3639 33.8971 12.5848 33.8416C13.6632 33.5403 13.2871 31.9645 12.1849 32.19C11.3183 32.3973 9.84676 33.1483 9.8275 34.6448C9.81504 35.551 10.5072 36.1174 11.1869 36.6725C11.9798 37.3216 12.7943 37.9933 12.7728 39.2338C12.7105 41.4099 9.05946 42.5903 7.19711 43.7254C6.46305 44.1706 6.7859 45.3045 7.63664 45.3023Z" fill="white"/>
<path d="M22.0924 15.1645C22.0581 14.8499 21.9006 14.5618 21.6543 14.3633C21.4079 14.1647 21.0929 14.0719 20.7783 14.1053C19.2864 14.3183 19.4076 16.4355 20.9052 16.4842C21.0724 16.4837 21.2377 16.4481 21.3903 16.3798C21.543 16.3115 21.6796 16.2119 21.7914 16.0876C21.9033 15.9633 21.9878 15.8169 22.0397 15.6579C22.0915 15.4989 22.1094 15.3308 22.0924 15.1645Z" fill="white"/>
<path d="M31.9904 26.7447C32.044 27.2189 32.2824 27.6529 32.654 27.9523C33.0256 28.2518 33.5003 28.3926 33.975 28.3443L37.0699 28.0112C37.5446 27.9593 37.9793 27.7212 38.2785 27.3491C38.5778 26.977 38.7172 26.5013 38.666 26.0265C38.666 26.0265 38.3579 23.1616 38.3579 23.1605C38.573 22.7884 38.6649 22.3578 38.6207 21.9303C38.3941 19.7689 38.2084 17.4398 38.3443 15.0552C38.3747 14.4753 38.2842 13.8955 38.0787 13.3524C37.8732 12.8093 37.557 12.3148 37.1503 11.9004C36.4644 11.1793 35.8533 10.3906 35.3265 9.54637C37.1016 9.6268 38.9775 8.55289 38.7918 7.07117C38.7227 6.43 38.2775 5.87832 37.5706 5.55774C36.1353 4.94375 34.1076 5.17824 33.6579 6.7268L30.6582 1.89082C29.9966 0.824845 28.5489 0.608478 28.1207 0.567697C25.855 0.35133 23.6121 0.541642 19.3686 0.998165C15.125 1.45469 12.8889 1.74582 10.7252 2.43797C10.3151 2.56938 8.94668 3.0882 8.52641 4.27086L6.62102 9.64039C5.45988 7.49598 1.37043 9.04566 1.68082 11.0621C1.89945 12.7511 4.14922 13.1283 5.59242 12.7443C5.25705 13.6812 4.8278 14.5819 4.31121 15.4325C4.00195 15.9238 3.79816 16.4741 3.71275 17.0484C3.62733 17.6227 3.66217 18.2085 3.81504 18.7686C4.48793 21.1871 4.7836 23.5332 5.00676 25.5428C5.05383 25.9706 5.2355 26.3724 5.52559 26.6904C5.52559 26.6904 5.83371 29.5564 5.83371 29.5564C5.88169 29.9981 6.09096 30.4066 6.42143 30.7037C6.7519 31.0007 7.18035 31.1653 7.62469 31.1661C7.68939 31.166 7.75405 31.1626 7.8184 31.1559L10.9132 30.824C11.3884 30.7721 11.8236 30.5339 12.1234 30.1617C12.4233 29.7894 12.5633 29.3135 12.5128 28.8382L12.2953 26.8195L31.7695 24.7249L31.9904 26.7447ZM11.2689 25.22L7.08774 25.6731C6.99401 25.6833 6.90008 25.6558 6.82658 25.5967C6.75309 25.5377 6.70604 25.4519 6.69578 25.3582C6.5825 24.3613 6.45789 23.3304 6.2925 22.2792C7.68926 22.0107 11.1534 21.3627 15.0423 20.7657L15.2406 22.61C15.2637 22.818 15.3624 23.0102 15.518 23.1502C15.6736 23.2901 15.8752 23.368 16.0845 23.3689C16.2227 23.3689 26.9595 22.1954 27.0932 22.1908C27.3172 22.1666 27.5225 22.0544 27.664 21.879C27.8054 21.7036 27.8715 21.4792 27.8477 21.2551L27.6483 19.3996C31.5871 19.1504 35.1588 19.0427 36.6689 19.0054C36.73 20.0702 36.8263 21.1079 36.9305 22.1093C36.9398 22.2027 36.9117 22.2961 36.8526 22.369C36.7934 22.442 36.7079 22.4887 36.6145 22.4989L11.2689 25.22ZM7.18176 13.339L10.9314 13.2257C11.3698 13.8624 11.7515 14.5058 11.8489 14.7811C11.7776 14.8343 11.5533 14.9612 10.9869 15.0224C10.2358 15.1028 7.72551 15.3781 6.20301 15.5446C6.57783 14.8319 6.9048 14.0951 7.18176 13.339ZM5.44856 18.3177C5.36217 18.0025 5.34021 17.6731 5.38399 17.3492C6.31856 17.2472 10.2018 16.8213 11.1681 16.7171C13.3522 16.4826 13.5697 15.2784 13.5618 14.7709C13.555 14.0674 12.7325 12.8021 12.0529 11.8664C11.9713 11.7554 11.8641 11.6657 11.7404 11.605C11.6168 11.5442 11.4803 11.5142 11.3426 11.5175L7.75723 11.6205C7.75723 11.6058 7.76629 11.5922 7.76969 11.5786C9.85067 11.2388 17.5119 9.9927 20.3043 9.6925C23.0966 9.39231 30.8473 8.97996 32.9532 8.87121L32.9736 8.90859L29.4495 9.57016C29.3094 9.59694 29.1783 9.65834 29.0681 9.74876C28.9579 9.83919 28.8721 9.95576 28.8185 10.0879C28.3891 11.1527 27.9066 12.5642 28.0425 13.2371C28.1331 13.6902 28.5273 14.661 30.2334 14.661C31.5078 14.5998 35.237 14.1195 36.5069 14.0017C36.6186 14.3083 36.6671 14.6343 36.6496 14.9601C36.6043 15.753 36.5918 16.5358 36.6054 17.3061C34.2616 17.365 27.1782 17.5859 21.2683 18.2214C15.278 18.866 8.20016 20.1823 5.99684 20.6004C5.84391 19.8448 5.66606 19.0801 5.45195 18.3132L5.44856 18.3177ZM35.3242 12.4271C33.821 12.5925 31.3526 12.8644 30.6083 12.9448C30.034 13.006 29.7893 12.9267 29.7123 12.8904C29.7383 12.6072 29.9524 11.8879 30.2243 11.1572L33.8923 10.4685C34.3269 11.1503 34.8064 11.8023 35.3276 12.4203L35.3242 12.4271ZM26.0669 20.589L16.839 21.5814L16.7257 20.5131C19.8432 20.06 22.81 19.7338 25.9525 19.5117L26.0669 20.589ZM36.9543 26.2848C36.9458 26.2956 36.9352 26.3046 36.9232 26.3112C36.9111 26.3179 36.8978 26.322 36.8841 26.3233L33.7904 26.6552C33.7632 26.6581 33.736 26.65 33.7147 26.6328C33.6935 26.6156 33.68 26.5907 33.6771 26.5635L33.463 24.5437L36.7629 24.1891L36.9747 26.2078C36.9769 26.2211 36.9761 26.2348 36.9726 26.2479C36.9691 26.261 36.9629 26.2732 36.9543 26.2837V26.2848ZM35.3072 7.1652C35.3288 7.12555 35.3922 7.00434 35.7479 6.96695C36.5125 6.88426 36.994 7.12555 37.0948 7.25469C36.9056 7.61832 35.962 7.90152 35.2631 7.84262C35.2064 7.56848 35.2642 7.19692 35.3072 7.1652ZM10.1271 4.84293C10.792 3.52434 16.0981 3.1052 19.5487 2.69059C23.5033 2.29977 25.0723 2.04488 27.9575 2.26125C28.4356 2.30656 29.0382 2.50707 29.2127 2.78914L31.9632 7.22184C29.0779 7.37477 22.6741 7.72934 20.1219 8.00461C17.5696 8.27988 11.2361 9.29262 8.38367 9.75707L10.1271 4.84293ZM4.72356 11.1708C3.95777 11.2524 3.47746 11.0122 3.37551 10.8831C3.44461 10.7358 3.86602 10.3982 4.6318 10.3167C5.00449 10.2544 5.24578 10.3541 5.29109 11.07C5.10583 11.1204 4.91616 11.1531 4.72469 11.1674L4.72356 11.1708ZM10.8215 29.0228C10.8243 29.05 10.8163 29.0772 10.7991 29.0985C10.7819 29.1197 10.7569 29.1332 10.7297 29.1361L7.63488 29.4669C7.60769 29.4697 7.58048 29.4617 7.55924 29.4445C7.538 29.4272 7.52446 29.4023 7.5216 29.3751L7.3041 27.3553L10.6051 27.0007L10.8215 29.0228Z" fill="white"/>
</svg>
