<svg width="75" height="59" viewBox="0 0 75 59" fill="none" xmlns="http://www.w3.org/2000/svg">
<g clip-path="url(#clip0_2273_574)">
<mask id="mask0_2273_574" style="mask-type:luminance" maskUnits="userSpaceOnUse" x="8" y="0" width="60" height="59">
<path d="M8.42188 0.000114441H67.2792V58.8574H8.42188V0.000114441Z" fill="white"/>
</mask>
<g mask="url(#mask0_2273_574)">
<path d="M24.9493 35.8788C24.9493 38.4234 22.8865 40.4863 20.3418 40.4863C17.7973 40.4863 15.7344 38.4234 15.7344 35.8788C15.7344 33.3341 17.7973 31.2713 20.3418 31.2713C22.8865 31.2713 24.9493 33.3341 24.9493 35.8788Z" stroke="white" stroke-width="1.20117" stroke-miterlimit="10" stroke-linecap="round" stroke-linejoin="round"/>
<path d="M24.9453 36.7998H51.6687" stroke="white" stroke-width="1.20117" stroke-miterlimit="10" stroke-linecap="round" stroke-linejoin="round"/>
<path d="M20.9908 35.2271L19.6875 36.5303" stroke="white" stroke-width="1.20117" stroke-miterlimit="10" stroke-linecap="round" stroke-linejoin="round"/>
<path d="M60.8868 35.8788C60.8868 38.4234 58.824 40.4863 56.2793 40.4863C53.7348 40.4863 51.6719 38.4234 51.6719 35.8788C51.6719 33.3341 53.7348 31.2713 56.2793 31.2713C58.824 31.2713 60.8868 33.3341 60.8868 35.8788Z" stroke="white" stroke-width="1.20117" stroke-miterlimit="10" stroke-linecap="round" stroke-linejoin="round"/>
<path d="M55.625 35.2271L56.9281 36.5303" stroke="white" stroke-width="1.20117" stroke-miterlimit="10" stroke-linecap="round" stroke-linejoin="round"/>
<path d="M15.7318 35.8783L11.6549 35.296C10.2929 35.1013 9.28125 33.9349 9.28125 32.5592V26.2969C9.28125 25.3365 9.5814 24.4002 10.1395 23.6189L12.7862 19.9134C13.4782 18.9448 14.5952 18.3699 15.7857 18.3699H37.1237C39.402 18.3699 41.6331 19.0195 43.5553 20.2427L50.7486 24.8204C50.7486 24.8204 59.1025 24.8204 64.3136 27.2408C65.604 27.84 66.4142 29.1495 66.4142 30.5723V34.9568C66.4141 35.9747 65.589 36.7998 64.5711 36.7998" stroke="white" stroke-width="1.20117" stroke-miterlimit="10" stroke-linecap="round" stroke-linejoin="round"/>
<path d="M50.7499 24.8203H16.3994C15.6919 24.8203 15.2483 24.056 15.5994 23.4416L18.4975 18.3698" stroke="white" stroke-width="1.20117" stroke-miterlimit="10" stroke-linecap="round" stroke-linejoin="round"/>
<path d="M28.6328 33.1143H47.9842" stroke="white" stroke-width="1.20117" stroke-miterlimit="10" stroke-linecap="round" stroke-linejoin="round"/>
<path d="M9.28125 27.585H11.1242" stroke="white" stroke-width="1.20117" stroke-miterlimit="10" stroke-linecap="round" stroke-linejoin="round"/>
<path d="M63.6484 29.4277H65.8754" stroke="white" stroke-width="1.20117" stroke-miterlimit="10" stroke-linecap="round" stroke-linejoin="round"/>
<path d="M24.9453 24.8203V18.3698" stroke="white" stroke-width="1.20117" stroke-miterlimit="10" stroke-linecap="round" stroke-linejoin="round"/>
<path d="M34.1641 18.3698L35.0855 24.8203" stroke="white" stroke-width="1.20117" stroke-miterlimit="10" stroke-linecap="round" stroke-linejoin="round"/>
</g>
</g>
<path fill-rule="evenodd" clip-rule="evenodd" d="M40.6166 31.0842C38.1499 29.2908 35.2117 29.2908 32.7449 31.0842L31.9145 31.6928C29.9269 33.1365 27.6728 33.0918 25.7222 31.568L25.3894 31.3046C22.8857 29.3447 19.7579 29.3093 17.228 31.2136C15.2204 32.7236 12.9309 32.6943 10.9479 31.1335C8.50581 29.2076 5.4166 29.1537 2.88823 30.9933L1.11945 32.2845C0.703442 32.5849 0.609456 33.1642 0.911444 33.5772C1.21343 33.9885 1.79275 34.0795 2.20105 33.779L3.976 32.4879C5.83261 31.1382 8.00969 31.1736 9.80929 32.5865C12.4209 34.6449 15.6857 34.685 18.342 32.6897C20.2232 31.2707 22.3757 31.2969 24.2508 32.7606L24.5836 33.024C27.1951 35.064 30.3352 35.1256 33.0022 33.1874L33.8327 32.5788C35.6385 31.263 37.7154 31.263 39.5273 32.5788L40.4903 33.2829C43.0572 35.1518 46.1217 35.1518 48.6886 33.2829L49.6578 32.5788C51.4635 31.263 53.5405 31.263 55.3462 32.5788L56.3154 33.2829C57.5988 34.2166 59.0024 34.685 60.4122 34.685C61.822 34.685 63.2318 34.2166 64.5152 33.2829L65.4782 32.5788C67.2901 31.263 69.3609 31.263 71.1728 32.5788L73.5317 34.2998C73.9477 34.6002 74.5255 34.5093 74.8213 34.0964C75.1233 33.6835 75.0355 33.1042 74.6195 32.8037L72.2606 31.0842C69.7939 29.2908 66.8556 29.2908 64.3889 31.0842L63.4259 31.7884C61.5139 33.1812 59.3167 33.1812 57.4047 31.7884L56.4355 31.0842C53.975 29.2908 51.0306 29.2908 48.57 31.0842L47.6009 31.7884C45.6888 33.1812 43.4917 33.1812 41.5796 31.7884L40.6166 31.0842ZM40.6166 43.9541C38.1499 42.1592 35.2117 42.1592 32.7449 43.9541L31.9145 44.5612C29.9269 46.0064 27.6728 45.9602 25.7222 44.4364L25.3894 44.1745C22.8857 42.2131 19.7579 42.1776 17.228 44.082C15.2204 45.592 12.9309 45.5642 10.9479 44.0019C8.50581 42.0775 5.4166 42.0236 2.88823 43.8617L1.11945 45.1528C0.703442 45.4548 0.609456 46.0326 0.911444 46.4455C1.21343 46.8569 1.79275 46.9478 2.20105 46.6489L3.976 45.3562C5.83261 44.0065 8.00969 44.042 9.80929 45.4548C12.4209 47.5133 15.6857 47.5533 18.342 45.5596C20.2232 44.1406 22.3757 44.1652 24.2508 45.6305L24.5836 45.8924C27.1951 47.9339 30.3352 47.994 33.0022 46.0557L33.8327 45.4487C35.6385 44.1313 37.7154 44.1313 39.5273 45.4487L40.4903 46.1512C43.0572 48.0202 46.1217 48.0202 48.6886 46.1512L49.6578 45.4487C51.4635 44.1313 53.5405 44.1313 55.3462 45.4487L56.3154 46.1512C57.5988 47.0865 59.0024 47.5533 60.4122 47.5533C61.822 47.5533 63.2318 47.0865 64.5152 46.1512L65.4782 45.4487C67.2901 44.1313 69.3609 44.1313 71.1728 45.4487L73.5317 47.1681C73.9477 47.4686 74.5255 47.3777 74.8213 46.9648C75.1233 46.5518 75.0355 45.9741 74.6195 45.6736L72.2606 43.9541C69.7939 42.1592 66.8556 42.1592 64.3889 43.9541L63.4259 44.6567C61.5139 46.0496 59.3167 46.0496 57.4047 44.6567L56.4355 43.9541C53.975 42.1592 51.0306 42.1592 48.57 43.9541L47.6009 44.6567C45.6888 46.0496 43.4917 46.0496 41.5796 44.6567L40.6166 43.9541ZM40.6166 37.5307C38.1499 35.7373 35.2117 35.7373 32.7449 37.5307L31.9145 38.1393C29.9269 39.583 27.6728 39.5383 25.7222 38.0145L25.3894 37.7511C22.8857 35.7912 19.7579 35.7558 17.228 37.6602C15.2204 39.1701 12.9309 39.1408 10.9479 37.58C8.50581 35.6541 5.4166 35.6002 2.88823 37.4398L1.11945 38.731C0.703442 39.0314 0.609456 39.6108 0.911444 40.0237C1.21343 40.4351 1.79275 40.526 2.20105 40.2255L3.976 38.9344C5.83261 37.5847 8.00969 37.6201 9.80929 39.033C12.4209 41.0914 15.6857 41.1315 18.342 39.1362C20.2232 37.7172 22.3757 37.7434 24.2508 39.2071L24.5836 39.4705C27.1951 41.5105 30.3352 41.5721 33.0022 39.6339L33.8327 39.0253C35.6385 37.7095 37.7154 37.7095 39.5273 39.0253L40.4903 39.7294C43.0572 41.5983 46.1217 41.5983 48.6886 39.7294L49.6578 39.0253C51.4635 37.7095 53.5405 37.7095 55.3462 39.0253L56.3154 39.7294C57.5988 40.6631 59.0024 41.1315 60.4122 41.1315C61.822 41.1315 63.2318 40.6631 64.5152 39.7294L65.4782 39.0253C67.2901 37.7095 69.3609 37.7095 71.1728 39.0253L73.5317 40.7463C73.9477 41.0467 74.5255 40.9558 74.8213 40.5429C75.1233 40.13 75.0355 39.5507 74.6195 39.2502L72.2606 37.5307C69.7939 35.7373 66.8556 35.7373 64.3889 37.5307L63.4259 38.2349C61.5139 39.6277 59.3167 39.6277 57.4047 38.2349L56.4355 37.5307C53.975 35.7373 51.0306 35.7373 48.57 37.5307L47.6009 38.2349C45.6888 39.6277 43.4917 39.6277 41.5796 38.2349L40.6166 37.5307Z" fill="white"/>
<defs>
<clipPath id="clip0_2273_574">
<rect width="58.8573" height="58.8573" fill="white" transform="translate(8.42188)"/>
</clipPath>
</defs>
</svg>
