<svg width="85" height="45" viewBox="0 0 85 45" fill="none" xmlns="http://www.w3.org/2000/svg">
<g clip-path="url(#clip0_224_1137)">
<path d="M43.1789 30.1402C55.6103 30.1402 65.6879 23.576 65.6879 15.4787C65.6879 7.38129 55.6103 0.817076 43.1789 0.817076C30.7475 0.817076 20.6699 7.38129 20.6699 15.4787C20.6699 23.576 30.7475 30.1402 43.1789 30.1402Z" fill="#2295C2"/>
<path d="M50.26 25.3972C50.26 25.3972 37.8736 26.9402 30.0375 21.2974C30.0375 21.2974 36.3414 27.8442 47.4183 29.1" fill="white"/>
<path d="M46.4646 24.7582C46.4646 24.7582 40.4268 20.3058 40.4709 13.2521C40.5151 6.19844 47.1306 1.65846 47.1306 1.65846C47.1306 1.65846 37.9408 5.71447 38.118 13.2083C38.2952 20.7022 46.4646 24.7582 46.4646 24.7582Z" fill="white"/>
<path d="M41.3919 22.3335C41.3919 22.3335 36.4542 18.8838 36.4906 13.4183C36.5271 7.95352 41.9367 4.43502 41.9367 4.43502C41.9367 4.43502 34.4213 7.57733 34.5663 13.3842C34.7112 19.1912 41.3919 22.3335 41.3919 22.3335Z" fill="white"/>
<path d="M36.6082 19.6334C36.6082 19.6334 33.3954 17.2247 33.4185 13.4086C33.4423 9.59247 36.9626 7.13578 36.9626 7.13578C36.9626 7.13578 32.0719 9.33032 32.1664 13.3849C32.2609 17.4396 36.6082 19.6341 36.6082 19.6341V19.6334Z" fill="white"/>
<path d="M32.9331 17.3255C32.9331 17.3255 30.6432 15.8062 30.66 13.4002C30.6768 10.9936 33.1859 9.44436 33.1859 9.44436C33.1859 9.44436 29.6999 10.8281 29.7678 13.3849C29.8351 15.9418 32.9338 17.3255 32.9338 17.3255H32.9331Z" fill="white"/>
<path d="M2.63918 43.3645C2.40739 43.3645 2.16929 43.3444 1.9242 43.3047C1.6791 43.2651 1.45151 43.2164 1.24213 43.1594C1.03274 43.1024 0.866079 43.0474 0.74353 42.9939L0.866079 42.0058C1.05655 42.0879 1.25543 42.1643 1.46271 42.2346C1.6693 42.3048 1.88218 42.3618 2.09996 42.4056C2.31775 42.4494 2.53834 42.471 2.76173 42.471C3.03974 42.471 3.26242 42.4223 3.43189 42.3257C3.60066 42.229 3.68539 42.0809 3.68539 41.8827C3.68539 41.7304 3.63777 41.6074 3.54253 41.5142C3.4473 41.421 3.30164 41.3376 3.10556 41.2638C2.90948 41.1901 2.65879 41.106 2.35417 41.0114C2.04884 40.9169 1.77574 40.8098 1.53344 40.6902C1.29115 40.5706 1.09927 40.4183 0.957815 40.234C0.816359 40.0498 0.745631 39.8154 0.745631 39.5296C0.745631 39.2438 0.823362 38.9991 0.978123 38.7793C1.13358 38.5603 1.36538 38.3886 1.6742 38.2634C1.98302 38.1389 2.36817 38.0763 2.82825 38.0763C3.17699 38.0763 3.50892 38.1111 3.82474 38.1799C4.14057 38.2488 4.41018 38.3232 4.63356 38.4032L4.52712 39.3551C4.20569 39.2265 3.90458 39.1291 3.62236 39.0631C3.34085 38.9963 3.05374 38.9629 2.76243 38.9629C2.47111 38.9629 2.22181 39.0074 2.05585 39.0971C1.88988 39.1868 1.80655 39.321 1.80655 39.5004C1.80655 39.6437 1.85277 39.7584 1.9452 39.8453C2.03764 39.9322 2.16999 40.0066 2.34156 40.0685C2.51313 40.1304 2.71831 40.1951 2.9585 40.2625C3.37237 40.3787 3.7204 40.5066 4.00191 40.6457C4.28343 40.7848 4.49631 40.953 4.63917 41.1505C4.78202 41.348 4.85345 41.5921 4.85345 41.882C4.85345 42.0274 4.82754 42.1852 4.77572 42.3563C4.7239 42.5266 4.62166 42.6886 4.4697 42.8409C4.31704 42.9932 4.09435 43.1191 3.80164 43.2171C3.50892 43.3152 3.12167 43.3645 2.63988 43.3645H2.63918Z" fill="white"/>
<path d="M8.02285 39.086H8.29245L6.6426 43.263H5.63L7.66431 38.1779H8.6524L10.6867 43.263H9.6741L8.02425 39.086H8.02285ZM9.35407 42.0573H6.96053V41.2437H9.35407V42.0573Z" fill="white"/>
<path d="M14.0187 43.3645C13.4823 43.3645 13.039 43.27 12.6896 43.0815C12.3395 42.8924 12.079 42.6274 11.9074 42.286C11.7358 41.9446 11.6504 41.5441 11.6504 41.0838V38.1779H12.6959V40.8439C12.6959 41.0858 12.7134 41.307 12.7491 41.5065C12.7841 41.7061 12.8493 41.8786 12.9431 42.0225C13.0369 42.1664 13.1714 42.2777 13.3458 42.3549C13.5201 42.4321 13.7449 42.471 14.0194 42.471C14.2939 42.471 14.5187 42.4321 14.6931 42.3549C14.8675 42.2777 15.0012 42.1664 15.0957 42.0225C15.1896 41.8786 15.254 41.7068 15.2897 41.5065C15.3247 41.307 15.3429 41.0858 15.3429 40.8439V38.1779H16.3885V41.0838C16.3885 41.5441 16.303 41.9446 16.1315 42.286C15.9599 42.6274 15.6994 42.8924 15.3492 43.0815C14.9991 43.2707 14.5558 43.3645 14.0201 43.3645H14.0187Z" fill="white"/>
<path d="M18.0941 43.263V38.1779H20.2342C20.779 38.1779 21.2636 38.2787 21.6879 38.481C22.113 38.6834 22.4463 38.974 22.6886 39.353C22.9309 39.732 23.0521 40.1881 23.0521 40.7208C23.0521 41.2534 22.9309 41.7096 22.6886 42.0886C22.4463 42.4675 22.113 42.7582 21.6879 42.9605C21.2629 43.1629 20.7783 43.2637 20.2342 43.2637H18.0941V43.263ZM19.1403 42.4348H20.2349C20.6053 42.4348 20.9141 42.366 21.162 42.2276C21.4099 42.0899 21.5962 41.8925 21.7215 41.6359C21.8469 41.3793 21.9092 41.074 21.9092 40.7208C21.9092 40.3675 21.8462 40.0623 21.7215 39.8057C21.5962 39.5491 21.4099 39.3516 21.162 39.2139C20.9141 39.0763 20.6053 39.0067 20.2349 39.0067H19.1403V42.4355V42.4348Z" fill="white"/>
<path d="M26.8434 43.263V38.1779H29.0002C29.5528 38.1779 29.9631 38.2829 30.2313 38.4922C30.4995 38.7015 30.634 39.006 30.634 39.4059C30.634 39.7035 30.5583 39.9524 30.4071 40.152C30.2558 40.3515 30.0289 40.4976 29.7271 40.5894V40.4148C30.1844 40.5017 30.5261 40.6617 30.7523 40.8946C30.9785 41.1269 31.0913 41.4349 31.0913 41.8174C31.0913 42.2749 30.9253 42.6302 30.5927 42.8833C30.2607 43.1365 29.8056 43.263 29.2285 43.263H26.8434ZM27.8889 40.1756H28.8448C29.0983 40.1756 29.288 40.1297 29.4148 40.0379C29.5415 39.9462 29.6046 39.798 29.6046 39.595C29.6046 39.392 29.5415 39.2334 29.4148 39.143C29.288 39.0519 29.0983 39.0067 28.8448 39.0067H27.8889V40.1763V40.1756ZM27.8889 42.4348H29.0731C29.3588 42.4348 29.5871 42.3827 29.7572 42.2784C29.9274 42.1741 30.0128 41.9863 30.0128 41.7151C30.0128 41.444 29.9232 41.2513 29.7432 41.1519C29.5633 41.0525 29.3399 41.0031 29.0731 41.0031H27.8889V42.4341V42.4348Z" fill="white"/>
<path d="M34.26 39.086H34.5296L32.8798 43.263H31.8672L33.9015 38.1779H34.8896L36.9239 43.263H35.9113L34.2614 39.086H34.26ZM35.592 42.0573H33.1984V41.2437H35.592V42.0573Z" fill="white"/>
<path d="M38.0913 43.263V38.1779H39.1368V40.1902H41.751V38.1779H42.7965V43.263H41.751V41.0622H39.1368V43.263H38.0913Z" fill="white"/>
<path d="M45.6312 43.263L44.022 38.1779H45.1081L46.2516 41.7882L47.5262 38.1779H48.253L49.5766 41.6936L50.6711 38.1779H51.7572L50.0829 43.263H49.1599L47.8854 39.8704L46.6193 43.263H45.6312Z" fill="white"/>
<path d="M54.4455 39.086H54.7151L53.0652 43.263H52.0526L54.0869 38.1779H55.075L57.1093 43.263H56.0967L54.4469 39.086H54.4455ZM55.7767 42.0573H53.3831V41.2437H55.7767V42.0573Z" fill="white"/>
<path d="M58.2766 43.263V38.1779H59.306L61.7486 41.4613V38.1779H62.7941V43.263H61.9363L59.3221 39.7758V43.263H58.2766Z" fill="white"/>
<path d="M71.9531 42.6483C71.3684 42.9376 70.7038 43.0718 70.0392 43.0718C68.4503 43.0718 67.3096 42.1087 67.3096 40.6832C67.3096 39.2577 68.5301 38.2947 70.061 38.2947C70.7325 38.2947 71.3824 38.4553 71.8663 38.892L71.4111 39.3155C71.0645 38.9817 70.5371 38.7953 70.0175 38.7953C68.8474 38.7953 67.9594 39.579 67.9594 40.6832C67.9594 41.7875 68.8187 42.5711 70.075 42.5711C70.4867 42.5711 70.9706 42.4752 71.346 42.3076V40.9141H70.1688V40.4134H71.9524V42.6483H71.9531Z" fill="white"/>
<path d="M72.8054 40.6645C72.8054 40.3884 72.7767 40.1506 72.7767 39.9517H73.311C73.311 40.1123 73.3257 40.2792 73.3257 40.4461H73.3405C73.4924 40.1506 73.9112 39.8745 74.4672 39.8745C74.5393 39.8745 74.6192 39.8808 74.6983 39.9065L74.6619 40.4134C74.568 40.3877 74.4595 40.3752 74.3587 40.3752C73.6724 40.3752 73.3692 40.8056 73.3692 41.4926V42.9563H72.8061V40.6638L72.8054 40.6645Z" fill="white"/>
<path d="M76.5099 39.8745C77.5498 39.8745 78.3152 40.5163 78.3152 41.4544C78.3152 42.3924 77.5498 43.0342 76.5099 43.0342C75.47 43.0342 74.7046 42.3924 74.7046 41.4544C74.7046 40.5163 75.47 39.8745 76.5099 39.8745ZM76.5099 42.5711C77.2396 42.5711 77.7088 42.083 77.7088 41.4537C77.7088 40.8244 77.2396 40.3362 76.5099 40.3362C75.7802 40.3362 75.311 40.8244 75.311 41.4537C75.311 42.083 75.7802 42.5711 76.5099 42.5711Z" fill="white"/>
<path d="M81.8172 42.2443C81.8172 42.5204 81.8459 42.7582 81.8459 42.957H81.3116C81.3116 42.7964 81.2969 42.6295 81.2969 42.4626H81.2822C81.1302 42.7582 80.7115 43.0342 80.1555 43.0342C79.2675 43.0342 78.8698 42.5336 78.8698 41.8076V39.9517H79.4328V41.7562C79.4328 42.2568 79.6786 42.5718 80.2052 42.5718C80.9349 42.5718 81.2521 42.1031 81.2521 41.4161V39.9524H81.8151V42.245L81.8172 42.2443Z" fill="white"/>
<path d="M82.9411 39.9517H82.4747V45H82.9411V39.9517Z" fill="white"/>
<path d="M83.1954 39.9517C83.1071 39.9517 83.0245 39.9621 82.9412 39.9705V40.4107C83.0217 40.3974 83.1064 40.3898 83.1954 40.3898C83.9244 40.3898 84.3935 40.8522 84.3935 41.4488C84.3935 42.0454 83.9244 42.5078 83.1954 42.5078C83.1064 42.5078 83.0217 42.5002 82.9412 42.487V42.9271C83.0252 42.9355 83.1078 42.9459 83.1954 42.9459C84.2346 42.9459 85 42.3375 85 41.4481C85 40.5588 84.2346 39.9503 83.1954 39.9503V39.9517Z" fill="white"/>
</g>
<defs>
<clipPath id="clip0_224_1137">
<rect width="84.2558" height="44.1829" fill="white" transform="translate(0.744141 0.817074)"/>
</clipPath>
</defs>
</svg>
