<svg width="50" height="50" viewBox="0 0 50 50" fill="none" xmlns="http://www.w3.org/2000/svg">
<g clip-path="url(#clip0_523_5046)">
<path d="M39.6771 9.75684C41.4667 9.75684 42.9227 8.30088 42.9227 6.51123C42.9227 4.72178 41.4667 3.26602 39.6771 3.26602C37.8874 3.26602 36.4314 4.72178 36.4314 6.51123C36.4313 8.30088 37.8873 9.75684 39.6771 9.75684ZM39.6771 4.63311C40.7128 4.63311 41.5555 5.47559 41.5555 6.51113C41.5555 7.54688 40.7128 8.38955 39.6771 8.38955C38.6413 8.38955 37.7986 7.54688 37.7986 6.51113C37.7985 5.47559 38.6412 4.63311 39.6771 4.63311ZM4.09291 16.0931C4.09291 12.6596 6.88637 9.86621 10.3202 9.86621C13.7537 9.86621 16.547 12.6596 16.547 16.0931C16.547 16.7783 16.195 17.7346 14.5176 18.399C14.435 18.4317 14.3497 18.4473 14.2661 18.4473C13.9939 18.4473 13.7367 18.2836 13.6303 18.0152C13.4913 17.6643 13.663 17.267 14.0141 17.1279C14.4495 16.9554 15.1799 16.5916 15.1799 16.093C15.1799 13.4134 12.9999 11.2333 10.3203 11.2333C7.64047 11.2333 5.4602 13.4133 5.4602 16.093C5.4602 16.5915 6.19057 16.9554 6.62602 17.1279C6.97709 17.267 7.14887 17.6643 7.00981 18.0152C6.87074 18.3663 6.47318 18.538 6.1225 18.399C4.44496 17.7346 4.09291 16.7783 4.09291 16.0931ZM33.4498 16.0931C33.4498 12.6596 36.2433 9.86621 39.6771 9.86621C43.1106 9.86621 45.9039 12.6596 45.9039 16.0931C45.9039 16.7783 45.5519 17.7346 43.8745 18.399C43.7919 18.4317 43.7067 18.4473 43.623 18.4473C43.3508 18.4473 43.0936 18.2836 42.9872 18.0152C42.8482 17.6643 43.02 17.267 43.371 17.1279C43.8064 16.9554 44.5369 16.5916 44.5369 16.093C44.5369 13.4134 42.3569 11.2333 39.6772 11.2333C36.9974 11.2333 34.8171 13.4133 34.8171 16.093C34.8171 16.5915 35.5475 16.9554 35.9829 17.1279C36.334 17.267 36.5058 17.6643 36.3667 18.0152C36.2276 18.3663 35.83 18.538 35.4794 18.399C33.8019 17.7346 33.4498 16.7783 33.4498 16.0931ZM17.855 15.7135C17.855 11.7747 21.0596 8.57031 24.9987 8.57031C28.9374 8.57031 32.1418 11.7747 32.1418 15.7135C32.1418 16.5404 31.6802 17.6829 29.4816 18.4302C29.4086 18.455 29.3344 18.4667 29.2615 18.4667C28.9768 18.4667 28.711 18.2874 28.6143 18.0029C28.4928 17.6454 28.6841 17.2571 29.0415 17.1356C29.5626 16.9586 30.7747 16.4655 30.7747 15.7135C30.7747 12.5286 28.1835 9.9375 24.9987 9.9375C21.8135 9.9375 19.2222 12.5286 19.2222 15.7135C19.2222 16.4655 20.4341 16.9586 20.9552 17.1356C21.3126 17.2571 21.5039 17.6454 21.3825 18.0029C21.2611 18.3603 20.8726 18.5516 20.5152 18.4302C18.3164 17.6829 17.855 16.5404 17.855 15.7135ZM48.9406 32.0354C48.5995 31.031 47.7864 30.302 46.651 29.9827C45.4313 29.6397 43.8458 29.7503 41.9391 30.3112L33.2793 32.8588C32.8322 31.9531 32.0123 31.2371 30.9621 30.9565L24.8014 29.3106C20.2984 26.1606 17.8869 27.0687 14.3415 28.8057C12.3803 29.7664 10.3944 30.7094 8.37104 31.6652L8.21186 31.3033C7.74525 30.2425 6.50209 29.7583 5.44057 30.2236L2.14037 31.6714C1.62299 31.8982 1.22602 32.3109 1.0225 32.8333C0.818985 33.3557 0.832168 33.9282 1.05971 34.4453L6.96234 47.8643C7.30854 48.6514 8.08197 49.1211 8.89164 49.1211C9.17338 49.1211 9.45951 49.0642 9.73354 48.9439L13.0338 47.4963C13.5511 47.2694 13.9481 46.8567 14.1517 46.3344C14.3552 45.8119 14.342 45.2394 14.1145 44.7223L13.5385 43.4128L16.4835 41.9782C17.273 41.5937 18.0669 41.5255 18.91 41.7696L25.8342 43.7745C26.3437 43.9221 26.8699 43.9852 27.4037 43.9852C29.2471 43.9852 31.1789 43.2317 32.8027 42.5985C32.9456 42.5428 33.0859 42.488 33.2231 42.4351L46.2121 37.4188C48.3202 36.6045 49.6207 34.0386 48.9406 32.0354ZM12.8778 45.838C12.8069 46.0199 12.6673 46.1643 12.4846 46.2442V46.2443L9.18432 47.692C8.81264 47.8553 8.37719 47.6854 8.21381 47.3139L2.31107 33.8948C2.2308 33.7123 2.22553 33.5115 2.29643 33.3297C2.36732 33.1479 2.50688 33.0035 2.68959 32.9234L5.98979 31.4757C6.08578 31.4336 6.18598 31.4137 6.28471 31.4137C6.5682 31.4137 6.8392 31.5782 6.96049 31.8538L12.8631 45.2729C12.9434 45.4554 12.9486 45.6562 12.8778 45.838ZM45.7195 36.1433L32.7306 41.1596C32.592 41.2132 32.4503 41.2684 32.3059 41.3246C30.4043 42.0663 28.0378 42.9892 26.2145 42.4612L19.2902 40.4563C18.123 40.1184 16.9772 40.2168 15.8848 40.749L12.9876 42.1604L8.92182 32.9171C10.9614 31.9537 12.9632 31.0032 14.9431 30.0333C18.2495 28.4133 20.1591 27.6984 24.1126 30.4975C24.1788 30.5443 24.2529 30.5791 24.3312 30.6L30.6094 32.2773C31.8146 32.5993 32.5331 33.8418 32.2112 35.0469C31.8891 36.2521 30.6461 36.9706 29.4416 36.6485L21.0981 34.4195C20.7336 34.3219 20.3586 34.5387 20.2613 34.9035C20.1638 35.2683 20.3805 35.6429 20.7453 35.7403L29.0888 37.9693C30.0222 38.2188 30.9996 38.0883 31.8409 37.6016C32.6821 37.1151 33.2828 36.3331 33.5321 35.3996C33.6415 34.9897 33.6761 34.577 33.644 34.1766L42.325 31.6229C45.1894 30.7799 47.1788 31.0986 47.646 32.4748C48.0889 33.7796 47.1347 35.5968 45.7195 36.1433ZM24.9987 8.21689C27.0219 8.21689 28.6678 6.5709 28.6678 4.54766C28.6678 2.52471 27.0219 0.878906 24.9987 0.878906C22.9754 0.878906 21.3294 2.5248 21.3294 4.54766C21.3294 6.5708 22.9754 8.21689 24.9987 8.21689ZM24.9987 2.246C26.268 2.246 27.3006 3.27842 27.3006 4.54756C27.3006 5.81689 26.268 6.84961 24.9987 6.84961C23.7293 6.84961 22.6966 5.81689 22.6966 4.54756C22.6966 3.27842 23.7293 2.246 24.9987 2.246ZM10.3201 9.75684C12.1097 9.75684 13.5658 8.30088 13.5658 6.51123C13.5658 4.72178 12.1097 3.26602 10.3201 3.26602C8.53041 3.26602 7.07436 4.72178 7.07436 6.51123C7.07436 8.30088 8.53041 9.75684 10.3201 9.75684ZM10.3201 4.63311C11.3559 4.63311 12.1986 5.47559 12.1986 6.51113C12.1986 7.54688 11.3559 8.38955 10.3201 8.38955C9.28422 8.38955 8.44154 7.54688 8.44154 6.51113C8.44154 5.47559 9.28422 4.63311 10.3201 4.63311ZM45.7813 19.6581C45.6945 19.391 45.4533 19.2042 45.1729 19.187L41.618 18.9699L40.3129 15.656C40.21 15.3946 39.9578 15.2229 39.6769 15.2229C39.396 15.2229 39.1438 15.3946 39.0409 15.656L37.7358 18.9699L34.1809 19.187C33.9006 19.2042 33.6592 19.391 33.5725 19.6581C33.4858 19.9252 33.571 20.2182 33.7878 20.3968L36.5363 22.662L35.6442 26.1102C35.5739 26.382 35.677 26.6693 35.9042 26.8344C36.1314 26.9994 36.4367 27.0086 36.6734 26.8578L39.677 24.9438L42.6806 26.8578C42.7929 26.9293 42.9205 26.9649 43.048 26.9649C43.1892 26.9649 43.3303 26.9212 43.4497 26.8344C43.677 26.6693 43.7801 26.382 43.7098 26.1102L42.8177 22.662L45.5662 20.3968C45.7828 20.2182 45.8681 19.9252 45.7813 19.6581ZM41.6119 21.8841C41.4068 22.053 41.3183 22.3256 41.3848 22.5827L41.9512 24.772L40.0443 23.5568C39.8202 23.414 39.5336 23.414 39.3096 23.5568L37.4027 24.772L37.9691 22.5827C38.0356 22.3255 37.947 22.053 37.742 21.8841L35.997 20.4458L38.254 20.308C38.5193 20.2918 38.7511 20.1233 38.8484 19.8762L39.677 17.7721L40.5056 19.8762C40.6029 20.1233 40.8347 20.2918 41.0999 20.308L43.357 20.4458L41.6119 21.8841ZM16.4245 19.6581C16.3376 19.391 16.0964 19.2042 15.8161 19.187L12.2611 18.9699L10.956 15.656C10.8531 15.3946 10.6008 15.2229 10.32 15.2229C10.0391 15.2229 9.78686 15.3946 9.68383 15.6561L8.37895 18.9699L4.82397 19.187C4.54369 19.2042 4.30229 19.391 4.21557 19.6581C4.12885 19.9252 4.2141 20.2182 4.4309 20.3968L7.17934 22.662L6.28725 26.1102C6.21693 26.382 6.32006 26.6693 6.54731 26.8344C6.77455 26.9994 7.07973 27.0086 7.31645 26.8578L10.3201 24.9438L13.3237 26.8578C13.4359 26.9293 13.5636 26.9649 13.6911 26.9649C13.8323 26.9649 13.9734 26.9212 14.0928 26.8344C14.3201 26.6693 14.4232 26.382 14.3529 26.1102L13.4608 22.662L16.2093 20.3969C16.4258 20.2183 16.5113 19.9252 16.4245 19.6581ZM12.2549 21.8841C12.0498 22.0529 11.9614 22.3256 12.0279 22.5827L12.5943 24.772L10.6873 23.5568C10.5753 23.4854 10.4477 23.4497 10.32 23.4497C10.1922 23.4497 10.0647 23.4854 9.95258 23.5568L8.04565 24.772L8.61205 22.5827C8.67855 22.3255 8.58998 22.053 8.385 21.8841L6.63998 20.4458L8.89711 20.308C9.16234 20.2918 9.39418 20.1233 9.49154 19.8761L10.32 17.7722L11.1486 19.8762C11.2458 20.1233 11.4777 20.2918 11.7429 20.308L13.9999 20.4458L12.2549 21.8841ZM31.1029 19.6581C31.0161 19.391 30.7747 19.2042 30.4945 19.187L26.9396 18.9699L25.6345 15.656C25.5316 15.3946 25.2793 15.2229 24.9985 15.2229C24.7176 15.2229 24.4654 15.3946 24.3624 15.656L23.0574 18.9699L19.5025 19.187C19.2222 19.2042 18.9808 19.391 18.8941 19.6581C18.8074 19.9252 18.8926 20.2182 19.1094 20.3968L21.8579 22.662L20.9658 26.1102C20.8955 26.382 20.9986 26.6693 21.2258 26.8344C21.4531 26.9994 21.7581 27.0086 21.995 26.8578L24.9986 24.9438L28.0022 26.8578C28.1145 26.9293 28.2421 26.9649 28.3696 26.9649C28.5108 26.9649 28.6519 26.9212 28.7713 26.8344C28.9986 26.6693 29.1017 26.382 29.0314 26.1102L28.1393 22.662L30.8877 20.3968C31.1042 20.2182 31.1896 19.9252 31.1029 19.6581ZM26.9333 21.8841C26.7283 22.053 26.6398 22.3256 26.7063 22.5827L27.2727 24.772L25.3658 23.5568C25.2537 23.4854 25.1261 23.4497 24.9984 23.4497C24.8706 23.4497 24.7431 23.4854 24.631 23.5568L22.7241 24.772L23.2905 22.5827C23.357 22.3255 23.2684 22.053 23.0634 21.8841L21.3184 20.4458L23.5754 20.308C23.8407 20.2918 24.0725 20.1233 24.1698 19.8762L24.9984 17.7721L25.827 19.8762C25.9243 20.1233 26.1561 20.2918 26.4213 20.308L28.6784 20.4458L26.9333 21.8841Z" fill="#CB9576"/>
</g>
<defs>
<clipPath id="clip0_523_5046">
<rect width="50" height="50" fill="white"/>
</clipPath>
</defs>
</svg>
