<svg width="49" height="49" viewBox="0 0 49 49" fill="none" xmlns="http://www.w3.org/2000/svg">
<g clip-path="url(#clip0_523_5044)">
<path d="M49 20.5484H47.2241L44.5772 21.9411C44.2793 21.7767 43.9694 21.6374 43.6352 21.5537L40.3057 20.7205V20.3419C41.7787 19.3139 42.6774 17.6156 42.6774 15.8065V14.4249C42.6774 11.3547 40.2717 8.78539 37.315 8.69586C37.1648 8.69201 37.017 8.69741 36.8685 8.70474L37.7317 6.68378L33.5466 2.49986L31.0796 4.10559C30.1422 3.57768 29.1509 3.16669 28.1213 2.87843L27.5119 0H21.4888L20.8795 2.8792C19.8499 3.16746 18.8578 3.57845 17.9212 4.10636L15.4541 2.50063L11.2725 6.68224L12.1211 8.70474C12.0887 8.7032 12.0578 8.69741 12.0254 8.69664C10.5119 8.65264 9.0864 9.20487 8.00356 10.2561C6.91918 11.3065 6.32258 12.7162 6.32258 14.2258V15.8065C6.32258 17.6156 7.22057 19.3131 8.69355 20.3412V20.7205L6.52171 21.2635L2.58514 18.9677H0V35.3442L7.77511 37.9355H9.28938L9.47847 37.2733L11.8618 38.7038C11.9008 39.9997 12.94 41.0424 14.2347 41.0879C14.2802 42.3772 15.3164 43.4133 16.6057 43.4589C16.6512 44.7482 17.6873 45.7843 18.9766 45.8298C19.0237 47.1492 20.1042 48.2097 21.4344 48.2097C21.9284 48.2097 22.4127 48.0557 22.8198 47.7813L23.5198 48.3995C23.9586 48.7858 24.5235 49 25.1101 49H25.2564C26.5715 49 27.6416 47.9369 27.6582 46.6259C28.9591 46.6094 30.0126 45.5559 30.0292 44.255C31.3308 44.2384 32.3851 43.1833 32.4001 41.8817C33.7137 41.8508 34.7742 40.7776 34.7742 39.4567C34.7742 39.3772 34.7703 39.2989 34.7622 39.2198L49 32.1015V20.5484ZM41.0968 14.4249V15.8065C41.0968 17.2092 40.3389 18.5197 39.1187 19.2263L38.7235 19.4548L38.7266 21.9558L42.6751 22.9421L33.9839 27.5166V25.3876C33.9839 24.3252 33.5548 23.3523 32.852 22.6334L35.5645 21.9558V19.4528L35.1701 19.2248C33.9507 18.5197 33.1936 17.2092 33.1936 15.8065V14.2258C33.1936 13.148 33.6196 12.14 34.3941 11.3894C35.1678 10.6393 36.1943 10.2348 37.2675 10.2765C39.3788 10.3398 41.0968 12.201 41.0968 14.4249ZM25.6917 26.8953L22.114 25.7519C20.4836 25.2294 18.7188 25.1514 17.0498 25.5211L16.5968 25.6214V25.3876C16.5968 24.2978 17.3358 23.3516 18.3924 23.0868L22.9194 21.9558V19.4528L22.525 19.2248C21.3055 18.5197 20.5484 17.2092 20.5484 15.8065V14.2258C20.5484 13.148 20.9744 12.14 21.7489 11.3894C22.5227 10.6393 23.5557 10.2348 24.6223 10.2765C26.7336 10.3398 28.4516 12.201 28.4516 14.4249V15.8065C28.4516 17.2092 27.6937 18.5197 26.4735 19.2263L26.0783 19.4548L26.0814 21.9558L30.6076 23.0868C31.6642 23.3516 32.4032 24.2978 32.4032 25.3876V28.349L32.208 28.4516H31.7237L26.8648 27.0631C26.482 26.9547 26.0876 26.9103 25.6917 26.8953ZM16.7739 11.8286C18.2581 8.95287 21.2453 7.1129 24.5 7.1129C27.7238 7.1129 30.6983 8.92818 32.1937 11.7649C31.8174 12.5194 31.6129 13.3548 31.6129 14.2258V15.8065C31.6129 17.6156 32.5109 19.3131 33.9839 20.3412V20.7205L30.8226 21.512L27.6605 20.7205V20.3419C29.1335 19.3139 30.0323 17.6156 30.0323 15.8065V14.4249C30.0323 11.3547 27.6266 8.78539 24.6698 8.69586C23.1571 8.65149 21.7308 9.20409 20.648 10.2553C19.5643 11.3065 18.9677 12.7162 18.9677 14.2258V15.8065C18.9677 17.6156 19.8657 19.3131 21.3387 20.3412V20.7205L18.1774 21.512L15.0154 20.7205V20.3419C16.4883 19.3139 17.3871 17.6156 17.3871 15.8065V14.4249C17.3871 13.4949 17.1633 12.612 16.7739 11.8286ZM13.1391 7.04884L15.6641 4.5239L17.8865 5.97025L18.3117 5.70939C19.3772 5.05644 20.5287 4.57831 21.7339 4.29005L22.2201 4.17351L22.77 1.58065H26.2308L26.7791 4.17273L27.2654 4.28889C28.4705 4.57754 29.622 5.05567 30.6875 5.70861L31.1128 5.96948L33.3352 4.52313L35.857 7.04576L34.9606 9.14467C34.3505 9.40708 33.7848 9.77638 33.2923 10.2537C33.2599 10.2854 33.2321 10.3193 33.2005 10.3518C31.3385 7.39191 28.0468 5.53226 24.5 5.53226C20.9277 5.53226 17.6267 7.40928 15.7694 10.3992C15.2724 9.87903 14.6812 9.45763 14.0259 9.16319L13.1391 7.04884ZM10.2742 21.9558V19.4528L9.8798 19.2248C8.66036 18.5197 7.90323 17.2092 7.90323 15.8065V14.2258C7.90323 13.148 8.32926 12.14 9.10376 11.3894C9.87749 10.6393 10.9063 10.2348 11.9772 10.2765C14.0884 10.3398 15.8065 12.201 15.8065 14.4249V15.8065C15.8065 17.2092 15.0485 18.5197 13.8283 19.2263L13.4332 19.4548L13.4363 21.9558L16.148 22.6334C15.4453 23.3523 15.0161 24.3252 15.0161 25.3876V25.973L12.551 26.521L12.6151 26.2971L12.6452 24.8365L8.47706 22.405L10.2742 21.9558ZM1.58065 20.5484H2.15679L7.84071 23.8637L4.9727 35.3353L1.58065 34.2042V20.5484ZM8.03135 36.3548L6.47578 35.8366L9.26198 24.693L11.0645 25.7441V25.9699L8.09772 36.3548H8.03135ZM13.4355 38.6301C13.4355 38.397 13.5296 38.1686 13.6948 38.0034L15.084 36.6142C15.2492 36.449 15.4777 36.3548 15.7107 36.3548C16.1993 36.3548 16.5968 36.7523 16.5968 37.2409C16.5968 37.474 16.5026 37.7024 16.3375 37.8676L14.9482 39.2568C14.783 39.422 14.5546 39.5161 14.3215 39.5161C13.833 39.5161 13.4355 39.1187 13.4355 38.6301ZM15.8065 41.0011C15.8065 40.768 15.9006 40.5395 16.0658 40.3744L17.455 38.9851C17.6202 38.82 17.8486 38.7258 18.0817 38.7258C18.5703 38.7258 18.9677 39.1233 18.9677 39.6118C18.9677 39.8449 18.8736 40.0734 18.7084 40.2385L17.3192 41.6278C17.154 41.7929 16.9256 41.8871 16.6925 41.8871C16.2039 41.8871 15.8065 41.4896 15.8065 41.0011ZM18.1774 43.372C18.1774 43.139 18.2716 42.9105 18.4367 42.7453L19.826 41.3561C19.9911 41.1909 20.2196 41.0968 20.4527 41.0968C20.9412 41.0968 21.3387 41.4943 21.3387 41.9828C21.3387 42.2159 21.2446 42.4443 21.0794 42.6095L19.6901 43.9987C19.525 44.1639 19.2965 44.2581 19.0634 44.2581C18.5749 44.2581 18.1774 43.8606 18.1774 43.372ZM21.4344 46.629C20.9459 46.629 20.5484 46.2316 20.5484 45.743C20.5484 45.5099 20.6425 45.2815 20.8077 45.1163L22.197 43.7271C22.3621 43.5619 22.5906 43.4677 22.8237 43.4677C23.3122 43.4677 23.7097 43.8652 23.7097 44.3538C23.7097 44.5869 23.6155 44.8153 23.4504 44.9805L22.0611 46.3697C21.896 46.5349 21.6675 46.629 21.4344 46.629ZM25.2564 47.4194H25.1101C24.9087 47.4194 24.7157 47.346 24.5656 47.2129L23.9744 46.6916L24.5679 46.098C24.7798 45.8862 24.9442 45.6342 25.0657 45.3637L25.7843 45.9618C25.9722 46.1185 26.0806 46.3493 26.0806 46.5951C26.0806 47.0497 25.711 47.4194 25.2564 47.4194ZM32.3438 40.3065H32.2072C32.0088 40.3065 31.8151 40.2362 31.6635 40.1089L27.3777 36.5374L26.3651 37.7522L30.527 41.2199C30.7141 41.3766 30.8226 41.6073 30.8226 41.8531C30.8226 42.3077 30.4529 42.6774 29.9983 42.6774H29.8258C29.634 42.6774 29.4465 42.6095 29.2987 42.486L25.0059 38.9091L23.9933 40.1239L28.1552 43.592C28.3432 43.7475 28.4516 43.9783 28.4516 44.2241C28.4516 44.6787 28.0819 45.0484 27.6273 45.0484C27.324 45.0484 27.0284 44.9407 26.7957 44.7474L25.0318 43.2771C24.6432 42.4829 23.8447 41.9292 22.9097 41.896C22.8642 40.6067 21.828 39.5705 20.5387 39.525C20.4932 38.2357 19.4571 37.1996 18.1678 37.154C18.1215 35.8346 17.0409 34.7742 15.7107 34.7742C15.0613 34.7742 14.4257 35.0374 13.9665 35.4966L12.5772 36.8858C12.4943 36.9688 12.4256 37.063 12.3557 37.1564L9.92804 35.6996L12.0563 28.2509L17.3917 27.0647C18.7914 26.7517 20.2671 26.8196 21.632 27.2565L22.7963 27.6289L18.8493 29.6024C17.9474 30.0543 17.3871 30.9615 17.3871 31.9702V32.1265C17.3871 33.5864 18.5749 34.7742 20.0348 34.7742C20.5144 34.7742 20.9864 34.6438 21.3966 34.3964L24.3395 32.6317C24.9307 32.2774 25.7241 32.355 26.2346 32.8142L32.9122 38.8238C33.0909 38.9859 33.1936 39.2159 33.1936 39.4567C33.1936 39.9256 32.8127 40.3065 32.3438 40.3065ZM47.4194 31.1244L34.1047 37.7823C34.0614 37.7364 34.0163 37.6928 33.9688 37.6503L27.2924 31.6407C26.7073 31.1128 25.951 30.8226 25.163 30.8226C24.5868 30.8226 24.0211 30.9793 23.5256 31.2764L20.5816 33.0419C20.4164 33.1415 20.2277 33.1936 20.0348 33.1936C19.4459 33.1936 18.9677 32.7154 18.9677 32.1265V31.9702C18.9677 31.5631 19.1939 31.1981 19.5574 31.0163L23.9659 28.812C24.7204 28.4342 25.616 28.3497 26.4291 28.5836L31.3956 30.0022L32.5985 30.0323L47.4194 22.2317V31.1244Z" fill="#CB9576"/>
</g>
<defs>
<clipPath id="clip0_523_5044">
<rect width="49" height="49" fill="white"/>
</clipPath>
</defs>
</svg>
