<svg width="56" height="56" viewBox="0 0 56 56" fill="none" xmlns="http://www.w3.org/2000/svg">
<path fill-rule="evenodd" clip-rule="evenodd" d="M28.0012 17.2133C33.3559 17.2133 38.2044 19.3838 41.7134 22.8939C45.2223 26.4029 47.394 31.2513 47.394 36.6072C47.394 41.963 45.2235 46.8104 41.7134 50.3193C38.2033 53.8283 33.3559 55.9989 28.0012 55.9989C22.6465 55.9989 17.798 53.8283 14.2879 50.3193C10.779 46.8104 8.60843 41.9619 8.60843 36.6072C8.60843 31.2525 10.779 26.404 14.2879 22.8939C17.798 19.3838 22.6465 17.2133 28.0012 17.2133ZM9.52795 6.59678C9.45403 6.3627 9.27259 6.1667 9.02059 6.08606C8.60955 5.9539 8.16939 6.18014 8.03723 6.59118L6.62939 10.9547L2.10011 10.9457C1.83915 10.9267 1.57371 11.0398 1.40907 11.2672C1.15483 11.6177 1.23323 12.1072 1.58379 12.3603L5.29883 15.0483L3.87307 19.4073L3.87531 19.4085C3.80139 19.6381 3.83387 19.899 3.98619 20.1096C4.24043 20.4579 4.72763 20.5352 5.07595 20.2809L8.78203 17.5773L12.4399 20.2451C12.6404 20.4153 12.9215 20.4803 13.1892 20.3929C13.6003 20.2597 13.8254 19.8173 13.691 19.4073L12.2652 15.0483L15.9803 12.3603L15.9791 12.3592C16.1751 12.2169 16.3017 11.9873 16.3017 11.7264C16.3017 11.2952 15.9523 10.9457 15.5211 10.9457L10.9347 10.9547L9.52795 6.59678ZM9.62091 11.975L8.78091 9.37438L7.94091 11.975C7.84011 12.2897 7.54555 12.5171 7.19723 12.5171L4.46219 12.5115L6.67755 14.1142C6.94523 14.308 7.06955 14.6585 6.96203 14.9901L6.11195 17.5907L8.30939 15.988C8.57707 15.7853 8.95563 15.7707 9.24123 15.979L11.451 17.5907L10.6099 15.0192C10.4911 14.6977 10.5942 14.3248 10.8854 14.1142L13.1007 12.5115L10.4027 12.5171C10.0577 12.5339 9.73179 12.3189 9.62091 11.975ZM47.9663 6.59678C47.8924 6.3627 47.711 6.1667 47.459 6.08606C47.0479 5.9539 46.6078 6.18014 46.4756 6.59118L45.0678 10.9547L40.5385 10.9457C40.2775 10.9267 40.0121 11.0398 39.8475 11.2672C39.5932 11.6177 39.6716 12.1072 40.0222 12.3603L43.7372 15.0483L42.3115 19.4073L42.3137 19.4085C42.2398 19.6381 42.2723 19.899 42.4246 20.1096C42.6788 20.4579 43.166 20.5352 43.5143 20.2809L47.2204 17.5773L50.8783 20.2451C51.0788 20.4153 51.3599 20.4803 51.6276 20.3929C52.0387 20.2597 52.2638 19.8173 52.1294 19.4073L50.7036 15.0483L54.4187 12.3603L54.4175 12.3592C54.6135 12.2169 54.7401 11.9873 54.7401 11.7264C54.7401 11.2952 54.3907 10.9457 53.9595 10.9457L49.3731 10.9547L47.9663 6.59678ZM48.0604 11.975L47.2204 9.37438L46.3804 11.975C46.2796 12.2897 45.9851 12.5171 45.6367 12.5171L42.9017 12.5115L45.1171 14.1142C45.3847 14.308 45.5091 14.6585 45.4015 14.9901L44.5515 17.5907L46.7489 15.988C47.0166 15.7853 47.3951 15.7707 47.6807 15.979L49.8905 17.5907L49.0494 15.0192C48.9307 14.6977 49.0337 14.3248 49.3249 14.1142L51.5403 12.5115L48.8422 12.5171C48.4961 12.5339 48.1702 12.3189 48.0604 11.975ZM28.7472 0.549904L30.1539 4.90782L34.7403 4.89886C35.1715 4.89886 35.5209 5.2483 35.5209 5.6795C35.5209 5.93934 35.3932 6.17006 35.1983 6.3123L35.1995 6.31342L31.4844 9.00142L32.9102 13.3605C33.0435 13.7715 32.8195 14.2128 32.4084 14.3461C32.1407 14.4334 31.8596 14.3673 31.6591 14.1982L28.0012 11.5304L24.2951 14.2341C23.9468 14.4883 23.4585 14.411 23.2054 14.0627C23.052 13.8521 23.0195 13.5912 23.0945 13.3616L23.0923 13.3605L24.518 9.00142L20.803 6.31342C20.4524 6.05918 20.3751 5.56974 20.6283 5.2203C20.7929 4.99294 21.0583 4.87982 21.3193 4.89886L25.8486 4.90782L27.2575 0.544304C27.3897 0.133264 27.8299 -0.0929764 28.2409 0.0391836C28.4918 0.119824 28.6732 0.315824 28.7472 0.549904ZM28.8412 5.92814L28.0012 3.3275L27.1612 5.92814C27.0604 6.24286 26.7659 6.47022 26.4175 6.47022L23.6836 6.46462L25.899 8.06734C26.1667 8.2611 26.291 8.61166 26.1835 8.94318L25.3334 11.5438L27.5308 9.9411C27.7985 9.73838 28.1771 9.72382 28.4627 9.93214L30.6724 11.5438L29.8313 8.9723C29.7126 8.65086 29.8156 8.2779 30.1068 8.06734L32.3222 6.46462L29.6241 6.47022C29.2769 6.4859 28.951 6.27198 28.8412 5.92814ZM23.7094 33.4073L23.7251 43.5601H33.9227C34.2631 43.5601 34.5745 43.4459 34.8142 43.2499C35.055 43.0528 35.2297 42.7728 35.298 42.4413L36.8134 35.0616C36.8582 34.8443 36.8559 34.636 36.8078 34.4422C36.7596 34.2485 36.6655 34.0625 36.5244 33.8901C36.3855 33.7187 36.2231 33.5899 36.0439 33.5048C35.8659 33.4197 35.662 33.3771 35.4369 33.3771H30.0811C29.6476 33.3771 29.2971 33.0265 29.2971 32.5931C29.2971 32.48 29.3206 32.3736 29.3643 32.2761L29.5345 31.7923C30.3835 29.3753 30.8337 28.0929 29.6532 26.9965C29.5345 26.8856 29.4046 26.8117 29.2702 26.7747C29.1358 26.7377 28.9846 26.7355 28.8244 26.7702C28.6643 26.8049 28.5276 26.8688 28.4212 26.9573C28.3137 27.0469 28.2264 27.1678 28.1647 27.3179L26.0603 32.3557C25.6369 33.3681 24.6188 33.4398 23.7094 33.4073ZM22.1638 44.2366L22.1459 32.6659C21.9924 31.8416 20.6036 31.6512 20.6036 33.1038V43.9107C20.6036 45.2222 21.8132 45.4317 22.1638 44.2366ZM33.9227 45.1281C34.6305 45.1281 35.2846 44.8829 35.8009 44.4629C36.315 44.0429 36.6868 43.4504 36.8302 42.7549L38.3455 35.3752C38.4374 34.9272 38.4307 34.4881 38.3276 34.0693C38.2246 33.6515 38.0275 33.2595 37.7385 32.9045C37.4484 32.5483 37.1035 32.2761 36.7126 32.0902C36.3217 31.9043 35.8927 31.8091 35.438 31.8091H31.1854C32.1363 29.0785 32.5417 27.543 30.7195 25.8507C30.4159 25.5685 30.0632 25.3725 29.6812 25.2672C29.2993 25.1619 28.8972 25.1507 28.494 25.2381C28.0897 25.3254 27.7291 25.5024 27.4233 25.7566C27.1187 26.0097 26.879 26.3345 26.7188 26.7176L24.6144 31.7553C24.5628 31.8797 23.9995 31.8584 23.5156 31.8337C22.5345 29.6341 19.0345 30.1056 19.0345 33.1049V43.9118C19.0345 46.8115 22.3643 47.5697 23.4944 45.1281H33.9227ZM28.0012 20.4859C23.5503 20.4859 19.5195 22.2902 16.603 25.2078C13.6854 28.1254 11.8811 32.1552 11.8811 36.6061C11.8811 41.0569 13.6854 45.0878 16.603 48.0043C19.5206 50.9219 23.5503 52.7262 28.0012 52.7262C32.4521 52.7262 36.483 50.9219 39.3995 48.0043C42.3171 45.0867 44.1214 41.0569 44.1214 36.6061C44.1214 32.1552 42.3171 28.1243 39.3995 25.2078C36.483 22.2902 32.4521 20.4859 28.0012 20.4859ZM38.2907 26.3166C35.6576 23.6835 32.0198 22.0539 28.0012 22.0539C23.9827 22.0539 20.3449 23.6824 17.7107 26.3166C15.0775 28.9497 13.4479 32.5875 13.4479 36.6061C13.4479 40.6246 15.0764 44.2624 17.7107 46.8966C20.3438 49.5297 23.9827 51.1593 28.0012 51.1593C32.0198 51.1593 35.6576 49.5309 38.2907 46.8966C40.9238 44.2635 42.5534 40.6246 42.5534 36.6061C42.5534 32.5875 40.9249 28.9497 38.2907 26.3166ZM40.6057 24.0016C37.3801 20.776 32.9236 18.7813 28.0012 18.7813C23.0788 18.7813 18.6223 20.776 15.3967 24.0016C12.1711 27.2272 10.1764 31.6837 10.1764 36.6061C10.1764 41.5285 12.1711 45.9849 15.3967 49.2105C18.6223 52.4361 23.0788 54.4309 28.0012 54.4309C32.9236 54.4309 37.3801 52.4361 40.6057 49.2105C43.8313 45.9849 45.826 41.5285 45.826 36.6061C45.826 31.6837 43.8313 27.2272 40.6057 24.0016Z" fill="#CB9576"/>
</svg>
