<svg width="27" height="27" viewBox="0 0 27 27" fill="none" xmlns="http://www.w3.org/2000/svg">
<g clip-path="url(#clip0_2002_269)">
<path d="M25.1197 13.0589C25.1219 11.0597 24.6276 9.0913 23.6813 7.33029C22.735 5.56928 21.3663 4.07079 19.698 2.96929C18.0296 1.8678 16.1139 1.19778 14.1227 1.01937C12.1315 0.840962 10.1272 1.15974 8.28964 1.9471C6.45206 2.73446 4.83873 3.96576 3.59444 5.53049C2.35016 7.09522 1.51385 8.94442 1.16059 10.9121C0.807329 12.8798 0.948162 14.9044 1.57045 16.8043C2.19274 18.7041 3.27701 20.4197 4.72595 21.7971C4.73783 21.8155 4.75143 21.8327 4.76658 21.8485C4.78645 21.8682 4.80861 21.8855 4.83259 21.8999C7.06228 23.9777 9.9967 25.133 13.0444 25.133C16.0922 25.133 19.0266 23.9777 21.2563 21.8999C21.2803 21.8853 21.3025 21.868 21.3225 21.8483C21.338 21.8324 21.352 21.8152 21.3643 21.7967C22.5509 20.6717 23.4959 19.3167 24.1415 17.8144C24.7872 16.3121 25.12 14.694 25.1197 13.0589ZM1.68172 13.0589C1.68039 11.1891 2.14043 9.34798 3.02106 7.69863C3.90169 6.04927 5.17568 4.6427 6.73009 3.60361C8.28449 2.56452 10.0713 1.92504 11.932 1.74185C13.7927 1.55867 15.6699 1.83745 17.3971 2.55347C19.1243 3.26949 20.6481 4.40063 21.8335 5.84659C23.0188 7.29255 23.8291 9.00866 24.1924 10.8427C24.5557 12.6768 24.4608 14.5722 23.9162 16.3609C23.3716 18.1495 22.394 19.7761 21.0702 21.0965L19.837 19.8721C20.4275 19.2826 20.9388 18.6188 21.358 17.8973C21.3652 17.8886 21.372 17.8796 21.3783 17.8703C21.3836 17.8601 21.3882 17.8497 21.3924 17.839C22.227 16.3864 22.6667 14.7405 22.6676 13.0651C22.6685 11.3898 22.2306 9.74341 21.3974 8.2899C21.392 8.27535 21.3856 8.26117 21.3783 8.24745C21.3703 8.23456 21.3614 8.22221 21.3517 8.21048C20.5137 6.78069 19.3232 5.58963 17.8937 4.75106C17.8706 4.73057 17.8435 4.71502 17.8141 4.70535C16.3626 3.87312 14.7185 3.43525 13.0453 3.43525C11.3722 3.43525 9.7281 3.87312 8.27658 4.70535C8.24721 4.71502 8.22011 4.73057 8.19695 4.75106C6.76699 5.58944 5.57591 6.78052 4.73753 8.21048C4.72786 8.22221 4.71897 8.23456 4.71092 8.24745C4.70364 8.26117 4.69726 8.27535 4.69183 8.2899C3.8587 9.74341 3.42079 11.3898 3.42168 13.0651C3.42257 14.7405 3.86223 16.3864 4.6969 17.839C4.70103 17.8497 4.70571 17.8601 4.71092 17.8703C4.71724 17.8796 4.72402 17.8886 4.73123 17.8973C5.15042 18.6188 5.66171 19.2826 6.25223 19.8721L5.01886 21.0965C3.9602 20.0429 3.12034 18.7904 2.54762 17.411C1.9749 16.0315 1.68062 14.5525 1.68172 13.0589ZM6.75801 19.3714C6.28645 18.9017 5.86906 18.3806 5.51367 17.8179L6.58231 17.2008C6.62306 17.1776 6.65883 17.1466 6.68755 17.1096C6.71628 17.0725 6.73739 17.0302 6.74967 16.9849C6.76195 16.9397 6.76516 16.8924 6.75912 16.846C6.75308 16.7995 6.7379 16.7546 6.71446 16.714C6.69102 16.6734 6.65978 16.6379 6.62254 16.6094C6.5853 16.5809 6.5428 16.5601 6.49748 16.5481C6.45215 16.5361 6.40491 16.5332 6.35846 16.5396C6.31202 16.5459 6.26728 16.5614 6.22684 16.5851L5.16023 17.2008C4.54472 16.0296 4.19719 14.7363 4.14278 13.4143H5.37737C5.47165 13.4143 5.56206 13.3769 5.62873 13.3102C5.69539 13.2436 5.73284 13.1531 5.73284 13.0589C5.73284 12.9646 5.69539 12.8742 5.62873 12.8075C5.56206 12.7409 5.47165 12.7034 5.37737 12.7034H4.14237C4.19337 11.3808 4.54043 10.0866 5.158 8.91593L6.22623 9.53262C6.26667 9.55633 6.31141 9.5718 6.35785 9.57815C6.4043 9.5845 6.45154 9.58161 6.49687 9.56962C6.54219 9.55764 6.58469 9.53681 6.62193 9.50834C6.65917 9.47986 6.69041 9.4443 6.71385 9.4037C6.73729 9.3631 6.75247 9.31827 6.75851 9.27178C6.76455 9.22529 6.76134 9.17807 6.74906 9.13283C6.73678 9.08758 6.71567 9.04522 6.68694 9.00817C6.65822 8.97112 6.62245 8.94012 6.5817 8.91695L5.5155 8.30087C6.22403 7.18406 7.17053 6.23756 8.28734 5.52903L8.90342 6.59584C8.92659 6.63659 8.95759 6.67236 8.99464 6.70108C9.03169 6.7298 9.07406 6.75091 9.1193 6.7632C9.16454 6.77548 9.21176 6.77869 9.25825 6.77265C9.30474 6.76661 9.34958 6.75143 9.39017 6.72799C9.43077 6.70455 9.46633 6.67331 9.49481 6.63607C9.52328 6.59883 9.54411 6.55633 9.5561 6.511C9.56808 6.46568 9.57098 6.41844 9.56463 6.37199C9.55828 6.32554 9.5428 6.28081 9.51909 6.24037L8.90159 5.17213C10.0722 4.55457 11.3665 4.2075 12.6891 4.15651V5.39151C12.6891 5.48579 12.7265 5.5762 12.7932 5.64286C12.8598 5.70953 12.9503 5.74698 13.0445 5.74698C13.1388 5.74698 13.2292 5.70953 13.2959 5.64286C13.3625 5.5762 13.4 5.48579 13.4 5.39151V4.1559C14.7226 4.20689 16.0168 4.55396 17.1875 5.17153L16.5716 6.24037C16.5479 6.28081 16.5324 6.32554 16.5261 6.37199C16.5197 6.41844 16.5226 6.46568 16.5346 6.511C16.5466 6.55633 16.5674 6.59883 16.5959 6.63607C16.6243 6.67331 16.6599 6.70455 16.7005 6.72799C16.7411 6.75143 16.7859 6.76661 16.8324 6.77265C16.8789 6.77869 16.9261 6.77548 16.9714 6.7632C17.0166 6.75091 17.059 6.7298 17.096 6.70108C17.1331 6.67236 17.1641 6.63659 17.1873 6.59584L17.8033 5.52903C18.9202 6.23756 19.8666 7.18406 20.5752 8.30087L19.5084 8.91695C19.4676 8.94012 19.4319 8.97112 19.4031 9.00817C19.3744 9.04522 19.3533 9.08758 19.341 9.13283C19.3287 9.17807 19.3255 9.22529 19.3316 9.27178C19.3376 9.31827 19.3528 9.3631 19.3762 9.4037C19.3997 9.4443 19.4309 9.47986 19.4681 9.50834C19.5054 9.53681 19.5479 9.55764 19.5932 9.56962C19.6385 9.58161 19.6858 9.5845 19.7322 9.57815C19.7787 9.5718 19.8234 9.55633 19.8638 9.53262L20.9321 8.91593C21.5496 10.0866 21.8967 11.3808 21.9477 12.7034H20.7127C20.6184 12.7034 20.528 12.7409 20.4613 12.8075C20.3947 12.8742 20.3572 12.9646 20.3572 13.0589C20.3572 13.1531 20.3947 13.2436 20.4613 13.3102C20.528 13.3769 20.6184 13.4143 20.7127 13.4143H21.9473C21.8929 14.7363 21.5454 16.0296 20.9298 17.2008L19.8638 16.5851C19.8234 16.5614 19.7787 16.5459 19.7322 16.5396C19.6858 16.5332 19.6385 16.5361 19.5932 16.5481C19.5479 16.5601 19.5054 16.5809 19.4681 16.6094C19.4309 16.6379 19.3997 16.6734 19.3762 16.714C19.3528 16.7546 19.3376 16.7995 19.3316 16.846C19.3255 16.8924 19.3287 16.9397 19.341 16.9849C19.3533 17.0302 19.3744 17.0725 19.4031 17.1096C19.4319 17.1466 19.4676 17.1776 19.5084 17.2008L20.577 17.8179C20.2216 18.3806 19.8042 18.9017 19.3327 19.3714L17.3875 17.4403C17.321 17.3742 17.2311 17.3371 17.1373 17.3371H8.95339C8.85963 17.3371 8.76968 17.3742 8.70314 17.4403L6.75801 19.3714ZM5.54089 21.5814L9.10004 18.048H16.9906L20.5496 21.5814C18.4784 23.4119 15.8095 24.4223 13.0452 24.4223C10.281 24.4223 7.61212 23.4119 5.54089 21.5814Z" fill="black"/>
<path d="M13.0453 14.5585C13.3114 14.559 13.5729 14.4884 13.8027 14.3542C14.0326 14.2199 14.2225 14.0268 14.3528 13.7948C14.4832 13.5627 14.5494 13.3001 14.5445 13.0339C14.5395 12.7678 14.4638 12.5078 14.3249 12.2807L17.2865 9.32096C17.3532 9.2543 17.3906 9.16388 17.3906 9.0696C17.3906 8.97532 17.3532 8.8849 17.2865 8.81823C17.2198 8.75156 17.1294 8.71411 17.0351 8.71411C16.9409 8.71411 16.8504 8.75156 16.7838 8.81823L13.823 11.7788C13.6253 11.6583 13.4023 11.5854 13.1716 11.5655C12.9409 11.5457 12.7088 11.5796 12.4934 11.6645C12.278 11.7494 12.0852 11.883 11.9301 12.0549C11.775 12.2268 11.6618 12.4323 11.5994 12.6553C11.537 12.8783 11.5271 13.1127 11.5705 13.3401C11.6139 13.5676 11.7093 13.7819 11.8494 13.9662C11.9894 14.1506 12.1703 14.3 12.3778 14.4028C12.5853 14.5055 12.8137 14.5589 13.0453 14.5585ZM13.0453 12.2693C13.2013 12.2693 13.3539 12.3156 13.4837 12.4023C13.6135 12.489 13.7146 12.6123 13.7743 12.7565C13.8341 12.9007 13.8497 13.0593 13.8192 13.2124C13.7888 13.3655 13.7136 13.5061 13.6033 13.6165C13.4929 13.7268 13.3523 13.802 13.1992 13.8324C13.0461 13.8629 12.8875 13.8473 12.7433 13.7875C12.5991 13.7278 12.4758 13.6267 12.3891 13.4969C12.3024 13.3671 12.2561 13.2145 12.2561 13.0585C12.2563 12.8492 12.3395 12.6486 12.4874 12.5006C12.6354 12.3527 12.836 12.2695 13.0453 12.2693Z" fill="black"/>
<path d="M15.1985 20.0632H10.8922C10.798 20.0633 10.7076 20.1008 10.6409 20.1674C10.5743 20.2341 10.5368 20.3244 10.5367 20.4187V22.0512C10.5368 22.1455 10.5743 22.2359 10.6409 22.3025C10.7076 22.3692 10.798 22.4066 10.8922 22.4067H15.1985C15.2927 22.4066 15.3831 22.3692 15.4498 22.3025C15.5164 22.2359 15.5539 22.1455 15.5539 22.0512V20.4187C15.5539 20.3244 15.5164 20.2341 15.4498 20.1674C15.3831 20.1008 15.2927 20.0633 15.1985 20.0632ZM14.843 21.6957H11.2483V20.7742H14.8424L14.843 21.6957Z" fill="black"/>
</g>
<defs>
<clipPath id="clip0_2002_269">
<rect width="26" height="26" fill="white" transform="translate(0.0452881 0.0588379)"/>
</clipPath>
</defs>
</svg>
