<svg width="29" height="18" viewBox="0 0 29 18" fill="none" xmlns="http://www.w3.org/2000/svg">
<path d="M9.83943 8.31976H7.58057C7.43387 8.31976 7.29319 8.37804 7.18947 8.48176C7.08574 8.58549 7.02747 8.72617 7.02747 8.87286C7.02747 9.01955 7.08574 9.16024 7.18947 9.26396C7.29319 9.36769 7.43387 9.42596 7.58057 9.42596H9.83943C10.1787 9.42626 10.5042 9.29185 10.7444 9.05227C10.9846 8.81269 11.1198 8.48755 11.1204 8.1483V3.63058C11.1201 3.29171 10.9854 2.96678 10.7459 2.72706C10.5064 2.48734 10.1816 2.35239 9.84275 2.35181H7.58057C7.43387 2.35181 7.29319 2.41008 7.18947 2.51381C7.08574 2.61753 7.02747 2.75822 7.02747 2.90491C7.02747 3.0516 7.08574 3.19228 7.18947 3.29601C7.29319 3.39974 7.43387 3.45801 7.58057 3.45801H9.83943C9.885 3.4583 9.92861 3.47661 9.96074 3.50894C9.99286 3.54127 10.0109 3.585 10.0109 3.63058V5.33302H7.58057C7.43387 5.33302 7.29319 5.39129 7.18947 5.49502C7.08574 5.59874 7.02747 5.73943 7.02747 5.88612C7.02747 6.03281 7.08574 6.17349 7.18947 6.27722C7.29319 6.38095 7.43387 6.43922 7.58057 6.43922H10.0142V8.14498C10.0147 8.16806 10.0104 8.19099 10.0018 8.2124C9.9932 8.23381 9.98034 8.25325 9.96402 8.26958C9.9477 8.2859 9.92825 8.29875 9.90684 8.30738C9.88544 8.316 9.8625 8.32021 9.83943 8.31976Z" fill="black"/>
<path d="M16.3395 8.1483V6.614C16.3398 6.27475 16.2054 5.94926 15.9658 5.70906C15.7262 5.46886 15.4011 5.33361 15.0618 5.33302H13.355V3.63058C13.355 3.58481 13.3732 3.54091 13.4055 3.50855C13.4379 3.47619 13.4818 3.45801 13.5275 3.45801H15.7864C15.9331 3.45801 16.0738 3.39974 16.1775 3.29601C16.2812 3.19228 16.3395 3.0516 16.3395 2.90491C16.3395 2.75822 16.2812 2.61753 16.1775 2.51381C16.0738 2.41008 15.9331 2.35181 15.7864 2.35181H13.5275C13.1886 2.35239 12.8637 2.48731 12.624 2.727C12.3843 2.96669 12.2494 3.2916 12.2488 3.63058V8.1483C12.2497 8.48708 12.3847 8.81172 12.6244 9.05117C12.864 9.29062 13.1888 9.42538 13.5275 9.42596H15.0618C15.4005 9.42538 15.7252 9.29058 15.9646 9.0511C16.2041 8.81162 16.3389 8.48698 16.3395 8.1483ZM15.2333 8.1483C15.2333 8.19378 15.2152 8.23739 15.1831 8.26954C15.1509 8.3017 15.1073 8.31976 15.0618 8.31976H13.5275C13.5049 8.31991 13.4825 8.31558 13.4616 8.30703C13.4407 8.29848 13.4216 8.28587 13.4056 8.26994C13.3896 8.254 13.3768 8.23505 13.3681 8.21417C13.3595 8.1933 13.355 8.17091 13.355 8.1483V6.43922H15.0618C15.1073 6.43922 15.1509 6.45729 15.1831 6.48944C15.2152 6.5216 15.2333 6.56521 15.2333 6.61068V8.1483Z" fill="black"/>
<path d="M19.0995 9.42596H19.9325C20.3645 9.42596 20.7787 9.25444 21.0843 8.94911C21.3898 8.64377 21.5616 8.2296 21.5619 7.79764V3.98014C21.5613 3.54826 21.3894 3.13427 21.084 2.82899C20.7785 2.52371 20.3644 2.3521 19.9325 2.35181H19.0995C18.6677 2.35239 18.2538 2.5241 17.9484 2.82931C17.643 3.13452 17.471 3.54835 17.4701 3.98014V7.79764C17.4707 8.22951 17.6426 8.64351 17.9481 8.94878C18.2535 9.25406 18.6677 9.42567 19.0995 9.42596ZM18.5763 3.98014C18.5766 3.84156 18.6318 3.70876 18.7299 3.61087C18.828 3.51298 18.9609 3.45801 19.0995 3.45801H19.9325C20.0711 3.45801 20.204 3.51298 20.3021 3.61087C20.4002 3.70876 20.4554 3.84156 20.4557 3.98014V7.79764C20.4554 7.93621 20.4002 8.06902 20.3021 8.1669C20.204 8.26479 20.0711 8.31976 19.9325 8.31976H19.0995C18.9609 8.31976 18.828 8.26479 18.7299 8.1669C18.6318 8.06902 18.5766 7.93621 18.5763 7.79764V3.98014Z" fill="black"/>
<path d="M23.2278 3.14699C23.5246 3.14721 23.8147 3.05939 24.0616 2.89465C24.3084 2.72991 24.5008 2.49566 24.6145 2.22152C24.7282 1.94739 24.758 1.64569 24.7001 1.35462C24.6423 1.06354 24.4994 0.796162 24.2896 0.586316C24.0797 0.376469 23.8123 0.233585 23.5213 0.175742C23.2302 0.117899 22.9285 0.147697 22.6544 0.261367C22.3802 0.375036 22.146 0.567467 21.9812 0.814312C21.8165 1.06116 21.7287 1.35132 21.7289 1.64809C21.7295 2.04544 21.8876 2.42635 22.1685 2.70733C22.4495 2.9883 22.8304 3.14641 23.2278 3.14699ZM23.2278 1.25428C23.3057 1.25406 23.382 1.27697 23.4469 1.32011C23.5118 1.36325 23.5624 1.42468 23.5924 1.49662C23.6224 1.56856 23.6303 1.64777 23.6153 1.72424C23.6002 1.8007 23.5628 1.87097 23.5077 1.92616C23.4527 1.98134 23.3825 2.01896 23.3061 2.03425C23.2297 2.04953 23.1505 2.0418 23.0784 2.01202C23.0064 1.98225 22.9449 1.93177 22.9015 1.86699C22.8582 1.8022 22.8351 1.72602 22.8351 1.64809C22.8349 1.59642 22.845 1.54524 22.8647 1.49747C22.8843 1.4497 22.9132 1.40627 22.9497 1.36969C22.9862 1.33311 23.0295 1.30408 23.0772 1.28428C23.125 1.26447 23.1761 1.25428 23.2278 1.25428Z" fill="black"/>
<path d="M12.7178 12.4437C12.6667 12.3909 12.6057 12.3488 12.5382 12.3198C12.4707 12.2908 12.3982 12.2755 12.3247 12.2749C12.2513 12.2743 12.1785 12.2883 12.1105 12.3161C12.0425 12.3439 11.9808 12.385 11.9288 12.4369C11.8769 12.4888 11.8358 12.5506 11.808 12.6186C11.7802 12.6865 11.7662 12.7594 11.7668 12.8328C11.7675 12.9062 11.7827 12.9788 11.8117 13.0463C11.8407 13.1138 11.8829 13.1748 11.9357 13.2258L12.8594 14.1484C6.15135 13.946 1.49646 12.2656 1.49646 10.853C1.49646 10.3386 2.2708 9.53444 4.43564 8.81762C4.50464 8.79481 4.56847 8.75864 4.6235 8.71116C4.67852 8.66368 4.72365 8.60583 4.75631 8.54091C4.78898 8.47599 4.80854 8.40528 4.81387 8.3328C4.81921 8.26032 4.81022 8.1875 4.78741 8.1185C4.7646 8.0495 4.72843 7.98566 4.68095 7.93064C4.63347 7.87562 4.57562 7.83049 4.5107 7.79782C4.44578 7.76516 4.37507 7.7456 4.30259 7.74026C4.23011 7.73493 4.15729 7.74392 4.08829 7.76673C1.66903 8.56762 0.390259 9.63399 0.390259 10.853C0.390259 13.644 6.83831 15.0842 12.9025 15.2579L11.9357 16.2247C11.8318 16.3285 11.7734 16.4692 11.7733 16.6159C11.7732 16.7627 11.8314 16.9035 11.9351 17.0074C12.0388 17.1112 12.1796 17.1696 12.3263 17.1697C12.4731 17.1698 12.6139 17.1116 12.7178 17.0079L14.6094 15.1163C14.7131 15.0126 14.7713 14.8719 14.7713 14.7253C14.7713 14.5786 14.7131 14.438 14.6094 14.3342L12.7178 12.4437Z" fill="black"/>
<path d="M24.3473 7.76653C24.2777 7.74132 24.2039 7.73031 24.13 7.73414C24.0562 7.73798 23.9838 7.75659 23.9173 7.78887C23.8508 7.82115 23.7914 7.86644 23.7426 7.92208C23.6939 7.97771 23.6568 8.04255 23.6336 8.11276C23.6104 8.18297 23.6015 8.25712 23.6074 8.33084C23.6133 8.40455 23.634 8.47633 23.6681 8.54193C23.7023 8.60752 23.7492 8.6656 23.8062 8.71273C23.8632 8.75986 23.9291 8.79508 23.9999 8.81631C26.1648 9.53645 26.9391 10.3384 26.9391 10.8528C26.9391 12.1803 22.9103 13.7998 16.4036 14.1194C16.331 14.1212 16.2594 14.1372 16.193 14.1666C16.1265 14.196 16.0665 14.2382 16.0164 14.2908C15.9152 14.397 15.8603 14.5391 15.8638 14.6858C15.8673 14.8325 15.929 14.9718 16.0352 15.073C16.1414 15.1743 16.2835 15.2292 16.4302 15.2256H16.4567C22.2245 14.9413 28.0453 13.4801 28.0453 10.8528C28.0453 9.6338 26.7665 8.56742 24.3473 7.76653Z" fill="black"/>
</svg>
