<svg width="35" height="29" viewBox="0 0 35 29" fill="none" xmlns="http://www.w3.org/2000/svg">
<g clip-path="url(#clip0_2002_209)">
<mask id="mask0_2002_209" style="mask-type:luminance" maskUnits="userSpaceOnUse" x="3" y="0" width="29" height="29">
<path d="M3.95483 0.951094H31.2882V28.2844H3.95483V0.951094Z" fill="white"/>
</mask>
<g mask="url(#mask0_2002_209)">
<path d="M11.6303 17.6129C11.6303 18.7947 10.6723 19.7527 9.49052 19.7527C8.30883 19.7527 7.35083 18.7947 7.35083 17.6129C7.35083 16.4312 8.30883 15.4732 9.49052 15.4732C10.6723 15.4732 11.6303 16.4312 11.6303 17.6129Z" stroke="black" stroke-width="0.800781" stroke-miterlimit="10" stroke-linecap="round" stroke-linejoin="round"/>
<path d="M11.6302 18.0408H24.0406" stroke="black" stroke-width="0.800781" stroke-miterlimit="10" stroke-linecap="round" stroke-linejoin="round"/>
<path d="M9.7931 17.3104L9.18787 17.9155" stroke="black" stroke-width="0.800781" stroke-miterlimit="10" stroke-linecap="round" stroke-linejoin="round"/>
<path d="M28.3201 17.6129C28.3201 18.7947 27.3621 19.7527 26.1803 19.7527C24.9987 19.7527 24.0406 18.7947 24.0406 17.6129C24.0406 16.4312 24.9987 15.4732 26.1803 15.4732C27.3621 15.4732 28.3201 16.4312 28.3201 17.6129Z" stroke="black" stroke-width="0.800781" stroke-miterlimit="10" stroke-linecap="round" stroke-linejoin="round"/>
<path d="M25.8778 17.3104L26.483 17.9155" stroke="black" stroke-width="0.800781" stroke-miterlimit="10" stroke-linecap="round" stroke-linejoin="round"/>
<path d="M7.35084 17.6128L5.45753 17.3424C4.82502 17.252 4.35522 16.7103 4.35522 16.0714V13.1632C4.35522 12.7172 4.49461 12.2824 4.7538 11.9195L5.98295 10.1987C6.30427 9.7489 6.82302 9.48191 7.37588 9.48191H17.2853C18.3433 9.48191 19.3794 9.7836 20.2721 10.3517L23.6127 12.4775C23.6127 12.4775 27.4922 12.4775 29.9123 13.6016C30.5115 13.8799 30.8878 14.488 30.8878 15.1487V17.1849C30.8877 17.6576 30.5045 18.0408 30.0318 18.0408" stroke="black" stroke-width="0.800781" stroke-miterlimit="10" stroke-linecap="round" stroke-linejoin="round"/>
<path d="M23.6128 12.4778H7.6604C7.33181 12.4778 7.1258 12.1228 7.28883 11.8375L8.63473 9.48217" stroke="black" stroke-width="0.800781" stroke-miterlimit="10" stroke-linecap="round" stroke-linejoin="round"/>
<path d="M13.342 16.3289H22.3288" stroke="black" stroke-width="0.800781" stroke-miterlimit="10" stroke-linecap="round" stroke-linejoin="round"/>
<path d="M4.35522 13.7615H5.2111" stroke="black" stroke-width="0.800781" stroke-miterlimit="10" stroke-linecap="round" stroke-linejoin="round"/>
<path d="M29.6039 14.6174H30.6381" stroke="black" stroke-width="0.800781" stroke-miterlimit="10" stroke-linecap="round" stroke-linejoin="round"/>
<path d="M11.6302 12.4778V9.48217" stroke="black" stroke-width="0.800781" stroke-miterlimit="10" stroke-linecap="round" stroke-linejoin="round"/>
<path d="M15.9097 9.48217L16.3376 12.4778" stroke="black" stroke-width="0.800781" stroke-miterlimit="10" stroke-linecap="round" stroke-linejoin="round"/>
</g>
</g>
<path fill-rule="evenodd" clip-rule="evenodd" d="M18.9046 15.3863C17.7591 14.5535 16.3946 14.5535 15.249 15.3863L14.8633 15.669C13.9403 16.3394 12.8935 16.3187 11.9876 15.611L11.8331 15.4887C10.6704 14.5785 9.21784 14.562 8.04294 15.4464C7.11061 16.1477 6.04734 16.1341 5.12646 15.4092C3.99236 14.5148 2.55773 14.4898 1.38355 15.3441L0.562127 15.9437C0.368936 16.0833 0.325289 16.3523 0.465532 16.5441C0.605774 16.7351 0.874812 16.7773 1.06443 16.6378L1.88871 16.0382C2.75092 15.4114 3.76196 15.4278 4.59769 16.084C5.81051 17.0399 7.3267 17.0585 8.56027 16.1319C9.43393 15.4729 10.4335 15.4851 11.3043 16.1648L11.4589 16.2872C12.6717 17.2345 14.1299 17.2632 15.3685 16.363L15.7542 16.0804C16.5928 15.4693 17.5573 15.4693 18.3987 16.0804L18.8459 16.4074C20.038 17.2753 21.4612 17.2753 22.6533 16.4074L23.1033 16.0804C23.9419 15.4693 24.9064 15.4693 25.745 16.0804L26.1951 16.4074C26.7911 16.841 27.443 17.0585 28.0977 17.0585C28.7524 17.0585 29.4071 16.841 30.0031 16.4074L30.4503 16.0804C31.2918 15.4693 32.2535 15.4693 33.0949 16.0804L34.1904 16.8796C34.3836 17.0192 34.6519 16.9769 34.7893 16.7852C34.9295 16.5934 34.8887 16.3244 34.6955 16.1849L33.6001 15.3863C32.4545 14.5535 31.09 14.5535 29.9445 15.3863L29.4973 15.7133C28.6093 16.3602 27.589 16.3602 26.701 15.7133L26.2509 15.3863C25.1082 14.5535 23.7409 14.5535 22.5982 15.3863L22.1481 15.7133C21.2601 16.3602 20.2398 16.3602 19.3518 15.7133L18.9046 15.3863ZM18.9046 21.3631C17.7591 20.5295 16.3946 20.5295 15.249 21.3631L14.8633 21.645C13.9403 22.3162 12.8935 22.2947 11.9876 21.5871L11.8331 21.4654C10.6704 20.5546 9.21784 20.5381 8.04294 21.4225C7.11061 22.1237 6.04734 22.1108 5.12646 21.3853C3.99236 20.4916 2.55773 20.4666 1.38355 21.3202L0.562127 21.9198C0.368936 22.06 0.325289 22.3284 0.465532 22.5201C0.605774 22.7112 0.874812 22.7534 1.06443 22.6146L1.88871 22.0142C2.75092 21.3874 3.76196 21.4039 4.59769 22.06C5.81051 23.016 7.3267 23.0346 8.56027 22.1087C9.43393 21.4497 10.4335 21.4611 11.3043 22.1416L11.4589 22.2632C12.6717 23.2113 14.1299 23.2392 15.3685 22.3391L15.7542 22.0572C16.5928 21.4454 17.5573 21.4454 18.3987 22.0572L18.8459 22.3835C20.038 23.2514 21.4612 23.2514 22.6533 22.3835L23.1033 22.0572C23.9419 21.4454 24.9064 21.4454 25.745 22.0572L26.1951 22.3835C26.7911 22.8178 27.443 23.0346 28.0977 23.0346C28.7524 23.0346 29.4071 22.8178 30.0031 22.3835L30.4503 22.0572C31.2918 21.4454 32.2535 21.4454 33.0949 22.0572L34.1904 22.8557C34.3836 22.9952 34.6519 22.953 34.7893 22.7613C34.9295 22.5695 34.8887 22.3012 34.6955 22.1616L33.6001 21.3631C32.4545 20.5295 31.09 20.5295 29.9445 21.3631L29.4973 21.6894C28.6093 22.3362 27.589 22.3362 26.701 21.6894L26.2509 21.3631C25.1082 20.5295 23.7409 20.5295 22.5982 21.3631L22.1481 21.6894C21.2601 22.3362 20.2398 22.3362 19.3518 21.6894L18.9046 21.3631ZM18.9046 18.3801C17.7591 17.5472 16.3946 17.5472 15.249 18.3801L14.8633 18.6627C13.9403 19.3332 12.8935 19.3124 11.9876 18.6048L11.8331 18.4824C10.6704 17.5723 9.21784 17.5558 8.04294 18.4402C7.11061 19.1414 6.04734 19.1278 5.12646 18.403C3.99236 17.5086 2.55773 17.4835 1.38355 18.3379L0.562127 18.9375C0.368936 19.077 0.325289 19.3461 0.465532 19.5378C0.605774 19.7289 0.874812 19.7711 1.06443 19.6315L1.88871 19.0319C2.75092 18.4051 3.76196 18.4216 4.59769 19.0777C5.81051 20.0337 7.3267 20.0523 8.56027 19.1257C9.43393 18.4667 10.4335 18.4788 11.3043 19.1586L11.4589 19.2809C12.6717 20.2283 14.1299 20.2569 15.3685 19.3568L15.7542 19.0742C16.5928 18.4631 17.5573 18.4631 18.3987 19.0742L18.8459 19.4011C20.038 20.2691 21.4612 20.2691 22.6533 19.4011L23.1033 19.0742C23.9419 18.4631 24.9064 18.4631 25.745 19.0742L26.1951 19.4011C26.7911 19.8348 27.443 20.0523 28.0977 20.0523C28.7524 20.0523 29.4071 19.8348 30.0031 19.4011L30.4503 19.0742C31.2918 18.4631 32.2535 18.4631 33.0949 19.0742L34.1904 19.8734C34.3836 20.0129 34.6519 19.9707 34.7893 19.7789C34.9295 19.5872 34.8887 19.3181 34.6955 19.1786L33.6001 18.3801C32.4545 17.5472 31.09 17.5472 29.9445 18.3801L29.4973 18.7071C28.6093 19.3539 27.589 19.3539 26.701 18.7071L26.2509 18.3801C25.1082 17.5472 23.7409 17.5472 22.5982 18.3801L22.1481 18.7071C21.2601 19.3539 20.2398 19.3539 19.3518 18.7071L18.9046 18.3801Z" fill="black"/>
<defs>
<clipPath id="clip0_2002_209">
<rect width="27.3333" height="27.3333" fill="white" transform="translate(3.95483 0.951172)"/>
</clipPath>
</defs>
</svg>
