<svg width="28" height="28" viewBox="0 0 28 28" fill="none" xmlns="http://www.w3.org/2000/svg">
<mask id="path-1-inside-1_2002_244" fill="white">
<path d="M21.7844 10.2871C21.7842 10.287 21.7838 10.287 21.7836 10.2869C21.7893 10.3037 21.789 10.3021 21.7844 10.2871Z"/>
</mask>
<path d="M21.7844 10.2871C21.7842 10.287 21.7838 10.287 21.7836 10.2869C21.7893 10.3037 21.789 10.3021 21.7844 10.2871Z" fill="#E5E1E5"/>
<path d="M21.7844 10.2871L21.836 10.2713L21.8285 10.2466L21.8045 10.237L21.7844 10.2871ZM21.7836 10.2869L21.8036 10.2367L21.6947 10.1932L21.7325 10.3042L21.7836 10.2869ZM21.7844 10.2871L21.8045 10.237L21.8036 10.2367L21.7836 10.2869L21.7635 10.337L21.7644 10.3373L21.7844 10.2871ZM21.7836 10.2869L21.7325 10.3042C21.7339 10.3085 21.7351 10.3119 21.7359 10.3143C21.7363 10.3153 21.7368 10.3168 21.7373 10.3181C21.7375 10.3185 21.7382 10.3202 21.7391 10.3221C21.7392 10.3223 21.7409 10.3261 21.7439 10.3303C21.744 10.3303 21.7504 10.3403 21.763 10.3468C21.7708 10.3509 21.7876 10.3569 21.8073 10.3493C21.8262 10.342 21.8344 10.3273 21.8373 10.3206C21.8424 10.309 21.8419 10.2984 21.8418 10.2981C21.8418 10.2952 21.8415 10.2929 21.8414 10.2919C21.8411 10.2897 21.8408 10.288 21.8406 10.2875C21.8403 10.286 21.84 10.2848 21.8399 10.2843C21.8396 10.2831 21.8392 10.2818 21.8389 10.2806C21.8382 10.2783 21.8372 10.2751 21.836 10.2713L21.7844 10.2871L21.7328 10.303C21.734 10.3067 21.7347 10.3093 21.7352 10.3109C21.7355 10.3118 21.7355 10.312 21.7355 10.3118C21.7355 10.3117 21.7354 10.3115 21.7354 10.3113C21.7353 10.3111 21.7352 10.3106 21.735 10.3099C21.7349 10.3095 21.7346 10.3079 21.7343 10.3058C21.7342 10.3049 21.7339 10.3026 21.7339 10.2997C21.7339 10.2994 21.7333 10.2889 21.7384 10.2772C21.7414 10.2706 21.7496 10.2559 21.7684 10.2486C21.7881 10.241 21.8049 10.247 21.8127 10.251C21.8253 10.2576 21.8317 10.2675 21.8318 10.2675C21.8347 10.2717 21.8364 10.2754 21.8365 10.2755C21.837 10.2765 21.8373 10.2774 21.8375 10.2777C21.8376 10.2781 21.8377 10.2784 21.8378 10.2785C21.8379 10.2789 21.8379 10.2789 21.8376 10.278C21.837 10.2764 21.8361 10.2737 21.8347 10.2695L21.7836 10.2869Z" fill="black" mask="url(#path-1-inside-1_2002_244)"/>
<path d="M12.342 11.2043C12.8197 11.0293 13.3357 10.9338 13.874 10.9338C16.3335 10.9338 18.3274 12.9277 18.3274 15.3873C18.3274 17.8468 16.3335 19.8407 13.874 19.8407C11.4144 19.8407 9.42053 17.8469 9.42053 15.3873C9.42053 14.0043 10.0509 12.7686 11.04 11.9518" stroke="black" stroke-width="0.809716" stroke-miterlimit="10" stroke-linecap="round" stroke-linejoin="round"/>
<path d="M13.8739 18.2215C15.4391 18.2215 16.7079 16.9526 16.7079 15.3875C16.7079 13.8223 15.4391 12.5535 13.8739 12.5535C12.3087 12.5535 11.0399 13.8223 11.0399 15.3875C11.0399 16.9526 12.3087 18.2215 13.8739 18.2215Z" stroke="black" stroke-width="0.809716" stroke-miterlimit="10" stroke-linecap="round" stroke-linejoin="round"/>
<path d="M6.39763 21.9996C5.50322 21.9996 4.7782 21.2746 4.7782 20.3801V12.6504C4.7782 12.0706 5.08789 11.5353 5.59056 11.2463C6.27747 10.8514 7.44335 10.2843 9.24896 9.70022L10.3606 8.31598C10.6199 7.99317 10.9927 7.78119 11.4029 7.72564C11.9645 7.64964 12.8457 7.55981 13.8739 7.55981C14.9021 7.55981 15.7833 7.64964 16.3449 7.72564C16.7551 7.78119 17.1279 7.99317 17.3871 8.31598L18.4988 9.70022C20.3044 10.2844 21.4703 10.8515 22.1572 11.2463C22.66 11.5353 22.9696 12.0706 22.9696 12.6504V14.3016" stroke="black" stroke-width="0.809716" stroke-miterlimit="10" stroke-linecap="round" stroke-linejoin="round"/>
<path d="M22.9697 15.9211V20.3803C22.9697 21.2747 22.2447 21.9997 21.3503 21.9997H8.01697" stroke="black" stroke-width="0.809716" stroke-miterlimit="10" stroke-linecap="round" stroke-linejoin="round"/>
<path d="M7.6375 1.63066C7.75933 1.01052 8.30589 0.542725 8.96171 0.542725C9.70702 0.542725 10.3112 1.14693 10.3112 1.89225C10.3112 2.63757 9.70702 3.24178 8.96171 3.24178C9.70702 3.24178 10.3112 3.84599 10.3112 4.5913C10.3112 5.33662 9.70702 5.94083 8.96171 5.94083C8.28025 5.94083 7.7168 5.43573 7.62519 4.77953C7.61661 4.718 7.61218 4.65516 7.61218 4.5913" stroke="black" stroke-width="0.809716" stroke-miterlimit="10" stroke-linecap="round" stroke-linejoin="round"/>
<path d="M13.7686 0.542725C13.7686 0.542725 12.097 1.78602 11.8274 4.13381" stroke="black" stroke-width="0.809716" stroke-miterlimit="10" stroke-linecap="round" stroke-linejoin="round"/>
<path d="M13.3881 5.94075C14.2596 5.94075 14.966 5.23429 14.966 4.36283C14.966 3.49137 14.2596 2.78491 13.3881 2.78491C12.5166 2.78491 11.8102 3.49137 11.8102 4.36283C11.8102 5.23429 12.5166 5.94075 13.3881 5.94075Z" stroke="black" stroke-width="0.809716" stroke-miterlimit="10" stroke-linecap="round" stroke-linejoin="round"/>
<path d="M19.4223 4.44102C19.4223 5.26936 18.7509 5.94083 17.9225 5.94083C17.0943 5.94083 16.4227 5.26936 16.4227 4.44102V2.04253C16.4227 1.21419 17.0943 0.542725 17.9225 0.542725C18.7509 0.542725 19.4223 1.21419 19.4223 2.04253V4.44102Z" stroke="black" stroke-width="0.809716" stroke-miterlimit="10" stroke-linecap="round" stroke-linejoin="round"/>
<path d="M23.0854 16.9197C25.6734 17.8363 27.2882 19.1348 27.2882 20.5747C27.2882 23.0438 22.5398 25.0973 16.2791 25.5221" stroke="black" stroke-width="0.809716" stroke-miterlimit="10" stroke-linecap="round" stroke-linejoin="round"/>
<path d="M13.8739 25.6025C6.46536 25.6025 0.459595 23.3514 0.459595 20.5746C0.459595 19.1347 2.07428 17.8363 4.66191 16.9197" stroke="black" stroke-width="0.809716" stroke-miterlimit="10" stroke-linecap="round" stroke-linejoin="round"/>
<path d="M12.3335 27.3714L14.1023 25.6026L12.3335 23.8337" stroke="black" stroke-width="0.809716" stroke-miterlimit="10" stroke-linecap="round" stroke-linejoin="round"/>
<path d="M21.6895 2.16216C22.1367 2.16216 22.4992 1.79963 22.4992 1.35244C22.4992 0.905247 22.1367 0.542725 21.6895 0.542725C21.2423 0.542725 20.8798 0.905247 20.8798 1.35244C20.8798 1.79963 21.2423 2.16216 21.6895 2.16216Z" stroke="black" stroke-width="0.809716" stroke-miterlimit="10" stroke-linecap="round" stroke-linejoin="round"/>
</svg>
