<svg width="28" height="28" viewBox="0 0 28 28" fill="none" xmlns="http://www.w3.org/2000/svg">
<path d="M12.623 25.4341C13.073 25.7341 13.5897 25.8841 14.1022 25.8841C14.6147 25.8841 15.1314 25.7341 15.5814 25.4341L21.6189 21.3966C23.3772 20.2216 24.4272 18.255 24.4272 16.1425V6.6008C24.4272 6.0758 24.1147 5.60913 23.6272 5.4133L14.9397 1.90913C14.2855 1.64663 13.5689 1.6508 12.923 1.92163L4.56887 5.4133C4.08971 5.6133 3.78137 6.0758 3.78137 6.59246V16.1425C3.78137 18.255 4.83137 20.2216 6.58971 21.3966L12.623 25.4341ZM4.61471 16.1425V6.59246C4.61471 6.4133 4.72304 6.2508 4.88971 6.17996L13.2439 2.6883C13.4689 2.59663 13.7064 2.5508 13.9439 2.5508C14.173 2.5508 14.4064 2.59663 14.6272 2.68413L23.3105 6.1883C23.4814 6.25496 23.5897 6.41746 23.5897 6.6008V16.1425C23.5897 17.98 22.6772 19.6841 21.1522 20.705L15.1147 24.7425C14.498 25.155 13.7022 25.155 13.0855 24.7425L7.04804 20.705C5.52304 19.6841 4.61471 17.9758 4.61471 16.1425Z" fill="black"/>
<path d="M12.3939 16.6884C12.4731 16.7675 12.5772 16.8092 12.6897 16.8092C12.8022 16.8092 12.9064 16.7634 12.9856 16.6884L18.1689 11.505C18.3314 11.3425 18.3314 11.08 18.1689 10.9175C18.0064 10.755 17.7439 10.755 17.5814 10.9175L12.6856 15.805L10.6272 13.7467C10.4647 13.5842 10.2022 13.5842 10.0397 13.7467C9.87722 13.9092 9.87722 14.1717 10.0397 14.3342L12.3939 16.6884Z" fill="black"/>
</svg>
