<svg width="19" height="15" viewBox="0 0 19 15" fill="none" xmlns="http://www.w3.org/2000/svg">
<path d="M9.52006 14.0506C9.51854 14.0506 9.51688 14.0506 9.51523 14.0506C8.96942 14.0469 4.1443 14.0029 2.77724 13.6334C1.82185 13.3767 1.06766 12.6238 0.81015 11.6688C0.452446 10.3267 0.475217 7.74269 0.477701 7.53636C0.475355 7.33099 0.452308 4.72563 0.809046 3.37247C0.80946 3.37123 0.809736 3.36985 0.81015 3.36861C1.06476 2.42452 1.83592 1.64829 2.77489 1.39093C2.77724 1.39024 2.77973 1.38969 2.78207 1.389C4.13367 1.03399 8.96832 0.99054 9.51523 0.986816H9.52502C10.0722 0.99054 14.9102 1.03454 16.2647 1.40458C17.2176 1.66057 17.9712 2.41252 18.2294 3.36626C18.6005 4.72039 18.5661 7.3314 18.5624 7.5518C18.565 7.76889 18.5867 10.3297 18.2311 11.6786C18.2308 11.68 18.2304 11.6812 18.2301 11.6825C17.9724 12.6374 17.2184 13.3904 16.2619 13.6473C16.2607 13.6477 16.2593 13.648 16.258 13.6484C14.9066 14.0033 10.0718 14.0467 9.52502 14.0506C9.52337 14.0506 9.52171 14.0506 9.52006 14.0506ZM2.175 3.73465C1.8609 4.92906 1.89057 7.50119 1.89085 7.52712V7.54574C1.88146 8.25907 1.91445 10.3249 2.17513 11.3033C2.30155 11.7718 2.67346 12.143 3.14516 12.2697C4.15382 12.5424 8.08372 12.6282 9.52006 12.6383C10.9601 12.6282 14.8958 12.5447 15.897 12.283C16.3672 12.1558 16.7379 11.7859 16.8651 11.3168C17.1261 10.3241 17.1588 8.26831 17.1493 7.55953C17.1493 7.55208 17.1493 7.54463 17.1494 7.53718C17.1624 6.8153 17.1368 4.72535 16.8664 3.73907C16.8661 3.7381 16.8658 3.73714 16.8657 3.73617C16.7387 3.26558 16.3666 2.89443 15.895 2.76768C14.8961 2.49473 10.9598 2.40921 9.52006 2.39915C8.08096 2.40921 4.14913 2.49252 3.14488 2.75402C2.68216 2.88229 2.30182 3.26668 2.175 3.73465ZM7.71898 10.3785V4.65874L12.665 7.5187L7.71898 10.3785Z" fill="white"/>
</svg>
