<?xml version="1.0" standalone="no"?>
<!DOCTYPE svg PUBLIC "-//W3C//DTD SVG 1.1//EN" "http://www.w3.org/Graphics/SVG/1.1/DTD/svg11.dtd" >
<svg xmlns="http://www.w3.org/2000/svg" xmlns:xlink="http://www.w3.org/1999/xlink" version="1.1">
<metadata>
Created by FontForge 20201107 at Fri Sep 15 18:56:59 2017
 By 
(URW)++,Copyright 2016 by (URW)++ Design &#38; Development
</metadata>
<defs>
<font id="URWForm-Regular" horiz-adv-x="1171" >
  <font-face 
    font-family="URW Form"
    font-weight="400"
    font-stretch="normal"
    units-per-em="2048"
    panose-1="0 0 0 0 0 0 0 0 0 0"
    ascent="1536"
    descent="-512"
    x-height="973"
    cap-height="1462"
    bbox="-392 -512 2746 2111"
    underline-thickness="139"
    underline-position="-317"
    unicode-range="U+0020-FB04"
  />
<missing-glyph horiz-adv-x="451" 
d="M45 0v1462h361v-1462h-361zM361 45v1372h-271v-1372h271z" />
    <glyph glyph-name="ff" unicode="ff" horiz-adv-x="1360" 
d="M221 834h-153v139h153v221q0 113 12 173.5t43 109.5q68 104 241 104q75 0 164 -23l-20 -127q-58 19 -113 19q-93 0 -125 -50.5t-32 -196.5v-230h275v-139h-275v-834h-170v834zM890 834h-152v139h152v221q0 114 12 174.5t43 108.5q69 104 241 104q76 0 166 -23l-21 -127
q-58 19 -114 19q-92 0 -124.5 -50.5t-32.5 -196.5v-230h276v-139h-276v-834h-170v834z" />
    <glyph glyph-name="fi" unicode="fi" horiz-adv-x="1147" 
d="M221 834h-153v139h153v221q0 113 12 173.5t43 109.5q68 104 241 104q75 0 164 -23l-20 -127q-58 19 -113 19q-93 0 -125 -50.5t-32 -196.5v-230h275v-139h-275v-834h-170v834zM822 0v973h173v-973h-173zM908 1391q52 0 83.5 -30t31.5 -80q0 -51 -31 -81t-83 -30
q-53 0 -84 30t-31 82q0 49 31.5 79t82.5 30z" />
    <glyph glyph-name="fl" unicode="fl" horiz-adv-x="1150" 
d="M221 834h-153v139h153v221q0 113 12 173.5t43 109.5q68 104 241 104q75 0 164 -23l-20 -127q-58 19 -113 19q-93 0 -125 -50.5t-32 -196.5v-230h275v-139h-275v-834h-170v834zM823 0v1569h173v-1569h-173z" />
    <glyph glyph-name="ffi" unicode="ffi" horiz-adv-x="1817" 
d="M221 834h-153v139h153v221q0 113 12 173.5t43 109.5q68 104 241 104q75 0 164 -23l-20 -127q-58 19 -113 19q-93 0 -125 -50.5t-32 -196.5v-230h275v-139h-275v-834h-170v834zM890 834h-152v139h152v221q0 114 12 174.5t43 108.5q69 104 241 104q76 0 166 -23l-21 -127
q-58 19 -114 19q-92 0 -124.5 -50.5t-32.5 -196.5v-230h276v-139h-276v-834h-170v834zM1491 0v973h173v-973h-173zM1578 1391q52 0 83.5 -30t31.5 -80q0 -51 -31 -81t-83 -30q-53 0 -84 30t-31 82q0 49 31.5 79t82.5 30z" />
    <glyph glyph-name="ffl" unicode="ffl" horiz-adv-x="1819" 
d="M221 834h-153v139h153v221q0 113 12 173.5t43 109.5q68 104 241 104q75 0 164 -23l-20 -127q-58 19 -113 19q-93 0 -125 -50.5t-32 -196.5v-230h275v-139h-275v-834h-170v834zM890 834h-152v139h152v221q0 114 12 174.5t43 108.5q69 104 241 104q76 0 166 -23l-21 -127
q-58 19 -114 19q-92 0 -124.5 -50.5t-32.5 -196.5v-230h276v-139h-276v-834h-170v834zM1493 0v1569h173v-1569h-173z" />
    <glyph glyph-name=".notdef" horiz-adv-x="451" 
d="M45 0v1462h361v-1462h-361zM361 45v1372h-271v-1372h271z" />
    <glyph glyph-name="glyph1" horiz-adv-x="0" 
 />
    <glyph glyph-name="glyph2" horiz-adv-x="451" 
 />
    <glyph glyph-name="space" unicode=" " horiz-adv-x="451" 
 />
    <glyph glyph-name="exclam" unicode="!" horiz-adv-x="620" 
d="M230 415l-17 1047h193l-17 -1047h-159zM310 227q57 0 92.5 -34.5t35.5 -90.5t-35 -90t-93 -34q-59 0 -94 34.5t-35 91.5q0 55 36 89t93 34z" />
    <glyph glyph-name="quotedbl" unicode="&#x22;" horiz-adv-x="817" 
d="M147 940l-20 561h178l-20 -561h-138zM531 940l-20 561h178l-20 -561h-138z" />
    <glyph glyph-name="numbersign" unicode="#" 
d="M234 545l65 367h-164l20 112h163l63 355h136l-63 -355h363l63 355h136l-62 -355h161l-19 -112h-162l-65 -367h162l-20 -110h-161l-62 -352h-136l62 352h-363l-62 -352h-137l62 352h-163l19 110h164zM368 545h363l69 367h-363z" />
    <glyph glyph-name="dollar" unicode="$" 
d="M524 706q-127 51 -196 98q-168 116 -168 311q0 167 119 256q121 91 315 91q6 0 30 -1l21 187h125l-26 -205q149 -25 252 -87l-62 -126q-59 33 -97.5 46t-118.5 27l-46 -477q183 -71 261 -124q159 -109 159 -306q0 -140 -75 -240q-117 -157 -451 -155l-26 -233h-125
l29 246q-142 21 -215.5 46t-137.5 74l66 132q105 -82 314 -110zM556 874l41 444q-110 -2 -166 -28q-111 -53 -111 -164q0 -121 122 -197q26 -17 114 -55zM641 659l-48 -513q145 2 215 40q118 63 118 193q0 135 -138 214q-38 22 -147 66z" />
    <glyph glyph-name="percent" unicode="%" horiz-adv-x="1982" 
d="M451 1484q193 0 285 -115q80 -102 80 -281q0 -394 -368 -394q-363 0 -363 400q0 174 80 275q93 115 286 115zM450 1374q-221 0 -221 -283q0 -287 224 -287q219 0 219 284q0 286 -222 286zM1531 770q194 0 286 -115q80 -102 80 -281q0 -394 -367 -394q-364 0 -364 400
q0 174 80 275q92 115 285 115zM1532 660q-222 0 -222 -283q0 -287 222 -287q221 0 221 284q0 286 -221 286zM487 0l856 1462h152l-855 -1462h-153z" />
    <glyph glyph-name="ampersand" unicode="&#x26;" horiz-adv-x="1430" 
d="M468 828q-173 192 -173 354q0 132 91 217q93 86 249 86q158 0 252 -87q90 -83 90 -207q0 -198 -290 -393l382 -420q5 8 7 12q76 125 87 223h166q-7 -27 -35 -126q-37 -132 -115 -241l215 -246h-204l-122 136q-63 -54 -108 -80q-135 -78 -325 -78q-200 0 -335 88
q-75 48 -116.5 129t-41.5 177q0 184 165 335q51 46 161 121zM600 904q222 152 222 297q0 64 -45 108q-53 53 -141 53q-78 0 -129 -45q-57 -49 -57 -123q0 -119 150 -290zM559 715q-95 -71 -122 -95q-119 -107 -119 -230q0 -119 90.5 -193t236.5 -74q102 0 176 29t152 100z
" />
    <glyph glyph-name="quotesingle" unicode="'" horiz-adv-x="401" 
d="M131 940l-20 561h178l-20 -561h-138z" />
    <glyph glyph-name="parenleft" unicode="(" horiz-adv-x="746" 
d="M645 -435l-117 -67q-120 156 -197 359q-124 326 -124 690t124 690q77 203 197 359l117 -66q-109 -171 -167 -346q-92 -277 -92 -637q0 -300 61.5 -534.5t197.5 -447.5z" />
    <glyph glyph-name="parenright" unicode=")" horiz-adv-x="746" 
d="M305 -502l-117 67q108 169 167 345q92 278 92 637q0 300 -62.5 536.5t-196.5 446.5l117 66q120 -156 197 -359q124 -326 124 -690t-124 -690q-78 -203 -197 -359z" />
    <glyph glyph-name="asterisk" unicode="*" 
d="M502 1174l-287 61l50 160l267 -115l-23 289h153l-23 -289l267 115l50 -159l-287 -62l194 -229l-129 -97l-148 263l-149 -263l-129 97z" />
    <glyph glyph-name="plus" unicode="+" 
d="M139 618v137h374v383h146v-383h374v-137h-374v-382h-146v382h-374z" />
    <glyph glyph-name="comma" unicode="," horiz-adv-x="515" 
d="M207 214h189l-208 -527h-137z" />
    <glyph glyph-name="hyphen" unicode="-" horiz-adv-x="710" 
d="M102 616v140h505v-140h-505z" />
    <glyph glyph-name="period" unicode="." horiz-adv-x="515" 
d="M257 223q57 0 92 -33.5t35 -88.5q0 -56 -34.5 -89.5t-92.5 -33.5t-92.5 33.5t-34.5 90.5q0 54 35 87.5t92 33.5z" />
    <glyph glyph-name="slash" unicode="/" horiz-adv-x="991" 
d="M93 0l630 1462h175l-629 -1462h-176z" />
    <glyph glyph-name="zero" unicode="0" 
d="M585 1484q289 0 412 -235q96 -183 96 -518q0 -367 -115 -551q-125 -202 -393 -202q-289 0 -412 235q-96 184 -96 526q0 358 115 543q126 202 393 202zM585 1339q-334 0 -334 -601q0 -301 76 -452q83 -163 258 -163q189 0 270 190q64 149 64 418q0 293 -76 445
q-81 163 -258 163z" />
    <glyph glyph-name="one" unicode="1" 
d="M552 0v1263l-298 -142l-49 137l428 207h95v-1465h-176z" />
    <glyph glyph-name="two" unicode="2" 
d="M60 0v94l499 565q84 94 152 219q51 95 51 195q0 121 -73 190q-78 74 -213 74q-179 0 -312 -103l-57 136q176 114 390 114t331 -117q108 -107 108 -282q0 -136 -69 -263q-71 -133 -165 -231l-421 -444h696v-147h-917z" />
    <glyph glyph-name="three" unicode="3" 
d="M267 693v144h178q93 0 144.5 13.5t90.5 49.5q79 70 79 192q0 109 -67 172q-79 72 -225 72q-175 0 -303 -91l-57 127q161 112 392 112q205 0 320 -99q117 -101 117 -283q0 -114 -53 -199.5t-154 -131.5q241 -99 241 -362q0 -184 -101 -297q-119 -134 -379 -134
q-276 0 -426 90l50 144q62 -41 157.5 -64t205.5 -23q161 0 238 82q73 78 73 205q0 153 -119 235q-66 46 -214 46h-188z" />
    <glyph glyph-name="four" unicode="4" 
d="M746 0v313h-672v99l466 1050h180l-461 -1004h487v461h157v-461h170v-145h-170v-313h-157z" />
    <glyph glyph-name="five" unicode="5" 
d="M168 741l107 721h689v-147h-554l-66 -424q77 31 124 40.5t121 9.5q234 0 342 -135q97 -121 97 -326q0 -239 -135 -376q-123 -126 -368 -126q-271 0 -446 90l52 151q44 -32 107 -52q133 -42 273 -42q162 0 249 93q86 91 86 249q0 160 -79 245t-228 85q-153 0 -255 -81z
" />
    <glyph glyph-name="six" unicode="6" 
d="M382 858q102 60 236 60q218 0 349 -142q117 -126 117 -322q0 -217 -133 -345q-135 -131 -362 -131t-363 131q-132 128 -132 349q0 279 227 602q137 196 331 402h210q-343 -366 -480 -604zM589 780q-161 0 -247 -99q-76 -87 -76 -222q0 -147 76 -240q85 -103 247 -103
q160 0 246 103q76 93 76 235q0 141 -76 227q-88 99 -246 99z" />
    <glyph glyph-name="seven" unicode="7" 
d="M218 0l605 1315h-682v147h875v-81l-596 -1381h-202z" />
    <glyph glyph-name="eight" unicode="8" 
d="M357 770q-79 36 -127 82q-90 85 -90 238q0 183 116 287q120 107 330 107q211 0 331 -107q116 -104 116 -287q0 -118 -50.5 -192.5t-166.5 -127.5q271 -103 271 -372q0 -193 -134 -306q-136 -114 -367 -114t-367 114q-134 112 -134 307q0 268 272 371zM586 1344
q-153 0 -224 -76q-63 -66 -63 -173q0 -119 68 -188q76 -77 220 -77q142 0 218 77q68 69 68 184q0 124 -73.5 188.5t-213.5 64.5zM586 695q-160 0 -251 -88q-78 -76 -78 -199q0 -131 77 -206q87 -84 250 -84q167 0 254 84q77 75 77 201q0 129 -78 204q-92 88 -251 88z" />
    <glyph glyph-name="nine" unicode="9" 
d="M790 604q-102 -60 -236 -60q-218 0 -349 142q-117 126 -117 322q0 217 133 345q135 131 362 131t363 -131q132 -128 132 -349q0 -279 -227 -602q-135 -193 -331 -402h-210q341 366 480 604zM583 1346q-160 0 -246 -103q-76 -92 -76 -236q0 -142 74 -228q83 -97 246 -97
t249 99q76 87 76 222q0 148 -76 240q-86 103 -247 103z" />
    <glyph glyph-name="colon" unicode=":" horiz-adv-x="515" 
d="M297 221q56 0 90.5 -33.5t34.5 -88.5t-34.5 -88t-90.5 -33q-58 0 -92 33.5t-34 89.5q0 54 35 87t91 33zM297 995q56 0 90.5 -33t34.5 -88t-34.5 -88.5t-90.5 -33.5q-58 0 -92 33.5t-34 89.5q0 54 35 87t91 33z" />
    <glyph glyph-name="semicolon" unicode=";" horiz-adv-x="515" 
d="M207 214h189l-208 -527h-137zM296 995q57 0 91.5 -33t34.5 -88t-34.5 -88.5t-90.5 -33.5q-57 0 -91.5 33.5t-34.5 89.5q0 54 35 87t90 33z" />
    <glyph glyph-name="less" unicode="&#x3c;" 
d="M315 688l691 -330v-159l-890 444v89l890 445v-159z" />
    <glyph glyph-name="equal" unicode="=" 
d="M161 451v137h850v-137h-850zM161 785v137h850v-137h-850z" />
    <glyph glyph-name="greater" unicode="&#x3e;" 
d="M856 688l-691 330v159l890 -445v-89l-890 -444v159z" />
    <glyph glyph-name="question" unicode="?" horiz-adv-x="996" 
d="M392 415v90q0 114 26.5 160.5t150.5 149.5q89 74 127 131q52 79 52 163q0 101 -67 164q-72 67 -210 67q-165 0 -305 -92l-58 127q169 109 396 109q218 0 328 -111q96 -97 96 -263q0 -112 -51.5 -195t-189.5 -192q-91 -72 -112.5 -110t-21.5 -125v-73h-161zM473 227
q57 0 92.5 -34.5t35.5 -90.5q0 -55 -35.5 -89.5t-92.5 -34.5q-59 0 -94 34.5t-35 91.5q0 55 36 89t93 34z" />
    <glyph glyph-name="at" unicode="@" horiz-adv-x="2074" 
d="M1329 371h71q168 0 267 113q98 111 98 324q0 260 -130 415q-81 97 -207 146q-152 60 -324 60q-236 0 -422 -97q-181 -94 -277 -274q-89 -167 -89 -369q0 -227 111 -404q195 -311 715 -311q234 0 459 65l38 -114q-254 -68 -517 -68q-305 0 -524 105q-216 103 -325 313
q-96 183 -96 406q0 267 134 479q126 199 350 298q200 88 440 88q294 0 496 -130q174 -112 253 -303q54 -131 54 -283q0 -158 -54.5 -280t-155.5 -192q-82 -56 -169 -79.5t-211 -23.5h-217q-146 0 -224 27q-235 80 -235 355q0 139 60 250q81 148 241 200q94 30 235 30h249z
M1203 370l77 633h-136q-172 0 -263 -89q-103 -100 -103 -276q0 -147 86 -214q71 -54 216 -54h123z" />
    <glyph glyph-name="A" unicode="A" horiz-adv-x="1396" 
d="M1036 377h-677l-151 -377h-184l610 1476h128l610 -1476h-185zM997 518l-299 751l-299 -751h598z" />
    <glyph glyph-name="B" unicode="B" horiz-adv-x="1211" 
d="M185 0v1462h378q251 0 361 -73q70 -47 108.5 -125t38.5 -174q0 -220 -201 -310q109 -42 161 -98q103 -111 103 -280q0 -220 -158 -328q-108 -74 -340 -74h-451zM356 829h225q165 0 237 56q89 71 89 193q0 139 -107 205q-64 40 -219 40h-225v-494zM356 142h251
q186 0 263 64q85 72 85 208q0 79 -33.5 144t-92.5 99q-74 43 -238 43h-235v-558z" />
    <glyph glyph-name="C" unicode="C" horiz-adv-x="1334" 
d="M1216 242l64 -137q-57 -45 -140 -74q-152 -53 -338 -53q-240 0 -404 103q-289 181 -289 639q0 343 176 549q183 215 524 215q256 0 424 -107l-63 -130q-139 90 -341 90q-273 0 -410 -181q-123 -164 -123 -434q0 -255 113 -414q130 -183 412 -183q240 0 395 117z" />
    <glyph glyph-name="D" unicode="D" horiz-adv-x="1494" 
d="M185 0v1462h362q230 0 393 -54q230 -75 348 -280q97 -168 97 -397q0 -367 -238 -563q-106 -87 -250 -127.5t-350 -40.5h-362zM364 147h213q304 0 453 138q82 77 125.5 191t43.5 255q0 179 -70 312q-74 142 -206 207t-346 65h-213v-1168z" />
    <glyph glyph-name="E" unicode="E" horiz-adv-x="1118" 
d="M185 0v1462h795v-147h-618v-481h551v-147h-551v-540h643v-147h-820z" />
    <glyph glyph-name="F" unicode="F" horiz-adv-x="1030" 
d="M185 0v1462h763v-147h-583v-490h536v-147h-536v-678h-180z" />
    <glyph glyph-name="G" unicode="G" horiz-adv-x="1609" 
d="M921 624v136h580v-118q0 -265 -85 -411q-77 -131 -230 -194q-140 -59 -325 -59q-359 0 -560 217q-191 205 -191 529q0 337 201 546q207 214 552 214q320 0 535 -163l-71 -123q-187 139 -449 139q-278 0 -439 -186q-142 -164 -142 -422q0 -251 133 -417q150 -187 433 -187
q457 0 457 425v74h-399z" />
    <glyph glyph-name="H" unicode="H" horiz-adv-x="1466" 
d="M185 0v1462h180v-628h737v628h180v-1462h-180v687h-737v-687h-180z" />
    <glyph glyph-name="I" unicode="I" horiz-adv-x="549" 
d="M185 0v1462h180v-1462h-180z" />
    <glyph glyph-name="J" unicode="J" horiz-adv-x="918" 
d="M554 1462h179v-961q0 -261 -64 -371q-89 -152 -320 -152q-171 0 -309 84l56 143q107 -80 228 -80q140 0 193 111q37 77 37 264v962z" />
    <glyph glyph-name="K" unicode="K" horiz-adv-x="1209" 
d="M185 0v1462h180v-642l612 642h202l-653 -665l721 -797h-220l-662 754v-754h-180z" />
    <glyph glyph-name="L" unicode="L" horiz-adv-x="968" 
d="M185 0v1462h180v-1315h586v-147h-766z" />
    <glyph glyph-name="M" unicode="M" horiz-adv-x="1801" 
d="M111 0l186 1462h137l467 -1184l466 1184h137l186 -1462h-164l-140 1127l-444 -1125h-83l-444 1125l-139 -1127h-165z" />
    <glyph glyph-name="N" unicode="N" horiz-adv-x="1575" 
d="M185 0v1467h129l911 -1168v1163h166v-1477h-114l-926 1195v-1180h-166z" />
    <glyph glyph-name="O" unicode="O" horiz-adv-x="1706" 
d="M853 1484q343 0 553 -227q191 -208 191 -526q0 -317 -191 -526q-209 -227 -551 -227q-346 0 -555 227q-191 209 -191 536q0 309 191 516q210 227 553 227zM854 1337q-264 0 -421 -186q-137 -163 -137 -412q0 -264 137 -427q156 -186 422 -186q263 0 419 186
q137 164 137 419q0 258 -137 420q-158 186 -420 186z" />
    <glyph glyph-name="P" unicode="P" horiz-adv-x="1143" 
d="M359 578v-578h-174v1462h358q260 0 381 -95q148 -117 148 -347q0 -140 -59 -245q-59 -102 -167 -149.5t-282 -47.5h-205zM359 721h176q103 0 162.5 14.5t100.5 50.5q94 83 94 234q0 170 -114 249q-71 50 -243 50h-176v-598z" />
    <glyph glyph-name="Q" unicode="Q" horiz-adv-x="1706" 
d="M1254 81q-170 -103 -402 -103q-343 0 -552 227q-191 208 -191 526q0 317 191 526q209 227 553 227t553 -227q191 -209 191 -527q0 -353 -232 -566l216 -186h-207zM1127 191l-283 244h207l187 -162q173 172 173 458q0 256 -137 420q-156 186 -420 186q-265 0 -421 -186
q-137 -164 -137 -420t137 -420q156 -186 419 -186q156 0 275 66z" />
    <glyph glyph-name="R" unicode="R" horiz-adv-x="1193" 
d="M359 645v-645h-174v1462h381q253 0 370 -86q144 -107 144 -315q0 -141 -75 -237q-100 -126 -360 -155l525 -669h-197l-501 645h-113zM359 782h186q187 0 261 61q95 77 95 212q0 68 -29.5 127t-79.5 92q-68 45 -232 45h-201v-537z" />
    <glyph glyph-name="S" unicode="S" horiz-adv-x="1141" 
d="M77 111l67 137q52 -41 113 -65q139 -57 308 -57t256 75q74 64 74 174q0 118 -83 185q-39 32 -79.5 51.5t-186.5 75.5q-185 72 -272 147q-122 108 -122 283q0 172 118 271q114 96 309 96q215 0 390 -106l-63 -130q-152 89 -323 89q-122 0 -191 -52q-77 -57 -77 -156
q0 -106 81 -173q38 -31 84 -54t149 -61q140 -52 211 -90.5t125 -91.5q100 -99 100 -265q0 -90 -30.5 -170t-84.5 -129q-126 -117 -393 -117q-304 0 -480 133z" />
    <glyph glyph-name="T" unicode="T" horiz-adv-x="981" 
d="M400 0v1315h-402v147h986v-147h-403v-1315h-181z" />
    <glyph glyph-name="U" unicode="U" horiz-adv-x="1437" 
d="M185 1462h180v-923q0 -208 56 -290q85 -124 298 -124q234 0 313 149q41 78 41 265v923h180v-858q0 -171 -19 -270.5t-65 -165.5q-132 -190 -450 -190q-348 0 -471 224q-63 115 -63 402v858z" />
    <glyph glyph-name="V" unicode="V" horiz-adv-x="1266" 
d="M558 -8l-538 1470h191l421 -1220l422 1220h191l-538 -1470h-149z" />
    <glyph glyph-name="W" unicode="W" horiz-adv-x="2028" 
d="M458 -8l-400 1470h191l296 -1220l418 1220h102l418 -1220l296 1220h191l-400 -1470h-154l-402 1181l-402 -1181h-154z" />
    <glyph glyph-name="X" unicode="X" horiz-adv-x="1213" 
d="M517 767l-465 695h202l381 -567l363 567h191l-467 -699l511 -763h-202l-427 635l-412 -635h-194z" />
    <glyph glyph-name="Y" unicode="Y" horiz-adv-x="1188" 
d="M504 0v596l-503 866h205l388 -702l388 702h205l-503 -866v-596h-180z" />
    <glyph glyph-name="Z" unicode="Z" horiz-adv-x="1150" 
d="M44 0v81l781 1234h-691v147h912v-80l-775 -1234h816v-148h-1043z" />
    <glyph glyph-name="bracketleft" unicode="[" horiz-adv-x="746" 
d="M395 -357h211v-135h-383v2061h384v-135h-212v-1791z" />
    <glyph glyph-name="backslash" unicode="\" horiz-adv-x="991" 
d="M898 0h-175l-630 1462h176z" />
    <glyph glyph-name="bracketright" unicode="]" horiz-adv-x="746" 
d="M350 -357v1791h-211v135h384l-1 -2061h-383v135h211z" />
    <glyph glyph-name="asciicircum" unicode="^" 
d="M586 1320l-276 -440h-184l395 595h129l395 -595h-183z" />
    <glyph glyph-name="underscore" unicode="_" horiz-adv-x="1095" 
d="M-41 -318v139h1177v-139h-1177z" />
    <glyph glyph-name="grave" unicode="`" horiz-adv-x="1024" 
d="M517 1148l-242 297h209l152 -297h-119z" />
    <glyph glyph-name="a" unicode="a" horiz-adv-x="1224" 
d="M919 0l-11 151q-117 -173 -351 -173q-212 0 -338 140q-123 137 -123 368q0 228 123 369q123 140 337 140q235 0 349 -165l3 143h162v-973h-151zM583 859q-150 0 -233 -110q-76 -100 -76 -263q0 -159 76 -262q80 -110 233 -110q152 0 236 110q78 102 78 258q0 166 -78 267
q-84 110 -236 110z" />
    <glyph glyph-name="b" unicode="b" horiz-adv-x="1230" 
d="M152 0v1569h173v-741q120 166 351 166q208 0 334 -140q124 -138 124 -368q0 -231 -124 -368q-127 -140 -338 -140q-236 0 -358 176l-11 -154h-151zM642 858q-152 0 -238 -110q-79 -101 -79 -257q0 -166 79 -267q85 -110 240 -110q152 0 235 110q77 101 77 262
q0 162 -77 262q-83 110 -237 110z" />
    <glyph glyph-name="c" unicode="c" horiz-adv-x="975" 
d="M866 188l58 -125q-139 -85 -316 -85q-249 0 -384 137q-128 131 -128 367q0 245 130 379q130 133 358 133q185 0 314 -90l-65 -121q-89 75 -232 75q-164 0 -248 -109q-79 -101 -79 -267q0 -161 77 -258q88 -110 262 -110q139 0 253 74z" />
    <glyph glyph-name="d" unicode="d" horiz-adv-x="1230" 
d="M927 0l-11 154q-121 -176 -355 -176q-216 0 -341 140q-124 139 -124 368q0 230 124 368q126 140 337 140q228 0 348 -166v741h173v-1569h-151zM587 858q-152 0 -236 -110q-77 -100 -77 -262q0 -161 77 -262q83 -110 236 -110q154 0 239 110q79 101 79 257q0 166 -79 267
q-85 110 -239 110z" />
    <glyph glyph-name="e" unicode="e" horiz-adv-x="1143" 
d="M1048 443h-782q2 -114 56 -194q91 -136 304 -136q182 0 322 78l54 -125q-175 -88 -378 -88q-258 0 -393 138q-135 139 -135 371q0 229 129 370q127 137 354 137q242 0 366 -152q104 -128 104 -332q0 -25 -1 -67zM881 574q-6 95 -41 156q-75 129 -256 129q-139 0 -221 -74
t-94 -211h612z" />
    <glyph glyph-name="f" unicode="f" horiz-adv-x="690" 
d="M221 834h-153v139h153v221q0 113 12 173.5t43 109.5q68 104 241 104q75 0 164 -23l-20 -127q-58 19 -113 19q-93 0 -125 -50.5t-32 -196.5v-230h275v-139h-275v-834h-170v834z" />
    <glyph glyph-name="g" unicode="g" horiz-adv-x="1224" 
d="M905 159q-115 -174 -349 -174q-211 0 -337 140q-123 136 -123 365q0 228 123 365q125 140 334 140q230 0 352 -173l7 151h158v-857q0 -159 -18 -256t-60 -164q-130 -207 -459 -207q-184 0 -331 66l46 134q117 -67 288 -67q245 0 329 174q40 84 40 281v82zM583 859
q-150 0 -233 -109q-76 -99 -76 -260q0 -158 76 -260q80 -109 233 -109q152 0 236 109q78 100 78 255q0 165 -78 265q-84 109 -236 109z" />
    <glyph glyph-name="h" unicode="h" horiz-adv-x="1169" 
d="M152 0v1569h173v-717q111 142 324 142q233 0 323 -165q53 -96 53 -307v-522h-173v506q0 161 -38 236q-60 116 -210 116q-166 0 -235 -134q-44 -85 -44 -275v-449h-173z" />
    <glyph glyph-name="i" unicode="i" horiz-adv-x="477" 
d="M152 0v973h173v-973h-173zM239 1391q51 0 82.5 -30t31.5 -80q0 -51 -31 -81t-83 -30q-53 0 -84 30t-31 82q0 49 31.5 79t83.5 30z" />
    <glyph glyph-name="j" unicode="j" horiz-adv-x="494" 
d="M169 973h173v-1009q0 -227 -35 -319q-59 -156 -252 -156q-100 0 -196 36l40 130q60 -32 133 -32q103 0 127 117q10 51 10 177v1056zM256 1391q51 0 82.5 -30t31.5 -80q0 -51 -31 -81t-83 -30q-53 0 -84 30t-31 82q0 49 31.5 79t83.5 30z" />
    <glyph glyph-name="k" unicode="k" horiz-adv-x="992" 
d="M152 0v1569h173v-970l417 374h204l-465 -414l505 -559h-200l-461 514v-514h-173z" />
    <glyph glyph-name="l" unicode="l" horiz-adv-x="480" 
d="M153 0v1569h173v-1569h-173z" />
    <glyph glyph-name="m" unicode="m" horiz-adv-x="1774" 
d="M152 0v973h158l10 -127q59 80 131.5 114.5t180.5 34.5q230 0 303 -188q58 98 141.5 143t205.5 45q222 0 303 -165q46 -95 46 -307v-523h-173v507q0 162 -29 235q-47 117 -186 117q-157 0 -223 -134q-42 -85 -42 -264v-461h-173v509q0 160 -29 233q-47 117 -186 117
q-159 0 -223 -134q-42 -87 -42 -276v-449h-173z" />
    <glyph glyph-name="n" unicode="n" horiz-adv-x="1160" 
d="M152 0v973h158l8 -127q109 149 326 149q240 0 325 -173q48 -97 48 -299v-523h-173v507q0 159 -33 235q-50 117 -202 117q-169 0 -239 -134q-45 -86 -45 -276v-449h-173z" />
    <glyph glyph-name="o" unicode="o" horiz-adv-x="1220" 
d="M610 994q232 0 374 -140q139 -137 139 -368q0 -230 -139 -368q-142 -140 -373 -140q-235 0 -376 140q-139 138 -139 375q0 225 139 361q143 140 375 140zM610 858q-164 0 -257 -116q-79 -98 -79 -250q0 -163 80 -262q94 -116 259 -116q162 0 253 116q79 99 79 256
q0 159 -79 256q-94 116 -256 116z" />
    <glyph glyph-name="p" unicode="p" horiz-adv-x="1230" 
d="M325 151v-643h-173v1465h158l7 -151q120 173 356 173q211 0 337 -140q124 -139 124 -369t-124 -368q-127 -140 -340 -140q-157 0 -270 90q-42 33 -75 83zM642 859q-152 0 -238 -110q-79 -101 -79 -258q0 -165 79 -267q85 -110 240 -110q152 0 235 110q77 102 77 262
q0 162 -77 263q-83 110 -237 110z" />
    <glyph glyph-name="q" unicode="q" horiz-adv-x="1230" 
d="M905 151q-118 -173 -346 -173q-212 0 -339 140q-124 138 -124 368t124 369q126 140 338 140q237 0 354 -173l8 151h158v-1465h-173v643zM587 859q-152 0 -236 -110q-77 -100 -77 -263q0 -161 77 -262q82 -110 236 -110t239 110q79 101 79 258q0 166 -79 267
q-85 110 -239 110z" />
    <glyph glyph-name="r" unicode="r" horiz-adv-x="717" 
d="M152 0v973h158l8 -135q45 59 78 85q89 71 211 71q26 0 76 -6l-27 -148q-47 12 -83 12q-65 0 -120.5 -34.5t-84.5 -93.5q-43 -85 -43 -275v-449h-173z" />
    <glyph glyph-name="s" unicode="s" horiz-adv-x="865" 
d="M65 66l61 130q113 -82 279 -82q213 0 213 152q0 63 -46 93q-26 17 -52 27t-154 52q-136 45 -196.5 113t-60.5 176q0 129 83 198q85 70 238 70q173 0 311 -92l-68 -118q-112 74 -233 74q-171 0 -171 -124q0 -71 64 -106q32 -18 159 -61q140 -47 204 -98q83 -68 83 -198
q0 -144 -94 -219t-274 -75q-208 0 -346 88z" />
    <glyph glyph-name="t" unicode="t" horiz-adv-x="698" 
d="M207 834h-150v139h155l10 295l155 29v-324h276v-139h-276v-473q0 -136 33.5 -183.5t130.5 -47.5q41 0 91 16l31 -139q-85 -21 -165 -21q-186 0 -248 106q-25 43 -34 102.5t-9 179.5v460z" />
    <glyph glyph-name="u" unicode="u" horiz-adv-x="1136" 
d="M144 973h173v-525q0 -154 33 -225q50 -109 196 -109q159 0 224 134q41 85 41 276v449h173v-973h-158l-8 127q-105 -149 -318 -149q-230 0 -309 158q-47 93 -47 296v541z" />
    <glyph glyph-name="v" unicode="v" horiz-adv-x="959" 
d="M420 -8l-401 981h183l278 -757l277 757h184l-401 -981h-120z" />
    <glyph glyph-name="w" unicode="w" horiz-adv-x="1551" 
d="M378 -8l-329 981h183l214 -757l288 757h83l289 -757l213 757h183l-329 -981h-120l-277 723l-278 -723h-120z" />
    <glyph glyph-name="x" unicode="x" horiz-adv-x="957" 
d="M372 520l-337 453h192l259 -345l242 345h185l-342 -463l372 -510h-193l-294 403l-283 -403h-187z" />
    <glyph glyph-name="y" unicode="y" horiz-adv-x="959" 
d="M398 -1l-405 974h183l300 -779l256 779h180l-389 -1055q-63 -170 -83.5 -215.5t-57.5 -95.5q-85 -118 -250 -118q-103 0 -185 34l33 134q61 -35 146 -35q52 0 89.5 27t71.5 91q22 40 71 161z" />
    <glyph glyph-name="z" unicode="z" horiz-adv-x="959" 
d="M66 0v69l558 765h-505v139h733v-70l-558 -764h592v-139h-820z" />
    <glyph glyph-name="braceleft" unicode="{" horiz-adv-x="746" 
d="M297 595q10 -6 14 -8q65 -38 82 -83q13 -37 13 -114v-551q0 -130 27 -171.5t111 -41.5h42v-118h-65q-180 0 -242 92q-27 40 -37 92.5t-10 158.5v546q0 48 -7 71.5t-26 39.5q-35 30 -102 41v92q79 13 107 44.5t28 107.5v433q0 116 13.5 174t49.5 98q63 71 226 71h65v-117
h-42q-84 0 -111 -42t-27 -172v-437q0 -65 -7.5 -96t-28.5 -56q-22 -26 -73 -54z" />
    <glyph glyph-name="bar" unicode="|" 
d="M502 -492v1954h167v-1954h-167z" />
    <glyph glyph-name="braceright" unicode="}" horiz-adv-x="746" 
d="M448 595q-68 37 -88.5 75.5t-20.5 130.5v437q0 129 -27 171.5t-110 42.5h-42v117h65q179 0 241 -92q27 -40 37 -92.5t10 -158.5v-433q0 -47 7 -71t26 -40q35 -30 103 -41v-92q-79 -13 -107.5 -44.5t-28.5 -107.5v-546q0 -116 -13.5 -173.5t-49.5 -98.5q-63 -71 -225 -71
h-65v118h42q83 0 110 42t27 171v551q0 110 36 153q15 18 73 52z" />
    <glyph glyph-name="asciitilde" unicode="~" 
d="M206 552l-95 46q49 112 82 159q67 93 172 93q91 0 231 -74q97 -51 136 -66t75 -15q47 0 89.5 39t70.5 108l96 -46q-45 -109 -82 -155q-74 -91 -185 -91q-50 0 -99.5 17t-147.5 68q-135 70 -191 70q-80 0 -152 -153z" />
    <glyph glyph-name="nonbreakingspace" unicode="&#xa0;" horiz-adv-x="451" 
 />
    <glyph glyph-name="exclamdown" unicode="&#xa1;" horiz-adv-x="620" 
d="M232 590h158l18 -1086h-194zM310 1027q58 0 93.5 -34t35.5 -90t-35 -90t-93 -34q-59 0 -94 34t-35 92q0 54 35.5 88t92.5 34z" />
    <glyph glyph-name="cent" unicode="&#xa2;" 
d="M554 219q-147 23 -241 100q-162 134 -162 393q0 246 130 380q130 133 352 133h37l25 237h121l-30 -261q10 -3 15 -4q74 -20 102.5 -32.5t68.5 -42.5l-58 -119q-32 25 -53 34t-96 32l-70 -722q140 9 244 74l60 -123q-145 -87 -327 -89l-27 -254h-120zM580 374l68 713
q-150 -13 -216 -72q-114 -99 -114 -298q0 -182 116 -280z" />
    <glyph glyph-name="sterling" unicode="&#xa3;" 
d="M143 0v102q106 80 141 128q67 91 67 202q0 61 -26 174q-9 39 -13 55h-183v132h145q-39 159 -39 272q0 205 119 318q107 101 312 101q237 0 396 -106l-63 -130q-125 89 -303 89q-287 0 -287 -268q0 -114 43 -276h414v-132h-380q39 -157 39 -231q0 -95 -65 -190
q-10 -16 -81 -96h705v-144h-941z" />
    <glyph glyph-name="currency" unicode="&#xa4;" 
d="M222 427q-41 50 -65 123.5t-24 147.5t24.5 148t64.5 124l-146 141l82 84l144 -141q129 87 284 87q156 0 284 -87l144 141l82 -84l-146 -141q41 -50 65.5 -124t24.5 -148q0 -73 -24.5 -147t-65.5 -124l146 -141l-82 -84l-144 141q-127 -87 -284 -87q-156 0 -284 87
l-144 -141l-82 84zM586 1016q-136 0 -219 -85.5t-83 -227.5q0 -144 79 -230q85 -92 224 -92q138 0 220 86.5t82 231.5q0 142 -79 225q-87 92 -224 92z" />
    <glyph glyph-name="yen" unicode="&#xa5;" 
d="M496 0v342h-334v112h334v150h-334v112h278l-431 746h205l372 -702l372 702h204l-431 -746h278v-112h-333v-150h333v-112h-333v-342h-180z" />
    <glyph glyph-name="brokenbar" unicode="&#xa6;" horiz-adv-x="584" 
d="M214 0v600h155v-600h-155zM214 879v583h155v-583h-155z" />
    <glyph glyph-name="section" unicode="&#xa7;" 
d="M362 854q-55 35 -81 63q-77 80 -77 215q0 161 111 259q106 93 298 93q210 0 356 -95l-59 -132q-119 87 -278 87q-119 0 -187 -55q-70 -57 -70 -153q0 -91 58 -145.5t215 -111.5q111 -41 162 -65t101 -60q134 -95 134 -249q0 -96 -39.5 -167.5t-131.5 -143.5
q76 -57 108.5 -118.5t32.5 -149.5q0 -162 -95 -272q-109 -125 -357 -125q-259 0 -413 106l62 133q59 -45 156.5 -72t200.5 -27q147 0 215 81q58 68 58 167q0 117 -98 182q-36 23 -63 35t-155 60q-165 61 -249 129q-114 92 -114 233q0 59 25 118t65 96q16 15 109 84zM483 784
q-13 -10 -20 -14q-76 -52 -100 -87q-35 -49 -35 -111q0 -98 80 -155q51 -36 210 -99l137 -53q69 56 97 106.5t28 118.5q0 60 -24 100t-81 73q-33 20 -189 79z" />
    <glyph glyph-name="dieresis" unicode="&#xa8;" horiz-adv-x="1024" 
d="M305 1387q50 0 81 -30t31 -77t-31 -77.5t-80 -30.5q-50 0 -81 30.5t-31 78.5q0 46 31.5 76t79.5 30zM717 1387q50 0 81 -30t31 -77q0 -48 -31.5 -78t-79.5 -30q-50 0 -81 30.5t-31 78.5q0 46 31.5 76t79.5 30z" />
    <glyph glyph-name="copyright" unicode="&#xa9;" horiz-adv-x="1909" 
d="M1263 459l15 -123q-110 -55 -262 -55q-221 0 -344 122q-122 121 -122 327q0 204 119 326q118 121 340 121q135 0 241 -39l-11 -120q-89 51 -219 51q-161 0 -251 -101q-82 -91 -82 -240q0 -147 82 -238q91 -101 251 -101q133 0 243 70zM955 1552q369 0 610 -248
q224 -230 224 -573q0 -342 -224 -573q-240 -248 -608 -248q-372 0 -612 248q-224 231 -224 584q0 227 111 415q110 188 310 296q184 99 413 99zM955 1458q-318 0 -526 -212q-201 -205 -201 -505q0 -319 201 -525q207 -212 528 -212q317 0 524 212q201 206 201 515
q0 315 -201 515q-213 212 -526 212z" />
    <glyph glyph-name="ordfeminine" unicode="&#xaa;" horiz-adv-x="790" 
d="M568 877l-5 88q-79 -101 -215 -101q-131 0 -209.5 83.5t-78.5 224.5t78 224q80 84 208 84q134 0 212 -99l4 86h125v-590h-119zM375 1382q-84 0 -133 -57t-49 -153q0 -97 49 -154t133 -57q90 0 137 62q45 59 45 146q0 93 -45 152q-47 61 -137 61z" />
    <glyph glyph-name="guillemotleft" unicode="&#xab;" horiz-adv-x="1031" 
d="M694 491l256 -340l-92 -66l-340 390v31l340 390l92 -65zM282 491l256 -340l-92 -66l-340 390v31l340 390l92 -65z" />
    <glyph glyph-name="logicalnot" unicode="&#xac;" 
d="M132 618v137h836v-519h-158v382h-678z" />
    <glyph glyph-name="uni00AD" unicode="&#xad;" horiz-adv-x="710" 
d="M102 616v140h505v-140h-505z" />
    <glyph glyph-name="registered" unicode="&#xae;" horiz-adv-x="1262" 
d="M567 1059v-264h-94v543h167q214 0 214 -156q0 -82 -61 -121q-29 -19 -105 -28l197 -238h-111zM567 1094h74q116 0 116 87q0 83 -116 83h-74v-170zM631 1602q242 0 401 -161q148 -151 148 -374q0 -222 -148 -374q-158 -161 -400 -161q-244 0 -402 161q-148 151 -148 381
q0 219 148 367q162 161 401 161zM631 1517q-197 0 -325 -131q-125 -127 -125 -313q0 -197 125 -325q128 -131 326 -131q196 0 324 131q125 128 125 319q0 195 -125 319q-131 131 -325 131z" />
    <glyph glyph-name="macron" unicode="&#xaf;" horiz-adv-x="1024" 
d="M205 1217v129h615v-129h-615z" />
    <glyph glyph-name="degree" unicode="&#xb0;" horiz-adv-x="711" 
d="M356 1620q143 0 233 -87q84 -82 84 -216q0 -133 -84 -216q-90 -87 -233 -87q-144 0 -231 84t-87 223q0 132 84 212q92 87 234 87zM356 1517q-88 0 -142 -54.5t-54 -142.5q0 -93 53 -148t143 -55q88 0 141.5 55t53.5 145t-53.5 145t-141.5 55z" />
    <glyph glyph-name="plusminus" unicode="&#xb1;" 
d="M153 0v137h865v-137h-865zM139 662v134h374v370h146v-370h374v-134h-374v-363h-146v363h-374z" />
    <glyph glyph-name="twosuperior" unicode="&#xb2;" horiz-adv-x="691" 
d="M5 789v68l321 335q129 135 129 237q0 68 -48 108.5t-128 40.5q-107 0 -204 -57l-41 99q118 61 260 61q138 0 215.5 -64.5t77.5 -179.5q0 -150 -153 -299l-253 -247h432v-102h-608z" />
    <glyph glyph-name="threesuperior" unicode="&#xb3;" horiz-adv-x="697" 
d="M144 1197v101h122q101 0 144 36q49 40 49 107q0 62 -49 99t-132 37q-102 0 -195 -58l-47 90q109 71 265 71q137 0 214 -60q78 -59 78 -173q0 -68 -23.5 -107t-94.5 -88q11 -7 16 -10q70 -42 91 -75q33 -53 33 -132q0 -113 -67 -180q-80 -80 -253 -80q-179 0 -286 57
l41 101q93 -55 236 -55q98 0 146 47q46 44 46 114q0 86 -74 132q-41 26 -131 26h-129z" />
    <glyph glyph-name="acute" unicode="&#xb4;" horiz-adv-x="1024" 
d="M399 1148l151 297h210l-242 -297h-119z" />
    <glyph glyph-name="mu" unicode="&#xb5;" 
d="M171 973h167v-525q0 -151 33 -221q51 -107 196 -107q155 0 218 132q40 84 40 272v449h167v-973h-141l-7 151q-90 -173 -284 -173q-78 0 -127 18.5t-95 65.5v-554h-167v1465z" />
    <glyph glyph-name="paragraph" unicode="&#xb6;" horiz-adv-x="1417" 
d="M616 488q-198 17 -303 81q-190 117 -190 399q0 276 174 410q62 47 144.5 65.5t235.5 18.5h649v-126h-140v-1840h-152v1840h-267v-1840h-151v992z" />
    <glyph glyph-name="glyph121" unicode="&#xb7;" horiz-adv-x="515" 
d="M258 811q58 0 93 -34t35 -90t-35 -90t-93 -34q-59 0 -94 34t-35 92q0 54 35.5 88t93.5 34z" />
    <glyph glyph-name="cedilla" unicode="&#xb8;" horiz-adv-x="1024" 
d="M332 -448l104 329h203l-188 -329h-119z" />
    <glyph glyph-name="onesuperior" unicode="&#xb9;" horiz-adv-x="451" 
d="M189 788v740l-147 -65l-40 97l245 109h75v-881h-133z" />
    <glyph glyph-name="ordmasculine" unicode="&#xba;" horiz-adv-x="790" 
d="M395 1480q152 0 245 -84q90 -81 90 -223q0 -143 -90 -224q-92 -84 -244 -84q-157 0 -247 83t-90 229q0 139 90 219q94 84 246 84zM395 1384q-89 0 -144.5 -58t-55.5 -151q0 -97 54.5 -155.5t145.5 -58.5q89 0 144 58.5t55 153.5q0 94 -55 152.5t-144 58.5z" />
    <glyph glyph-name="guillemotright" unicode="&#xbb;" horiz-adv-x="1031" 
d="M338 491l-256 340l92 65l340 -390v-31l-340 -390l-92 66zM750 491l-256 340l92 65l340 -390v-31l-340 -390l-92 66z" />
    <glyph glyph-name="onequarter" unicode="&#xbc;" horiz-adv-x="1837" 
d="M354 584v739l-147 -65l-40 97l245 109h75v-880h-133zM1451 0v184h-432v71l300 624h139l-295 -593h288v272h120v-272h108v-102h-108v-184h-120zM329 0l855 1462h152l-855 -1462h-152z" />
    <glyph glyph-name="onehalf" unicode="&#xbd;" horiz-adv-x="1837" 
d="M367 584v739l-147 -65l-40 97l245 109h75v-880h-133zM1048 0v68l321 335q129 135 129 237q0 68 -48 108.5t-128 40.5q-108 0 -204 -57l-41 99q116 61 260 61q143 0 222 -70q71 -64 71 -174q0 -150 -153 -299l-254 -247h433v-102h-608zM310 0l855 1462h152l-855 -1462
h-152z" />
    <glyph glyph-name="threequarters" unicode="&#xbe;" horiz-adv-x="1837" 
d="M206 992v101h122q101 0 144 36q49 40 49 107q0 62 -49 99t-132 37q-101 0 -195 -58l-47 90q109 71 265 71q137 0 214 -60q78 -59 78 -173q0 -69 -23.5 -107.5t-94.5 -87.5q11 -7 16 -10q70 -43 91 -75q33 -53 33 -131q0 -114 -67 -181q-80 -80 -253 -80q-179 0 -286 57
l41 101q93 -55 236 -55q98 0 146 47q46 44 46 114q0 86 -74 132q-41 26 -131 26h-129zM1467 0v184h-432v71l300 624h139l-295 -593h288v272h120v-272h108v-102h-108v-184h-120zM412 0l855 1462h152l-855 -1462h-152z" />
    <glyph glyph-name="questiondown" unicode="&#xbf;" horiz-adv-x="996" 
d="M447 590h161v-123q0 -114 -26 -159.5t-151 -150.5q-89 -74 -127 -131q-52 -78 -52 -163q0 -101 67 -164q72 -67 211 -67q166 0 304 93l58 -127q-170 -110 -395 -110q-219 0 -329 112q-96 96 -96 262q0 113 51.5 196t189.5 192q91 72 112.5 109.5t21.5 125.5v105z
M528 1028q58 0 93.5 -34.5t35.5 -89.5q0 -56 -35.5 -90.5t-92.5 -34.5q-59 0 -94 34.5t-35 91.5q0 55 35.5 89t92.5 34z" />
    <glyph glyph-name="Agrave" unicode="&#xc0;" horiz-adv-x="1396" 
d="M1036 377h-677l-151 -377h-184l610 1476h128l610 -1476h-185zM997 518l-299 751l-299 -751h598zM655 1638l-242 297h209l152 -297h-119z" />
    <glyph glyph-name="Aacute" unicode="&#xc1;" horiz-adv-x="1396" 
d="M1036 377h-677l-151 -377h-184l610 1476h128l610 -1476h-185zM997 518l-299 751l-299 -751h598zM630 1638l151 297h210l-242 -297h-119z" />
    <glyph glyph-name="Acircumflex" unicode="&#xc2;" horiz-adv-x="1396" 
d="M1036 377h-677l-151 -377h-184l610 1476h128l610 -1476h-185zM997 518l-299 751l-299 -751h598zM698 1827l-159 -184h-175l286 291h96l286 -291h-175z" />
    <glyph glyph-name="Atilde" unicode="&#xc3;" horiz-adv-x="1396" 
d="M1036 377h-677l-151 -377h-184l610 1476h128l610 -1476h-185zM997 518l-299 751l-299 -751h598zM480 1668h-100q15 104 39 146q45 80 126 80q63 0 164 -64q86 -54 126 -54q61 0 80 108h100q-8 -90 -31 -137q-46 -90 -131 -90q-70 0 -177 66q-83 51 -117 51
q-58 0 -79 -106z" />
    <glyph glyph-name="Adieresis" unicode="&#xc4;" horiz-adv-x="1396" 
d="M1036 377h-677l-151 -377h-184l610 1476h128l610 -1476h-185zM997 518l-299 751l-299 -751h598zM478 1881q50 0 82 -31t32 -79q0 -49 -32 -80t-82 -31t-82 31.5t-32 80.5q0 47 32.5 78t81.5 31zM919 1881q50 0 82 -31t32 -79q0 -49 -32 -80t-81 -31q-51 0 -83 31t-32 81
q0 47 32.5 78t81.5 31z" />
    <glyph glyph-name="Aring" unicode="&#xc5;" horiz-adv-x="1396" 
d="M1036 377h-677l-151 -377h-184l610 1476h128l610 -1476h-185zM997 518l-299 751l-299 -751h598zM698 2010q101 0 165 -61t64 -156t-64 -156t-164 -61q-102 0 -166 61t-64 159q0 93 64 153q65 61 165 61zM698 1903q-50 0 -79 -29t-29 -78q0 -53 29 -83t79 -30t79 30t29 81
q0 50 -29 79.5t-79 29.5z" />
    <glyph glyph-name="AE" unicode="&#xc6;" horiz-adv-x="1939" 
d="M990 381h-571l-224 -381h-197l871 1462h917v-147h-619v-498h552v-143h-552v-527h644v-147h-821v381zM990 522v793h-37l-463 -793h500z" />
    <glyph glyph-name="Ccedilla" unicode="&#xc7;" horiz-adv-x="1334" 
d="M1216 242l64 -137q-57 -45 -140 -74q-152 -53 -338 -53q-240 0 -404 103q-289 181 -289 639q0 343 176 549q183 215 524 215q256 0 424 -107l-63 -130q-139 90 -341 90q-273 0 -410 -181q-123 -164 -123 -434q0 -255 113 -414q130 -183 412 -183q240 0 395 117zM543 -448
l104 329h203l-188 -329h-119z" />
    <glyph glyph-name="Egrave" unicode="&#xc8;" horiz-adv-x="1118" 
d="M185 0v1462h795v-147h-618v-481h551v-147h-551v-540h643v-147h-820zM582 1638l-242 297h209l152 -297h-119z" />
    <glyph glyph-name="Eacute" unicode="&#xc9;" horiz-adv-x="1118" 
d="M185 0v1462h795v-147h-618v-481h551v-147h-551v-540h643v-147h-820zM505 1638l151 297h210l-242 -297h-119z" />
    <glyph glyph-name="Ecircumflex" unicode="&#xca;" horiz-adv-x="1118" 
d="M165 0v1462h795v-147h-618v-481h551v-147h-551v-540h643v-147h-820zM564 1827l-159 -184h-175l286 291h96l286 -291h-175z" />
    <glyph glyph-name="Edieresis" unicode="&#xcb;" horiz-adv-x="1118" 
d="M185 0v1462h795v-147h-618v-481h551v-147h-551v-540h643v-147h-820zM339 1881q50 0 82 -31t32 -79q0 -49 -32 -80t-82 -31t-82 31.5t-32 80.5q0 47 32.5 78t81.5 31zM780 1881q50 0 82 -31t32 -79q0 -49 -32 -80t-81 -31q-51 0 -83 31t-32 81q0 47 32.5 78t81.5 31z" />
    <glyph glyph-name="Igrave" unicode="&#xcc;" horiz-adv-x="549" 
d="M184 0v1462h180v-1462h-180zM235 1638l-242 297h209l152 -297h-119z" />
    <glyph glyph-name="Iacute" unicode="&#xcd;" horiz-adv-x="549" 
d="M171 0v1462h180v-1462h-180zM180 1638l151 297h210l-242 -297h-119z" />
    <glyph glyph-name="Icircumflex" unicode="&#xce;" horiz-adv-x="549" 
d="M185 0v1462h180v-1462h-180zM275 1827l-159 -184h-175l286 291h96l286 -291h-175z" />
    <glyph glyph-name="Idieresis" unicode="&#xcf;" horiz-adv-x="549" 
d="M184 0v1462h180v-1462h-180zM54 1881q50 0 82 -31t32 -79q0 -49 -32 -80t-82 -31t-82 31.5t-32 80.5q0 47 32.5 78t81.5 31zM495 1881q50 0 82 -31t32 -79q0 -49 -32 -80t-81 -31q-51 0 -83 31t-32 81q0 47 32.5 78t81.5 31z" />
    <glyph glyph-name="Eth" unicode="&#xd0;" horiz-adv-x="1505" 
d="M200 692h-152v138h152v632h362q230 0 394 -54q229 -75 348 -280q97 -168 97 -396q0 -368 -238 -564q-106 -87 -250.5 -127.5t-350.5 -40.5h-362v692zM380 692v-545h213q303 0 452 139q83 77 126 191t43 255q0 178 -70 311q-75 142 -206.5 207t-344.5 65h-213v-485h348
v-138h-348z" />
    <glyph glyph-name="Ntilde" unicode="&#xd1;" horiz-adv-x="1575" 
d="M185 0v1467h129l911 -1168v1163h166v-1477h-114l-926 1195v-1180h-166zM596 1668h-100q15 104 39 146q45 80 126 80q63 0 164 -64q86 -54 126 -54q61 0 80 108h100q-8 -90 -31 -137q-46 -90 -131 -90q-70 0 -177 66q-83 51 -117 51q-58 0 -79 -106z" />
    <glyph glyph-name="Ograve" unicode="&#xd2;" horiz-adv-x="1706" 
d="M853 1484q343 0 553 -227q191 -208 191 -526q0 -317 -191 -526q-209 -227 -551 -227q-346 0 -555 227q-191 209 -191 536q0 309 191 516q210 227 553 227zM854 1337q-264 0 -421 -186q-137 -163 -137 -412q0 -264 137 -427q156 -186 422 -186q263 0 419 186
q137 164 137 419q0 258 -137 420q-158 186 -420 186zM858 1638l-242 297h209l152 -297h-119z" />
    <glyph glyph-name="Oacute" unicode="&#xd3;" horiz-adv-x="1706" 
d="M853 1484q343 0 553 -227q191 -208 191 -526q0 -317 -191 -526q-209 -227 -551 -227q-346 0 -555 227q-191 209 -191 536q0 309 191 516q210 227 553 227zM854 1337q-264 0 -421 -186q-137 -163 -137 -412q0 -264 137 -427q156 -186 422 -186q263 0 419 186
q137 164 137 419q0 258 -137 420q-158 186 -420 186zM740 1638l151 297h210l-242 -297h-119z" />
    <glyph glyph-name="Ocircumflex" unicode="&#xd4;" horiz-adv-x="1706" 
d="M853 1484q343 0 553 -227q191 -208 191 -526q0 -317 -191 -526q-209 -227 -551 -227q-346 0 -555 227q-191 209 -191 536q0 309 191 516q210 227 553 227zM854 1337q-264 0 -421 -186q-137 -163 -137 -412q0 -264 137 -427q156 -186 422 -186q263 0 419 186
q137 164 137 419q0 258 -137 420q-158 186 -420 186zM853 1827l-159 -184h-175l286 291h96l286 -291h-175z" />
    <glyph glyph-name="Otilde" unicode="&#xd5;" horiz-adv-x="1706" 
d="M853 1484q343 0 553 -227q191 -208 191 -526q0 -317 -191 -526q-209 -227 -551 -227q-346 0 -555 227q-191 209 -191 536q0 309 191 516q210 227 553 227zM854 1337q-264 0 -421 -186q-137 -163 -137 -412q0 -264 137 -427q156 -186 422 -186q263 0 419 186
q137 164 137 419q0 258 -137 420q-158 186 -420 186zM636 1668h-100q15 104 39 146q45 80 126 80q63 0 164 -64q86 -54 126 -54q61 0 80 108h100q-8 -90 -31 -137q-46 -90 -131 -90q-70 0 -177 66q-83 51 -117 51q-58 0 -79 -106z" />
    <glyph glyph-name="Odieresis" unicode="&#xd6;" horiz-adv-x="1706" 
d="M853 1484q343 0 553 -227q191 -208 191 -526q0 -317 -191 -526q-209 -227 -551 -227q-346 0 -555 227q-191 209 -191 536q0 309 191 516q210 227 553 227zM854 1337q-264 0 -421 -186q-137 -163 -137 -412q0 -264 137 -427q156 -186 422 -186q263 0 419 186
q137 164 137 419q0 258 -137 420q-158 186 -420 186zM633 1881q50 0 82 -31t32 -79q0 -49 -32 -80t-82 -31t-82 31.5t-32 80.5q0 47 32.5 78t81.5 31zM1074 1881q50 0 82 -31t32 -79q0 -49 -32 -80t-81 -31q-51 0 -83 31t-32 81q0 47 32.5 78t81.5 31z" />
    <glyph glyph-name="multiply" unicode="&#xd7;" 
d="M488 688l-308 301l105 105l301 -293l303 295l105 -105l-310 -303l308 -301l-105 -105l-301 293l-303 -295l-105 105z" />
    <glyph glyph-name="Oslash" unicode="&#xd8;" horiz-adv-x="1706" 
d="M1429 1230q168 -210 168 -498q0 -319 -191 -527q-209 -227 -553 -227q-281 0 -478 157l-158 -164l-99 95l159 166q-168 199 -168 500q0 316 191 525q209 227 553 227q281 0 479 -157l157 163l99 -94zM1308 1105l-819 -851q151 -128 364 -128q265 0 421 186
q137 164 137 419q0 224 -103 374zM398 357l819 851q-148 129 -364 129q-264 0 -420 -186q-137 -164 -137 -420q0 -219 102 -374z" />
    <glyph glyph-name="Ugrave" unicode="&#xd9;" horiz-adv-x="1437" 
d="M185 1462h180v-923q0 -208 56 -290q85 -124 298 -124q234 0 313 149q41 78 41 265v923h180v-858q0 -171 -19 -270.5t-65 -165.5q-132 -190 -450 -190q-348 0 -471 224q-63 115 -63 402v858zM724 1638l-242 297h209l152 -297h-119z" />
    <glyph glyph-name="Uacute" unicode="&#xda;" horiz-adv-x="1437" 
d="M185 1462h180v-923q0 -208 56 -290q85 -124 298 -124q234 0 313 149q41 78 41 265v923h180v-858q0 -171 -19 -270.5t-65 -165.5q-132 -190 -450 -190q-348 0 -471 224q-63 115 -63 402v858zM621 1638l151 297h210l-242 -297h-119z" />
    <glyph glyph-name="Ucircumflex" unicode="&#xdb;" horiz-adv-x="1437" 
d="M185 1462h180v-923q0 -208 56 -290q85 -124 298 -124q234 0 313 149q41 78 41 265v923h180v-858q0 -171 -19 -270.5t-65 -165.5q-132 -190 -450 -190q-348 0 -471 224q-63 115 -63 402v858zM719 1827l-159 -184h-175l286 291h96l286 -291h-175z" />
    <glyph glyph-name="Udieresis" unicode="&#xdc;" horiz-adv-x="1437" 
d="M185 1462h180v-923q0 -208 56 -290q85 -124 298 -124q234 0 313 149q41 78 41 265v923h180v-858q0 -171 -19 -270.5t-65 -165.5q-132 -190 -450 -190q-348 0 -471 224q-63 115 -63 402v858zM499 1881q50 0 82 -31t32 -79q0 -49 -32 -80t-82 -31t-82 31.5t-32 80.5
q0 47 32.5 78t81.5 31zM940 1881q50 0 82 -31t32 -79q0 -49 -32 -80t-81 -31q-51 0 -83 31t-32 81q0 47 32.5 78t81.5 31z" />
    <glyph glyph-name="Yacute" unicode="&#xdd;" horiz-adv-x="1188" 
d="M504 0v596l-503 866h205l388 -702l388 702h205l-503 -866v-596h-180zM510 1638l151 297h210l-242 -297h-119z" />
    <glyph glyph-name="Thorn" unicode="&#xde;" horiz-adv-x="1143" 
d="M362 345v-345h-177v1462h177v-202h160q271 0 397 -99q154 -122 154 -359q0 -145 -62 -253q-60 -106 -173 -155t-294 -49h-182zM362 488h153q109 0 171.5 15.5t106.5 52.5q100 87 100 247q0 178 -121 262q-76 52 -257 52h-153v-629z" />
    <glyph glyph-name="germandbls" unicode="&#xdf;" horiz-adv-x="1229" 
d="M152 0v1161q0 200 80 296q103 124 316 124q190 0 303 -103q115 -106 115 -278q0 -96 -40 -173.5t-110 -118.5q114 -37 185 -106q132 -128 132 -343q0 -151 -67 -263q-62 -103 -171 -149.5t-290 -46.5h-121v140h112q100 0 157 15.5t102 55.5q104 93 104 259q0 163 -93 256
t-257 94h-26v127h28q84 0 134 65t50 173t-54 178q-63 82 -185 82q-118 0 -174.5 -73t-56.5 -225v-1147h-173z" />
    <glyph glyph-name="agrave" unicode="&#xe0;" horiz-adv-x="1224" 
d="M919 0l-11 151q-117 -173 -351 -173q-212 0 -338 140q-123 137 -123 368q0 228 123 369q123 140 337 140q235 0 349 -165l3 143h162v-973h-151zM583 859q-150 0 -233 -110q-76 -100 -76 -263q0 -159 76 -262q80 -110 233 -110q152 0 236 110q78 102 78 258q0 166 -78 267
q-84 110 -236 110zM616 1148l-242 297h209l152 -297h-119z" />
    <glyph glyph-name="aacute" unicode="&#xe1;" horiz-adv-x="1224" 
d="M919 0l-11 151q-117 -173 -351 -173q-212 0 -338 140q-123 137 -123 368q0 228 123 369q123 140 337 140q235 0 349 -165l3 143h162v-973h-151zM583 859q-150 0 -233 -110q-76 -100 -76 -263q0 -159 76 -262q80 -110 233 -110q152 0 236 110q78 102 78 258q0 166 -78 267
q-84 110 -236 110zM519 1148l151 297h210l-242 -297h-119z" />
    <glyph glyph-name="acircumflex" unicode="&#xe2;" horiz-adv-x="1224" 
d="M919 0l-11 151q-117 -173 -351 -173q-212 0 -338 140q-123 137 -123 368q0 228 123 369q123 140 337 140q235 0 349 -165l3 143h162v-973h-151zM583 859q-150 0 -233 -110q-76 -100 -76 -263q0 -159 76 -262q80 -110 233 -110q152 0 236 110q78 102 78 258q0 166 -78 267
q-84 110 -236 110zM632 1337l-159 -184h-175l286 291h96l286 -291h-175z" />
    <glyph glyph-name="atilde" unicode="&#xe3;" horiz-adv-x="1224" 
d="M919 0l-11 151q-117 -173 -351 -173q-212 0 -338 140q-123 137 -123 368q0 228 123 369q123 140 337 140q235 0 349 -165l3 143h162v-973h-151zM583 859q-150 0 -233 -110q-76 -100 -76 -263q0 -159 76 -262q80 -110 233 -110q152 0 236 110q78 102 78 258q0 166 -78 267
q-84 110 -236 110zM415 1178h-100q15 104 39 146q45 80 125 80q64 0 165 -63q86 -54 126 -54q61 0 80 107h100q-8 -89 -31 -136q-46 -91 -131 -91q-69 0 -177 66q-82 51 -117 51q-58 0 -79 -106z" />
    <glyph glyph-name="adieresis" unicode="&#xe4;" horiz-adv-x="1224" 
d="M919 0l-11 151q-117 -173 -351 -173q-212 0 -338 140q-123 137 -123 368q0 228 123 369q123 140 337 140q235 0 349 -165l3 143h162v-973h-151zM583 859q-150 0 -233 -110q-76 -100 -76 -263q0 -159 76 -262q80 -110 233 -110q152 0 236 110q78 102 78 258q0 166 -78 267
q-84 110 -236 110zM425 1387q50 0 81 -30t31 -77t-31 -77.5t-80 -30.5q-50 0 -81 30.5t-31 78.5q0 46 31.5 76t79.5 30zM837 1387q50 0 81 -30t31 -77q0 -48 -31.5 -78t-79.5 -30q-50 0 -81 30.5t-31 78.5q0 46 31.5 76t79.5 30z" />
    <glyph glyph-name="aring" unicode="&#xe5;" horiz-adv-x="1224" 
d="M919 0l-11 151q-117 -173 -351 -173q-212 0 -338 140q-123 137 -123 368q0 228 123 369q123 140 337 140q235 0 349 -165l3 143h162v-973h-151zM583 859q-150 0 -233 -110q-76 -100 -76 -263q0 -159 76 -262q80 -110 233 -110q152 0 236 110q78 102 78 258q0 166 -78 267
q-84 110 -236 110zM632 1537q101 0 165 -61t64 -156t-64 -156t-164 -61q-102 0 -166 61t-64 159q0 93 64 153q65 61 165 61zM632 1430q-49 0 -78.5 -29t-29.5 -78q0 -53 29 -83t79 -30t79 30t29 82q0 49 -29 78.5t-79 29.5z" />
    <glyph glyph-name="ae" unicode="&#xe6;" horiz-adv-x="1924" 
d="M872 538v30q0 123 -43 185q-73 106 -277 106q-161 0 -303 -63l-44 131q145 68 349 68q163 0 264 -51t150 -158q129 209 395 209q240 0 364 -152q105 -128 105 -333q0 -25 -2 -68h-781q2 -114 56 -193q91 -135 303 -135q184 0 322 79l55 -128q-177 -88 -374 -88
q-300 0 -431 197q-47 -105 -146.5 -150.5t-284.5 -45.5q-228 0 -338 76q-115 79 -115 246q0 322 443 322q131 0 205.5 -19t127.5 -65zM561 489q-161 0 -229 -45q-67 -44 -67 -143q0 -100 67 -143q68 -44 232 -44q167 0 238 44q68 43 68 139q0 103 -68 147q-71 45 -241 45z
M1053 575h606q-6 95 -40 155q-75 129 -253 129q-139 0 -220.5 -74t-92.5 -210z" />
    <glyph glyph-name="ccedilla" unicode="&#xe7;" horiz-adv-x="975" 
d="M866 188l58 -125q-139 -85 -316 -85q-249 0 -384 137q-128 131 -128 367q0 245 130 379q130 133 358 133q185 0 314 -90l-65 -121q-89 75 -232 75q-164 0 -248 -109q-79 -101 -79 -267q0 -161 77 -258q88 -110 262 -110q139 0 253 74zM307 -448l104 329h203l-188 -329
h-119z" />
    <glyph glyph-name="egrave" unicode="&#xe8;" horiz-adv-x="1143" 
d="M1048 443h-782q2 -114 56 -194q91 -136 304 -136q182 0 322 78l54 -125q-175 -88 -378 -88q-258 0 -393 138q-135 139 -135 371q0 229 129 370q127 137 354 137q242 0 366 -152q104 -128 104 -332q0 -25 -1 -67zM881 574q-6 95 -41 156q-75 129 -256 129q-139 0 -221 -74
t-94 -211h612zM576 1148l-242 297h209l152 -297h-119z" />
    <glyph glyph-name="eacute" unicode="&#xe9;" horiz-adv-x="1143" 
d="M1048 443h-782q2 -114 56 -194q91 -136 304 -136q182 0 322 78l54 -125q-175 -88 -378 -88q-258 0 -393 138q-135 139 -135 371q0 229 129 370q127 137 354 137q242 0 366 -152q104 -128 104 -332q0 -25 -1 -67zM881 574q-6 95 -41 156q-75 129 -256 129q-139 0 -221 -74
t-94 -211h612zM483 1148l151 297h210l-242 -297h-119z" />
    <glyph glyph-name="ecircumflex" unicode="&#xea;" horiz-adv-x="1143" 
d="M1048 443h-782q2 -114 56 -194q91 -136 304 -136q182 0 322 78l54 -125q-175 -88 -378 -88q-258 0 -393 138q-135 139 -135 371q0 229 129 370q127 137 354 137q242 0 366 -152q104 -128 104 -332q0 -25 -1 -67zM881 574q-6 95 -41 156q-75 129 -256 129q-139 0 -221 -74
t-94 -211h612zM596 1337l-159 -184h-175l286 291h96l286 -291h-175z" />
    <glyph glyph-name="edieresis" unicode="&#xeb;" horiz-adv-x="1143" 
d="M1048 443h-782q2 -114 56 -194q91 -136 304 -136q182 0 322 78l54 -125q-175 -88 -378 -88q-258 0 -393 138q-135 139 -135 371q0 229 129 370q127 137 354 137q242 0 366 -152q104 -128 104 -332q0 -25 -1 -67zM881 574q-6 95 -41 156q-75 129 -256 129q-139 0 -221 -74
t-94 -211h612zM389 1387q50 0 81 -30t31 -77t-31 -77.5t-80 -30.5q-50 0 -81 30.5t-31 78.5q0 46 31.5 76t79.5 30zM801 1387q50 0 81 -30t31 -77q0 -48 -31.5 -78t-79.5 -30q-50 0 -81 30.5t-31 78.5q0 46 31.5 76t79.5 30z" />
    <glyph glyph-name="igrave" unicode="&#xec;" horiz-adv-x="477" 
d="M153 0v973h173v-973h-173zM203 1148l-242 297h209l152 -297h-119z" />
    <glyph glyph-name="iacute" unicode="&#xed;" horiz-adv-x="477" 
d="M138 0v973h173v-973h-173zM145 1148l151 297h210l-242 -297h-119z" />
    <glyph glyph-name="icircumflex" unicode="&#xee;" horiz-adv-x="477" 
d="M152 0v973h173v-973h-173zM238 1337l-159 -184h-175l286 291h96l286 -291h-175z" />
    <glyph glyph-name="idieresis" unicode="&#xef;" horiz-adv-x="477" 
d="M153 0v973h173v-973h-173zM32 1383q48 0 78 -28.5t30 -74.5t-30 -75t-77 -29q-48 0 -78 29.5t-30 75.5q0 44 30.5 73t76.5 29zM444 1383q48 0 78 -28.5t30 -74.5t-30 -75t-77 -29q-48 0 -78 29.5t-30 75.5q0 44 30.5 73t76.5 29z" />
    <glyph glyph-name="eth" unicode="&#xf0;" horiz-adv-x="1220" 
d="M916 843l-24 97q-71 227 -253 357l-226 -115l-56 87l188 93q-75 45 -95.5 53.5t-178.5 60.5l42 111q226 -57 372 -147l196 101l52 -87l-158 -80q123 -100 201 -234q150 -254 150 -596q0 -201 -62 -318q-70 -131 -208 -196q-110 -52 -246 -52q-234 0 -375 140
q-139 138 -139 368q0 228 136 364q138 139 359 139q108 0 180.5 -32.5t144.5 -113.5zM609 859q-163 0 -256 -116q-79 -99 -79 -256q0 -158 79 -257q93 -116 256 -116q164 0 257 116q79 100 79 252q0 163 -79 261q-94 116 -257 116z" />
    <glyph glyph-name="ntilde" unicode="&#xf1;" horiz-adv-x="1160" 
d="M152 0v973h158l8 -127q109 149 326 149q240 0 325 -173q48 -97 48 -299v-523h-173v507q0 159 -33 235q-50 117 -202 117q-169 0 -239 -134q-45 -86 -45 -276v-449h-173zM362 1178h-100q15 104 39 146q45 80 125 80q64 0 165 -63q86 -54 126 -54q61 0 80 107h100
q-8 -89 -31 -136q-46 -91 -131 -91q-69 0 -177 66q-82 51 -117 51q-58 0 -79 -106z" />
    <glyph glyph-name="ograve" unicode="&#xf2;" horiz-adv-x="1220" 
d="M610 994q232 0 374 -140q139 -137 139 -368q0 -230 -139 -368q-142 -140 -373 -140q-235 0 -376 140q-139 138 -139 375q0 225 139 361q143 140 375 140zM610 858q-164 0 -257 -116q-79 -98 -79 -250q0 -163 80 -262q94 -116 259 -116q162 0 253 116q79 99 79 256
q0 159 -79 256q-94 116 -256 116zM614 1148l-242 297h209l152 -297h-119z" />
    <glyph glyph-name="oacute" unicode="&#xf3;" horiz-adv-x="1220" 
d="M610 994q232 0 374 -140q139 -137 139 -368q0 -230 -139 -368q-142 -140 -373 -140q-235 0 -376 140q-139 138 -139 375q0 225 139 361q143 140 375 140zM610 858q-164 0 -257 -116q-79 -98 -79 -250q0 -163 80 -262q94 -116 259 -116q162 0 253 116q79 99 79 256
q0 159 -79 256q-94 116 -256 116zM496 1148l151 297h210l-242 -297h-119z" />
    <glyph glyph-name="ocircumflex" unicode="&#xf4;" horiz-adv-x="1220" 
d="M610 994q232 0 374 -140q139 -137 139 -368q0 -230 -139 -368q-142 -140 -373 -140q-235 0 -376 140q-139 138 -139 375q0 225 139 361q143 140 375 140zM610 858q-164 0 -257 -116q-79 -98 -79 -250q0 -163 80 -262q94 -116 259 -116q162 0 253 116q79 99 79 256
q0 159 -79 256q-94 116 -256 116zM609 1337l-159 -184h-175l286 291h96l286 -291h-175z" />
    <glyph glyph-name="otilde" unicode="&#xf5;" horiz-adv-x="1220" 
d="M610 994q232 0 374 -140q139 -137 139 -368q0 -230 -139 -368q-142 -140 -373 -140q-235 0 -376 140q-139 138 -139 375q0 225 139 361q143 140 375 140zM610 858q-164 0 -257 -116q-79 -98 -79 -250q0 -163 80 -262q94 -116 259 -116q162 0 253 116q79 99 79 256
q0 159 -79 256q-94 116 -256 116zM392 1178h-100q15 104 39 146q45 80 125 80q64 0 165 -63q86 -54 126 -54q61 0 80 107h100q-8 -89 -31 -136q-46 -91 -131 -91q-69 0 -177 66q-82 51 -117 51q-58 0 -79 -106z" />
    <glyph glyph-name="odieresis" unicode="&#xf6;" horiz-adv-x="1220" 
d="M610 994q232 0 374 -140q139 -137 139 -368q0 -230 -139 -368q-142 -140 -373 -140q-235 0 -376 140q-139 138 -139 375q0 225 139 361q143 140 375 140zM610 858q-164 0 -257 -116q-79 -98 -79 -250q0 -163 80 -262q94 -116 259 -116q162 0 253 116q79 99 79 256
q0 159 -79 256q-94 116 -256 116zM403 1387q50 0 81 -30t31 -77t-31 -77.5t-80 -30.5q-50 0 -81 30.5t-31 78.5q0 46 31.5 76t79.5 30zM815 1387q50 0 81 -30t31 -77q0 -48 -31.5 -78t-79.5 -30q-50 0 -81 30.5t-31 78.5q0 46 31.5 76t79.5 30z" />
    <glyph glyph-name="divide" unicode="&#xf7;" 
d="M153 616v140h865v-140h-865zM580 1119q52 0 83.5 -30t31.5 -80q0 -51 -31.5 -81t-83.5 -30q-53 0 -84 30t-31 82q0 49 31.5 79t83.5 30zM580 475q52 0 83.5 -30t31.5 -80t-31.5 -80.5t-83.5 -30.5q-53 0 -84 30.5t-31 81.5q0 49 31.5 79t83.5 30z" />
    <glyph glyph-name="oslash" unicode="&#xf8;" horiz-adv-x="1220" 
d="M1022 812q101 -127 101 -327q0 -229 -139 -367q-142 -140 -373 -140q-197 0 -332 102l-113 -111l-79 83l110 109q-101 134 -101 325q0 230 139 368q142 140 374 140q197 0 331 -102l113 112l79 -84zM903 695l-516 -509q88 -77 223 -77q167 0 260 117q80 102 80 259
q0 121 -47 210zM316 277l516 509q-85 77 -223 77q-166 0 -259 -117q-80 -101 -80 -259q0 -125 46 -210z" />
    <glyph glyph-name="ugrave" unicode="&#xf9;" horiz-adv-x="1136" 
d="M144 973h173v-525q0 -154 33 -225q50 -109 196 -109q159 0 224 134q41 85 41 276v449h173v-973h-158l-8 127q-105 -149 -318 -149q-230 0 -309 158q-47 93 -47 296v541zM573 1148l-242 297h209l152 -297h-119z" />
    <glyph glyph-name="uacute" unicode="&#xfa;" horiz-adv-x="1136" 
d="M144 973h173v-525q0 -154 33 -225q50 -109 196 -109q159 0 224 134q41 85 41 276v449h173v-973h-158l-8 127q-105 -149 -318 -149q-230 0 -309 158q-47 93 -47 296v541zM469 1148l151 297h210l-242 -297h-119z" />
    <glyph glyph-name="ucircumflex" unicode="&#xfb;" horiz-adv-x="1136" 
d="M144 973h173v-525q0 -154 33 -225q50 -109 196 -109q159 0 224 134q41 85 41 276v449h173v-973h-158l-8 127q-105 -149 -318 -149q-230 0 -309 158q-47 93 -47 296v541zM568 1337l-159 -184h-175l286 291h96l286 -291h-175z" />
    <glyph glyph-name="udieresis" unicode="&#xfc;" horiz-adv-x="1136" 
d="M144 973h173v-525q0 -154 33 -225q50 -109 196 -109q159 0 224 134q41 85 41 276v449h173v-973h-158l-8 127q-105 -149 -318 -149q-230 0 -309 158q-47 93 -47 296v541zM361 1387q50 0 81 -30t31 -77t-31 -77.5t-80 -30.5q-50 0 -81 30.5t-31 78.5q0 46 31.5 76t79.5 30z
M773 1387q50 0 81 -30t31 -77q0 -48 -31.5 -78t-79.5 -30q-50 0 -81 30.5t-31 78.5q0 46 31.5 76t79.5 30z" />
    <glyph glyph-name="yacute" unicode="&#xfd;" horiz-adv-x="959" 
d="M398 -1l-405 974h183l300 -779l256 779h180l-389 -1055q-63 -170 -83.5 -215.5t-57.5 -95.5q-85 -118 -250 -118q-103 0 -185 34l33 134q61 -35 146 -35q52 0 89.5 27t71.5 91q22 40 71 161zM381 1148l151 297h210l-242 -297h-119z" />
    <glyph glyph-name="thorn" unicode="&#xfe;" horiz-adv-x="1245" 
d="M325 175v-667h-173v2061h173v-763q56 89 152.5 139t211.5 50q205 0 333 -141q126 -138 126 -368q0 -231 -126 -368q-129 -140 -334 -140q-116 0 -210 51t-153 146zM649 859q-155 0 -243 -110q-81 -99 -81 -258q0 -166 81 -267q87 -110 245 -110q156 0 240 110
q79 102 79 262q0 162 -79 263q-85 110 -242 110z" />
    <glyph glyph-name="ydieresis" unicode="&#xff;" horiz-adv-x="959" 
d="M398 -1l-405 974h183l300 -779l256 779h180l-389 -1055q-63 -170 -83.5 -215.5t-57.5 -95.5q-85 -118 -250 -118q-103 0 -185 34l33 134q61 -35 146 -35q52 0 89.5 27t71.5 91q22 40 71 161zM253 1383q48 0 78 -28.5t30 -74.5t-30 -75t-77 -29q-48 0 -78 29.5t-30 75.5
q0 44 30.5 73t76.5 29zM665 1383q48 0 78 -28.5t30 -74.5t-30 -75t-77 -29q-48 0 -78 29.5t-30 75.5q0 44 30.5 73t76.5 29z" />
    <glyph glyph-name="Amacron" unicode="&#x100;" horiz-adv-x="1396" 
d="M1036 377h-677l-151 -377h-184l610 1476h128l610 -1476h-185zM997 518l-299 751l-299 -751h598zM390 1708v129h615v-129h-615z" />
    <glyph glyph-name="amacron" unicode="&#x101;" horiz-adv-x="1224" 
d="M919 0l-11 151q-117 -173 -351 -173q-212 0 -338 140q-123 137 -123 368q0 228 123 369q123 140 337 140q235 0 349 -165l3 143h162v-973h-151zM583 859q-150 0 -233 -110q-76 -100 -76 -263q0 -159 76 -262q80 -110 233 -110q152 0 236 110q78 102 78 258q0 166 -78 267
q-84 110 -236 110zM331 1217v129h615v-129h-615z" />
    <glyph glyph-name="Abreve" unicode="&#x102;" horiz-adv-x="1396" 
d="M1036 377h-677l-151 -377h-184l610 1476h128l610 -1476h-185zM997 518l-299 751l-299 -751h598zM394 1915h115q0 -51 22 -84q24 -38 61 -53t106 -15q68 0 105.5 15t61.5 53q22 33 22 84h115q-1 -117 -54 -180q-77 -91 -250 -91q-153 0 -227.5 66.5t-76.5 204.5z" />
    <glyph glyph-name="abreve" unicode="&#x103;" horiz-adv-x="1224" 
d="M919 0l-11 151q-117 -173 -351 -173q-212 0 -338 140q-123 137 -123 368q0 228 123 369q123 140 337 140q235 0 349 -165l3 143h162v-973h-151zM583 859q-150 0 -233 -110q-76 -100 -76 -263q0 -159 76 -262q80 -110 233 -110q152 0 236 110q78 102 78 258q0 166 -78 267
q-84 110 -236 110zM328 1424h115q0 -51 22 -84q25 -38 61.5 -53t105.5 -15t105.5 15t61.5 53q22 33 22 84h115q-1 -117 -54 -180q-77 -91 -250 -91q-153 0 -227.5 66.5t-76.5 204.5z" />
    <glyph glyph-name="Aogonek" unicode="&#x104;" horiz-adv-x="1396" 
d="M1372 0l-28 -18q-89 -55 -123 -95t-34 -89q0 -81 83 -81q38 0 83 18l40 -98q-82 -32 -143 -32q-94 0 -150 47.5t-56 127.5q0 145 200 220h-57l-151 377h-677l-151 -377h-184l610 1476h128zM997 518l-299 751l-299 -751h598z" />
    <glyph glyph-name="aogonek" unicode="&#x105;" horiz-adv-x="1224" 
d="M919 0l-11 151q-117 -173 -351 -173q-212 0 -338 140q-123 137 -123 368q0 228 123 369q123 140 337 140q235 0 349 -165l3 143h162v-973q-114 -71 -150 -110t-36 -92q0 -81 84 -81q38 0 83 18l40 -98q-82 -32 -143 -32q-94 0 -150 47.5t-56 126.5q0 76 46.5 127
t153.5 94h-23zM583 859q-150 0 -233 -110q-76 -100 -76 -263q0 -159 76 -262q80 -110 233 -110q152 0 236 110q78 102 78 258q0 166 -78 267q-84 110 -236 110z" />
    <glyph glyph-name="Cacute" unicode="&#x106;" horiz-adv-x="1334" 
d="M1216 242l64 -137q-57 -45 -140 -74q-152 -53 -338 -53q-240 0 -404 103q-289 181 -289 639q0 343 176 549q183 215 524 215q256 0 424 -107l-63 -130q-139 90 -341 90q-273 0 -410 -181q-123 -164 -123 -434q0 -255 113 -414q130 -183 412 -183q240 0 395 117zM673 1638
l151 297h210l-242 -297h-119z" />
    <glyph glyph-name="cacute" unicode="&#x107;" horiz-adv-x="975" 
d="M866 188l58 -125q-139 -85 -316 -85q-249 0 -384 137q-128 131 -128 367q0 245 130 379q130 133 358 133q185 0 314 -90l-65 -121q-89 75 -232 75q-164 0 -248 -109q-79 -101 -79 -267q0 -161 77 -258q88 -110 262 -110q139 0 253 74zM456 1148l151 297h210l-242 -297
h-119z" />
    <glyph glyph-name="Ccircumflex" unicode="&#x108;" horiz-adv-x="1334" 
d="M1216 242l64 -137q-57 -45 -140 -74q-152 -53 -338 -53q-240 0 -404 103q-289 181 -289 639q0 343 176 549q183 215 524 215q256 0 424 -107l-63 -130q-139 90 -341 90q-273 0 -410 -181q-123 -164 -123 -434q0 -255 113 -414q130 -183 412 -183q240 0 395 117zM804 1827
l-159 -184h-175l286 291h96l286 -291h-175z" />
    <glyph glyph-name="ccircumflex" unicode="&#x109;" horiz-adv-x="975" 
d="M866 188l58 -125q-139 -85 -316 -85q-249 0 -384 137q-128 131 -128 367q0 245 130 379q130 133 358 133q185 0 314 -90l-65 -121q-89 75 -232 75q-164 0 -248 -109q-79 -101 -79 -267q0 -161 77 -258q88 -110 262 -110q139 0 253 74zM569 1337l-159 -184h-175l286 291
h96l286 -291h-175z" />
    <glyph glyph-name="Cdotaccent" unicode="&#x10a;" horiz-adv-x="1334" 
d="M1216 242l64 -137q-57 -45 -140 -74q-152 -53 -338 -53q-240 0 -404 103q-289 181 -289 639q0 343 176 549q183 215 524 215q256 0 424 -107l-63 -130q-139 90 -341 90q-273 0 -410 -181q-123 -164 -123 -434q0 -255 113 -414q130 -183 412 -183q240 0 395 117zM772 1881
q50 0 82.5 -31t32.5 -80q0 -48 -32.5 -79.5t-82.5 -31.5q-51 0 -83 31.5t-32 81.5q0 47 33 78t82 31z" />
    <glyph glyph-name="cdotaccent" unicode="&#x10b;" horiz-adv-x="975" 
d="M866 188l58 -125q-139 -85 -316 -85q-249 0 -384 137q-128 131 -128 367q0 245 130 379q130 133 358 133q185 0 314 -90l-65 -121q-89 75 -232 75q-164 0 -248 -109q-79 -101 -79 -267q0 -161 77 -258q88 -110 262 -110q139 0 253 74zM528 1391q50 0 82.5 -31t32.5 -80
t-32.5 -80t-82.5 -31q-51 0 -83 31.5t-32 81.5q0 47 33 78t82 31z" />
    <glyph glyph-name="Ccaron" unicode="&#x10c;" horiz-adv-x="1334" 
d="M1216 242l64 -137q-57 -45 -140 -74q-152 -53 -338 -53q-240 0 -404 103q-289 181 -289 639q0 343 176 549q183 215 524 215q256 0 424 -107l-63 -130q-139 90 -341 90q-273 0 -410 -181q-123 -164 -123 -434q0 -255 113 -414q130 -183 412 -183q240 0 395 117zM780 1739
l159 184h175l-286 -291h-96l-286 291h175z" />
    <glyph glyph-name="ccaron" unicode="&#x10d;" horiz-adv-x="975" 
d="M866 188l58 -125q-139 -85 -316 -85q-249 0 -384 137q-128 131 -128 367q0 245 130 379q130 133 358 133q185 0 314 -90l-65 -121q-89 75 -232 75q-164 0 -248 -109q-79 -101 -79 -267q0 -161 77 -258q88 -110 262 -110q139 0 253 74zM555 1249l159 184h175l-286 -291
h-96l-286 291h175z" />
    <glyph glyph-name="Dcaron" unicode="&#x10e;" horiz-adv-x="1494" 
d="M166 0v1462h362q230 0 393 -54q230 -75 348 -280q97 -168 97 -397q0 -367 -238 -563q-106 -87 -250 -127.5t-350 -40.5h-362zM345 147h213q304 0 453 138q82 77 125.5 191t43.5 255q0 179 -70 312q-74 142 -206 207t-346 65h-213v-1168zM573 1739l159 184h175l-286 -291
h-96l-286 291h175z" />
    <glyph glyph-name="dcaron" unicode="&#x10f;" horiz-adv-x="1543" 
d="M927 0l-11 154q-121 -176 -355 -176q-216 0 -341 140q-124 139 -124 368q0 230 124 368q126 140 337 140q228 0 348 -166v741h173v-1569h-151zM587 858q-152 0 -236 -110q-77 -100 -77 -262q0 -161 77 -262q83 -110 236 -110q154 0 239 110q79 101 79 257q0 166 -79 267
q-85 110 -239 110zM1236 1019l147 550h190l-209 -550h-128z" />
    <glyph glyph-name="Dcroat" unicode="&#x110;" horiz-adv-x="1505" 
d="M200 692h-152v138h152v632h362q230 0 394 -54q229 -75 348 -280q97 -168 97 -396q0 -368 -238 -564q-106 -87 -250.5 -127.5t-350.5 -40.5h-362v692zM380 692v-545h213q303 0 452 139q83 77 126 191t43 255q0 178 -70 311q-75 142 -206.5 207t-344.5 65h-213v-485h348
v-138h-348z" />
    <glyph glyph-name="dcroat" unicode="&#x111;" horiz-adv-x="1230" 
d="M927 0l-11 154q-121 -176 -355 -176q-216 0 -341 140q-124 139 -124 368q0 230 124 368q126 140 337 140q228 0 348 -166v381h-272v116h272v244h173v-244h119v-116h-119v-1209h-151zM587 858q-152 0 -236 -110q-77 -100 -77 -262q0 -161 77 -262q83 -110 236 -110
q154 0 239 110q79 101 79 257q0 166 -79 267q-85 110 -239 110z" />
    <glyph glyph-name="Emacron" unicode="&#x112;" horiz-adv-x="1118" 
d="M185 0v1462h795v-147h-618v-481h551v-147h-551v-540h643v-147h-820zM282 1708v129h615v-129h-615z" />
    <glyph glyph-name="emacron" unicode="&#x113;" horiz-adv-x="1143" 
d="M1048 443h-782q2 -114 56 -194q91 -136 304 -136q182 0 322 78l54 -125q-175 -88 -378 -88q-258 0 -393 138q-135 139 -135 371q0 229 129 370q127 137 354 137q242 0 366 -152q104 -128 104 -332q0 -25 -1 -67zM881 574q-6 95 -41 156q-75 129 -256 129q-139 0 -221 -74
t-94 -211h612zM284 1217v129h615v-129h-615z" />
    <glyph glyph-name="Ebreve" unicode="&#x114;" horiz-adv-x="1118" 
d="M185 0v1462h795v-147h-618v-481h551v-147h-551v-540h643v-147h-820zM289 1915h115q0 -51 22 -84q24 -38 61 -53t106 -15q68 0 105.5 15t61.5 53q22 33 22 84h115q-1 -117 -54 -180q-77 -91 -250 -91q-153 0 -227.5 66.5t-76.5 204.5z" />
    <glyph glyph-name="ebreve" unicode="&#x115;" horiz-adv-x="1143" 
d="M1048 443h-782q2 -114 56 -194q91 -136 304 -136q182 0 322 78l54 -125q-175 -88 -378 -88q-258 0 -393 138q-135 139 -135 371q0 229 129 370q127 137 354 137q242 0 366 -152q104 -128 104 -332q0 -25 -1 -67zM881 574q-6 95 -41 156q-75 129 -256 129q-139 0 -221 -74
t-94 -211h612zM268 1424h115q0 -51 22 -84q25 -38 61.5 -53t105.5 -15t105.5 15t61.5 53q22 33 22 84h115q-1 -117 -54 -180q-77 -91 -250 -91q-153 0 -227.5 66.5t-76.5 204.5z" />
    <glyph glyph-name="Edotaccent" unicode="&#x116;" horiz-adv-x="1118" 
d="M185 0v1462h795v-147h-618v-481h551v-147h-551v-540h643v-147h-820zM609 1881q50 0 82.5 -31t32.5 -80q0 -48 -32.5 -79.5t-82.5 -31.5q-51 0 -83 31.5t-32 81.5q0 47 33 78t82 31z" />
    <glyph glyph-name="edotaccent" unicode="&#x117;" horiz-adv-x="1143" 
d="M1048 443h-782q2 -114 56 -194q91 -136 304 -136q182 0 322 78l54 -125q-175 -88 -378 -88q-258 0 -393 138q-135 139 -135 371q0 229 129 370q127 137 354 137q242 0 366 -152q104 -128 104 -332q0 -25 -1 -67zM881 574q-6 95 -41 156q-75 129 -256 129q-139 0 -221 -74
t-94 -211h612zM598 1391q50 0 82.5 -31t32.5 -80t-32.5 -80t-82.5 -31q-51 0 -83 31.5t-32 81.5q0 47 33 78t82 31z" />
    <glyph glyph-name="Eogonek" unicode="&#x118;" horiz-adv-x="1118" 
d="M1005 0l-19 -12q-98 -61 -132.5 -100t-34.5 -90q0 -81 84 -81q38 0 83 18l40 -98q-82 -32 -143 -32q-94 0 -150 47.5t-56 127.5q0 75 47.5 127t152.5 93h-692v1462h795v-147h-618v-481h551v-147h-551v-540h643v-147z" />
    <glyph glyph-name="eogonek" unicode="&#x119;" horiz-adv-x="1143" 
d="M1048 443h-782q2 -115 56 -195q91 -136 304 -136q183 0 322 79l54 -125q-105 -72 -143 -107q-83 -75 -83 -160q0 -82 84 -82q38 0 83 18l40 -98q-82 -32 -143 -32q-96 0 -151 48t-55 131q0 113 98 200q-51 -7 -102 -7q-216 0 -340 88q-194 137 -194 422q0 229 129 370
q127 137 354 137q242 0 366 -152q104 -128 104 -332q0 -25 -1 -67zM881 574q-6 95 -41 156q-75 129 -256 129q-139 0 -221 -74t-94 -211h612z" />
    <glyph glyph-name="Ecaron" unicode="&#x11a;" horiz-adv-x="1118" 
d="M169 0v1462h795v-147h-618v-481h551v-147h-551v-540h643v-147h-820zM586 1739l159 184h175l-286 -291h-96l-286 291h175z" />
    <glyph glyph-name="ecaron" unicode="&#x11b;" horiz-adv-x="1143" 
d="M1048 443h-782q2 -114 56 -194q91 -136 304 -136q182 0 322 78l54 -125q-175 -88 -378 -88q-258 0 -393 138q-135 139 -135 371q0 229 129 370q127 137 354 137q242 0 366 -152q104 -128 104 -332q0 -25 -1 -67zM881 574q-6 95 -41 156q-75 129 -256 129q-139 0 -221 -74
t-94 -211h612zM575 1249l159 184h175l-286 -291h-96l-286 291h175z" />
    <glyph glyph-name="Gcircumflex" unicode="&#x11c;" horiz-adv-x="1609" 
d="M921 624v136h580v-118q0 -265 -85 -411q-77 -131 -230 -194q-140 -59 -325 -59q-359 0 -560 217q-191 205 -191 529q0 337 201 546q207 214 552 214q320 0 535 -163l-71 -123q-187 139 -449 139q-278 0 -439 -186q-142 -164 -142 -422q0 -251 133 -417q150 -187 433 -187
q457 0 457 425v74h-399zM861 1827l-159 -184h-175l286 291h96l286 -291h-175z" />
    <glyph glyph-name="gcircumflex" unicode="&#x11d;" horiz-adv-x="1224" 
d="M905 159q-115 -174 -349 -174q-211 0 -337 140q-123 136 -123 365q0 228 123 365q125 140 334 140q230 0 352 -173l7 151h158v-857q0 -159 -18 -256t-60 -164q-130 -207 -459 -207q-184 0 -331 66l46 134q117 -67 288 -67q245 0 329 174q40 84 40 281v82zM583 859
q-150 0 -233 -109q-76 -99 -76 -260q0 -158 76 -260q80 -109 233 -109q152 0 236 109q78 100 78 255q0 165 -78 265q-84 109 -236 109zM612 1337l-159 -184h-175l286 291h96l286 -291h-175z" />
    <glyph glyph-name="Gbreve" unicode="&#x11e;" horiz-adv-x="1609" 
d="M921 624v136h580v-118q0 -265 -85 -411q-77 -131 -230 -194q-140 -59 -325 -59q-359 0 -560 217q-191 205 -191 529q0 337 201 546q207 214 552 214q320 0 535 -163l-71 -123q-187 139 -449 139q-278 0 -439 -186q-142 -164 -142 -422q0 -251 133 -417q150 -187 433 -187
q457 0 457 425v74h-399zM543 1915h115q0 -51 22 -84q24 -38 61 -53t106 -15q68 0 105.5 15t61.5 53q22 33 22 84h115q-1 -117 -54 -180q-77 -91 -250 -91q-153 0 -227.5 66.5t-76.5 204.5z" />
    <glyph glyph-name="gbreve" unicode="&#x11f;" horiz-adv-x="1224" 
d="M905 159q-115 -174 -349 -174q-211 0 -337 140q-123 136 -123 365q0 228 123 365q125 140 334 140q230 0 352 -173l7 151h158v-857q0 -159 -18 -256t-60 -164q-130 -207 -459 -207q-184 0 -331 66l46 134q117 -67 288 -67q245 0 329 174q40 84 40 281v82zM583 859
q-150 0 -233 -109q-76 -99 -76 -260q0 -158 76 -260q80 -109 233 -109q152 0 236 109q78 100 78 255q0 165 -78 265q-84 109 -236 109zM335 1424h115q0 -51 22 -84q25 -38 61.5 -53t105.5 -15t105.5 15t61.5 53q22 33 22 84h115q-1 -117 -54 -180q-77 -91 -250 -91
q-153 0 -227.5 66.5t-76.5 204.5z" />
    <glyph glyph-name="Gdotaccent" unicode="&#x120;" horiz-adv-x="1609" 
d="M921 624v136h580v-118q0 -265 -85 -411q-77 -131 -230 -194q-140 -59 -325 -59q-359 0 -560 217q-191 205 -191 529q0 337 201 546q207 214 552 214q320 0 535 -163l-71 -123q-187 139 -449 139q-278 0 -439 -186q-142 -164 -142 -422q0 -251 133 -417q150 -187 433 -187
q457 0 457 425v74h-399zM851 1881q50 0 82.5 -31t32.5 -80q0 -48 -32.5 -79.5t-82.5 -31.5q-51 0 -83 31.5t-32 81.5q0 47 33 78t82 31z" />
    <glyph glyph-name="gdotaccent" unicode="&#x121;" horiz-adv-x="1224" 
d="M905 159q-115 -174 -349 -174q-211 0 -337 140q-123 136 -123 365q0 228 123 365q125 140 334 140q230 0 352 -173l7 151h158v-857q0 -159 -18 -256t-60 -164q-130 -207 -459 -207q-184 0 -331 66l46 134q117 -67 288 -67q245 0 329 174q40 84 40 281v82zM583 859
q-150 0 -233 -109q-76 -99 -76 -260q0 -158 76 -260q80 -109 233 -109q152 0 236 109q78 100 78 255q0 165 -78 265q-84 109 -236 109zM625 1391q50 0 82.5 -31t32.5 -80t-32.5 -80t-82.5 -31q-51 0 -83 31.5t-32 81.5q0 47 33 78t82 31z" />
    <glyph glyph-name="Gcommaaccent" unicode="&#x122;" horiz-adv-x="1609" 
d="M921 624v136h580v-118q0 -265 -85 -411q-77 -131 -230 -194q-140 -59 -325 -59q-359 0 -560 217q-191 205 -191 529q0 337 201 546q207 214 552 214q320 0 535 -163l-71 -123q-187 139 -449 139q-278 0 -439 -186q-142 -164 -142 -422q0 -251 133 -417q150 -187 433 -187
q457 0 457 425v74h-399zM604 -450l124 333h217l-210 -333h-131z" />
    <glyph glyph-name="gcommaaccent" unicode="&#x123;" horiz-adv-x="1224" 
d="M905 159q-115 -174 -349 -174q-211 0 -337 140q-123 136 -123 365q0 228 123 365q125 140 334 140q230 0 352 -173l7 151h158v-857q0 -159 -18 -256t-60 -164q-130 -207 -459 -207q-184 0 -331 66l46 134q117 -67 288 -67q245 0 329 174q40 84 40 281v82zM583 859
q-150 0 -233 -109q-76 -99 -76 -260q0 -158 76 -260q80 -109 233 -109q152 0 236 109q78 100 78 255q0 165 -78 265q-84 109 -236 109zM492 1150l213 293h106l-122 -293h-197z" />
    <glyph glyph-name="Hcircumflex" unicode="&#x124;" horiz-adv-x="1466" 
d="M185 0v1462h180v-628h737v628h180v-1462h-180v687h-737v-687h-180zM733 1827l-159 -184h-175l286 291h96l286 -291h-175z" />
    <glyph glyph-name="hcircumflex" unicode="&#x125;" horiz-adv-x="1169" 
d="M152 0v1569h173v-717q111 142 324 142q233 0 323 -165q53 -96 53 -307v-522h-173v506q0 161 -38 236q-60 116 -210 116q-166 0 -235 -134q-44 -85 -44 -275v-449h-173zM312 1859l-159 -184h-175l286 291h96l286 -291h-175z" />
    <glyph glyph-name="Hbar" unicode="&#x126;" horiz-adv-x="1466" 
d="M185 0v1053h-107v124h107v285h180v-285h736v285h180v-285h107v-124h-107v-1053h-180v681h-736v-681h-180zM365 820h736v233h-736v-233z" />
    <glyph glyph-name="hbar" unicode="&#x127;" horiz-adv-x="1160" 
d="M152 0v1209h-117v116h117v244h173v-244h274v-116h-274v-381q58 88 134.5 127t189.5 39q225 0 315 -165q52 -96 52 -307v-522h-173v506q0 158 -38 232q-60 114 -208 114q-163 0 -230 -132q-42 -83 -42 -271v-449h-173z" />
    <glyph glyph-name="Itilde" unicode="&#x128;" horiz-adv-x="549" 
d="M184 0v1462h180v-1462h-180zM57 1668h-100q15 104 39 146q45 80 126 80q63 0 164 -64q86 -54 126 -54q61 0 80 108h100q-8 -90 -31 -137q-46 -90 -131 -90q-70 0 -177 66q-83 51 -117 51q-58 0 -79 -106z" />
    <glyph glyph-name="itilde" unicode="&#x129;" horiz-adv-x="477" 
d="M152 0v973h173v-973h-173zM21 1178h-100q15 104 39 146q45 80 125 80q64 0 165 -63q86 -54 126 -54q61 0 80 107h100q-8 -89 -31 -136q-46 -91 -131 -91q-69 0 -177 66q-82 51 -117 51q-58 0 -79 -106z" />
    <glyph glyph-name="Imacron" unicode="&#x12a;" horiz-adv-x="549" 
d="M184 0v1462h180v-1462h-180zM-33 1708v129h615v-129h-615z" />
    <glyph glyph-name="imacron" unicode="&#x12b;" horiz-adv-x="477" 
d="M152 0v973h173v-973h-173zM-69 1217v129h615v-129h-615z" />
    <glyph glyph-name="Ibreve" unicode="&#x12c;" horiz-adv-x="549" 
d="M185 0v1462h180v-1462h-180zM-29 1915h115q0 -51 22 -84q24 -38 61 -53t106 -15q68 0 105.5 15t61.5 53q22 33 22 84h115q-1 -117 -54 -180q-77 -91 -250 -91q-153 0 -227.5 66.5t-76.5 204.5z" />
    <glyph glyph-name="ibreve" unicode="&#x12d;" horiz-adv-x="477" 
d="M152 0v973h173v-973h-173zM-65 1424h115q0 -51 22 -84q25 -38 61.5 -53t105.5 -15t105.5 15t61.5 53q22 33 22 84h115q-1 -117 -54 -180q-77 -91 -250 -91q-153 0 -227.5 66.5t-76.5 204.5z" />
    <glyph glyph-name="Iogonek" unicode="&#x12e;" horiz-adv-x="549" 
d="M365 0l-19 -12q-97 -60 -132 -100t-35 -90q0 -82 84 -82q37 0 83 18l40 -98q-81 -32 -143 -32q-94 0 -150 47.5t-56 127.5q0 75 48 128t153 93h-53v1462h180v-1462z" />
    <glyph glyph-name="iogonek" unicode="&#x12f;" horiz-adv-x="477" 
d="M152 1v972h173v-972q-107 -74 -139 -112t-32 -90q0 -82 85 -82q37 0 83 18l40 -97q-82 -33 -144 -33q-94 0 -150 47.5t-56 128.5q0 76 41.5 125t143.5 95h-45zM240 1391q52 0 83 -30t31 -80q0 -51 -31 -81t-83 -30q-53 0 -84 30t-31 82q0 49 31.5 79t83.5 30z" />
    <glyph glyph-name="Idotaccent" unicode="&#x130;" horiz-adv-x="549" 
d="M185 0v1462h180v-1462h-180zM275 1881q50 0 82.5 -31t32.5 -80q0 -48 -32.5 -79.5t-82.5 -31.5q-51 0 -83 31.5t-32 81.5q0 47 33 78t82 31z" />
    <glyph glyph-name="dotlessi" unicode="&#x131;" horiz-adv-x="477" 
d="M152 0v973h173v-973h-173z" />
    <glyph glyph-name="IJ" unicode="&#x132;" horiz-adv-x="1417" 
d="M185 0v1462h180v-1462h-180zM1053 1462h179v-961q0 -261 -64 -371q-89 -152 -320 -152q-171 0 -309 84l56 143q107 -80 228 -80q140 0 193 111q37 77 37 264v962z" />
    <glyph glyph-name="ij" unicode="&#x133;" horiz-adv-x="951" 
d="M152 0v973h173v-973h-173zM239 1391q51 0 82.5 -30t31.5 -80q0 -51 -31 -81t-83 -30q-53 0 -84 30t-31 82q0 49 31.5 79t83.5 30zM625 973h173v-1009q0 -227 -35 -319q-59 -156 -252 -156q-100 0 -196 36l40 130q60 -32 133 -32q103 0 127 117q10 51 10 177v1056z
M712 1391q51 0 82.5 -30t31.5 -80q0 -51 -31 -81t-83 -30q-53 0 -84 30t-31 82q0 49 31.5 79t83.5 30z" />
    <glyph glyph-name="Jcircumflex" unicode="&#x134;" horiz-adv-x="918" 
d="M554 1462h179v-961q0 -261 -64 -371q-89 -152 -320 -152q-171 0 -309 84l56 143q107 -80 228 -80q140 0 193 111q37 77 37 264v962zM611 1827l-159 -184h-175l286 291h96l286 -291h-175z" />
    <glyph glyph-name="jcircumflex" unicode="&#x135;" horiz-adv-x="494" 
d="M169 973h173v-1009q0 -227 -35 -319q-59 -156 -252 -156q-100 0 -196 36l40 130q60 -32 133 -32q103 0 127 117q10 51 10 177v1056zM247 1337l-159 -184h-175l286 291h96l286 -291h-175z" />
    <glyph glyph-name="Kcommaaccent" unicode="&#x136;" horiz-adv-x="1209" 
d="M185 0v1462h180v-642l612 642h202l-653 -665l721 -797h-220l-662 754v-754h-180zM472 -448l103 329h204l-187 -329h-120z" />
    <glyph glyph-name="kcommaaccent" unicode="&#x137;" horiz-adv-x="992" 
d="M152 0v1569h173v-970l417 374h204l-465 -414l505 -559h-200l-461 514v-514h-173zM350 -448l103 329h204l-187 -329h-120z" />
    <glyph glyph-name="kgreenlandic" unicode="&#x138;" horiz-adv-x="992" 
d="M152 0v973h173v-374l417 374h204l-465 -414l505 -559h-200l-461 514v-514h-173z" />
    <glyph glyph-name="Lacute" unicode="&#x139;" horiz-adv-x="968" 
d="M185 0v1462h180v-1315h586v-147h-766zM239 1638l151 297h210l-242 -297h-119z" />
    <glyph glyph-name="lacute" unicode="&#x13a;" horiz-adv-x="480" 
d="M140 0v1569h173v-1569h-173zM153 1670l151 297h210l-242 -297h-119z" />
    <glyph glyph-name="Lcommaaccent" unicode="&#x13b;" horiz-adv-x="968" 
d="M185 0v1462h180v-1315h586v-147h-766zM383 -448l103 329h204l-187 -329h-120z" />
    <glyph glyph-name="lcommaaccent" unicode="&#x13c;" horiz-adv-x="480" 
d="M154 0v1569h173v-1569h-173zM51 -448l103 329h204l-187 -329h-120z" />
    <glyph glyph-name="Lcaron" unicode="&#x13d;" horiz-adv-x="1011" 
d="M185 0v1462h180v-1315h586v-147h-766zM539 1019l147 550h190l-209 -550h-128z" />
    <glyph glyph-name="lcaron" unicode="&#x13e;" horiz-adv-x="793" 
d="M153 0v1569h173v-1569h-173zM476 1019l147 550h190l-209 -550h-128z" />
    <glyph glyph-name="Ldot" unicode="&#x13f;" horiz-adv-x="1030" 
d="M185 0v1462h180v-1315h586v-147h-766zM775 811q58 0 93 -34t35 -90t-35 -90t-93 -34q-59 0 -94 34t-35 92q0 54 35.5 88t93.5 34z" />
    <glyph glyph-name="ldot" unicode="&#x140;" horiz-adv-x="807" 
d="M154 0v1569h173v-1569h-173zM634 811q58 0 93 -34t35 -90t-35 -90t-93 -34q-59 0 -94 34t-35 92q0 54 35.5 88t93.5 34z" />
    <glyph glyph-name="Lslash" unicode="&#x141;" horiz-adv-x="1004" 
d="M221 0v599l-151 -87v148l151 87v715h180v-607l265 152v-147l-265 -152v-561h565v-147h-745z" />
    <glyph glyph-name="lslash" unicode="&#x142;" horiz-adv-x="518" 
d="M172 0v650l-153 -99v150l153 99v769h173v-664l154 100v-150l-154 -100v-755h-173z" />
    <glyph glyph-name="Nacute" unicode="&#x143;" horiz-adv-x="1575" 
d="M185 0v1467h129l911 -1168v1163h166v-1477h-114l-926 1195v-1180h-166zM725 1638l151 297h210l-242 -297h-119z" />
    <glyph glyph-name="nacute" unicode="&#x144;" horiz-adv-x="1160" 
d="M152 0v973h158l8 -127q109 149 326 149q240 0 325 -173q48 -97 48 -299v-523h-173v507q0 159 -33 235q-50 117 -202 117q-169 0 -239 -134q-45 -86 -45 -276v-449h-173zM474 1148l151 297h210l-242 -297h-119z" />
    <glyph glyph-name="Ncommaaccent" unicode="&#x145;" horiz-adv-x="1575" 
d="M185 0v1467h129l911 -1168v1163h166v-1477h-114l-926 1195v-1180h-166zM594 -448l103 329h204l-187 -329h-120z" />
    <glyph glyph-name="ncommaaccent" unicode="&#x146;" horiz-adv-x="1160" 
d="M152 0v973h158l8 -127q109 149 326 149q240 0 325 -173q48 -97 48 -299v-523h-173v507q0 159 -33 235q-50 117 -202 117q-169 0 -239 -134q-45 -86 -45 -276v-449h-173zM420 -448l103 329h204l-187 -329h-120z" />
    <glyph glyph-name="Ncaron" unicode="&#x147;" horiz-adv-x="1575" 
d="M185 0v1467h129l911 -1168v1163h166v-1477h-114l-926 1195v-1180h-166zM812 1739l159 184h175l-286 -291h-96l-286 291h175z" />
    <glyph glyph-name="ncaron" unicode="&#x148;" horiz-adv-x="1160" 
d="M152 0v973h158l8 -127q109 149 326 149q240 0 325 -173q48 -97 48 -299v-523h-173v507q0 159 -33 235q-50 117 -202 117q-169 0 -239 -134q-45 -86 -45 -276v-449h-173zM566 1249l159 184h175l-286 -291h-96l-286 291h175z" />
    <glyph glyph-name="napostrophe" unicode="&#x149;" horiz-adv-x="1309" 
d="M301 0v973h158l8 -127q109 149 326 149q240 0 325 -173q48 -97 48 -299v-523h-173v507q0 159 -33 235q-50 117 -202 117q-169 0 -239 -134q-45 -86 -45 -276v-449h-173zM17 1019l147 550h190l-209 -550h-128z" />
    <glyph glyph-name="Eng" unicode="&#x14a;" horiz-adv-x="1575" 
d="M185 0v1467h129l911 -1204v1199h166v-1498q0 -227 -34 -319q-58 -156 -252 -156q-102 0 -197 36l40 130q61 -32 135 -32q79 0 110.5 60.5t31.5 213.5v114l-874 1169v-1180h-166z" />
    <glyph glyph-name="eng" unicode="&#x14b;" horiz-adv-x="1160" 
d="M152 0v973h158l8 -126q52 58 81 80q89 68 248 68q228 0 318 -165q52 -97 52 -307v-559q0 -228 -35 -319q-59 -156 -252 -156q-99 0 -197 36l41 130q61 -32 134 -32q101 0 125 117q11 52 11 177v590q0 159 -38 231q-60 115 -209 115q-164 0 -229 -132q-43 -85 -43 -272
v-449h-173z" />
    <glyph glyph-name="Omacron" unicode="&#x14c;" horiz-adv-x="1706" 
d="M853 1484q343 0 553 -227q191 -208 191 -526q0 -317 -191 -526q-209 -227 -551 -227q-346 0 -555 227q-191 209 -191 536q0 309 191 516q210 227 553 227zM854 1337q-264 0 -421 -186q-137 -163 -137 -412q0 -264 137 -427q156 -186 422 -186q263 0 419 186
q137 164 137 419q0 258 -137 420q-158 186 -420 186zM545 1708v129h615v-129h-615z" />
    <glyph glyph-name="omacron" unicode="&#x14d;" horiz-adv-x="1220" 
d="M610 994q232 0 374 -140q139 -137 139 -368q0 -230 -139 -368q-142 -140 -373 -140q-235 0 -376 140q-139 138 -139 375q0 225 139 361q143 140 375 140zM610 858q-164 0 -257 -116q-79 -98 -79 -250q0 -163 80 -262q94 -116 259 -116q162 0 253 116q79 99 79 256
q0 159 -79 256q-94 116 -256 116zM302 1217v129h615v-129h-615z" />
    <glyph glyph-name="Obreve" unicode="&#x14e;" horiz-adv-x="1706" 
d="M853 1484q343 0 553 -227q191 -208 191 -526q0 -317 -191 -526q-209 -227 -551 -227q-346 0 -555 227q-191 209 -191 536q0 309 191 516q210 227 553 227zM854 1337q-264 0 -421 -186q-137 -163 -137 -412q0 -264 137 -427q156 -186 422 -186q263 0 419 186
q137 164 137 419q0 258 -137 420q-158 186 -420 186zM549 1915h115q0 -51 22 -84q24 -38 61 -53t106 -15q68 0 105.5 15t61.5 53q22 33 22 84h115q-1 -117 -54 -180q-77 -91 -250 -91q-153 0 -227.5 66.5t-76.5 204.5z" />
    <glyph glyph-name="obreve" unicode="&#x14f;" horiz-adv-x="1220" 
d="M610 994q232 0 374 -140q139 -137 139 -368q0 -230 -139 -368q-142 -140 -373 -140q-235 0 -376 140q-139 138 -139 375q0 225 139 361q143 140 375 140zM610 858q-164 0 -257 -116q-79 -98 -79 -250q0 -163 80 -262q94 -116 259 -116q162 0 253 116q79 99 79 256
q0 159 -79 256q-94 116 -256 116zM306 1424h115q0 -51 22 -84q25 -38 61.5 -53t105.5 -15t105.5 15t61.5 53q22 33 22 84h115q-1 -117 -54 -180q-77 -91 -250 -91q-153 0 -227.5 66.5t-76.5 204.5z" />
    <glyph glyph-name="Ohungarumlaut" unicode="&#x150;" horiz-adv-x="1706" 
d="M853 1484q343 0 553 -227q191 -208 191 -526q0 -317 -191 -526q-209 -227 -551 -227q-346 0 -555 227q-191 209 -191 536q0 309 191 516q210 227 553 227zM854 1337q-264 0 -421 -186q-137 -163 -137 -412q0 -264 137 -427q156 -186 422 -186q263 0 419 186
q137 164 137 419q0 258 -137 420q-158 186 -420 186zM629 1638l113 297h204l-201 -297h-116zM931 1638l113 297h204l-201 -297h-116z" />
    <glyph glyph-name="ohungarumlaut" unicode="&#x151;" horiz-adv-x="1220" 
d="M610 994q232 0 374 -140q139 -137 139 -368q0 -230 -139 -368q-142 -140 -373 -140q-235 0 -376 140q-139 138 -139 375q0 225 139 361q143 140 375 140zM610 858q-164 0 -257 -116q-79 -98 -79 -250q0 -163 80 -262q94 -116 259 -116q162 0 253 116q79 99 79 256
q0 159 -79 256q-94 116 -256 116zM385 1148l113 297h204l-201 -297h-116zM687 1148l113 297h204l-201 -297h-116z" />
    <glyph glyph-name="OE" unicode="&#x152;" horiz-adv-x="2346" 
d="M1413 0v318q-54 -106 -132 -177q-179 -163 -459 -163q-335 0 -535 225q-185 209 -185 529q0 318 185 527q200 225 536 225q416 0 590 -333v311h781v-147h-619v-496h552v-147h-552v-525h643v-147h-805zM840 1337q-262 0 -416 -186q-135 -163 -135 -420q0 -259 135 -422
q152 -184 417 -184t420 186q136 164 136 412q0 266 -136 428q-157 186 -421 186z" />
    <glyph glyph-name="oe" unicode="&#x153;" horiz-adv-x="1978" 
d="M1012 768q125 227 407 227q237 0 361 -152q105 -128 105 -333q0 -26 -2 -68h-781q3 -114 56 -193q91 -135 303 -135q185 0 322 79l55 -128q-177 -88 -378 -88q-320 0 -447 230q-49 -80 -99 -123q-122 -106 -315 -106q-225 0 -366 140q-137 138 -137 368q0 231 137 369
q141 140 366 140q200 0 319 -108q41 -36 94 -119zM603 857q-158 0 -248 -115q-77 -99 -77 -256q0 -156 77 -255q89 -115 249 -115q159 0 248 115q77 99 77 251q0 162 -77 260q-91 115 -249 115zM1106 575h607q-6 95 -41 155q-74 129 -253 129q-139 0 -220.5 -74t-92.5 -210z
" />
    <glyph glyph-name="Racute" unicode="&#x154;" horiz-adv-x="1193" 
d="M359 645v-645h-174v1462h381q253 0 370 -86q144 -107 144 -315q0 -141 -75 -237q-100 -126 -360 -155l525 -669h-197l-501 645h-113zM359 782h186q187 0 261 61q95 77 95 212q0 68 -29.5 127t-79.5 92q-68 45 -232 45h-201v-537zM496 1638l151 297h210l-242 -297h-119z
" />
    <glyph glyph-name="racute" unicode="&#x155;" horiz-adv-x="717" 
d="M152 0v973h158l8 -135q45 59 78 85q89 71 211 71q26 0 76 -6l-27 -148q-47 12 -83 12q-65 0 -120.5 -34.5t-84.5 -93.5q-43 -85 -43 -275v-449h-173zM313 1148l151 297h210l-242 -297h-119z" />
    <glyph glyph-name="Rcommaaccent" unicode="&#x156;" horiz-adv-x="1193" 
d="M359 645v-645h-174v1462h381q253 0 370 -86q144 -107 144 -315q0 -141 -75 -237q-100 -126 -360 -155l525 -669h-197l-501 645h-113zM359 782h186q187 0 261 61q95 77 95 212q0 68 -29.5 127t-79.5 92q-68 45 -232 45h-201v-537zM430 -448l103 329h204l-187 -329h-120z
" />
    <glyph glyph-name="rcommaaccent" unicode="&#x157;" horiz-adv-x="717" 
d="M152 0v973h158l8 -135q45 59 78 85q89 71 211 71q26 0 76 -6l-27 -148q-47 12 -83 12q-65 0 -120.5 -34.5t-84.5 -93.5q-43 -85 -43 -275v-449h-173zM49 -448l103 329h204l-187 -329h-120z" />
    <glyph glyph-name="Rcaron" unicode="&#x158;" horiz-adv-x="1193" 
d="M356 645v-645h-174v1462h381q253 0 370 -86q144 -107 144 -315q0 -141 -75 -237q-100 -126 -360 -155l525 -669h-197l-501 645h-113zM356 782h186q187 0 261 61q95 77 95 212q0 68 -29.5 127t-79.5 92q-68 45 -232 45h-201v-537zM569 1739l159 184h175l-286 -291h-96
l-286 291h175z" />
    <glyph glyph-name="rcaron" unicode="&#x159;" horiz-adv-x="717" 
d="M153 0v973h158l8 -135q45 59 78 85q89 71 211 71q26 0 76 -6l-27 -148q-47 12 -83 12q-65 0 -120.5 -34.5t-84.5 -93.5q-43 -85 -43 -275v-449h-173zM393 1249l159 184h175l-286 -291h-96l-286 291h175z" />
    <glyph glyph-name="Sacute" unicode="&#x15a;" horiz-adv-x="1141" 
d="M77 111l67 137q52 -41 113 -65q139 -57 308 -57t256 75q74 64 74 174q0 118 -83 185q-39 32 -79.5 51.5t-186.5 75.5q-185 72 -272 147q-122 108 -122 283q0 172 118 271q114 96 309 96q215 0 390 -106l-63 -130q-152 89 -323 89q-122 0 -191 -52q-77 -57 -77 -156
q0 -106 81 -173q38 -31 84 -54t149 -61q140 -52 211 -90.5t125 -91.5q100 -99 100 -265q0 -90 -30.5 -170t-84.5 -129q-126 -117 -393 -117q-304 0 -480 133zM488 1638l151 297h210l-242 -297h-119z" />
    <glyph glyph-name="sacute" unicode="&#x15b;" horiz-adv-x="865" 
d="M65 66l61 130q113 -82 279 -82q213 0 213 152q0 63 -46 93q-26 17 -52 27t-154 52q-136 45 -196.5 113t-60.5 176q0 129 83 198q85 70 238 70q173 0 311 -92l-68 -118q-112 74 -233 74q-171 0 -171 -124q0 -71 64 -106q32 -18 159 -61q140 -47 204 -98q83 -68 83 -198
q0 -144 -94 -219t-274 -75q-208 0 -346 88zM333 1148l151 297h210l-242 -297h-119z" />
    <glyph glyph-name="Scircumflex" unicode="&#x15c;" horiz-adv-x="1141" 
d="M77 111l67 137q52 -41 113 -65q139 -57 308 -57t256 75q74 64 74 174q0 118 -83 185q-39 32 -79.5 51.5t-186.5 75.5q-185 72 -272 147q-122 108 -122 283q0 172 118 271q114 96 309 96q215 0 390 -106l-63 -130q-152 89 -323 89q-122 0 -191 -52q-77 -57 -77 -156
q0 -106 81 -173q38 -31 84 -54t149 -61q140 -52 211 -90.5t125 -91.5q100 -99 100 -265q0 -90 -30.5 -170t-84.5 -129q-126 -117 -393 -117q-304 0 -480 133zM597 1827l-159 -184h-175l286 291h96l286 -291h-175z" />
    <glyph glyph-name="scircumflex" unicode="&#x15d;" horiz-adv-x="865" 
d="M65 66l61 130q113 -82 279 -82q213 0 213 152q0 63 -46 93q-26 17 -52 27t-154 52q-136 45 -196.5 113t-60.5 176q0 129 83 198q85 70 238 70q173 0 311 -92l-68 -118q-112 74 -233 74q-171 0 -171 -124q0 -71 64 -106q32 -18 159 -61q140 -47 204 -98q83 -68 83 -198
q0 -144 -94 -219t-274 -75q-208 0 -346 88zM446 1337l-159 -184h-175l286 291h96l286 -291h-175z" />
    <glyph glyph-name="Scedilla" unicode="&#x15e;" horiz-adv-x="1141" 
d="M77 111l67 137q52 -41 113 -65q139 -57 308 -57t256 75q74 64 74 174q0 118 -83 185q-39 32 -79.5 51.5t-186.5 75.5q-185 72 -272 147q-122 108 -122 283q0 172 118 271q114 96 309 96q215 0 390 -106l-63 -130q-152 89 -323 89q-122 0 -191 -52q-77 -57 -77 -156
q0 -106 81 -173q38 -31 84 -54t149 -61q140 -52 211 -90.5t125 -91.5q100 -99 100 -265q0 -90 -30.5 -170t-84.5 -129q-126 -117 -393 -117q-304 0 -480 133zM361 -448l104 329h203l-188 -329h-119z" />
    <glyph glyph-name="scedilla" unicode="&#x15f;" horiz-adv-x="865" 
d="M65 66l61 130q113 -82 279 -82q213 0 213 152q0 63 -46 93q-26 17 -52 27t-154 52q-136 45 -196.5 113t-60.5 176q0 129 83 198q85 70 238 70q173 0 311 -92l-68 -118q-112 74 -233 74q-171 0 -171 -124q0 -71 64 -106q32 -18 159 -61q140 -47 204 -98q83 -68 83 -198
q0 -144 -94 -219t-274 -75q-208 0 -346 88zM218 -448l104 329h203l-188 -329h-119z" />
    <glyph glyph-name="Scaron" unicode="&#x160;" horiz-adv-x="1141" 
d="M77 111l67 137q52 -41 113 -65q139 -57 308 -57t256 75q74 64 74 174q0 118 -83 185q-39 32 -79.5 51.5t-186.5 75.5q-185 72 -272 147q-122 108 -122 283q0 172 118 271q114 96 309 96q215 0 390 -106l-63 -130q-152 89 -323 89q-122 0 -191 -52q-77 -57 -77 -156
q0 -106 81 -173q38 -31 84 -54t149 -61q140 -52 211 -90.5t125 -91.5q100 -99 100 -265q0 -90 -30.5 -170t-84.5 -129q-126 -117 -393 -117q-304 0 -480 133zM585 1739l159 184h175l-286 -291h-96l-286 291h175z" />
    <glyph glyph-name="scaron" unicode="&#x161;" horiz-adv-x="865" 
d="M65 66l61 130q113 -82 279 -82q213 0 213 152q0 63 -46 93q-26 17 -52 27t-154 52q-136 45 -196.5 113t-60.5 176q0 129 83 198q85 70 238 70q173 0 311 -92l-68 -118q-112 74 -233 74q-171 0 -171 -124q0 -71 64 -106q32 -18 159 -61q140 -47 204 -98q83 -68 83 -198
q0 -144 -94 -219t-274 -75q-208 0 -346 88zM419 1249l159 184h175l-286 -291h-96l-286 291h175z" />
    <glyph glyph-name="Tcommaaccent" unicode="&#x162;" horiz-adv-x="981" 
d="M400 0v1315h-402v147h986v-147h-403v-1315h-181zM297 -448l103 329h204l-187 -329h-120z" />
    <glyph glyph-name="tcommaaccent" unicode="&#x163;" horiz-adv-x="698" 
d="M207 834h-150v139h155l10 295l155 29v-324h276v-139h-276v-473q0 -136 33.5 -183.5t130.5 -47.5q41 0 91 16l31 -139q-85 -21 -165 -21q-186 0 -248 106q-25 43 -34 102.5t-9 179.5v460zM169 -448l103 329h204l-187 -329h-120z" />
    <glyph glyph-name="Tcaron" unicode="&#x164;" horiz-adv-x="981" 
d="M400 0v1315h-402v147h986v-147h-403v-1315h-181zM491 1739l159 184h175l-286 -291h-96l-286 291h175z" />
    <glyph glyph-name="tcaron" unicode="&#x165;" horiz-adv-x="935" 
d="M207 834h-150v139h155l10 295l155 29v-324h276v-139h-276v-473q0 -136 33.5 -183.5t130.5 -47.5q41 0 91 16l31 -139q-85 -21 -165 -21q-186 0 -248 106q-25 43 -34 102.5t-9 179.5v460zM619 1076l147 550h190l-209 -550h-128z" />
    <glyph glyph-name="Tbar" unicode="&#x166;" horiz-adv-x="981" 
d="M400 692h-216v139h216v484h-402v147h986v-147h-403v-484h217v-139h-217v-692h-181v692z" />
    <glyph glyph-name="tbar" unicode="&#x167;" horiz-adv-x="698" 
d="M207 834h-150v139h155l9 295l156 29v-324h276v-139h-276v-159h274v-123h-274v-207q0 -125 34.5 -170t129.5 -45q41 0 91 16l31 -139q-84 -21 -165 -21q-186 0 -248 106q-43 74 -43 254v206h-146v123h146v159z" />
    <glyph glyph-name="Utilde" unicode="&#x168;" horiz-adv-x="1437" 
d="M185 1462h180v-923q0 -208 56 -290q85 -124 298 -124q234 0 313 149q41 78 41 265v923h180v-858q0 -171 -19 -270.5t-65 -165.5q-132 -190 -450 -190q-348 0 -471 224q-63 115 -63 402v858zM506 1668h-100q15 104 39 146q45 80 126 80q63 0 164 -64q86 -54 126 -54
q61 0 80 108h100q-8 -90 -31 -137q-46 -90 -131 -90q-70 0 -177 66q-83 51 -117 51q-58 0 -79 -106z" />
    <glyph glyph-name="utilde" unicode="&#x169;" horiz-adv-x="1136" 
d="M144 973h173v-525q0 -154 33 -225q50 -109 196 -109q159 0 224 134q41 85 41 276v449h173v-973h-158l-8 127q-105 -149 -318 -149q-230 0 -309 158q-47 93 -47 296v541zM351 1178h-100q15 104 39 146q45 80 125 80q64 0 165 -63q86 -54 126 -54q61 0 80 107h100
q-8 -89 -31 -136q-46 -91 -131 -91q-69 0 -177 66q-82 51 -117 51q-58 0 -79 -106z" />
    <glyph glyph-name="Umacron" unicode="&#x16a;" horiz-adv-x="1437" 
d="M185 1462h180v-923q0 -208 56 -290q85 -124 298 -124q234 0 313 149q41 78 41 265v923h180v-858q0 -171 -19 -270.5t-65 -165.5q-132 -190 -450 -190q-348 0 -471 224q-63 115 -63 402v858zM412 1708v129h615v-129h-615z" />
    <glyph glyph-name="umacron" unicode="&#x16b;" horiz-adv-x="1136" 
d="M144 973h173v-525q0 -154 33 -225q50 -109 196 -109q159 0 224 134q41 85 41 276v449h173v-973h-158l-8 127q-105 -149 -318 -149q-230 0 -309 158q-47 93 -47 296v541zM261 1217v129h615v-129h-615z" />
    <glyph glyph-name="Ubreve" unicode="&#x16c;" horiz-adv-x="1437" 
d="M185 1462h180v-923q0 -208 56 -290q85 -124 298 -124q234 0 313 149q41 78 41 265v923h180v-858q0 -171 -19 -270.5t-65 -165.5q-132 -190 -450 -190q-348 0 -471 224q-63 115 -63 402v858zM415 1915h115q0 -51 22 -84q24 -38 61 -53t106 -15q68 0 105.5 15t61.5 53
q22 33 22 84h115q-1 -117 -54 -180q-77 -91 -250 -91q-153 0 -227.5 66.5t-76.5 204.5z" />
    <glyph glyph-name="ubreve" unicode="&#x16d;" horiz-adv-x="1136" 
d="M144 973h173v-525q0 -154 33 -225q50 -109 196 -109q159 0 224 134q41 85 41 276v449h173v-973h-158l-8 127q-105 -149 -318 -149q-230 0 -309 158q-47 93 -47 296v541zM264 1424h115q0 -51 22 -84q25 -38 61.5 -53t105.5 -15t105.5 15t61.5 53q22 33 22 84h115
q-1 -117 -54 -180q-77 -91 -250 -91q-153 0 -227.5 66.5t-76.5 204.5z" />
    <glyph glyph-name="Uring" unicode="&#x16e;" horiz-adv-x="1437" 
d="M185 1462h180v-923q0 -208 56 -290q85 -124 298 -124q234 0 313 149q41 78 41 265v923h180v-858q0 -171 -19 -270.5t-65 -165.5q-132 -190 -450 -190q-348 0 -471 224q-63 115 -63 402v858zM719 2010q101 0 165 -61t64 -156t-64 -156t-164 -61q-102 0 -166 61t-64 159
q0 93 64 153q65 61 165 61zM719 1903q-50 0 -79 -29t-29 -78q0 -53 29 -83t79 -30t79 30t29 81q0 50 -29 79.5t-79 29.5z" />
    <glyph glyph-name="uring" unicode="&#x16f;" horiz-adv-x="1136" 
d="M144 973h173v-525q0 -154 33 -225q50 -109 196 -109q159 0 224 134q41 85 41 276v449h173v-973h-158l-8 127q-105 -149 -318 -149q-230 0 -309 158q-47 93 -47 296v541zM568 1537q101 0 165 -61t64 -156t-64 -156t-164 -61q-102 0 -166 61t-64 159q0 93 64 153
q65 61 165 61zM568 1430q-49 0 -78.5 -29t-29.5 -78q0 -53 29 -83t79 -30t79 30t29 82q0 49 -29 78.5t-79 29.5z" />
    <glyph glyph-name="Uhungarumlaut" unicode="&#x170;" horiz-adv-x="1437" 
d="M185 1462h180v-923q0 -208 56 -290q85 -124 298 -124q234 0 313 149q41 78 41 265v923h180v-858q0 -171 -19 -270.5t-65 -165.5q-132 -190 -450 -190q-348 0 -471 224q-63 115 -63 402v858zM504 1638l113 297h204l-201 -297h-116zM806 1638l113 297h204l-201 -297h-116z
" />
    <glyph glyph-name="uhungarumlaut" unicode="&#x171;" horiz-adv-x="1136" 
d="M144 973h173v-525q0 -154 33 -225q50 -109 196 -109q159 0 224 134q41 85 41 276v449h173v-973h-158l-8 127q-105 -149 -318 -149q-230 0 -309 158q-47 93 -47 296v541zM344 1148l113 297h204l-201 -297h-116zM646 1148l113 297h204l-201 -297h-116z" />
    <glyph glyph-name="Uogonek" unicode="&#x172;" horiz-adv-x="1437" 
d="M185 1462h180v-923q0 -208 56 -290q85 -124 298 -124q234 0 313 149q41 78 41 265v923h180v-859q0 -209 -31 -321q-30 -110 -127 -187t-234 -100q-70 -37 -112 -91t-42 -106q0 -82 84 -82q37 0 83 18l40 -98q-82 -32 -144 -32q-94 0 -150 48t-56 128q0 127 134 200
q-147 11 -228 36q-155 49 -220 182.5t-65 404.5v859z" />
    <glyph glyph-name="uogonek" unicode="&#x173;" horiz-adv-x="1136" 
d="M826 0l-8 127q-105 -149 -318 -149q-230 0 -309 158q-47 93 -47 296v541h173v-525q0 -154 33 -225q50 -109 196 -109q159 0 224 134q41 85 41 276v449h173v-973q-113 -69 -150 -109t-37 -93q0 -81 85 -81q37 0 83 18l39 -98q-81 -32 -143 -32q-94 0 -150 47.5t-56 126.5
q0 76 46.5 127t154.5 94h-30z" />
    <glyph glyph-name="Wcircumflex" unicode="&#x174;" horiz-adv-x="2028" 
d="M458 -8l-400 1470h191l296 -1220l418 1220h102l418 -1220l296 1220h191l-400 -1470h-154l-402 1181l-402 -1181h-154zM1014 1827l-159 -184h-175l286 291h96l286 -291h-175z" />
    <glyph glyph-name="wcircumflex" unicode="&#x175;" horiz-adv-x="1551" 
d="M378 -8l-329 981h183l214 -757l288 757h83l289 -757l213 757h183l-329 -981h-120l-277 723l-278 -723h-120zM776 1337l-159 -184h-175l286 291h96l286 -291h-175z" />
    <glyph glyph-name="Ycircumflex" unicode="&#x176;" horiz-adv-x="1188" 
d="M504 0v596l-503 866h205l388 -702l388 702h205l-503 -866v-596h-180zM594 1827l-159 -184h-175l286 291h96l286 -291h-175z" />
    <glyph glyph-name="ycircumflex" unicode="&#x177;" horiz-adv-x="959" 
d="M398 -1l-405 974h183l300 -779l256 779h180l-389 -1055q-63 -170 -83.5 -215.5t-57.5 -95.5q-85 -118 -250 -118q-103 0 -185 34l33 134q61 -35 146 -35q52 0 89.5 27t71.5 91q22 40 71 161zM460 1337l-159 -184h-175l286 291h96l286 -291h-175z" />
    <glyph glyph-name="Ydieresis" unicode="&#x178;" horiz-adv-x="1188" 
d="M504 0v596l-503 866h205l388 -702l388 702h205l-503 -866v-596h-180zM374 1881q50 0 82 -31t32 -79q0 -49 -32 -80t-82 -31t-82 31.5t-32 80.5q0 47 32.5 78t81.5 31zM815 1881q50 0 82 -31t32 -79q0 -49 -32 -80t-81 -31q-51 0 -83 31t-32 81q0 47 32.5 78t81.5 31z" />
    <glyph glyph-name="Zacute" unicode="&#x179;" horiz-adv-x="1150" 
d="M44 0v81l781 1234h-691v147h912v-80l-775 -1234h816v-148h-1043zM528 1638l151 297h210l-242 -297h-119z" />
    <glyph glyph-name="zacute" unicode="&#x17a;" horiz-adv-x="959" 
d="M66 0v69l558 765h-505v139h733v-70l-558 -764h592v-139h-820zM400 1148l151 297h210l-242 -297h-119z" />
    <glyph glyph-name="Zdotaccent" unicode="&#x17b;" horiz-adv-x="1150" 
d="M44 0v81l781 1234h-691v147h912v-80l-775 -1234h816v-148h-1043zM627 1881q50 0 82.5 -31t32.5 -80q0 -48 -32.5 -79.5t-82.5 -31.5q-51 0 -83 31.5t-32 81.5q0 47 33 78t82 31z" />
    <glyph glyph-name="zdotaccent" unicode="&#x17c;" horiz-adv-x="959" 
d="M66 0v69l558 765h-505v139h733v-70l-558 -764h592v-139h-820zM520 1391q50 0 82.5 -31t32.5 -80t-32.5 -80t-82.5 -31q-51 0 -83 31.5t-32 81.5q0 47 33 78t82 31z" />
    <glyph glyph-name="Zcaron" unicode="&#x17d;" horiz-adv-x="1150" 
d="M44 0v81l781 1234h-691v147h912v-80l-775 -1234h816v-148h-1043zM634 1739l159 184h175l-286 -291h-96l-286 291h175z" />
    <glyph glyph-name="zcaron" unicode="&#x17e;" horiz-adv-x="959" 
d="M66 0v69l558 765h-505v139h733v-70l-558 -764h592v-139h-820zM513 1249l159 184h175l-286 -291h-96l-286 291h175z" />
    <glyph glyph-name="longs" unicode="&#x17f;" horiz-adv-x="690" 
d="M221 834h-153v139h153v221q0 113 12 173.5t43 109.5q68 104 241 104q76 0 165 -23l-21 -127q-58 19 -113 19q-93 0 -125 -50.5t-32 -196.5v-1203h-170v834z" />
    <glyph glyph-name="uni018F" unicode="&#x18f;" horiz-adv-x="1592" 
d="M126 762h1174q-3 212 -89 345q-146 224 -475 224q-263 0 -474 -112l-59 141q104 51 184 74q165 47 350 47q365 0 553 -205q190 -206 190 -553q0 -344 -181 -553q-176 -203 -500 -203q-348 0 -525 225q-150 190 -150 494q0 15 2 76zM315 617q10 -181 69 -285
q121 -216 409 -216q209 0 328 102q159 137 175 399h-981z" />
    <glyph glyph-name="florin" unicode="&#x192;" 
d="M503 836h-122l20 130h126l29 162q19 106 39 159t55 92q86 96 219 96q56 0 111 -19l-33 -127q-38 12 -60 12q-64 0 -99.5 -45.5t-55.5 -152.5l-32 -177h180l-20 -130h-180l-165 -904q-25 -134 -41 -173q-80 -191 -266 -191q-46 0 -116 21l34 130q26 -10 46 -10
q74 0 114 58q31 45 48 142z" />
    <glyph glyph-name="uni01C4" unicode="&#x1c4;" horiz-adv-x="2644" 
d="M185 0v1462h362q230 0 393 -54q230 -75 348 -280q97 -168 97 -397q0 -367 -238 -563q-106 -87 -250 -127.5t-350 -40.5h-362zM364 147h213q304 0 453 138q82 77 125.5 191t43.5 255q0 179 -70 312q-74 142 -206 207t-346 65h-213v-1168zM1538 0v81l781 1234h-691v147h912
v-80l-775 -1234h816v-148h-1043zM2128 1739l160 184h175l-287 -291h-95l-287 291h175z" />
    <glyph glyph-name="uni01C5" unicode="&#x1c5;" horiz-adv-x="2453" 
d="M185 0v1462h362q230 0 393 -54q230 -75 348 -280q97 -168 97 -397q0 -367 -238 -563q-106 -87 -250 -127.5t-350 -40.5h-362zM364 147h213q304 0 453 138q82 77 125.5 191t43.5 255q0 179 -70 312q-74 142 -206 207t-346 65h-213v-1168zM1561 0v69l558 765h-506v139h734
v-70l-559 -764h593v-139h-820zM2008 1249l159 184h175l-286 -291h-96l-286 291h175z" />
    <glyph glyph-name="uni01C6" unicode="&#x1c6;" horiz-adv-x="2189" 
d="M927 0l-11 154q-121 -176 -355 -176q-216 0 -341 140q-124 139 -124 368q0 230 124 368q126 140 337 140q228 0 348 -166v741h173v-1569h-151zM587 858q-152 0 -236 -110q-77 -100 -77 -262q0 -161 77 -262q83 -110 236 -110q154 0 239 110q79 101 79 257q0 166 -79 267
q-85 110 -239 110zM1296 0v69l558 765h-506v139h734v-70l-559 -764h593v-139h-820zM1692 1249l160 184h175l-287 -291h-95l-287 291h175z" />
    <glyph glyph-name="uni01C7" unicode="&#x1c7;" horiz-adv-x="1886" 
d="M185 0v1462h180v-1315h586v-147h-766zM1565 1462h180v-961q0 -261 -64 -371q-89 -152 -320 -152q-171 0 -310 84l56 143q107 -80 228 -80q140 0 193 111q37 77 37 264v962z" />
    <glyph glyph-name="uni01C8" unicode="&#x1c8;" horiz-adv-x="1462" 
d="M185 0v1462h180v-1315h586v-147h-766zM1224 1391q51 0 82.5 -30t31.5 -80q0 -51 -31 -81t-83 -30q-53 0 -84 30t-31 82q0 49 31.5 79t83.5 30zM1137 973h173v-1009q0 -227 -35 -319q-59 -156 -252 -156q-99 0 -196 36l40 130q60 -32 133 -32q103 0 127 117q10 51 10 177
v1056z" />
    <glyph glyph-name="uni01C9" unicode="&#x1c9;" horiz-adv-x="974" 
d="M153 0v1569h173v-1569h-173zM649 973h173v-1009q0 -227 -35 -319q-59 -156 -252 -156q-99 0 -196 36l40 130q60 -32 133 -32q103 0 127 117q10 51 10 177v1056zM736 1391q51 0 82.5 -30t31.5 -80q0 -51 -31 -81t-83 -30q-53 0 -84 30t-31 82q0 49 31.5 79t83.5 30z" />
    <glyph glyph-name="uni01CA" unicode="&#x1ca;" horiz-adv-x="2493" 
d="M185 0v1467h129l910 -1168v1163h166v-1477h-114l-925 1195v-1180h-166zM2129 1462h180v-961q0 -261 -64 -371q-89 -152 -320 -152q-171 0 -310 84l56 143q107 -80 228 -80q140 0 193 111q37 77 37 264v962z" />
    <glyph glyph-name="uni01CB" unicode="&#x1cb;" horiz-adv-x="2069" 
d="M185 0v1467h129l911 -1168v1163h166v-1477h-114l-926 1195v-1180h-166zM1744 973h173v-1009q0 -227 -35 -319q-59 -156 -252 -156q-99 0 -196 36l40 130q60 -32 133 -32q103 0 127 117q10 51 10 177v1056zM1831 1391q51 0 82.5 -30t31.5 -80q0 -51 -31 -81t-83 -30
q-53 0 -84 30t-31 82q0 49 31.5 79t83.5 30z" />
    <glyph glyph-name="uni01CC" unicode="&#x1cc;" horiz-adv-x="1654" 
d="M152 0v973h158l8 -127q109 149 326 149q240 0 325 -173q48 -97 48 -299v-523h-173v507q0 159 -33 235q-50 117 -202 117q-169 0 -239 -134q-45 -86 -45 -276v-449h-173zM1329 973h173v-1009q0 -227 -35 -319q-59 -156 -252 -156q-99 0 -196 36l40 130q60 -32 133 -32
q103 0 127 117q10 51 10 177v1056zM1416 1391q51 0 82.5 -30t31.5 -80q0 -51 -31 -81t-83 -30q-53 0 -84 30t-31 82q0 49 31.5 79t83.5 30z" />
    <glyph glyph-name="uni01CD" unicode="&#x1cd;" horiz-adv-x="1396" 
d="M1036 377h-677l-151 -377h-184l610 1476h128l610 -1476h-185zM997 518l-299 751l-299 -751h598zM698 1739l159 184h175l-286 -291h-96l-286 291h175z" />
    <glyph glyph-name="uni01CE" unicode="&#x1ce;" horiz-adv-x="1224" 
d="M919 0l-11 151q-117 -173 -351 -173q-212 0 -338 140q-123 137 -123 368q0 228 123 369q123 140 337 140q235 0 349 -165l3 143h162v-973h-151zM583 859q-150 0 -233 -110q-76 -100 -76 -263q0 -159 76 -262q80 -110 233 -110q152 0 236 110q78 102 78 258q0 166 -78 267
q-84 110 -236 110zM632 1249l159 184h175l-286 -291h-96l-286 291h175z" />
    <glyph glyph-name="uni01CF" unicode="&#x1cf;" horiz-adv-x="549" 
d="M185 0v1462h180v-1462h-180zM275 1739l159 184h175l-286 -291h-96l-286 291h175z" />
    <glyph glyph-name="uni01D0" unicode="&#x1d0;" horiz-adv-x="477" 
d="M152 0v973h173v-973h-173zM238 1249l159 184h175l-286 -291h-96l-286 291h175z" />
    <glyph glyph-name="uni01D1" unicode="&#x1d1;" horiz-adv-x="1706" 
d="M853 1484q343 0 553 -227q191 -208 191 -526q0 -317 -191 -526q-209 -227 -551 -227q-346 0 -555 227q-191 209 -191 536q0 309 191 516q210 227 553 227zM854 1337q-264 0 -421 -186q-137 -163 -137 -412q0 -264 137 -427q156 -186 422 -186q263 0 419 186
q137 164 137 419q0 258 -137 420q-158 186 -420 186zM853 1739l159 184h175l-286 -291h-96l-286 291h175z" />
    <glyph glyph-name="uni01D2" unicode="&#x1d2;" horiz-adv-x="1220" 
d="M610 994q232 0 374 -140q139 -137 139 -368q0 -230 -139 -368q-142 -140 -373 -140q-235 0 -376 140q-139 138 -139 375q0 225 139 361q143 140 375 140zM610 858q-164 0 -257 -116q-79 -98 -79 -250q0 -163 80 -262q94 -116 259 -116q162 0 253 116q79 99 79 256
q0 159 -79 256q-94 116 -256 116zM609 1249l159 184h175l-286 -291h-96l-286 291h175z" />
    <glyph glyph-name="uni01D3" unicode="&#x1d3;" horiz-adv-x="1437" 
d="M185 1462h180v-923q0 -208 56 -290q85 -124 298 -124q234 0 313 149q41 78 41 265v923h180v-858q0 -171 -19 -270.5t-65 -165.5q-132 -190 -450 -190q-348 0 -471 224q-63 115 -63 402v858zM719 1739l159 184h175l-286 -291h-96l-286 291h175z" />
    <glyph glyph-name="uni01D4" unicode="&#x1d4;" horiz-adv-x="1136" 
d="M144 973h173v-525q0 -154 33 -225q50 -109 196 -109q159 0 224 134q41 85 41 276v449h173v-973h-158l-8 127q-105 -149 -318 -149q-230 0 -309 158q-47 93 -47 296v541zM568 1249l159 184h175l-286 -291h-96l-286 291h175z" />
    <glyph glyph-name="uni01DD" unicode="&#x1dd;" horiz-adv-x="1143" 
d="M98 529h782q-3 115 -56 195q-92 136 -304 136q-182 0 -322 -79l-55 126q174 88 378 88q258 0 393 -138q135 -139 135 -372q0 -229 -129 -370q-127 -137 -354 -137q-242 0 -366 152q-104 128 -104 332q0 24 2 67zM264 398q7 -96 42 -156q75 -130 255 -130q199 0 278 150
q31 59 37 136h-612z" />
    <glyph glyph-name="Gcaron" unicode="&#x1e6;" horiz-adv-x="1609" 
d="M921 624v136h580v-118q0 -265 -85 -411q-77 -131 -230 -194q-140 -59 -325 -59q-359 0 -560 217q-191 205 -191 529q0 337 201 546q207 214 552 214q320 0 535 -163l-71 -123q-187 139 -449 139q-278 0 -439 -186q-142 -164 -142 -422q0 -251 133 -417q150 -187 433 -187
q457 0 457 425v74h-399zM856 1739l159 184h175l-286 -291h-96l-286 291h175z" />
    <glyph glyph-name="gcaron" unicode="&#x1e7;" horiz-adv-x="1224" 
d="M905 159q-115 -174 -349 -174q-211 0 -337 140q-123 136 -123 365q0 228 123 365q125 140 334 140q230 0 352 -173l7 151h158v-857q0 -159 -18 -256t-60 -164q-130 -207 -459 -207q-184 0 -331 66l46 134q117 -67 288 -67q245 0 329 174q40 84 40 281v82zM583 859
q-150 0 -233 -109q-76 -99 -76 -260q0 -158 76 -260q80 -109 233 -109q152 0 236 109q78 100 78 255q0 165 -78 265q-84 109 -236 109zM646 1249l159 184h175l-286 -291h-96l-286 291h175z" />
    <glyph glyph-name="uni01EA" unicode="&#x1ea;" horiz-adv-x="1706" 
d="M965 -16q-81 -50 -113 -89t-32 -87q0 -81 85 -81q36 0 83 18l40 -98q-82 -32 -144 -32q-94 0 -150 47.5t-56 127.5q0 117 130 189q-253 18 -418 144q-154 117 -227 304q-54 138 -54 304q0 317 191 526q209 227 553 227t553 -227q191 -209 191 -526q0 -240 -112 -421
q-172 -280 -520 -326zM854 1337q-264 0 -421 -186q-137 -163 -137 -412q0 -264 137 -428q156 -186 422 -186q263 0 419 186q137 164 137 420q0 258 -137 420q-158 186 -420 186z" />
    <glyph glyph-name="uni01EB" unicode="&#x1eb;" horiz-adv-x="1220" 
d="M744 -258l40 -98q-82 -32 -143 -32q-94 0 -150 47.5t-56 126.5q0 124 137 193q-169 15 -277 90q-199 136 -199 417q0 230 139 368q141 140 375 140q232 0 374 -140q139 -137 139 -368q0 -235 -139 -368q-47 -44 -86.5 -65.5t-183.5 -82.5q-60 -24 -98.5 -70.5
t-38.5 -94.5q0 -81 84 -81q38 0 83 18zM610 858q-164 0 -257 -116q-79 -98 -79 -250q0 -163 80 -262q94 -116 259 -116q162 0 253 116q79 99 79 256q0 159 -79 256q-94 116 -256 116z" />
    <glyph glyph-name="uni01F1" unicode="&#x1f1;" horiz-adv-x="2644" 
d="M185 0v1462h362q230 0 393 -54q230 -75 348 -280q97 -168 97 -397q0 -367 -238 -563q-106 -87 -250 -127.5t-350 -40.5h-362zM364 147h213q304 0 453 138q82 77 125.5 191t43.5 255q0 179 -70 312q-74 142 -206 207t-346 65h-213v-1168zM1538 0v81l781 1234h-691v147h912
v-80l-775 -1234h816v-148h-1043z" />
    <glyph glyph-name="uni01F2" unicode="&#x1f2;" horiz-adv-x="2453" 
d="M185 0v1462h362q230 0 393 -54q230 -75 348 -280q97 -168 97 -397q0 -367 -238 -563q-106 -87 -250 -127.5t-350 -40.5h-362zM364 147h213q304 0 453 138q82 77 125.5 191t43.5 255q0 179 -70 312q-74 142 -206 207t-346 65h-213v-1168zM1561 0v69l558 765h-506v139h734
v-70l-559 -764h593v-139h-820z" />
    <glyph glyph-name="uni01F3" unicode="&#x1f3;" horiz-adv-x="2189" 
d="M927 0l-11 154q-121 -176 -355 -176q-216 0 -341 140q-124 139 -124 368q0 230 124 368q126 140 337 140q228 0 348 -166v741h173v-1569h-151zM587 858q-152 0 -236 -110q-77 -100 -77 -262q0 -161 77 -262q83 -110 236 -110q154 0 239 110q79 101 79 257q0 166 -79 267
q-85 110 -239 110zM1296 0v69l558 765h-506v139h734v-70l-559 -764h593v-139h-820z" />
    <glyph glyph-name="uni01F4" unicode="&#x1f4;" horiz-adv-x="1609" 
d="M921 624v136h580v-118q0 -265 -85 -411q-77 -131 -230 -194q-140 -59 -325 -59q-359 0 -560 217q-191 205 -191 529q0 337 201 546q207 214 552 214q320 0 535 -163l-71 -123q-187 139 -449 139q-278 0 -439 -186q-142 -164 -142 -422q0 -251 133 -417q150 -187 433 -187
q457 0 457 425v74h-399zM742 1638l151 297h210l-242 -297h-119z" />
    <glyph glyph-name="uni01F5" unicode="&#x1f5;" horiz-adv-x="1224" 
d="M905 159q-115 -174 -349 -174q-211 0 -337 140q-123 136 -123 365q0 228 123 365q125 140 334 140q230 0 352 -173l7 151h158v-857q0 -159 -18 -256t-60 -164q-130 -207 -459 -207q-184 0 -331 66l46 134q117 -67 288 -67q245 0 329 174q40 84 40 281v82zM583 859
q-150 0 -233 -109q-76 -99 -76 -260q0 -158 76 -260q80 -109 233 -109q152 0 236 109q78 100 78 255q0 165 -78 265q-84 109 -236 109zM499 1148l151 297h210l-242 -297h-119z" />
    <glyph glyph-name="Aringacute" unicode="&#x1fa;" horiz-adv-x="1396" 
d="M1036 377h-677l-151 -377h-184l589 1425q-119 45 -119 165q0 90 56 146q57 56 148 56q90 0 147 -56.5t57 -145.5q0 -122 -119 -165l589 -1425h-185zM997 518l-299 751l-299 -751h598zM698 1713q-54 0 -87 -32.5t-33 -86.5q0 -58 32.5 -91.5t87.5 -33.5t87.5 33.5
t32.5 89.5q0 55 -32.5 88t-87.5 33zM600 1841l136 270h194l-226 -270h-104z" />
    <glyph glyph-name="aringacute" unicode="&#x1fb;" horiz-adv-x="1224" 
d="M919 0l-11 151q-117 -173 -351 -173q-212 0 -338 140q-123 137 -123 368q0 228 123 369q123 140 337 140q235 0 349 -165l3 143h162v-973h-151zM583 859q-150 0 -233 -110q-76 -100 -76 -263q0 -159 76 -262q80 -110 233 -110q152 0 236 110q78 102 78 258q0 166 -78 267
q-84 110 -236 110zM623 1447q88 0 142 -54q54 -53 54 -136q0 -84 -54 -137q-54 -54 -142 -54q-87 0 -142 53.5t-55 139.5q0 82 55.5 135t141.5 53zM623 1371q-53 0 -84 -30.5t-31 -80.5q0 -55 31 -86.5t84 -31.5q52 0 83 31.5t31 84.5q0 52 -31 82.5t-83 30.5zM517 1514
l144 265h191l-235 -265h-100z" />
    <glyph glyph-name="AEacute" unicode="&#x1fc;" horiz-adv-x="1939" 
d="M990 381h-571l-224 -381h-197l871 1462h917v-147h-619v-498h552v-143h-552v-527h644v-147h-821v381zM990 522v793h-37l-463 -793h500zM1211 1638l151 297h210l-242 -297h-119z" />
    <glyph glyph-name="aeacute" unicode="&#x1fd;" horiz-adv-x="1924" 
d="M872 538v30q0 123 -43 185q-73 106 -277 106q-161 0 -303 -63l-44 131q145 68 349 68q163 0 264 -51t150 -158q129 209 395 209q240 0 364 -152q105 -128 105 -333q0 -25 -2 -68h-781q2 -114 56 -193q91 -135 303 -135q184 0 322 79l55 -128q-177 -88 -374 -88
q-300 0 -431 197q-47 -105 -146.5 -150.5t-284.5 -45.5q-228 0 -338 76q-115 79 -115 246q0 322 443 322q131 0 205.5 -19t127.5 -65zM561 489q-161 0 -229 -45q-67 -44 -67 -143q0 -100 67 -143q68 -44 232 -44q167 0 238 44q68 43 68 139q0 103 -68 147q-71 45 -241 45z
M1053 575h606q-6 95 -40 155q-75 129 -253 129q-139 0 -220.5 -74t-92.5 -210zM874 1148l151 297h210l-242 -297h-119z" />
    <glyph glyph-name="Oslashacute" unicode="&#x1fe;" horiz-adv-x="1706" 
d="M1429 1230q168 -210 168 -498q0 -319 -191 -527q-209 -227 -553 -227q-281 0 -478 157l-158 -164l-99 95l159 166q-168 199 -168 500q0 316 191 525q209 227 553 227q281 0 479 -157l157 163l99 -94zM1308 1105l-819 -851q151 -128 364 -128q265 0 421 186
q137 164 137 419q0 224 -103 374zM398 357l819 851q-148 129 -364 129q-264 0 -420 -186q-137 -164 -137 -420q0 -219 102 -374zM740 1638l151 297h210l-242 -297h-119z" />
    <glyph glyph-name="oslashacute" unicode="&#x1ff;" horiz-adv-x="1220" 
d="M1022 812q101 -127 101 -327q0 -229 -139 -367q-142 -140 -373 -140q-197 0 -332 102l-113 -111l-79 83l110 109q-101 134 -101 325q0 230 139 368q142 140 374 140q197 0 331 -102l113 112l79 -84zM903 695l-516 -509q88 -77 223 -77q167 0 260 117q80 102 80 259
q0 121 -47 210zM316 277l516 509q-85 77 -223 77q-166 0 -259 -117q-80 -101 -80 -259q0 -125 46 -210zM496 1148l151 297h210l-242 -297h-119z" />
    <glyph glyph-name="uni0200" unicode="&#x200;" horiz-adv-x="1396" 
d="M1036 377h-677l-151 -377h-184l610 1476h128l610 -1476h-185zM997 518l-299 751l-299 -751h598zM904 1637h-116l-200 297h203zM602 1637h-116l-201 297h204z" />
    <glyph glyph-name="uni0201" unicode="&#x201;" horiz-adv-x="1224" 
d="M919 0l-11 151q-117 -173 -351 -173q-212 0 -338 140q-123 137 -123 368q0 228 123 369q123 140 337 140q235 0 349 -165l3 143h162v-973h-151zM583 859q-150 0 -233 -110q-76 -100 -76 -263q0 -159 76 -262q80 -110 233 -110q152 0 236 110q78 102 78 258q0 166 -78 267
q-84 110 -236 110zM789 1148h-115l-201 297h203zM487 1148h-116l-201 297h204z" />
    <glyph glyph-name="uni0202" unicode="&#x202;" horiz-adv-x="1706" 
d="M987 -5q-87 -61 -120.5 -104t-33.5 -93q0 -82 84 -82q37 0 83 18l40 -98q-82 -32 -144 -32q-95 0 -150.5 47.5t-55.5 128.5q0 127 131 200q-116 12 -186 28q-264 59 -414 302q-112 182 -112 421q0 317 191 526q209 227 553 227t553 -227q191 -209 191 -528
q0 -231 -106 -405q-85 -138 -218.5 -225.5t-285.5 -103.5zM854 1337q-264 0 -421 -186q-137 -163 -137 -412q0 -264 137 -428q156 -186 422 -186q263 0 419 186q137 164 137 420q0 258 -137 420q-158 186 -420 186z" />
    <glyph glyph-name="uni0203" unicode="&#x203;" horiz-adv-x="1220" 
d="M749 0q-162 -97 -162 -201q0 -82 84 -82q38 0 83 18l40 -98q-82 -32 -143 -32q-95 0 -150.5 47.5t-55.5 128.5q0 131 132 200q-176 12 -282 87q-199 140 -199 418q0 230 139 368q141 140 375 140q233 0 374 -140q139 -137 139 -367q0 -272 -194 -407q-86 -59 -180 -80z
M610 858q-164 0 -257 -116q-79 -99 -79 -251q0 -161 79 -261q92 -116 257 -116q163 0 256 116q79 99 79 256q0 158 -79 256q-94 116 -256 116z" />
    <glyph glyph-name="uni0204" unicode="&#x204;" horiz-adv-x="1118" 
d="M185 0v1462h795v-147h-618v-481h551v-147h-551v-540h643v-147h-820zM827 1637h-116l-201 297h204zM524 1637h-115l-201 297h203z" />
    <glyph glyph-name="uni0205" unicode="&#x205;" horiz-adv-x="1143" 
d="M1048 443h-782q2 -114 56 -194q91 -136 304 -136q182 0 322 78l54 -125q-175 -88 -378 -88q-258 0 -393 138q-135 139 -135 371q0 229 129 370q127 137 354 137q242 0 366 -152q104 -128 104 -332q0 -25 -1 -67zM881 574q-6 95 -41 156q-75 129 -256 129q-139 0 -221 -74
t-94 -211h612zM779 1148h-116l-201 297h204zM477 1148h-116l-201 297h204z" />
    <glyph glyph-name="uni0206" unicode="&#x206;" horiz-adv-x="1118" 
d="M185 0v1462h795v-147h-618v-481h551v-147h-551v-540h643v-147h-820zM291 1643q2 118 54 180q78 91 250 91q153 0 228 -67t76 -204h-115q0 51 -21 84q-25 38 -62 53t-106 15t-105.5 -15t-61.5 -53q-22 -33 -22 -84h-115z" />
    <glyph glyph-name="uni0207" unicode="&#x207;" horiz-adv-x="1143" 
d="M1048 443h-782q2 -114 56 -194q91 -136 304 -136q182 0 322 78l54 -125q-175 -88 -378 -88q-258 0 -393 138q-135 139 -135 371q0 229 129 370q127 137 354 137q242 0 366 -152q104 -128 104 -332q0 -25 -1 -67zM881 574q-6 95 -41 156q-75 129 -256 129q-139 0 -221 -74
t-94 -211h612zM269 1153q1 118 54 180q77 91 250 91q152 0 227 -67t77 -204h-116q0 51 -21 84q-25 38 -61.5 53t-105.5 15t-106 -15t-62 -53q-21 -33 -21 -84h-115z" />
    <glyph glyph-name="uni0208" unicode="&#x208;" horiz-adv-x="549" 
d="M185 0v1462h180v-1462h-180zM481 1637h-116l-201 297h204zM179 1637h-116l-201 297h204z" />
    <glyph glyph-name="uni0209" unicode="&#x209;" horiz-adv-x="477" 
d="M152 0v972h173v-972h-173zM445 1148h-116l-201 297h204zM143 1148h-116l-201 297h204z" />
    <glyph glyph-name="uni020A" unicode="&#x20a;" horiz-adv-x="549" 
d="M185 0v1462h180v-1462h-180zM-29 1643q2 118 54 180q77 91 250 91q152 0 227 -67t77 -204h-115q0 51 -22 84q-25 38 -61.5 53t-105.5 15t-105.5 -15t-61.5 -53q-22 -33 -22 -84h-115z" />
    <glyph glyph-name="uni020B" unicode="&#x20b;" horiz-adv-x="477" 
d="M152 0v972h173v-972h-173zM-65 1153q2 118 54 180q77 91 250 91q152 0 227 -67t77 -204h-115q0 51 -22 84q-25 38 -61.5 53t-105.5 15t-105.5 -15t-61.5 -53q-22 -33 -22 -84h-115z" />
    <glyph glyph-name="uni020C" unicode="&#x20c;" horiz-adv-x="1706" 
d="M853 1484q343 0 553 -227q191 -208 191 -526q0 -317 -191 -526q-209 -227 -551 -227q-346 0 -555 227q-191 209 -191 536q0 309 191 516q210 227 553 227zM854 1337q-264 0 -421 -186q-137 -163 -137 -412q0 -264 137 -427q156 -186 422 -186q263 0 419 186
q137 164 137 419q0 258 -137 420q-158 186 -420 186zM1059 1637h-116l-200 297h203zM757 1637h-116l-201 297h204z" />
    <glyph glyph-name="uni020D" unicode="&#x20d;" horiz-adv-x="1220" 
d="M610 994q232 0 374 -140q139 -137 139 -368q0 -230 -139 -368q-142 -140 -373 -140q-235 0 -376 140q-139 138 -139 375q0 225 139 361q143 140 375 140zM610 858q-164 0 -257 -116q-79 -98 -79 -250q0 -163 80 -262q94 -116 259 -116q162 0 253 116q79 99 79 256
q0 159 -79 256q-94 116 -256 116zM816 1148h-116l-201 297h204zM514 1148h-116l-201 297h203z" />
    <glyph glyph-name="uni020E" unicode="&#x20e;" horiz-adv-x="1706" 
d="M853 1484q343 0 553 -227q191 -208 191 -526q0 -317 -191 -526q-209 -227 -551 -227q-346 0 -555 227q-191 209 -191 536q0 309 191 516q210 227 553 227zM854 1337q-264 0 -421 -186q-137 -163 -137 -412q0 -264 137 -427q156 -186 422 -186q263 0 419 186
q137 164 137 419q0 258 -137 420q-158 186 -420 186zM549 1643q2 118 54 180q78 91 250 91q153 0 228 -67t76 -204h-115q0 51 -22 84q-24 38 -61 53t-106 15t-105.5 -15t-61.5 -53q-22 -33 -22 -84h-115z" />
    <glyph glyph-name="uni020F" unicode="&#x20f;" horiz-adv-x="1220" 
d="M610 994q232 0 374 -140q139 -137 139 -368q0 -230 -139 -368q-142 -140 -373 -140q-235 0 -376 140q-139 138 -139 375q0 225 139 361q143 140 375 140zM610 858q-164 0 -257 -116q-79 -98 -79 -250q0 -163 80 -262q94 -116 259 -116q162 0 253 116q79 99 79 256
q0 159 -79 256q-94 116 -256 116zM306 1153q1 118 54 180q77 91 249 91q153 0 228 -67t76 -204h-115q0 51 -21 84q-25 38 -61.5 53t-105.5 15q-70 0 -106.5 -15t-61.5 -53q-21 -33 -21 -84h-115z" />
    <glyph glyph-name="uni0210" unicode="&#x210;" horiz-adv-x="1193" 
d="M358 645v-645h-174v1462h381q252 0 370 -86q144 -106 144 -315q0 -141 -75 -237q-100 -126 -360 -155l525 -669h-197l-500 645h-114zM358 782h186q187 0 261 61q95 77 95 212q0 68 -29.5 127t-79.5 92q-68 45 -232 45h-201v-537zM793 1637h-116l-201 297h204zM491 1637
h-116l-201 297h204z" />
    <glyph glyph-name="uni0211" unicode="&#x211;" horiz-adv-x="717" 
d="M152 0v972h158l8 -135q45 59 78 85q89 72 211 72q27 0 76 -7l-27 -148q-47 13 -83 13q-66 0 -121 -34.5t-84 -93.5q-43 -86 -43 -276v-448h-173zM624 1148h-116l-201 297h204zM322 1148h-116l-201 297h204z" />
    <glyph glyph-name="uni0212" unicode="&#x212;" horiz-adv-x="1193" 
d="M359 645v-645h-174v1462h381q253 0 370 -86q144 -107 144 -315q0 -141 -75 -237q-100 -126 -360 -155l525 -669h-197l-501 645h-113zM359 782h186q187 0 261 61q95 77 95 212q0 68 -29.5 127t-79.5 92q-68 45 -232 45h-201v-537zM280 1643q1 118 54 180q77 91 250 91
q152 0 227 -67t77 -204h-116q0 51 -21 84q-25 38 -61.5 53t-105.5 15t-106 -15t-62 -53q-21 -33 -21 -84h-115z" />
    <glyph glyph-name="uni0213" unicode="&#x213;" horiz-adv-x="717" 
d="M153 0v972h158l8 -135q45 59 78 85q89 72 211 72q27 0 76 -7l-27 -148q-47 13 -83 13q-66 0 -121 -34.5t-84 -93.5q-43 -86 -43 -276v-448h-173zM114 1153q2 118 54 180q77 91 250 91q152 0 227 -67t77 -204h-115q0 51 -22 84q-25 38 -61.5 53t-105.5 15t-105.5 -15
t-61.5 -53q-22 -33 -22 -84h-115z" />
    <glyph glyph-name="uni0214" unicode="&#x214;" horiz-adv-x="1437" 
d="M185 1462h180v-923q0 -208 56 -290q85 -124 298 -124q234 0 313 149q41 78 41 265v923h180v-858q0 -171 -19 -270.5t-65 -165.5q-132 -190 -450 -190q-348 0 -471 224q-63 115 -63 402v858zM925 1637h-115l-201 297h203zM623 1637h-116l-201 297h204z" />
    <glyph glyph-name="uni0215" unicode="&#x215;" horiz-adv-x="1136" 
d="M144 972h173v-525q0 -153 33 -224q50 -109 196 -109q159 0 224 134q41 85 41 276v448h173v-972h-158l-8 127q-105 -149 -318 -149q-230 0 -309 158q-47 93 -47 296v540zM770 1148h-116l-200 297h203zM468 1148h-116l-201 297h204z" />
    <glyph glyph-name="uni0216" unicode="&#x216;" horiz-adv-x="1437" 
d="M185 1462h180v-923q0 -208 56 -290q85 -124 298 -124q234 0 313 149q41 78 41 265v923h180v-858q0 -171 -19 -270.5t-65 -165.5q-132 -190 -450 -190q-348 0 -471 224q-63 115 -63 402v858zM415 1643q2 118 54 180q77 91 250 91q153 0 227.5 -67t76.5 -204h-115
q0 51 -22 84q-25 38 -61.5 53t-105.5 15t-105.5 -15t-61.5 -53q-22 -33 -22 -84h-115z" />
    <glyph glyph-name="uni0217" unicode="&#x217;" horiz-adv-x="1136" 
d="M144 972h173v-525q0 -153 33 -224q50 -109 196 -109q159 0 224 134q41 85 41 276v448h173v-972h-158l-8 127q-105 -149 -318 -149q-230 0 -309 158q-47 93 -47 296v540zM260 1153q2 118 54 180q77 91 250 91q153 0 227.5 -67t76.5 -204h-115q0 51 -22 84q-25 38 -61.5 53
t-105.5 15t-105.5 -15t-61.5 -53q-22 -33 -22 -84h-115z" />
    <glyph glyph-name="Scommaaccent" unicode="&#x218;" horiz-adv-x="1141" 
d="M77 111l67 137q52 -41 113 -65q139 -57 308 -57t256 75q74 64 74 174q0 118 -83 185q-39 32 -79.5 51.5t-186.5 75.5q-185 72 -272 147q-122 108 -122 283q0 172 118 271q114 96 309 96q215 0 390 -106l-63 -130q-152 89 -323 89q-122 0 -191 -52q-77 -57 -77 -156
q0 -106 81 -173q38 -31 84 -54t149 -61q140 -52 211 -90.5t125 -91.5q100 -99 100 -265q0 -90 -30.5 -170t-84.5 -129q-126 -117 -393 -117q-304 0 -480 133zM361 -448l103 329h204l-187 -329h-120z" />
    <glyph glyph-name="scommaaccent" unicode="&#x219;" horiz-adv-x="865" 
d="M65 66l61 130q113 -82 279 -82q213 0 213 152q0 63 -46 93q-26 17 -52 27t-154 52q-136 45 -196.5 113t-60.5 176q0 129 83 198q85 70 238 70q173 0 311 -92l-68 -118q-112 74 -233 74q-171 0 -171 -124q0 -71 64 -106q32 -18 159 -61q140 -47 204 -98q83 -68 83 -198
q0 -144 -94 -219t-274 -75q-208 0 -346 88zM208 -448l103 329h204l-187 -329h-120z" />
    <glyph glyph-name="uni021A" unicode="&#x21a;" horiz-adv-x="981" 
d="M400 0v1315h-402v147h986v-147h-403v-1315h-181zM297 -448l103 329h204l-187 -329h-120z" />
    <glyph glyph-name="uni021B" unicode="&#x21b;" horiz-adv-x="698" 
d="M207 834h-150v139h155l10 295l155 29v-324h276v-139h-276v-473q0 -136 33.5 -183.5t130.5 -47.5q41 0 91 16l31 -139q-85 -21 -165 -21q-186 0 -248 106q-25 43 -34 102.5t-9 179.5v460zM169 -448l103 329h204l-187 -329h-120z" />
    <glyph glyph-name="uni0226" unicode="&#x226;" horiz-adv-x="1396" 
d="M1036 377h-677l-151 -377h-184l610 1476h128l610 -1476h-185zM997 518l-299 751l-299 -751h598zM698 1881q50 0 82.5 -31t32.5 -80q0 -48 -32.5 -79.5t-82.5 -31.5q-51 0 -83 31.5t-32 81.5q0 47 33 78t82 31z" />
    <glyph glyph-name="uni0227" unicode="&#x227;" horiz-adv-x="1224" 
d="M919 0l-11 151q-117 -173 -351 -173q-212 0 -338 140q-123 137 -123 368q0 228 123 369q123 140 337 140q235 0 349 -165l3 143h162v-973h-151zM583 859q-150 0 -233 -110q-76 -100 -76 -263q0 -159 76 -262q80 -110 233 -110q152 0 236 110q78 102 78 258q0 166 -78 267
q-84 110 -236 110zM635 1391q50 0 82.5 -31t32.5 -80t-32.5 -80t-82.5 -31q-51 0 -83 31.5t-32 81.5q0 47 33 78t82 31z" />
    <glyph glyph-name="uni0237" unicode="&#x237;" horiz-adv-x="494" 
d="M169 973h173v-1009q0 -227 -35 -319q-59 -156 -252 -156q-100 0 -196 36l40 130q60 -32 133 -32q103 0 127 117q10 51 10 177v1056z" />
    <glyph glyph-name="uni0259" unicode="&#x259;" horiz-adv-x="1143" 
d="M98 529h782q-3 115 -56 195q-92 136 -304 136q-182 0 -322 -79l-55 126q174 88 378 88q258 0 393 -138q135 -139 135 -372q0 -229 -129 -370q-127 -137 -354 -137q-242 0 -366 152q-104 128 -104 332q0 24 2 67zM264 398q7 -96 42 -156q75 -130 255 -130q199 0 278 150
q31 59 37 136h-612z" />
    <glyph glyph-name="afii57929" unicode="&#x2bc;" horiz-adv-x="405" 
d="M184 1569h193l-210 -546h-139z" />
    <glyph glyph-name="uni02C0" unicode="&#x2c0;" horiz-adv-x="1024" 
d="M637 1127h-129q64 90 86 130.5t22 68.5q0 26 -23.5 42t-62.5 16q-30 0 -91 -22l-32 91q80 31 144 31q71 0 119 -27q64 -37 64 -119q0 -77 -97 -211z" />
    <glyph glyph-name="circumflex" unicode="&#x2c6;" horiz-adv-x="1024" 
d="M512 1337l-159 -184h-175l286 291h96l286 -291h-175z" />
    <glyph glyph-name="caron" unicode="&#x2c7;" horiz-adv-x="1024" 
d="M512 1249l159 184h175l-286 -291h-96l-286 291h175z" />
    <glyph glyph-name="uni02C9" unicode="&#x2c9;" horiz-adv-x="1024" 
d="M205 1217v129h615v-129h-615z" />
    <glyph glyph-name="breve" unicode="&#x2d8;" horiz-adv-x="1024" 
d="M208 1424h115q0 -51 22 -84q25 -38 61.5 -53t105.5 -15t105.5 15t61.5 53q22 33 22 84h115q-1 -117 -54 -180q-77 -91 -250 -91q-153 0 -227.5 66.5t-76.5 204.5z" />
    <glyph glyph-name="dotaccent" unicode="&#x2d9;" horiz-adv-x="1024" 
d="M512 1391q50 0 82.5 -31t32.5 -80t-32.5 -80t-82.5 -31q-51 0 -83 31.5t-32 81.5q0 47 33 78t82 31z" />
    <glyph glyph-name="ring" unicode="&#x2da;" horiz-adv-x="1024" 
d="M512 1537q101 0 165 -61t64 -156t-64 -156t-164 -61q-102 0 -166 61t-64 159q0 93 64 153q65 61 165 61zM512 1430q-49 0 -78.5 -29t-29.5 -78q0 -53 29 -83t79 -30t79 30t29 82q0 49 -29 78.5t-79 29.5z" />
    <glyph glyph-name="ogonek" unicode="&#x2db;" horiz-adv-x="1024" 
d="M844 0h127q-116 -72 -151 -110t-35 -92q0 -81 84 -81q38 0 83 18l40 -98q-82 -32 -143 -32q-94 0 -150 47.5t-56 126.5q0 76 46.5 127t154.5 94z" />
    <glyph glyph-name="tilde" unicode="&#x2dc;" horiz-adv-x="1024" 
d="M294 1178h-100q15 104 39 146q45 80 125 80q64 0 165 -63q86 -54 126 -54q61 0 80 107h100q-8 -89 -31 -136q-46 -91 -131 -91q-69 0 -177 66q-82 51 -117 51q-58 0 -79 -106z" />
    <glyph glyph-name="hungarumlaut" unicode="&#x2dd;" horiz-adv-x="1024" 
d="M288 1148l113 297h204l-201 -297h-116zM590 1148l113 297h204l-201 -297h-116z" />
    <glyph glyph-name="uni0309" unicode="&#x309;" horiz-adv-x="1024" 
d="M637 1119h-129q68 96 88 133t20 66q0 26 -23.5 42t-62.5 16q-30 0 -91 -22l-32 91q79 31 143 31q71 0 120 -27q64 -37 64 -118q0 -76 -97 -212z" />
    <glyph glyph-name="uni0312" unicode="&#x312;" horiz-adv-x="1024" 
d="M368 1150l213 293h106l-122 -293h-197z" />
    <glyph glyph-name="uni0313" unicode="&#x313;" horiz-adv-x="313" 
d="M7 1019l147 550h190l-209 -550h-128z" />
    <glyph glyph-name="uni031B" unicode="&#x31b;" horiz-adv-x="313" 
d="M7 1019l147 550h190l-209 -550h-128z" />
    <glyph glyph-name="uni0323" unicode="&#x323;" horiz-adv-x="1024" 
d="M512 -147q50 0 82.5 -31t32.5 -80t-32.5 -80t-82.5 -31q-51 0 -83 31.5t-32 81.5q0 47 32.5 78t82.5 31z" />
    <glyph glyph-name="commaaccent" unicode="&#x326;" horiz-adv-x="1024" 
d="M332 -448l103 329h204l-187 -329h-120z" />
    <glyph glyph-name="uni037E" unicode="&#x37e;" horiz-adv-x="515" 
d="M207 214h189l-208 -527h-137zM296 995q57 0 91.5 -33t34.5 -88t-34.5 -88.5t-90.5 -33.5q-57 0 -91.5 33.5t-34.5 89.5q0 54 35 87t90 33z" />
    <glyph glyph-name="uni0387" unicode="&#x387;" horiz-adv-x="515" 
d="M258 811q58 0 93 -34t35 -90t-35 -90t-93 -34q-59 0 -94 34t-35 92q0 54 35.5 88t93.5 34z" />
    <glyph glyph-name="pi" unicode="&#x3c0;" horiz-adv-x="1160" 
d="M151 866h-97v173h1070v-173h-103v-866h-173v866h-524v-866h-173v866z" />
    <glyph glyph-name="uni04D4" unicode="&#x4d4;" horiz-adv-x="1939" 
d="M990 381h-571l-224 -381h-197l871 1462h917v-147h-619v-498h552v-143h-552v-527h644v-147h-821v381zM990 522v793h-37l-463 -793h500z" />
    <glyph glyph-name="uni04D5" unicode="&#x4d5;" horiz-adv-x="1924" 
d="M872 538v30q0 123 -43 185q-73 106 -277 106q-161 0 -303 -63l-44 131q145 68 349 68q163 0 264 -51t150 -158q129 209 395 209q240 0 364 -152q105 -128 105 -333q0 -25 -2 -68h-781q2 -114 56 -193q91 -135 303 -135q184 0 322 79l55 -128q-177 -88 -374 -88
q-300 0 -431 197q-47 -105 -146.5 -150.5t-284.5 -45.5q-228 0 -338 76q-115 79 -115 246q0 322 443 322q131 0 205.5 -19t127.5 -65zM561 489q-161 0 -229 -45q-67 -44 -67 -143q0 -100 67 -143q68 -44 232 -44q167 0 238 44q68 43 68 139q0 103 -68 147q-71 45 -241 45z
M1053 575h606q-6 95 -40 155q-75 129 -253 129q-139 0 -220.5 -74t-92.5 -210z" />
    <glyph glyph-name="uni04D8" unicode="&#x4d8;" horiz-adv-x="1592" 
d="M126 762h1174q-3 212 -89 345q-146 224 -475 224q-263 0 -474 -112l-59 141q104 51 184 74q165 47 350 47q365 0 553 -205q190 -206 190 -553q0 -344 -181 -553q-176 -203 -500 -203q-348 0 -525 225q-150 190 -150 494q0 15 2 76zM315 617q10 -181 69 -285
q121 -216 409 -216q209 0 328 102q159 137 175 399h-981z" />
    <glyph glyph-name="afii10846" unicode="&#x4d9;" horiz-adv-x="1143" 
d="M98 529h782q-3 115 -56 195q-92 136 -304 136q-182 0 -322 -79l-55 126q174 88 378 88q258 0 393 -138q135 -139 135 -372q0 -229 -129 -370q-127 -137 -354 -137q-242 0 -366 152q-104 128 -104 332q0 24 2 67zM264 398q7 -96 42 -156q75 -130 255 -130q199 0 278 150
q31 59 37 136h-612z" />
    <glyph glyph-name="uni1E02" unicode="&#x1e02;" horiz-adv-x="1211" 
d="M185 0v1462h378q251 0 361 -73q70 -47 108.5 -125t38.5 -174q0 -220 -201 -310q109 -42 161 -98q103 -111 103 -280q0 -220 -158 -328q-108 -74 -340 -74h-451zM356 829h225q165 0 237 56q89 71 89 193q0 139 -107 205q-64 40 -219 40h-225v-494zM356 142h251
q186 0 263 64q85 72 85 208q0 79 -33.5 144t-92.5 99q-74 43 -238 43h-235v-558zM590 1880q50 0 82.5 -31t32.5 -80q0 -48 -32.5 -79.5t-82.5 -31.5q-51 0 -83 31.5t-32 81.5q0 47 33 78t82 31z" />
    <glyph glyph-name="uni1E03" unicode="&#x1e03;" horiz-adv-x="1230" 
d="M152 0v1569h173v-741q120 166 351 166q208 0 334 -140q124 -138 124 -368q0 -231 -124 -368q-127 -140 -338 -140q-236 0 -358 176l-11 -154h-151zM642 858q-152 0 -238 -110q-79 -101 -79 -257q0 -166 79 -267q85 -110 240 -110q152 0 235 110q77 101 77 262
q0 162 -77 262q-83 110 -237 110zM607 1880q50 0 82.5 -31t32.5 -80t-32.5 -80t-82.5 -31q-51 0 -83 31.5t-32 81.5q0 47 33 78t82 31z" />
    <glyph glyph-name="uni1E0C" unicode="&#x1e0c;" horiz-adv-x="1494" 
d="M185 0v1462h362q230 0 393 -54q230 -75 348 -280q97 -168 97 -397q0 -367 -238 -563q-106 -87 -250 -127.5t-350 -40.5h-362zM364 147h213q304 0 453 138q82 77 125.5 191t43.5 255q0 179 -70 312q-74 142 -206 207t-346 65h-213v-1168zM742 -145q50 0 82.5 -31t32.5 -80
t-32.5 -80t-82.5 -31q-51 0 -83 31.5t-32 81.5q0 47 32.5 78t82.5 31z" />
    <glyph glyph-name="uni1E0D" unicode="&#x1e0d;" horiz-adv-x="1230" 
d="M927 0l-11 154q-121 -176 -355 -176q-216 0 -341 140q-124 139 -124 368q0 230 124 368q126 140 337 140q228 0 348 -166v741h173v-1569h-151zM587 858q-152 0 -236 -110q-77 -100 -77 -262q0 -161 77 -262q83 -110 236 -110q154 0 239 110q79 101 79 257q0 166 -79 267
q-85 110 -239 110zM587 -145q50 0 82.5 -31t32.5 -80t-32.5 -80t-82.5 -31q-51 0 -83 31.5t-32 81.5q0 47 32.5 78t82.5 31z" />
    <glyph glyph-name="uni1E1E" unicode="&#x1e1e;" horiz-adv-x="1030" 
d="M185 0v1462h763v-147h-583v-490h536v-147h-536v-678h-180zM587 1881q50 0 82.5 -31t32.5 -80q0 -48 -32.5 -79.5t-82.5 -31.5q-51 0 -83 31.5t-32 81.5q0 47 33 78t82 31z" />
    <glyph glyph-name="uni1E1F" unicode="&#x1e1f;" horiz-adv-x="690" 
d="M221 834h-153v139h153v221q0 113 12 173.5t43 109.5q68 104 241 104q75 0 164 -23l-20 -127q-58 19 -113 19q-93 0 -125 -50.5t-32 -196.5v-230h275v-139h-275v-834h-170v834zM418 1880q50 0 82.5 -31t32.5 -80t-32.5 -80t-82.5 -31q-51 0 -83 31.5t-32 81.5q0 47 33 78
t82 31z" />
    <glyph glyph-name="uni1E24" unicode="&#x1e24;" horiz-adv-x="1466" 
d="M185 0v1462h180v-628h737v628h180v-1462h-180v687h-737v-687h-180zM733 -145q50 0 82.5 -31t32.5 -80t-32.5 -80t-82.5 -31q-51 0 -83 31.5t-32 81.5q0 47 32.5 78t82.5 31z" />
    <glyph glyph-name="uni1E25" unicode="&#x1e25;" horiz-adv-x="1169" 
d="M152 0v1569h173v-717q111 142 324 142q233 0 323 -165q53 -96 53 -307v-522h-173v506q0 161 -38 236q-60 116 -210 116q-166 0 -235 -134q-44 -85 -44 -275v-449h-173zM589 -145q50 0 82.5 -31t32.5 -80t-32.5 -80t-82.5 -31q-51 0 -83 31.5t-32 81.5q0 47 32.5 78
t82.5 31z" />
    <glyph glyph-name="uni1E44" unicode="&#x1e44;" horiz-adv-x="1575" 
d="M185 0v1467h129l911 -1168v1163h166v-1477h-114l-926 1195v-1180h-166zM788 1880q50 0 82.5 -31t32.5 -80q0 -48 -32.5 -79.5t-82.5 -31.5q-51 0 -83 31.5t-32 81.5q0 47 33 78t82 31z" />
    <glyph glyph-name="uni1E45" unicode="&#x1e45;" horiz-adv-x="1160" 
d="M152 0v973h158l8 -127q109 149 326 149q240 0 325 -173q48 -97 48 -299v-523h-173v507q0 159 -33 235q-50 117 -202 117q-169 0 -239 -134q-45 -86 -45 -276v-449h-173zM584 1391q50 0 82.5 -31t32.5 -80t-32.5 -80t-82.5 -31q-51 0 -83 31.5t-32 81.5q0 47 33 78t82 31z
" />
    <glyph glyph-name="uni1E5A" unicode="&#x1e5a;" horiz-adv-x="1193" 
d="M359 645v-645h-174v1462h381q253 0 370 -86q144 -107 144 -315q0 -141 -75 -237q-100 -126 -360 -155l525 -669h-197l-501 645h-113zM359 782h186q187 0 261 61q95 77 95 212q0 68 -29.5 127t-79.5 92q-68 45 -232 45h-201v-537zM678 -145q50 0 82.5 -31t32.5 -80
t-32.5 -80t-82.5 -31q-51 0 -83 31.5t-32 81.5q0 47 32.5 78t82.5 31z" />
    <glyph glyph-name="uni1E5B" unicode="&#x1e5b;" horiz-adv-x="717" 
d="M153 0v973h158l8 -135q45 59 78 85q89 71 211 71q26 0 76 -6l-27 -148q-47 12 -83 12q-65 0 -120.5 -34.5t-84.5 -93.5q-43 -85 -43 -275v-449h-173zM248 -145q50 0 82.5 -31t32.5 -80t-32.5 -80t-82.5 -31q-51 0 -83 31.5t-32 81.5q0 47 32.5 78t82.5 31z" />
    <glyph glyph-name="uni1E62" unicode="&#x1e62;" horiz-adv-x="1141" 
d="M77 111l67 137q52 -41 113 -65q139 -57 308 -57t256 75q74 64 74 174q0 118 -83 185q-39 32 -79.5 51.5t-186.5 75.5q-185 72 -272 147q-122 108 -122 283q0 172 118 271q114 96 309 96q215 0 390 -106l-63 -130q-152 89 -323 89q-122 0 -191 -52q-77 -57 -77 -156
q0 -106 81 -173q38 -31 84 -54t149 -61q140 -52 211 -90.5t125 -91.5q100 -99 100 -265q0 -90 -30.5 -170t-84.5 -129q-126 -117 -393 -117q-304 0 -480 133zM535 -145q50 0 82.5 -31t32.5 -80t-32.5 -80t-82.5 -31q-51 0 -83 31.5t-32 81.5q0 47 32.5 78t82.5 31z" />
    <glyph glyph-name="uni1E63" unicode="&#x1e63;" horiz-adv-x="865" 
d="M65 66l61 130q113 -82 279 -82q213 0 213 152q0 63 -46 93q-26 17 -52 27t-154 52q-136 45 -196.5 113t-60.5 176q0 129 83 198q85 70 238 70q173 0 311 -92l-68 -118q-112 74 -233 74q-171 0 -171 -124q0 -71 64 -106q32 -18 159 -61q140 -47 204 -98q83 -68 83 -198
q0 -144 -94 -219t-274 -75q-208 0 -346 88zM422 -145q50 0 82.5 -31t32.5 -80t-32.5 -80t-82.5 -31q-51 0 -83 31.5t-32 81.5q0 47 32.5 78t82.5 31z" />
    <glyph glyph-name="uni1E6C" unicode="&#x1e6c;" horiz-adv-x="981" 
d="M400 0v1315h-402v147h986v-147h-403v-1315h-181zM491 -145q50 0 82.5 -31t32.5 -80t-32.5 -80t-82.5 -31q-51 0 -83 31.5t-32 81.5q0 47 32.5 78t82.5 31z" />
    <glyph glyph-name="uni1E6D" unicode="&#x1e6d;" horiz-adv-x="698" 
d="M207 834h-150v139h155l10 295l155 29v-324h276v-139h-276v-473q0 -136 33.5 -183.5t130.5 -47.5q41 0 91 16l31 -139q-85 -21 -165 -21q-186 0 -248 106q-25 43 -34 102.5t-9 179.5v460zM360 -145q50 0 82.5 -31t32.5 -80t-32.5 -80t-82.5 -31q-51 0 -83 31.5t-32 81.5
q0 47 32.5 78t82.5 31z" />
    <glyph glyph-name="Wgrave" unicode="&#x1e80;" horiz-adv-x="2028" 
d="M458 -8l-400 1470h191l296 -1220l418 1220h102l418 -1220l296 1220h191l-400 -1470h-154l-402 1181l-402 -1181h-154zM1019 1638l-242 297h209l152 -297h-119z" />
    <glyph glyph-name="wgrave" unicode="&#x1e81;" horiz-adv-x="1551" 
d="M378 -8l-329 981h183l214 -757l288 757h83l289 -757l213 757h183l-329 -981h-120l-277 723l-278 -723h-120zM780 1148l-242 297h209l152 -297h-119z" />
    <glyph glyph-name="Wacute" unicode="&#x1e82;" horiz-adv-x="2028" 
d="M458 -8l-400 1470h191l296 -1220l418 1220h102l418 -1220l296 1220h191l-400 -1470h-154l-402 1181l-402 -1181h-154zM901 1638l151 297h210l-242 -297h-119z" />
    <glyph glyph-name="wacute" unicode="&#x1e83;" horiz-adv-x="1551" 
d="M378 -8l-329 981h183l214 -757l288 757h83l289 -757l213 757h183l-329 -981h-120l-277 723l-278 -723h-120zM662 1148l151 297h210l-242 -297h-119z" />
    <glyph glyph-name="Wdieresis" unicode="&#x1e84;" horiz-adv-x="2028" 
d="M458 -8l-400 1470h191l296 -1220l418 1220h102l418 -1220l296 1220h191l-400 -1470h-154l-402 1181l-402 -1181h-154zM794 1881q50 0 82 -31t32 -79q0 -49 -32 -80t-82 -31t-82 31.5t-32 80.5q0 47 32.5 78t81.5 31zM1235 1881q50 0 82 -31t32 -79q0 -49 -32 -80t-81 -31
q-51 0 -83 31t-32 81q0 47 32.5 78t81.5 31z" />
    <glyph glyph-name="wdieresis" unicode="&#x1e85;" horiz-adv-x="1551" 
d="M378 -8l-329 981h183l214 -757l288 757h83l289 -757l213 757h183l-329 -981h-120l-277 723l-278 -723h-120zM569 1383q48 0 78 -28.5t30 -74.5t-30 -75t-77 -29q-48 0 -78 29.5t-30 75.5q0 44 30.5 73t76.5 29zM981 1383q48 0 78 -28.5t30 -74.5t-30 -75t-77 -29
q-48 0 -78 29.5t-30 75.5q0 45 30.5 73.5t76.5 28.5z" />
    <glyph glyph-name="uni1E92" unicode="&#x1e92;" horiz-adv-x="1150" 
d="M44 0v81l781 1234h-691v147h912v-80l-775 -1234h816v-148h-1043zM565 -145q50 0 82.5 -31t32.5 -80t-32.5 -80t-82.5 -31q-51 0 -83 31.5t-32 81.5q0 47 32.5 78t82.5 31z" />
    <glyph glyph-name="uni1E93" unicode="&#x1e93;" horiz-adv-x="959" 
d="M66 0v69l558 765h-505v139h733v-70l-558 -764h592v-139h-820zM476 -145q50 0 82.5 -31t32.5 -80t-32.5 -80t-82.5 -31q-51 0 -83 31.5t-32 81.5q0 47 32.5 78t82.5 31z" />
    <glyph glyph-name="uni1E9E" unicode="&#x1e9e;" horiz-adv-x="1393" 
d="M186 0v858q0 170 17.5 269.5t59.5 165.5q60 95 152 140q107 51 280 51q145 0 256.5 -36t233.5 -122v-109l-270 -349q115 -21 192 -70q191 -122 191 -367q0 -189 -106 -310q-120 -136 -375 -136q-211 0 -342 73l72 139q110 -64 260 -64q161 0 239 93q71 85 71 215
q0 122 -69 205q-52 62 -119.5 86.5t-189.5 26.5l-21 96l292 383q-124 99 -320 99q-137 0 -208 -51q-65 -47 -90.5 -127t-25.5 -236v-923h-180z" />
    <glyph glyph-name="Ygrave" unicode="&#x1ef2;" horiz-adv-x="1188" 
d="M504 0v596l-503 866h205l388 -702l388 702h205l-503 -866v-596h-180zM599 1638l-242 297h209l152 -297h-119z" />
    <glyph glyph-name="ygrave" unicode="&#x1ef3;" horiz-adv-x="959" 
d="M398 -1l-405 974h183l300 -779l256 779h180l-389 -1055q-63 -170 -83.5 -215.5t-57.5 -95.5q-85 -118 -250 -118q-103 0 -185 34l33 134q61 -35 146 -35q52 0 89.5 27t71.5 91q22 40 71 161zM477 1148l-242 297h209l152 -297h-119z" />
    <glyph glyph-name="uni2002" unicode="&#x2002;" horiz-adv-x="1024" 
 />
    <glyph glyph-name="uni2003" unicode="&#x2003;" horiz-adv-x="2048" 
 />
    <glyph glyph-name="uni2004" unicode="&#x2004;" horiz-adv-x="683" 
 />
    <glyph glyph-name="uni2005" unicode="&#x2005;" horiz-adv-x="512" 
 />
    <glyph glyph-name="uni2006" unicode="&#x2006;" horiz-adv-x="137" 
 />
    <glyph glyph-name="uni2007" unicode="&#x2007;" 
 />
    <glyph glyph-name="uni2009" unicode="&#x2009;" horiz-adv-x="256" 
 />
    <glyph glyph-name="uni200A" unicode="&#x200a;" horiz-adv-x="68" 
 />
    <glyph glyph-name="uni2011" unicode="&#x2011;" horiz-adv-x="710" 
d="M102 616v140h505v-140h-505z" />
    <glyph glyph-name="figuredash" unicode="&#x2012;" 
d="M173 616v140h825v-140h-825z" />
    <glyph glyph-name="endash" unicode="&#x2013;" 
d="M173 616v140h825v-140h-825z" />
    <glyph glyph-name="emdash" unicode="&#x2014;" 
d="M-66 616v140h1303v-140h-1303z" />
    <glyph glyph-name="afii00208" unicode="&#x2015;" 
d="M-66 616v140h1303v-140h-1303z" />
    <glyph glyph-name="underscoredbl" unicode="&#x2017;" horiz-adv-x="1095" 
d="M-41 -250v99h1177v-99h-1177zM-41 -468v99h1177v-99h-1177z" />
    <glyph glyph-name="quoteleft" unicode="&#x2018;" horiz-adv-x="405" 
d="M221 1023h-193l209 546h140z" />
    <glyph glyph-name="quoteright" unicode="&#x2019;" horiz-adv-x="405" 
d="M184 1569h193l-210 -546h-139z" />
    <glyph glyph-name="quotesinglbase" unicode="&#x201a;" horiz-adv-x="405" 
d="M166 214h193l-210 -545h-139z" />
    <glyph glyph-name="quotereversed" unicode="&#x201b;" horiz-adv-x="502" 
d="M221 1569l156 -546h-140l-209 546h193z" />
    <glyph glyph-name="quotedblleft" unicode="&#x201c;" horiz-adv-x="746" 
d="M562 1023h-193l210 546h139zM221 1023h-193l209 546h140z" />
    <glyph glyph-name="quotedblright" unicode="&#x201d;" horiz-adv-x="746" 
d="M184 1569h193l-210 -546h-139zM526 1569h192l-209 -546h-140z" />
    <glyph glyph-name="quotedblbase" unicode="&#x201e;" horiz-adv-x="746" 
d="M166 214h193l-210 -545h-139zM508 214h192l-209 -545h-140z" />
    <glyph glyph-name="dagger" unicode="&#x2020;" 
d="M502 838h-329v138h329v486h167v-486h329v-138h-329v-1240h-167v1240z" />
    <glyph glyph-name="daggerdbl" unicode="&#x2021;" 
d="M502 838h-329v138h329v486h167v-486h329v-138h-329v-490h329v-138h-329v-612h-167v612h-329v138h329v490z" />
    <glyph glyph-name="bullet" unicode="&#x2022;" 
d="M586 1038q183 0 291 -130q81 -96 81 -225q0 -128 -81 -225q-107 -129 -290 -129q-185 0 -292 129q-81 97 -81 229q0 128 81 221q111 130 291 130z" />
    <glyph glyph-name="ellipsis" unicode="&#x2026;" horiz-adv-x="1545" 
d="M257 223q57 0 92 -33.5t35 -88.5q0 -56 -34.5 -89.5t-92.5 -33.5t-92.5 33.5t-34.5 90.5q0 54 35 87.5t92 33.5zM772 223q57 0 92 -33.5t35 -88.5q0 -56 -35 -89.5t-92 -33.5q-58 0 -92.5 33.5t-34.5 90.5q0 54 35 87.5t92 33.5zM1287 223q57 0 92 -33.5t35 -88.5
q0 -56 -34.5 -89.5t-91.5 -33.5q-59 0 -93.5 33.5t-34.5 90.5q0 54 35 87.5t92 33.5z" />
    <glyph glyph-name="perthousand" unicode="&#x2030;" horiz-adv-x="2831" 
d="M451 1484q193 0 285 -115q80 -102 80 -281q0 -394 -368 -394q-363 0 -363 400q0 174 80 275q93 115 286 115zM450 1374q-221 0 -221 -283q0 -287 224 -287q219 0 219 284q0 286 -222 286zM1531 770q194 0 286 -115q80 -102 80 -281q0 -394 -367 -394q-364 0 -364 400
q0 174 80 275q92 115 285 115zM1532 660q-222 0 -222 -283q0 -287 222 -287q221 0 221 284q0 286 -221 286zM2381 770q193 0 285 -115q80 -101 80 -281q0 -394 -367 -394q-363 0 -363 400q0 174 80 275q92 115 285 115zM2381 660q-221 0 -221 -283q0 -287 222 -287
q220 0 220 284q0 286 -221 286zM487 0l856 1462h152l-855 -1462h-153z" />
    <glyph glyph-name="guilsinglleft" unicode="&#x2039;" horiz-adv-x="620" 
d="M282 491l256 -340l-92 -66l-340 390v31l340 390l92 -65z" />
    <glyph glyph-name="guilsinglright" unicode="&#x203a;" horiz-adv-x="620" 
d="M338 491l-256 340l92 65l340 -390v-31l-340 -390l-92 66z" />
    <glyph glyph-name="uni203E" unicode="&#x203e;" horiz-adv-x="1095" 
d="M-41 1679v140h1177v-140h-1177z" />
    <glyph glyph-name="slash.aalt" unicode="&#x2044;" horiz-adv-x="224" 
d="M-392 0l855 1462h153l-856 -1462h-152z" />
    <glyph glyph-name="zerosuperior" unicode="&#x2070;" horiz-adv-x="778" 
d="M389 1680q193 0 273 -141q63 -110 63 -312q0 -220 -75 -331q-82 -121 -261 -121q-192 0 -273 141q-63 110 -63 316q0 216 75 327q82 121 261 121zM388 1578q-204 0 -204 -347q0 -354 204 -354q205 0 205 351q0 350 -205 350z" />
    <glyph glyph-name="foursuperior" unicode="&#x2074;" horiz-adv-x="733" 
d="M470 788v184h-432v71l300 624h139l-295 -593h288v272h120v-272h109v-102h-109v-184h-120z" />
    <glyph glyph-name="fivesuperior" unicode="&#x2075;" horiz-adv-x="720" 
d="M80 1226l76 441h451v-103h-348l-41 -228q63 23 149 23q152 0 223 -81q64 -73 64 -198q0 -149 -85.5 -227t-249.5 -78q-176 0 -298 57l42 106q96 -60 247 -60q99 0 154 53q53 53 53 141q0 89 -49 137.5t-139 48.5q-91 0 -159 -49z" />
    <glyph glyph-name="sixsuperior" unicode="&#x2076;" horiz-adv-x="751" 
d="M268 1326q70 18 125 18q128 0 208 -63q101 -80 101 -217q0 -135 -87 -211q-90 -78 -241 -78q-152 0 -239.5 77.5t-87.5 213.5q0 130 84 266t286 335h150q-206 -206 -299 -341zM375 1258q-89 0 -143 -52t-54 -138q0 -85 47 -137q54 -59 150 -59q89 0 142.5 52.5
t53.5 140.5t-53.5 140.5t-142.5 52.5z" />
    <glyph glyph-name="sevensuperior" unicode="&#x2077;" horiz-adv-x="648" 
d="M71 788l388 776h-423v103h574v-60l-384 -819h-155z" />
    <glyph glyph-name="eightsuperior" unicode="&#x2078;" horiz-adv-x="735" 
d="M198 1251q-127 52 -127 191q0 111 77 174q79 64 220 64t218.5 -63t77.5 -177q0 -137 -127 -189q162 -66 162 -221q0 -120 -88 -187q-90 -68 -243 -68q-154 0 -244 68q-88 67 -88 188q0 154 162 220zM368 1586q-92 0 -137 -44q-38 -37 -38 -100q0 -71 46.5 -111.5
t128.5 -40.5q81 0 127.5 40.5t46.5 110.5t-45 107.5t-129 37.5zM368 1202q-91 0 -146 -45t-55 -121q0 -78 53 -121.5t148 -43.5q94 0 147 43.5t53 119.5q0 77 -54 122.5t-146 45.5z" />
    <glyph glyph-name="ninesuperior" unicode="&#x2079;" horiz-adv-x="751" 
d="M484 1129q-71 -18 -126 -18q-127 0 -207 63q-101 80 -101 216t87 212q90 78 241 78q152 0 239.5 -77.5t87.5 -213.5q0 -129 -87 -270t-283 -331h-150q211 212 299 341zM377 1583q-90 0 -143 -52.5t-53 -140.5q0 -82 47 -134q54 -59 150 -59q88 0 142 52t54 138t-47 137
q-54 59 -150 59z" />
    <glyph glyph-name="zeroinferior" unicode="&#x2080;" horiz-adv-x="778" 
d="M389 687q193 0 273 -141q63 -110 63 -311q0 -221 -75 -332q-82 -121 -261 -121q-192 0 -273 141q-63 110 -63 317q0 215 75 326q82 121 261 121zM388 585q-204 0 -204 -347q0 -354 204 -354q205 0 205 351q0 350 -205 350z" />
    <glyph glyph-name="oneinferior" unicode="&#x2081;" horiz-adv-x="451" 
d="M189 -205v740l-147 -65l-40 97l245 109h75v-881h-133z" />
    <glyph glyph-name="twoinferior" unicode="&#x2082;" horiz-adv-x="691" 
d="M5 -205v68l321 335q129 135 129 237q0 68 -48 108.5t-128 40.5q-107 0 -204 -57l-41 99q118 61 260 61q138 0 215.5 -64.5t77.5 -179.5q0 -150 -153 -299l-253 -247h432v-102h-608z" />
    <glyph glyph-name="threeinferior" unicode="&#x2083;" horiz-adv-x="697" 
d="M144 204v101h122q101 0 144 36q49 40 49 107q0 62 -49 99t-132 37q-102 0 -195 -58l-47 90q109 71 265 71q137 0 214 -60q78 -59 78 -173q0 -68 -23.5 -107t-94.5 -88q11 -7 16 -10q70 -42 91 -75q33 -53 33 -132q0 -113 -67 -180q-80 -80 -253 -80q-179 0 -286 57
l41 101q93 -55 236 -55q98 0 146 47q46 44 46 114q0 86 -74 132q-41 26 -131 26h-129z" />
    <glyph glyph-name="fourinferior" unicode="&#x2084;" horiz-adv-x="733" 
d="M470 -205v185h-432v71l300 623h139l-295 -592h288v271h120v-271h109v-102h-109v-185h-120z" />
    <glyph glyph-name="fiveinferior" unicode="&#x2085;" horiz-adv-x="720" 
d="M80 233l76 441h451v-103h-348l-41 -228q63 23 149 23q152 0 223 -81q64 -73 64 -198q0 -150 -85.5 -227.5t-249.5 -77.5q-176 0 -298 57l42 106q96 -60 247 -60q99 0 154 53q53 53 53 141q0 89 -49 137.5t-139 48.5q-91 0 -159 -49z" />
    <glyph glyph-name="sixinferior" unicode="&#x2086;" horiz-adv-x="751" 
d="M268 333q70 18 125 18q128 0 208 -63q101 -80 101 -217q0 -135 -87 -211q-90 -78 -241 -78q-152 0 -239.5 77.5t-87.5 213.5q0 130 82 263.5t288 337.5h150q-206 -206 -299 -341zM375 265q-89 0 -143 -52t-54 -138q0 -85 47 -137q54 -59 150 -59q89 0 142.5 52.5
t53.5 140.5t-53.5 140.5t-142.5 52.5z" />
    <glyph glyph-name="seveninferior" unicode="&#x2087;" horiz-adv-x="648" 
d="M71 -205l388 776h-423v103h574v-60l-384 -819h-155z" />
    <glyph glyph-name="eightinferior" unicode="&#x2088;" horiz-adv-x="735" 
d="M198 258q-127 52 -127 191q0 111 77 174q79 64 220 64t218.5 -63t77.5 -178q0 -136 -127 -188q162 -66 162 -221q0 -120 -88 -187q-90 -68 -243 -68q-154 0 -244 68q-88 67 -88 188q0 153 162 220zM368 593q-92 0 -137 -44q-38 -37 -38 -100q0 -71 46.5 -111.5
t128.5 -40.5q81 0 127.5 40.5t46.5 110.5t-45 107.5t-129 37.5zM368 209q-91 0 -146 -45t-55 -121q0 -78 53 -121.5t148 -43.5q94 0 147 43.5t53 119.5q0 77 -54 122.5t-146 45.5z" />
    <glyph glyph-name="nineinferior" unicode="&#x2089;" horiz-adv-x="751" 
d="M484 136q-70 -18 -126 -18q-127 0 -207 63q-101 80 -101 216t87 212q90 78 241 78q152 0 239.5 -77.5t87.5 -213.5q0 -129 -87.5 -271.5t-282.5 -329.5h-150q211 213 299 341zM377 590q-90 0 -143 -52.5t-53 -140.5q0 -82 47 -134q54 -59 150 -59q88 0 142 52t54 138
t-47 137q-54 59 -150 59z" />
    <glyph glyph-name="franc" unicode="&#x20a3;" horiz-adv-x="1538" 
d="M174 0v1462h713v-147h-533v-495h485v-147h-485v-673h-180zM995 0v973h158l7 -151q45 64 79 93q89 79 212 79q22 0 70 -5l-22 -149q-48 12 -83 12q-66 0 -121 -34.5t-84 -93.5q-43 -85 -43 -275v-449h-173z" />
    <glyph glyph-name="lira" unicode="&#x20a4;" 
d="M133 0v102q104 78 141 128q65 89 65 185q0 38 -12 110h-217v100h199l-43 174h-156v100h131q-16 92 -16 164q0 207 119 320q106 101 314 101q235 0 394 -106l-64 -130q-124 89 -303 89q-286 0 -286 -269q0 -72 18 -169h446v-100h-423l45 -174h378v-100h-360q11 -68 11 -98
q0 -92 -64 -187q-11 -16 -81 -96h696v-144h-932z" />
    <glyph glyph-name="peseta" unicode="&#x20a7;" horiz-adv-x="1239" 
d="M257 1062v400h292q170 0 279 -43q158 -63 215 -240q16 -53 22 -117h141v-101h-141q-27 -407 -495 -407h-148v-554h-165v961h-147v101h147zM422 1062h475q-9 108 -61 170q-42 51 -109 72.5t-179 21.5h-126v-264zM422 690h126q173 0 256 64.5t93 206.5h-475v-271z" />
    <glyph glyph-name="Euro" unicode="&#x20ac;" 
d="M195 512h-193l36 111h145q-4 71 -4 97q0 33 3 76h-180l36 111h154q31 208 130 349q160 228 466 228q231 0 387 -101l-52 -136q-136 90 -308 90q-237 0 -344 -168q-75 -115 -94 -262h609l-36 -111h-581q-4 -56 -4 -82q0 -31 4 -91h508l-36 -111h-461q16 -114 67 -202
q109 -186 353 -186q213 0 366 115l59 -139q-72 -56 -191.5 -89.5t-245.5 -33.5q-250 0 -401.5 137t-191.5 398z" />
    <glyph glyph-name="uni20B4" unicode="&#x20b4;" 
d="M86 670l26 96l209 -53l245 118l-409 103l26 97l499 -130q72 50 99.5 95.5t27.5 116.5q0 106 -69 167.5t-189 61.5q-165 0 -253 -143l-135 76q74 112 165.5 161t225.5 49q191 0 304 -103q114 -103 114 -279q0 -159 -96 -261l206 -53l-25 -96l-265 69l-254 -116l474 -121
l-26 -96l-563 146q-56 -41 -78.5 -86t-22.5 -114q0 -122 68 -188t192 -66q117 0 187 46.5t110 151.5l157 -72q-26 -77 -77 -132q-69 -75 -149 -104q-91 -34 -216 -34q-235 0 -344 120q-97 107 -97 283q0 85 21.5 142t72.5 107z" />
    <glyph glyph-name="uni2101" unicode="&#x2101;" horiz-adv-x="1954" 
d="M633 814h-401l-93 -226h-148l395 887h94l395 -887h-148zM604 913l-171 404l-172 -404h343zM1264 52l31 120q131 -76 295 -76q102 0 157 46q46 39 46 101q0 69 -68 107q-35 19 -157 56q-142 43 -201 99.5t-59 148.5q0 114 77 176t220 62q130 0 253 -47l-27 -108
q-108 49 -213 49q-83 0 -130 -33.5t-47 -92.5q0 -54 39 -84t158 -67q122 -38 184 -76q106 -66 106 -187q0 -112 -73 -182q-75 -73 -253 -73q-202 0 -338 61zM617 0l723 1462h141l-723 -1462h-141z" />
    <glyph glyph-name="afii61248" unicode="&#x2105;" horiz-adv-x="2322" 
d="M786 746l25 -117q-108 -52 -270 -52q-226 0 -352 123q-125 121 -125 328q0 206 125 329q124 121 348 121q136 0 255 -46l-26 -107q-95 47 -219 47q-169 0 -261 -102q-85 -94 -85 -245q0 -148 85 -240q93 -102 258 -102q133 0 242 63zM1774 889q225 0 361 -136
q122 -123 122 -314q0 -192 -122 -315q-135 -136 -359 -136q-228 0 -362 136q-123 124 -123 321q0 188 123 308q138 136 360 136zM1774 790q-161 0 -260 -109q-86 -96 -86 -238q0 -151 86 -247q98 -109 261 -109q161 0 259 109q86 96 86 242q0 150 -86 243q-101 109 -260 109
zM618 2l853 1458h140l-852 -1458h-141z" />
    <glyph glyph-name="afii61289" unicode="&#x2113;" horiz-adv-x="975" 
d="M483 590q-2 -8 -4 -20q-21 -101 -44.5 -262.5t-23.5 -201.5q0 -68 56 -68q36 0 65 30.5t63 104.5q15 31 29 31t14 -14q0 -35 -38 -101q-74 -126 -172 -126q-63 0 -99 44.5t-36 121.5q0 80 28 309l2 12l3 28q-17 -18 -28 -29q-31 -31 -71.5 -65t-46.5 -34q-4 0 -9 6.5
t-5 11.5q0 14 43 52q24 21 127 131q43 237 108 460q75 261 159 379q67 96 154 96q55 0 88 -43.5t33 -114.5q0 -190 -133 -414q-78 -132 -247 -308q-8 -9 -15 -16zM493 653l22 24q161 175 234 339q78 176 78 314q0 45 -20 73t-52 28q-33 0 -64 -30.5t-51 -82.5
q-63 -165 -139 -619l-3 -14z" />
    <glyph glyph-name="uni2117" unicode="&#x2117;" horiz-adv-x="1909" 
d="M881 628v-336h-126v866h201q165 0 241 -56q94 -69 94 -209q0 -265 -322 -265h-88zM881 724h81q105 0 150 39q56 47 56 130q0 93 -67 140q-43 29 -139 29h-81v-338zM955 1552q369 0 610 -248q224 -230 224 -573q0 -342 -224 -573q-240 -248 -608 -248q-372 0 -612 248
q-224 231 -224 584q0 227 111 415q110 188 310 296q184 99 413 99zM955 1458q-318 0 -526 -212q-201 -205 -201 -505q0 -319 201 -525q207 -212 528 -212q317 0 524 212q201 206 201 515q0 315 -201 515q-213 212 -526 212z" />
    <glyph glyph-name="trademark" unicode="&#x2122;" horiz-adv-x="1776" 
d="M260 671v681h-236v110h612v-110h-238v-681h-138zM682 671l119 791h107l282 -608l282 608h107l119 -791h-132l-83 563l-257 -562h-71l-257 562l-84 -563h-132z" />
    <glyph glyph-name="Omega" unicode="&#x2126;" horiz-adv-x="1741" 
d="M156 0v147h394v66q-149 57 -237 137q-197 180 -197 454q0 185 91 346q189 334 663 334q366 0 568 -205q92 -94 142 -227q45 -120 45 -248q0 -294 -222 -475q-80 -66 -212 -116v-66h394v-147h-534v281q133 40 212 106q74 62 120 155q56 115 56 252q0 234 -151 389
q-150 154 -417 154q-268 0 -418 -154q-151 -155 -151 -390q0 -131 52 -242t146 -181q72 -53 190 -89v-281h-534z" />
    <glyph glyph-name="estimated" unicode="&#x212e;" horiz-adv-x="1647" 
d="M1492 700l-1085 1v-292q44 -114 92 -170q50 -58 131 -88q96 -36 205 -36q232 0 366 137q63 64 88 132h154q-34 -96 -62 -145.5t-74 -94.5q-81 -78 -203 -122q-123 -44 -269 -44q-234 0 -399 110q-283 189 -283 634q0 369 195 575q178 188 482 188q243 0 415 -123
q196 -141 235 -436q11 -85 12 -226zM1262 820v253q-107 276 -426 276q-158 0 -254.5 -62t-174.5 -214v-253h855z" />
    <glyph glyph-name="onethird" unicode="&#x2153;" horiz-adv-x="1837" 
d="M367 584v739l-147 -65l-40 97l245 109h75v-880h-133zM1184 409v101h122q101 0 144 36q49 39 49 106q0 63 -48.5 100t-131.5 37q-104 0 -196 -58l-47 90q110 71 266 71q136 0 214 -60q77 -59 77 -173q0 -68 -23.5 -107.5t-94.5 -87.5q11 -7 16 -10q70 -42 91 -75
q33 -53 33 -132q0 -113 -67 -180q-80 -80 -252 -80q-181 0 -287 57l41 101q95 -55 236 -55q98 0 147 47q45 44 45 114q0 86 -74 132q-41 26 -131 26h-129zM308 0l855 1462h152l-855 -1462h-152z" />
    <glyph glyph-name="twothirds" unicode="&#x2154;" horiz-adv-x="1837" 
d="M63 584v68l320 334q60 63 94.5 126.5t34.5 110.5q0 68 -47.5 108.5t-128.5 40.5q-108 0 -203 -56l-41 99q116 60 259 60t222 -70q71 -64 71 -174q0 -149 -152 -298l-254 -247h423v-102h-598zM1228 409v101h122q100 0 143 36q49 40 49 106q0 63 -48.5 100t-131.5 37
q-102 0 -195 -58l-47 90q109 71 265 71q136 0 214 -60q77 -59 77 -173q0 -68 -23.5 -107.5t-93.5 -87.5q11 -7 16 -10q70 -43 90 -75q33 -53 33 -131q0 -114 -67 -181q-80 -80 -252 -80q-180 0 -286 57l41 101q95 -55 235 -55q98 0 147 47q45 44 45 114q0 86 -74 132
q-40 26 -130 26h-129zM408 0l855 1462h152l-855 -1462h-152z" />
    <glyph glyph-name="uni2155" unicode="&#x2155;" horiz-adv-x="1837" 
d="M367 584v739l-147 -65l-40 97l245 109h75v-880h-133zM1105 438l76 441h451v-103h-348l-41 -228q63 23 149 23q152 0 223 -81q64 -73 64 -199q0 -149 -85.5 -226.5t-249.5 -77.5q-174 0 -298 57l42 105q97 -59 247 -59q99 0 154 53q53 53 53 141q0 89 -49 137.5t-139 48.5
q-91 0 -159 -49zM344 0l855 1462h152l-855 -1462h-152z" />
    <glyph glyph-name="uni2156" unicode="&#x2156;" horiz-adv-x="1837" 
d="M63 584v68l321 334q129 135 129 237q0 68 -48 108.5t-128 40.5q-109 0 -204 -56l-41 99q116 60 260 60q138 0 215.5 -64.5t77.5 -179.5q0 -149 -153 -298l-253 -247h432v-102h-608zM1144 438l76 441h451v-103h-348l-41 -228q63 23 149 23q152 0 223 -81q64 -73 64 -198
q0 -150 -85.5 -227.5t-249.5 -77.5q-174 0 -298 57l42 105q97 -59 247 -59q99 0 154 53q53 53 53 141q0 89 -49 137.5t-139 48.5q-91 0 -159 -49zM414 0l856 1462h152l-855 -1462h-153z" />
    <glyph glyph-name="uni2157" unicode="&#x2157;" horiz-adv-x="1837" 
d="M203 992v101h122q101 0 144 36q49 40 49 107q0 62 -49 99t-132 37q-101 0 -195 -58l-47 90q109 71 265 71q137 0 214 -60q78 -59 78 -173q0 -69 -23.5 -107.5t-94.5 -87.5q11 -7 16 -10q70 -43 91 -75q33 -53 33 -131q0 -114 -67 -181q-80 -80 -253 -80q-179 0 -286 57
l41 101q93 -55 236 -55q98 0 146 47q46 44 46 114q0 86 -74 132q-41 26 -131 26h-129zM1144 438l76 441h451v-103h-348l-41 -228q63 23 149 23q152 0 223 -81q64 -73 64 -199q0 -149 -86 -226.5t-250 -77.5q-173 0 -298 57l43 105q97 -59 247 -59q99 0 153 53t54 141
q0 89 -49 137.5t-139 48.5q-92 0 -159 -49zM405 0l855 1462h152l-855 -1462h-152z" />
    <glyph glyph-name="uni2158" unicode="&#x2158;" horiz-adv-x="1837" 
d="M506 584v184h-432v71l300 623h139l-295 -592h288v272h120v-272h109v-102h-109v-184h-120zM1149 438l76 441h451v-103h-348l-41 -228q62 23 149 23q287 0 287 -280q0 -149 -85.5 -226.5t-250.5 -77.5q-173 0 -297 57l42 105q97 -59 247 -59q99 0 153 53t54 140
q0 90 -49 138.5t-139 48.5q-91 0 -159 -49zM414 0l856 1462h152l-855 -1462h-153z" />
    <glyph glyph-name="uni2159" unicode="&#x2159;" horiz-adv-x="1837" 
d="M368 584v739l-147 -65l-40 97l245 109h75v-880h-133zM1273 538q70 18 126 18q128 0 208 -63q101 -80 101 -217q0 -135 -88 -211q-90 -78 -240 -78q-153 0 -240.5 77.5t-87.5 213.5q0 129 85.5 268t285.5 333h150q-207 -208 -300 -341zM1380 470q-90 0 -144 -52t-54 -138
q0 -85 47 -137q54 -59 151 -59q90 0 143.5 52.5t53.5 140.5t-53.5 140.5t-143.5 52.5zM363 0l856 1462h152l-856 -1462h-152z" />
    <glyph glyph-name="uni215A" unicode="&#x215a;" horiz-adv-x="1837" 
d="M123 1022l76 440h451v-103h-348l-41 -228q64 23 149 23q152 0 223 -81q64 -73 64 -198q0 -149 -85.5 -227t-249.5 -78q-178 0 -298 57l42 106q96 -60 247 -60q99 0 154 53q53 53 53 141q0 89 -49 137.5t-139 48.5t-159 -49zM1289 538q70 18 127 18q127 0 207 -63
q101 -80 101 -216t-87 -212q-90 -78 -241 -78q-152 0 -239.5 77.5t-87.5 213.5q0 129 86.5 270t283.5 331h150q-207 -208 -300 -341zM1397 470q-90 0 -143.5 -52t-53.5 -138q0 -85 47 -137q54 -59 150 -59q89 0 142.5 52.5t53.5 140.5t-53.5 140.5t-142.5 52.5zM414 0
l856 1462h152l-855 -1462h-153z" />
    <glyph glyph-name="oneeighth" unicode="&#x215b;" horiz-adv-x="1837" 
d="M342 584v739l-147 -65l-40 97l245 109h75v-880h-133zM1177 463q-128 52 -128 191q0 111 77 174q79 64 219 64q141 0 219 -62.5t78 -175.5q0 -139 -127 -191q162 -67 162 -221q0 -120 -88 -187q-90 -68 -243 -68q-154 0 -244 68q-88 67 -88 188q0 153 163 220zM1346 798
q-92 0 -137 -44q-38 -38 -38 -100q0 -71 46.5 -111.5t128.5 -40.5q81 0 127.5 40.5t46.5 110.5t-45 107.5t-129 37.5zM1346 414q-92 0 -146.5 -45t-54.5 -121q0 -78 52.5 -121.5t148.5 -43.5q94 0 147 43.5t53 119.5q0 77 -54 122.5t-146 45.5zM277 0l856 1462h152
l-856 -1462h-152z" />
    <glyph glyph-name="threeeighths" unicode="&#x215c;" horiz-adv-x="1837" 
d="M198 992v101h122q101 0 144 36q49 40 49 107q0 62 -49 99t-132 37q-101 0 -195 -58l-47 90q109 71 265 71q137 0 214 -60q78 -59 78 -173q0 -69 -23.5 -107.5t-94.5 -87.5q11 -7 16 -10q70 -43 91 -75q33 -53 33 -131q0 -114 -67 -181q-80 -80 -253 -80q-179 0 -286 57
l41 101q93 -55 236 -55q98 0 146 47q46 44 46 114q0 86 -74 132q-41 26 -131 26h-129zM1223 463q-127 52 -127 190q0 112 76 175q79 64 220 64t219 -62.5t78 -175.5q0 -140 -128 -191q163 -67 163 -221q0 -120 -89 -187q-90 -68 -243 -68t-243 68q-88 67 -88 188
q0 153 162 220zM1393 798q-92 0 -137 -44q-38 -38 -38 -99q0 -72 46.5 -112.5t128.5 -40.5q80 0 127 40.5t47 110.5t-45.5 107.5t-128.5 37.5zM1393 414q-92 0 -146.5 -45t-54.5 -121q0 -78 52.5 -121.5t148.5 -43.5q94 0 147 43.5t53 119.5q0 77 -54.5 122.5t-145.5 45.5z
M373 0l856 1462h152l-855 -1462h-153z" />
    <glyph glyph-name="fiveeighths" unicode="&#x215d;" horiz-adv-x="1837" 
d="M123 1022l76 440h451v-103h-348l-41 -228q64 23 149 23q152 0 223 -81q64 -73 64 -198q0 -149 -85.5 -227t-249.5 -78q-178 0 -298 57l42 106q96 -60 247 -60q99 0 154 53q53 53 53 141q0 89 -49 137.5t-139 48.5t-159 -49zM1245 463q-127 52 -127 191q0 111 77 174
q79 64 219 64t218 -62.5t78 -175.5q0 -139 -127 -191q162 -67 162 -221q0 -120 -88 -187q-90 -68 -243 -68t-244 68q-88 67 -88 187q0 154 163 221zM1414 798q-91 0 -136 -44q-38 -37 -38 -99q0 -72 46.5 -112.5t128.5 -40.5q80 0 126.5 40.5t46.5 110.5t-45 107.5
t-129 37.5zM1414 414q-91 0 -146 -45t-55 -121q0 -78 53 -121.5t149 -43.5q93 0 146.5 43.5t53.5 119.5q0 77 -54.5 122.5t-146.5 45.5zM395 0l855 1462h152l-855 -1462h-152z" />
    <glyph glyph-name="seveneighths" unicode="&#x215e;" horiz-adv-x="1837" 
d="M171 584l388 775h-423v103h574v-60l-384 -818h-155zM1198 463q-127 52 -127 191q0 111 77 174q78 64 219 64q140 0 218 -62.5t78 -175.5q0 -140 -127 -191q162 -67 162 -221q0 -120 -89 -187q-89 -68 -242 -68q-154 0 -244 68q-88 67 -88 188q0 153 163 220zM1367 798
q-91 0 -136 -44q-38 -37 -38 -100q0 -71 46.5 -111.5t128.5 -40.5q80 0 126.5 40.5t46.5 110.5t-45 107.5t-129 37.5zM1367 414q-92 0 -146.5 -45t-54.5 -121q0 -78 53 -121.5t149 -43.5q93 0 146 43.5t53 119.5q0 77 -54 122.5t-146 45.5zM289 0l855 1462h152l-855 -1462
h-152z" />
    <glyph glyph-name="partialdiff" unicode="&#x2202;" 
d="M879 843q-61 285 -244 438q-140 119 -367 196l46 110q309 -81 486 -257q156 -155 226 -387q57 -191 57 -402q0 -198 -62 -315q-68 -131 -205 -196q-109 -52 -241 -52q-221 0 -354 140q-130 138 -130 368q0 228 127 364q129 139 339 139q105 0 181 -34.5t141 -111.5z
M584 859q-154 0 -243 -116q-78 -100 -78 -256t78 -257q88 -116 244 -116q157 0 245 116q78 101 78 252q0 162 -78 261q-90 116 -246 116z" />
    <glyph glyph-name="emptyset" unicode="&#x2205;" 
d="M808 1242l135 220h140l-165 -280q101 -68 158 -184t57 -252q0 -229 -143 -379q-153 -160 -402 -160q-109 0 -211 35l-149 -242h-141l179 300q-83 61 -123 112q-105 133 -105 334q0 227 143 377q153 160 404 160q115 0 223 -41zM744 1117q-82 31 -162 31q-170 0 -280 -115
q-107 -112 -107 -283q0 -108 33 -175t114 -123zM841 1029l-401 -662q76 -25 150 -25q169 0 279 115q107 112 107 283q0 102 -31 168.5t-104 120.5z" />
    <glyph glyph-name="Delta" unicode="&#x2206;" 
d="M1224 0h-1277v81l574 1395h129l574 -1395v-81zM1017 147l-432 1108l-431 -1108h863z" />
    <glyph glyph-name="product" unicode="&#x220f;" horiz-adv-x="1469" 
d="M254 -492v1913h-182v147h1273v-147h-182v-1912h-180v1912h-549v-1913h-180z" />
    <glyph glyph-name="summation" unicode="&#x2211;" horiz-adv-x="1276" 
d="M142 -492v113l433 1033l-393 802v113h938v-147h-729l377 -764l-412 -1002h807v-148h-1021z" />
    <glyph glyph-name="minus" unicode="&#x2212;" 
d="M153 616v140h865v-140h-865z" />
    <glyph glyph-name="fraction" unicode="&#x2215;" horiz-adv-x="224" 
d="M-392 0l855 1462h153l-856 -1462h-152z" />
    <glyph glyph-name="uni2218" unicode="&#x2218;" 
d="M586 1012q171 0 271 -120q75 -89 75 -209q0 -119 -75 -208q-100 -120 -270 -120q-172 0 -272 120q-75 89 -75 212q0 118 75 205q103 120 271 120zM586 908q-118 0 -184 -83q-48 -60 -48 -139q0 -84 48 -144q66 -83 185 -83q118 0 183 83q48 60 48 141q0 82 -48 142
q-66 83 -184 83z" />
    <glyph glyph-name="periodcentered" unicode="&#x2219;" horiz-adv-x="515" 
d="M258 811q58 0 93 -34t35 -90t-35 -90t-93 -34q-59 0 -94 34t-35 92q0 54 35.5 88t93.5 34z" />
    <glyph glyph-name="radical" unicode="&#x221a;" 
d="M204 734h-155v132h263l232 -642l484 1595h631v-140h-507l-525 -1679h-144z" />
    <glyph glyph-name="infinity" unicode="&#x221e;" horiz-adv-x="1527" 
d="M763 566q-62 -77 -109 -119q-116 -101 -271 -101q-164 0 -246 105q-73 93 -73 235t73 235q82 105 249 105q85 0 151 -27t132 -89q45 -41 94 -103q65 78 111 118q115 101 270 101q164 0 246 -105q73 -93 73 -235t-73 -235q-82 -105 -246 -105q-115 0 -194.5 46t-186.5 174
zM696 686q-68 91 -96 118q-89 84 -192 84q-90 0 -139.5 -53t-49.5 -149t49.5 -149t139.5 -53q81 0 143.5 43.5t144.5 158.5zM831 686q82 -115 144.5 -158.5t143.5 -43.5q90 0 139.5 53t49.5 149t-49.5 149t-139.5 53q-110 0 -206 -98q-14 -15 -82 -104z" />
    <glyph glyph-name="integral" unicode="&#x222b;" horiz-adv-x="746" 
d="M109 -480l6 123q30 -10 52 -10q35 0 64.5 16t43.5 42q21 41 21 141v1378q0 188 45 263q63 106 199 106q38 0 89 -10l-6 -120q-42 8 -55 8q-62 0 -89 -46t-27 -151v-1359q0 -118 -9 -177t-33 -106q-59 -113 -192 -113q-42 0 -109 15z" />
    <glyph glyph-name="similar" unicode="&#x223c;" 
d="M206 552l-95 46q49 112 82 159q67 93 172 93q91 0 231 -74q97 -51 136 -66t75 -15q47 0 89.5 39t70.5 108l96 -46q-45 -109 -82 -155q-74 -91 -185 -91q-50 0 -99.5 17t-147.5 68q-135 70 -191 70q-80 0 -152 -153z" />
    <glyph glyph-name="uni2243" unicode="&#x2243;" 
d="M161 451v137h850v-137h-850zM212 725l-90 42q46 104 79 149q64 88 167 88q89 0 227 -72q92 -48 131.5 -63t74.5 -15q98 0 158 142l91 -42q-43 -102 -80 -147q-72 -85 -179 -85q-49 0 -96.5 16.5t-146.5 66.5q-130 67 -187 67q-79 0 -149 -147z" />
    <glyph glyph-name="approxequal" unicode="&#x2248;" 
d="M212 389l-90 42q47 105 79 149q65 88 167 88q89 0 227 -71q94 -49 132.5 -63.5t73.5 -14.5q98 0 158 141l91 -42q-45 -104 -80 -146q-72 -85 -179 -85q-50 0 -98 16.5t-145 66.5q-130 66 -187 66q-43 0 -77 -33t-72 -114zM212 725l-90 42q46 104 79 149q64 88 167 88
q89 0 227 -72q92 -48 131.5 -63t74.5 -15q47 0 88.5 37t69.5 105l91 -42q-45 -104 -80 -147q-72 -85 -179 -85q-49 0 -97 16.5t-146 66.5q-130 67 -187 67q-79 0 -149 -147z" />
    <glyph glyph-name="notequal" unicode="&#x2260;" 
d="M158 451v137h306l105 197h-411v137h474l142 274l109 -52l-118 -222h243v-137h-306l-105 -197h411v-137h-474l-142 -274l-110 52l118 222h-242z" />
    <glyph glyph-name="lessequal" unicode="&#x2264;" 
d="M131 0v135h876v-135h-876zM320 725l687 -309v-145l-876 402v89l876 418v-145z" />
    <glyph glyph-name="greaterequal" unicode="&#x2265;" 
d="M164 0v135h876v-135h-876zM851 725l-687 310v145l876 -403v-89l-876 -417v145z" />
    <glyph glyph-name="dotmath" unicode="&#x22c5;" horiz-adv-x="515" 
d="M258 811q58 0 93 -34t35 -90t-35 -90t-93 -34q-59 0 -94 34t-35 92q0 54 35.5 88t93.5 34z" />
    <glyph glyph-name="lozenge" unicode="&#x25ca;" 
d="M-21 731l606 818l608 -818l-608 -817zM142 731l443 -591l445 591l-445 591z" />
    <glyph glyph-name="openbullet" unicode="&#x25e6;" 
d="M586 1012q171 0 271 -120q75 -89 75 -209q0 -119 -75 -208q-100 -120 -270 -120q-172 0 -272 120q-75 89 -75 212q0 118 75 205q103 120 271 120zM586 908q-118 0 -184 -83q-48 -60 -48 -139q0 -84 48 -144q66 -83 185 -83q118 0 183 83q48 60 48 141q0 82 -48 142
q-66 83 -184 83z" />
    <glyph glyph-name="glyph172" 
 />
    <glyph glyph-name="glyph210" horiz-adv-x="451" 
 />
    <glyph glyph-name="Grave" horiz-adv-x="1024" 
d="M517 1638l-242 297h209l152 -297h-119z" />
    <glyph glyph-name="Circumflex" horiz-adv-x="1024" 
d="M512 1827l-159 -184h-175l286 291h96l286 -291h-175z" />
    <glyph glyph-name="Caron" horiz-adv-x="1024" 
d="M512 1739l159 184h175l-286 -291h-96l-286 291h175z" />
    <glyph glyph-name="Breve" horiz-adv-x="1024" 
d="M208 1915h115q0 -51 22 -84q24 -38 61 -53t106 -15q68 0 105.5 15t61.5 53q22 33 22 84h115q-1 -117 -54 -180q-77 -91 -250 -91q-153 0 -227.5 66.5t-76.5 204.5z" />
    <glyph glyph-name="glyph543" horiz-adv-x="1024" 
d="M512 -147q50 0 82.5 -31t32.5 -80t-32.5 -80t-82.5 -31q-51 0 -83 31.5t-32 81.5q0 47 32.5 78t82.5 31z" />
    <glyph glyph-name="Tilde" horiz-adv-x="1024" 
d="M294 1668h-100q15 104 39 146q45 80 126 80q63 0 164 -64q86 -54 126 -54q61 0 80 108h100q-8 -90 -31 -137q-46 -90 -131 -90q-70 0 -177 66q-83 51 -117 51q-58 0 -79 -106z" />
    <glyph glyph-name="Hungarumlaut" horiz-adv-x="1024" 
d="M288 1638l113 297h204l-201 -297h-116zM590 1638l113 297h204l-201 -297h-116z" />
    <glyph glyph-name="Cedilla" horiz-adv-x="1024" 
d="M332 -448l104 329h203l-188 -329h-119z" />
    <glyph glyph-name="Ogonek" horiz-adv-x="1024" 
d="M844 0h127q-116 -72 -151 -110t-35 -92q0 -81 84 -81q38 0 83 18l40 -98q-82 -32 -143 -32q-94 0 -150 47.5t-56 126.5q0 76 46.5 127t154.5 94z" />
    <glyph glyph-name="Macron" horiz-adv-x="1024" 
d="M205 1708v129h615v-129h-615z" />
    <glyph glyph-name="Commaaccent" horiz-adv-x="1024" 
d="M332 -448l103 329h204l-187 -329h-120z" />
    <glyph glyph-name="Comma.high" horiz-adv-x="343" 
d="M7 1019l147 550h190l-209 -550h-128z" />
    <glyph glyph-name="dieresis.alt" horiz-adv-x="2048" 
 />
    <glyph glyph-name="nine.numerator" horiz-adv-x="807" 
d="M512 925q-69 -18 -126 -18q-127 0 -207 63q-101 80 -101 216q0 135 87 211q90 78 241 78q152 0 239.5 -77.5t87.5 -212.5q0 -129 -87.5 -271.5t-282.5 -329.5h-150q211 212 299 341zM405 1378q-90 0 -143 -52.5t-53 -140.5q0 -82 47 -133q54 -59 150 -59q88 0 142 52
t54 138q0 85 -47 136q-54 59 -150 59z" />
    <glyph glyph-name="zero.numerator" horiz-adv-x="807" 
d="M403 1475q193 0 273 -141q63 -110 63 -312q0 -220 -75 -331q-82 -121 -261 -121q-192 0 -273 141q-63 110 -63 317q0 215 75 326q82 121 261 121zM402 1373q-204 0 -204 -347q0 -354 204 -354q205 0 205 351q0 350 -205 350z" />
    <glyph glyph-name="one.denominator" horiz-adv-x="807" 
d="M367 0v739l-147 -65l-40 97l245 109h75v-880h-133z" />
    <glyph glyph-name="two.denominator" horiz-adv-x="807" 
d="M63 0v68l321 335q129 135 129 237q0 68 -48 108.5t-128 40.5q-107 0 -204 -57l-41 99q116 61 260 61q138 0 215.5 -64.5t77.5 -179.5q0 -150 -153 -299l-253 -247h432v-102h-608z" />
    <glyph glyph-name="three.denominator" horiz-adv-x="807" 
d="M198 409v101h122q101 0 144 36q49 40 49 107q0 62 -49 99t-132 37q-102 0 -195 -58l-47 90q109 71 265 71q137 0 214 -60q78 -59 78 -173q0 -69 -23.5 -107.5t-94.5 -87.5q11 -7 16 -10q70 -43 91 -75q33 -53 33 -131q0 -114 -67 -181q-80 -80 -253 -80q-180 0 -286 57
l41 101q95 -55 236 -55q98 0 146 47q46 44 46 114q0 86 -74 132q-41 26 -131 26h-129z" />
    <glyph glyph-name="four.denominator" horiz-adv-x="807" 
d="M506 0v184h-432v71l300 624h139l-295 -593h288v272h120v-272h109v-102h-109v-184h-120z" />
    <glyph glyph-name="five.denominator" horiz-adv-x="807" 
d="M123 438l76 441h451v-103h-348l-41 -228q63 23 149 23q152 0 223 -81q64 -73 64 -198q0 -149 -85.5 -227t-249.5 -78q-177 0 -298 57l42 105q97 -59 247 -59q99 0 154 53q53 53 53 141q0 89 -49 137.5t-139 48.5q-91 0 -159 -49z" />
    <glyph glyph-name="two.numerator" horiz-adv-x="807" 
d="M63 584v68l321 334q129 135 129 237q0 68 -48 108.5t-128 40.5q-109 0 -204 -56l-41 99q116 60 260 60q138 0 215.5 -64.5t77.5 -179.5q0 -149 -153 -298l-253 -247h432v-102h-608z" />
    <glyph glyph-name="one.numerator" horiz-adv-x="807" 
d="M367 584v739l-147 -65l-40 97l245 109h75v-880h-133z" />
    <glyph glyph-name="yen.fitted" horiz-adv-x="1162" 
d="M492 0v342h-334v112h334v150h-334v112h278l-431 746h205l372 -702l372 702h204l-431 -746h278v-112h-333v-150h333v-112h-333v-342h-180z" />
    <glyph glyph-name="Euro.fitted" horiz-adv-x="1328" 
d="M268 512h-193l36 111h145q-4 71 -4 97q0 33 3 76h-180l36 111h154q31 208 130 349q160 228 466 228q231 0 387 -101l-52 -136q-136 90 -308 90q-237 0 -344 -168q-75 -115 -94 -262h609l-36 -111h-581q-4 -56 -4 -82q0 -31 4 -91h508l-36 -111h-461q16 -114 67 -202
q109 -186 353 -186q213 0 366 115l59 -139q-72 -56 -191.5 -89.5t-245.5 -33.5q-250 0 -401.5 137t-191.5 398z" />
    <glyph glyph-name="florin.fitted" horiz-adv-x="941" 
d="M388 836h-122l20 130h126l29 162q19 106 39 159t55 92q86 96 219 96q56 0 111 -19l-33 -127q-38 12 -60 12q-64 0 -99.5 -45.5t-55.5 -152.5l-32 -177h180l-20 -130h-180l-165 -904q-25 -134 -41 -173q-80 -191 -266 -191q-46 0 -116 21l34 130q26 -10 46 -10
q74 0 114 58q31 45 48 142z" />
    <glyph glyph-name="cent.fitted" horiz-adv-x="1141" 
d="M539 219q-147 23 -241 100q-162 134 -162 393q0 246 130 380q130 133 352 133h37l25 237h121l-30 -261q10 -3 15 -4q74 -20 102.5 -32.5t68.5 -42.5l-58 -119q-32 25 -53 34t-96 32l-70 -722q140 9 244 74l60 -123q-145 -87 -327 -89l-27 -254h-120zM565 374l68 713
q-150 -13 -216 -72q-114 -99 -114 -298q0 -182 116 -280z" />
    <glyph glyph-name="dollar.fitted" horiz-adv-x="1158" 
d="M517 706q-127 51 -196 98q-168 116 -168 311q0 167 119 256q121 91 315 91q6 0 30 -1l21 187h125l-26 -205q149 -25 252 -87l-62 -126q-59 33 -97.5 46t-118.5 27l-46 -477q183 -71 261 -124q159 -109 159 -306q0 -140 -75 -240q-117 -157 -451 -155l-26 -233h-125
l29 246q-142 21 -215.5 46t-137.5 74l66 132q105 -82 314 -110zM549 874l41 444q-110 -2 -166 -28q-111 -53 -111 -164q0 -121 122 -197q26 -17 114 -55zM634 659l-48 -513q145 2 215 40q118 63 118 193q0 135 -138 214q-38 22 -147 66z" />
    <glyph glyph-name="sterling.fitted" horiz-adv-x="1167" 
d="M141 0v102q106 80 141 128q67 91 67 202q0 61 -26 174q-9 39 -13 55h-183v132h145q-39 159 -39 272q0 205 119 318q107 101 312 101q237 0 396 -106l-63 -130q-125 89 -303 89q-287 0 -287 -268q0 -114 43 -276h414v-132h-380q39 -157 39 -231q0 -95 -65 -190
q-10 -16 -81 -96h705v-144h-941z" />
    <glyph glyph-name="zero.fitted" horiz-adv-x="1207" 
d="M603 1484q289 0 412 -235q96 -183 96 -518q0 -367 -115 -551q-125 -202 -393 -202q-289 0 -412 235q-96 184 -96 526q0 358 115 543q126 202 393 202zM603 1339q-334 0 -334 -601q0 -301 76 -452q83 -163 258 -163q189 0 270 190q64 149 64 418q0 293 -76 445
q-81 163 -258 163z" />
    <glyph glyph-name="nine.fitted" horiz-adv-x="1166" 
d="M793 604q-102 -60 -236 -60q-218 0 -349 142q-117 126 -117 322q0 217 133 345q135 131 362 131t363 -131q132 -128 132 -349q0 -279 -227 -602q-135 -193 -331 -402h-210q341 366 480 604zM586 1346q-160 0 -246 -103q-76 -92 -76 -236q0 -142 74 -228q83 -97 246 -97
t249 99q76 87 76 222q0 148 -76 240q-86 103 -247 103z" />
    <glyph glyph-name="eight.fitted" horiz-adv-x="1139" 
d="M340 770q-79 36 -127 82q-90 85 -90 238q0 183 116 287q120 107 330 107q211 0 331 -107q116 -104 116 -287q0 -118 -50.5 -192.5t-166.5 -127.5q271 -103 271 -372q0 -193 -134 -306q-136 -114 -367 -114t-367 114q-134 112 -134 307q0 268 272 371zM569 1344
q-153 0 -224 -76q-63 -66 -63 -173q0 -119 68 -188q76 -77 220 -77q142 0 218 77q68 69 68 184q0 124 -73.5 188.5t-213.5 64.5zM569 695q-160 0 -251 -88q-78 -76 -78 -199q0 -131 77 -206q87 -84 250 -84q167 0 254 84q77 75 77 201q0 129 -78 204q-92 88 -251 88z" />
    <glyph glyph-name="seven.fitted" horiz-adv-x="1005" 
d="M136 0l605 1315h-682v147h875v-81l-596 -1381h-202z" />
    <glyph glyph-name="six.fitted" horiz-adv-x="1166" 
d="M373 858q102 60 236 60q218 0 349 -142q117 -126 117 -322q0 -217 -133 -345q-135 -131 -362 -131t-363 131q-132 128 -132 349q0 279 227 602q137 196 331 402h210q-343 -366 -480 -604zM580 780q-161 0 -247 -99q-76 -87 -76 -222q0 -147 76 -240q85 -103 247 -103
q160 0 246 103q76 93 76 235q0 141 -76 227q-88 99 -246 99z" />
    <glyph glyph-name="five.fitted" horiz-adv-x="1116" 
d="M141 741l107 721h689v-147h-554l-66 -424q77 31 124 40.5t121 9.5q234 0 342 -135q97 -121 97 -326q0 -239 -135 -376q-123 -126 -368 -126q-271 0 -446 90l52 151q44 -32 107 -52q133 -42 273 -42q162 0 249 93q86 91 86 249q0 160 -79 245t-228 85q-153 0 -255 -81z
" />
    <glyph glyph-name="Dieresis" horiz-adv-x="1024" 
d="M292 1881q50 0 82 -31t32 -79q0 -49 -32 -80t-82 -31t-82 31.5t-32 80.5q0 47 32.5 78t81.5 31zM733 1881q50 0 82 -31t32 -79q0 -49 -32 -80t-81 -31q-51 0 -83 31t-32 81q0 47 32.5 78t81.5 31z" />
    <glyph glyph-name="four.fitted" horiz-adv-x="1137" 
d="M743 0v313h-672v99l466 1050h180l-461 -1004h487v461h157v-461h170v-145h-170v-313h-157z" />
    <glyph glyph-name="three.fitted" horiz-adv-x="1080" 
d="M235 693v144h178q93 0 144.5 13.5t90.5 49.5q79 70 79 192q0 109 -67 172q-79 72 -225 72q-175 0 -303 -91l-57 127q161 112 392 112q205 0 320 -99q117 -101 117 -283q0 -114 -53 -199.5t-154 -131.5q241 -99 241 -362q0 -184 -101 -297q-119 -134 -379 -134
q-276 0 -426 90l50 144q62 -41 157.5 -64t205.5 -23q161 0 238 82q73 78 73 205q0 153 -119 235q-66 46 -214 46h-188z" />
    <glyph glyph-name="two.fitted" horiz-adv-x="1072" 
d="M21 0v94l499 565q84 94 152 219q51 95 51 195q0 121 -73 190q-78 74 -213 74q-179 0 -312 -103l-57 136q176 114 390 114t331 -117q108 -107 108 -282q0 -136 -69 -263q-71 -133 -165 -231l-421 -444h696v-147h-917z" />
    <glyph glyph-name="one.fitted" horiz-adv-x="695" 
d="M306 0v1263l-235 -113l-49 136l365 179h95v-1465h-176z" />
    <glyph glyph-name="six.denominator" horiz-adv-x="807" 
d="M295 538q70 18 125 18q128 0 208 -63q101 -80 101 -217q0 -135 -87 -211q-90 -78 -241 -78q-152 0 -239.5 77.5t-87.5 213.5q0 130 84 266t286 335h150q-206 -206 -299 -341zM402 470q-89 0 -143 -52t-54 -138q0 -85 47 -137q54 -59 150 -59q89 0 142.5 52.5t53.5 140.5
t-53.5 140.5t-142.5 52.5z" />
    <glyph glyph-name="seven.denominator" horiz-adv-x="807" 
d="M150 0l388 776h-423v103h574v-60l-384 -819h-155z" />
    <glyph glyph-name="eight.denominator" horiz-adv-x="807" 
d="M234 463q-127 52 -127 191q0 111 77 174q79 64 220 64t218.5 -63t77.5 -178q0 -136 -127 -188q162 -67 162 -221q0 -120 -88 -187q-90 -68 -243 -68q-154 0 -244 68q-88 67 -88 188q0 153 162 220zM404 798q-92 0 -137 -44q-38 -38 -38 -100q0 -71 46.5 -111.5
t128.5 -40.5q81 0 127.5 40.5t46.5 110.5t-45 107.5t-129 37.5zM404 414q-91 0 -146 -45t-55 -121q0 -78 53 -121.5t148 -43.5q94 0 147 43.5t53 119.5q0 77 -54 122.5t-146 45.5z" />
    <glyph glyph-name="nine.denominator" horiz-adv-x="807" 
d="M512 341q-69 -18 -126 -18q-127 0 -207 63q-101 80 -101 216t87 212q90 78 241 78q152 0 239.5 -77.5t87.5 -213.5q0 -129 -87.5 -271.5t-282.5 -329.5h-150q211 213 299 341zM405 795q-89 0 -142.5 -52.5t-53.5 -140.5q0 -83 47 -134q54 -59 150 -59q88 0 142 52t54 139
q0 85 -47 136q-54 59 -150 59z" />
    <glyph glyph-name="seven.numerator" horiz-adv-x="807" 
d="M150 584l388 775h-423v103h574v-60l-384 -818h-155z" />
    <glyph glyph-name="oneone" horiz-adv-x="1837" 
d="M342 584v739l-147 -65l-40 97l245 109h75v-880h-133zM1359 0v739l-147 -65l-40 97l245 109h75v-880h-133zM362 0l855 1462h152l-855 -1462h-152z" />
    <glyph glyph-name="eight.numerator" horiz-adv-x="807" 
d="M234 1047q-127 52 -127 191q0 111 77 173q79 64 220 64t218.5 -63t77.5 -177q0 -136 -127 -188q162 -67 162 -221q0 -120 -88 -187q-90 -68 -243 -68q-154 0 -244 68q-88 67 -88 188q0 153 162 220zM404 1381q-92 0 -137 -44q-38 -38 -38 -100q0 -71 46.5 -111.5
t128.5 -40.5q81 0 127.5 40.5t46.5 110.5t-45 107.5t-129 37.5zM404 997q-92 0 -146.5 -45t-54.5 -120q0 -78 53 -121.5t148 -43.5q94 0 147 43t53 120q0 76 -54 121.5t-146 45.5z" />
    <glyph glyph-name="zero.denominator" horiz-adv-x="807" 
d="M403 892q193 0 273 -141q63 -110 63 -311q0 -221 -75 -332q-82 -121 -261 -121q-192 0 -273 141q-63 110 -63 317q0 215 75 326q82 121 261 121zM402 790q-204 0 -204 -347q0 -354 204 -354q205 0 205 351q0 350 -205 350z" />
    <glyph glyph-name="three.numerator" horiz-adv-x="807" 
d="M198 992v101h122q101 0 144 36q49 40 49 107q0 62 -49 99t-132 37q-101 0 -195 -58l-47 90q109 71 265 71q137 0 214 -60q78 -59 78 -173q0 -69 -23.5 -107.5t-94.5 -87.5q11 -7 16 -10q70 -43 91 -75q33 -53 33 -131q0 -114 -67 -181q-80 -80 -253 -80q-179 0 -286 57
l41 101q93 -55 236 -55q98 0 146 47q46 44 46 114q0 86 -74 132q-41 26 -131 26h-129z" />
    <glyph glyph-name="four.numerator" horiz-adv-x="807" 
d="M506 584v184h-432v71l300 623h139l-295 -592h288v272h120v-272h109v-102h-109v-184h-120z" />
    <glyph glyph-name="five.numerator" horiz-adv-x="807" 
d="M123 1022l76 440h451v-103h-348l-41 -228q64 23 149 23q152 0 223 -81q64 -73 64 -198q0 -149 -85.5 -227t-249.5 -78q-178 0 -298 57l42 106q96 -60 247 -60q99 0 154 53q53 53 53 141q0 89 -49 137.5t-139 48.5t-159 -49z" />
    <glyph glyph-name="idotaccent" horiz-adv-x="477" 
d="M152 0v973h173v-973h-173zM239 1391q51 0 82.5 -30t31.5 -80q0 -51 -31 -81t-83 -30q-53 0 -84 30t-31 82q0 49 31.5 79t83.5 30z" />
    <glyph glyph-name="Dotaccent" horiz-adv-x="1024" 
d="M512 1881q50 0 82.5 -31t32.5 -80q0 -48 -32.5 -79.5t-82.5 -31.5q-51 0 -83 31.5t-32 81.5q0 47 33 78t82 31z" />
    <glyph glyph-name="six.numerator" horiz-adv-x="807" 
d="M295 1121q69 18 125 18q128 0 208 -63q101 -80 101 -217q0 -135 -87 -211q-90 -78 -241 -78q-152 0 -239.5 77.5t-87.5 213.5q0 130 84 266t286 335h150q-206 -206 -299 -341zM402 1053q-89 0 -143 -52t-54 -138q0 -85 47 -137q54 -59 150 -59q89 0 142.5 52.5
t53.5 140.5t-53.5 140.5t-142.5 52.5z" />
    <glyph glyph-name="Ring" horiz-adv-x="1024" 
d="M512 2010q101 0 165 -61t64 -156t-64 -156t-164 -61q-102 0 -166 61t-64 159q0 93 64 153q65 61 165 61zM512 1903q-50 0 -79 -29t-29 -78q0 -53 29 -83t79 -30t79 30t29 81q0 50 -29 79.5t-79 29.5z" />
    <glyph glyph-name="Acute" horiz-adv-x="1024" 
d="M399 1638l151 297h210l-242 -297h-119z" />
    </font>
</defs>
</svg>
